/* XPM */
static xpm_row_t const Number1_xpm[] = {
/* columns rows colors chars-per-pixel */
"23 32 78 1 ",
"  c #999D16",
". c #94941E",
"X c #999A1B",
"o c #A59B1E",
"O c #BDBD0C",
"+ c #AAA711",
"@ c #A5A31E",
"# c #B2B214",
"$ c #B3B018",
"% c #B3B619",
"& c #B5B11F",
"* c #9A9321",
"= c #9E9629",
"- c #A89D25",
"; c #BEBA21",
": c #BCB431",
"> c #C6C70A",
", c #C1C017",
"< c #C3C71C",
"1 c #C9C71F",
"2 c #CECE1B",
"3 c #D4D217",
"4 c #D1D11B",
"5 c #D3D01D",
"6 c #D9DE1B",
"7 c #FFFF05",
"8 c #FFFF06",
"9 c #FFFD08",
"0 c #FFFF08",
"q c #FFFE09",
"w c #F8F80C",
"e c #FFFD0D",
"r c #FFFF0D",
"t c #FFFC0E",
"y c #FFFE0F",
"u c #FFFF0F",
"i c #E8E31A",
"p c #E9E719",
"a c #F0EE14",
"s c #F1F113",
"d c #FFF517",
"f c #FDF911",
"g c #FFFC10",
"h c #FFFD10",
"j c #FFFC11",
"k c #FEFE10",
"l c #FFFF13",
"z c #FFFA15",
"x c #FEFA17",
"c c #FFFF15",
"v c #FAF41C",
"b c #FFF819",
"n c #FFFA19",
"m c #FFFB19",
"M c #FFFB1B",
"N c #FBFD1B",
"B c #FCFC19",
"V c #FFFD18",
"C c #FFFE18",
"Z c #FFFE19",
"A c #FFFD1B",
"S c #FFFF1A",
"D c #FFFE1B",
"F c #FFFE1C",
"G c #FFFF1D",
"H c #C9C625",
"J c #C8C42C",
"K c #D5C925",
"L c #C8D124",
"P c #E6E122",
"I c #EDE326",
"U c #F3ED2E",
"Y c #FFFE21",
"T c #FFFF24",
"R c #F1ED31",
"E c #F0F135",
"W c #F3F339",
"Q c None",
/* pixels */
"QQQQQQQQQQQQQQQQQQQQQQQ",
"QQQQQQQQQQQQQQQQQQQQQQQ",
"QQQQQQQQQQQQQWLQQQQQQQQ",
"QQQQQQQQQQQQRr,QQQQQQQQ",
"QQQQQQQQQQQ-FyoQQQQQQQQ",
"QQQQQQQQQQQ;mtQQQQQQQQQ",
"QQQQQQQQQQQ69wQQQQQQQQQ",
"QQQQQQQQQQQsjpQQQQQQQQQ",
"QQQQQQQQQQQxV2QQQQQQQQQ",
"QQQQQQQQQQ+bc%QQQQQQQQQ",
"QQQQQQQQQQOnc QQQQQQQQQ",
"QQQQQQQQQQ>ASQQQQQQQQQQ",
"QQQQQQQQQQiYlQQQQQQQQQQ",
"QQQQQQQQQQDT5QQQQQQQQQQ",
"QQQQQQQQQQ#JQQQQQQQQQQQ",
"QQQQQQQQQQQQQQQQQQQQQQQ",
"QQQQQQQQQQQQQQQQQQQQQQQ",
"QQQQQQQQQ.N4QQQQQQQQQQQ",
"QQQQQQQQQUeIQQQQQQQQQQQ",
"QQQQQQQQQCdKQQQQQQQQQQQ",
"QQQQQQQQQ8g$QQQQQQQQQQQ",
"QQQQQQQQ@7uXQQQQQQQQQQQ",
"QQQQQQQQHjkQQQQQQQQQQQQ",
"QQQQQQQQPnaQQQQQQQQQQQQ",
"QQQQQQQQvz3QQQQQQQQQQQQ",
"QQQQQQQQMq1QQQQQQQQQQQQ",
"QQQQQQQ=G0&QQQQQQQQQQQQ",
"QQQQQQQ:Zh*QQQQQQQQQQQQ",
"QQQQQQQQBfQQQQQQQQQQQQQ",
"QQQQQQQQ<EQQQQQQQQQQQQQ",
"QQQQQQQQQQQQQQQQQQQQQQQ",
"QQQQQQQQQQQQQQQQQQQQQQQ"
};
