/* XPM */
static xpm_row_t const Number6_xpm[] = {
/* columns rows colors chars-per-pixel */
"23 32 202 2 ",
"   c #5F581D",
".  c #7A7528",
"X  c #868214",
"o  c #9E9711",
"O  c #989B11",
"+  c #9E9D19",
"@  c #A99C16",
"#  c #ABB206",
"$  c #B0A81B",
"%  c #B8B219",
"&  c #908D20",
"*  c #948924",
"=  c #98942B",
"-  c #9E9A2B",
";  c #9F9F32",
":  c #9F9A3A",
">  c #A59833",
",  c #A49D30",
"<  c #A19739",
"1  c #ABA421",
"2  c #ABA72D",
"3  c #AEAA2C",
"4  c #ABAF2F",
"5  c #B2A027",
"6  c #B0AC2D",
"7  c #B1AD2F",
"8  c #B1AE2F",
"9  c #B4B120",
"0  c #B8B422",
"q  c #BEBB28",
"w  c #BCBF28",
"e  c #BCBE2D",
"r  c #A6A230",
"t  c #AAA637",
"y  c #A8A930",
"u  c #B7B330",
"i  c #B6B531",
"p  c #C1BB21",
"a  c #C3BD20",
"s  c #C1BC22",
"d  c #C1BF27",
"f  c #B8C30F",
"g  c #BEC00F",
"h  c #D4D60C",
"j  c #CAC716",
"k  c #CECC17",
"l  c #C2C119",
"z  c #C7C01B",
"x  c #C5C01D",
"c  c #CAC51E",
"v  c #D4D412",
"b  c #DEDA13",
"n  c #DDDE17",
"m  c #D6D61B",
"M  c #D2D01E",
"N  c #D3D51F",
"B  c #E3D815",
"V  c #E7DB18",
"C  c #E3DE1B",
"Z  c #DFE10E",
"A  c #DFEA19",
"S  c #E8E10C",
"D  c #F0E909",
"F  c #F4F409",
"G  c #F3F10D",
"H  c #FFF10D",
"J  c #FFF20C",
"K  c #FFF20D",
"L  c #FCF30F",
"P  c #FFF50E",
"I  c #FFF50F",
"U  c #FFF70E",
"Y  c #FFF60F",
"T  c #FFF90A",
"R  c #FFFF0A",
"E  c #E8E312",
"W  c #ECE11F",
"Q  c #ECE818",
"!  c #EFEA1C",
"~  c #F5EE11",
"^  c #FFEB16",
"/  c #F6E41D",
"(  c #F5EB1B",
")  c #F6EF1A",
"_  c #F0EE1D",
"`  c #F8ED1B",
"'  c #F9ED1B",
"]  c #F8EA1E",
"[  c #E9F010",
"{  c #F3F111",
"}  c #F7F317",
"|  c #FAF311",
" . c #FFF310",
".. c #FFF313",
"X. c #FFF611",
"o. c #FFF711",
"O. c #FFF712",
"+. c #FFF713",
"@. c #F9F214",
"#. c #F9F314",
"$. c #FAF314",
"%. c #FFF314",
"&. c #FFF215",
"*. c #FFF017",
"=. c #FEF514",
"-. c #FFF415",
";. c #FFF515",
":. c #FFF614",
">. c #FFF615",
",. c #FFF715",
"<. c #FFF516",
"1. c #FFF517",
"2. c #FFF616",
"3. c #FFF810",
"4. c #FFFA10",
"5. c #FEFB13",
"6. c #FFFE12",
"7. c #FFFF13",
"8. c #FFFA14",
"9. c #FFF917",
"0. c #FFFF17",
"q. c #F0F319",
"w. c #F7F219",
"e. c #F7F319",
"r. c #F5F01A",
"t. c #F8F01A",
"y. c #FFF018",
"u. c #FFF318",
"i. c #FFF01B",
"p. c #F8F418",
"a. c #FAF41A",
"s. c #FFF418",
"d. c #FFF519",
"f. c #FFF618",
"g. c #FFF41A",
"h. c #FFF51A",
"j. c #FFF61A",
"k. c #FFF71B",
"l. c #FFF31E",
"z. c #F9F51C",
"x. c #FCF51F",
"c. c #FFF51F",
"v. c #FFF71E",
"b. c #F9FB19",
"n. c #FFF918",
"m. c #FFF819",
"M. c #FDFA18",
"N. c #FEFA18",
"B. c #FFFA19",
"V. c #FFFF18",
"C. c #FFFF19",
"Z. c #FFF91E",
"A. c #FFFA1F",
"S. c #FAFD1D",
"D. c #FFFF1D",
"F. c #FFFC1E",
"G. c #C6C522",
"H. c #C1C024",
"J. c #C8C220",
"K. c #CFCB24",
"L. c #CBC72B",
"P. c #CAC32F",
"I. c #CDC92B",
"U. c #D1CA23",
"Y. c #D3CE20",
"T. c #D6CE20",
"R. c #D5CB24",
"E. c #D2C82B",
"W. c #D2D022",
"Q. c #CEC730",
"!. c #C9CD39",
"~. c #D1CD39",
"^. c #ECE42E",
"/. c #E3EE2A",
"(. c #F0E326",
"). c #FFEB20",
"_. c #F8EC21",
"`. c #FFEB27",
"'. c #FFEC28",
"]. c #F9F020",
"[. c #FFF121",
"{. c #FFF222",
"}. c #F8F522",
"|. c #FFF421",
" X c #FFF327",
".X c #FBF624",
"XX c #FFF524",
"oX c #F3F329",
"OX c #FCF428",
"+X c #FFF62A",
"@X c #FFF72B",
"#X c #FFF12C",
"$X c #FFF72F",
"%X c #FCFA2B",
"&X c #FFFF28",
"*X c #FFFC2E",
"=X c #F5ED32",
"-X c #EFF138",
";X c #FFFC32",
":X c #BEAD43",
">X c #D8D248",
",X c None",
/* pixels */
",X,X,X,X,X,X,X,X,X,X,X,X,X,X,X,X,X,X,X,X,X,X,X",
",X,X,X,X,X,X,X,X,X,X,X,X,X,X,X,X,X,X,X,X,X,X,X",
",X,X,X,X,X,X,X,Xb.F G t._.` ].OX) { [ /.,X,X,X",
",X,X,X,X,X,Xy 1 (.+Xc...%.i.y.&.X.3.*X~.,X,X,X",
",X,X,X,X,X,XV.W o L.K.v h Z C T.R.Q.: ,X,X,X,X",
",X,X,X,X,X,X6.F.,X,X,X,X,X,X,X,X,X,X,X,X,X,X,X",
",X,X,X,X,X& R $X,X,X,X,X,X,X,X,X,X,X,X,X,X,X,X",
",X,X,X,X,X% T .X,X,X,X,X,X,X,X,X,X,X,X,X,X,X,X",
",X,X,X,X,XB H _ ,X,X,X,X,X,X,X,X,X,X,X,X,X,X,X",
",X,X,X,X,X] I W.,X,X,X,X,X,X,X,X,X,X,X,X,X,X,X",
",X,X,X,X,Xc.O.i ,X,X,X,X,X,X,X,X,X,X,X,X,X,X,X",
",X,X,X,X,Xv.B.,X,X,X,X,X,X,X,X,X,X,X,X,X,X,X,X",
",X,X,X,Xf i.n.,X,X,X,X,X,X,X,X,X,X,X,X,X,X,X,X",
",X,X,X,Xj N.oX,X,X,X,X,X,X,X,X,X,X,X,X,X,X,X,X",
",X,X,X,XG.0.H.,X,X,X,X,X,X,X,X,X,X,X,X,X,X,X,X",
",X,X,X,X,X# $ ( a.r.w.e.} p.L z.A ,X,X,X,X,X,X",
",X,X,X,X,X  ;X4.;.1.>.:.+.Y `.o.S.,X,X,X,X,X,X",
",X,X,X,Xe I.* d s p a J.x c U.z @ n w ,X,X,X,X",
",X,X,X+ C.x.,X,X,X,X,X,X,X,X,X,X:X8.%X,X,X,X,X",
",X,X,XY.P ! ,X,X,X,X,X,X,X,X,X,XS K ^.,X,X,X,X",
",X,X,XV  .m ,X,X,X,X,X,X,X,X,X,XJ *.M ,X,X,X,X",
",X,X,X' [.g ,X,X,X,X,X,X,X,X,X,X,.-.9 ,X,X,X,X",
",X,X,XA.#XO ,X,X,X,X,X,X,X,X,X- h.n.= ,X,X,X,X",
",X,X,Xg.@X,X,X,X,X,X,X,X,X,X,X0 {.9.,X,X,X,X,X",
",X,X4 |.2.,X,X,X,X,X,X,X,X,X,Xb '.=.,X,X,X,X,X",
",X,XE.u.D ,X,X,X,X,X,X,X,X,X,XQ ).E ,X,X,X,X,X",
",X,X/ 5.!.,X,X,X,X,X,X,X,X,X,X}.^ P.,X,X,X,X,X",
",X,Xq.-X. ,X,X,X,X,X,X,X,X,X,X=XU > ,X,X,X,X,X",
",X,XN X l M. Xl.m.@.~ #.$.| k 5 D.,X,X,X,X,X,X",
",X,X,X>X&XZ.XX2.<.k.f.j.s.d.7.q ,X,X,X,X,X,X,X",
",X,X,X,X; < , r 7 8 2 6 u 3 t ,X,X,X,X,X,X,X,X",
",X,X,X,X,X,X,X,X,X,X,X,X,X,X,X,X,X,X,X,X,X,X,X"
};
