/* XPM */
static xpm_row_t const Number8_xpm[] = {
/* columns rows colors chars-per-pixel */
"23 32 232 2 ",
"   c #7B751A",
".  c #847D2B",
"X  c #857536",
"o  c #9E990F",
"O  c #898E10",
"+  c #998A1C",
"@  c #9B8F1F",
"#  c #8F9119",
"$  c #8C941A",
"%  c #969516",
"&  c #989610",
"*  c #9F9717",
"=  c #989811",
"-  c #99961B",
";  c #95981F",
":  c #999B1A",
">  c #999D1A",
",  c #9F9B1D",
"<  c #A09E11",
"1  c #9FA406",
"2  c #9FA014",
"3  c #AAA90F",
"4  c #B4AA0E",
"5  c #BCB70D",
"6  c #B1B80E",
"7  c #A3A411",
"8  c #A2A41B",
"9  c #ADA418",
"0  c #AEAC1F",
"q  c #B3AA1B",
"w  c #B5A91A",
"e  c #AEB117",
"r  c #AFB21F",
"t  c #B4B513",
"y  c #B5B315",
"u  c #B0B417",
"i  c #BFB917",
"p  c #BAB11F",
"a  c #BEBF1A",
"s  c #BCBA1D",
"d  c #8E8C2A",
"f  c #9E9721",
"g  c #9F9B22",
"h  c #95972B",
"j  c #A09722",
"k  c #A5A621",
"l  c #A9A325",
"z  c #AEA822",
"x  c #AEAB24",
"c  c #B3A420",
"v  c #B9A724",
"b  c #B0AA25",
"n  c #BCAE25",
"m  c #BAA728",
"M  c #B7B720",
"N  c #B9BA20",
"B  c #B8B62F",
"V  c #B3B82F",
"C  c #B1AE30",
"Z  c #BBBA30",
"A  c #C8BE2F",
"S  c #C2B936",
"D  c #C5BB34",
"F  c #C7BF35",
"G  c #C5BE37",
"H  c #C8BE35",
"J  c #C1B33D",
"K  c #BBC72C",
"L  c #C6C10F",
"P  c #D9D00D",
"I  c #DAD70E",
"U  c #DDDA09",
"Y  c #DBDC08",
"T  c #C0C215",
"R  c #C2C514",
"E  c #CDC716",
"W  c #CECF1B",
"Q  c #DAD615",
"!  c #DBD910",
"~  c #D1D01D",
"^  c #DFD71F",
"/  c #E3DA18",
"(  c #E2DA1C",
")  c #FCEE0E",
"_  c #FCEF0F",
"`  c #FFF407",
"'  c #FFFF04",
"]  c #FFFF07",
"[  c #FDF109",
"{  c #FFF50B",
"}  c #FAF20E",
"|  c #FDF30D",
" . c #FCF10F",
".. c #FDF10F",
"X. c #FAF50D",
"o. c #FFF60D",
"O. c #FFF909",
"+. c #FFFB09",
"@. c #FFFB0E",
"#. c #FBFC0F",
"$. c #FFFF0F",
"%. c #E3E011",
"&. c #EEE513",
"*. c #EFE616",
"=. c #E0E41A",
"-. c #E6E41F",
";. c #ECE719",
":. c #E8E41E",
">. c #F0E517",
",. c #F9EA12",
"<. c #FFEF12",
"1. c #FFEF13",
"2. c #F0E71B",
"3. c #FAEC1C",
"4. c #FAF213",
"5. c #FCF111",
"6. c #FFF311",
"7. c #FFF113",
"8. c #FFF313",
"9. c #FBF511",
"0. c #FDF612",
"q. c #F8F014",
"w. c #FAF015",
"e. c #FAF217",
"r. c #FAF616",
"t. c #FCF614",
"y. c #FCF910",
"u. c #FFFB11",
"i. c #FFFF11",
"p. c #FCFC12",
"a. c #FFFD13",
"s. c #FFFE12",
"d. c #FEFF12",
"f. c #FFFF12",
"g. c #FEFF14",
"h. c #FFFE15",
"j. c #FFFF15",
"k. c #FFFD16",
"l. c #FFFE16",
"z. c #FFFF16",
"x. c #FFF218",
"c. c #FAF51B",
"v. c #FFF619",
"b. c #FFF71A",
"n. c #FFF61B",
"m. c #FFF71B",
"M. c #FAF01C",
"N. c #FFF31C",
"B. c #FFF11E",
"V. c #FFF61D",
"C. c #FEF51E",
"Z. c #FFF51E",
"A. c #FEF61E",
"S. c #FAF818",
"D. c #FEF818",
"F. c #FFFA18",
"G. c #FFF91B",
"H. c #FFFB1A",
"J. c #FFFF18",
"K. c #FFFC1A",
"L. c #FFFB1C",
"P. c #FFFD1C",
"I. c #CECF20",
"U. c #C9C924",
"Y. c #CECD25",
"T. c #C9C72B",
"R. c #CBCF2C",
"E. c #D4CA2E",
"W. c #D5CE2D",
"Q. c #DECA29",
"!. c #D8D023",
"~. c #D9D620",
"^. c #D4D825",
"/. c #DAD822",
"(. c #DED42E",
"). c #C3C235",
"_. c #C8C037",
"`. c #CEC83C",
"'. c #D1CA33",
"]. c #E1D725",
"[. c #E0D922",
"{. c #E8DE2B",
"}. c #DFE325",
"|. c #E7E420",
" X c #ECE520",
".X c #E3E42D",
"XX c #F5EA21",
"oX c #FCEF20",
"OX c #F3EC29",
"+X c #EDF72C",
"@X c #F5F222",
"#X c #FFF321",
"$X c #FFF621",
"%X c #FDF125",
"&X c #FFF027",
"*X c #FEF227",
"=X c #F8F724",
"-X c #F9F426",
";X c #FFF527",
":X c #FFF726",
">X c #FFF820",
",X c #FFF821",
"<X c #FFFD22",
"1X c #FFFF22",
"2X c #FEFE23",
"3X c #FFFA24",
"4X c #FFFF25",
"5X c #F5F02C",
"6X c #FFF529",
"7X c #FEF629",
"8X c #FFF62A",
"9X c #FFF62B",
"0X c #FFF52C",
"qX c #FFF72D",
"wX c #FFF42F",
"eX c #F6F929",
"rX c #FFF929",
"tX c #FFFF28",
"yX c #FFFE2A",
"uX c #FFFF2B",
"iX c #FCF82F",
"pX c #EBE132",
"aX c #EFE937",
"sX c #F6F532",
"dX c #F9F436",
"fX c #FFFF30",
"gX c #FFFD34",
"hX c #FAF339",
"jX c #9CA240",
"kX c #D7CD40",
"lX c #D9D75A",
"zX c None",
/* pixels */
"zXzXzXzXzXzXzXzXzXzXzXzXzXzXzXzXzXzXzXzXzXzXzX",
"zXzXzXzXzXzXzXjXK S A H _.`.F G D B zXzXzXzXzX",
"zXzXzXzXzXzXX T.g.0.[ 5.) .._  .| d.E.zXzXzXzX",
"zXzXzXzXzXzXsX4 kXhX$X8X6X9XqX:XdXJ + }.zXzXzX",
"zXzXzXzXzX6 ' ].zXzXzXzXzXzXzXzXzX  aXeXzXzXzX",
"zXzXzXzXzX~ O.:.zXzXzXzXzXzXzXzXzXe i.{.zXzXzX",
"zXzXzXzXzX;.0XW zXzXzXzXzXzXzXzXzXQ +.U.zXzXzX",
"zXzXzXzXzXr.rXN zXzXzXzXzXzXzXzXzX>.u.7 zXzXzX",
"zXzXzXzXzXk.a.% zXzXzXzXzXzXzXzXzX3.A.1 zXzXzX",
"zXzXzXzX& l.$.zXzXzXzXzXzXzXzXzXzXC.&XzXzXzXzX",
"zXzXzXzXy s.t.zXzXzXzXzXzXzXzXzXO H.;XzXzXzXzX",
"zXzXzXzXY.] 2.zXzXzXzXzXzXzXzXzXV P.&.zXzXzXzX",
"zXzXzXzX X@.R.zXzXzXzXzXzXzXzXzX'.<X! zXzXzXzX",
"zXzXzXzX7XyXh zXzXzXzXzXzXzXzXzX%.J.u zXzXzXzX",
"zXzXzXzXr /.9 c n p m v w q z j T a zXzXzXzXzX",
"zXzXzXzXzXk -Xf.j.1XtXJ.i.4XfXgX. zXzXzXzXzXzX",
"zXzXzXzXd C .XY Y [.^ U I (.pXE l zXzXzXzXzXzX",
"zXzXzXf uXW.zXzXzXzXzXzXzXzXzX; =X^.zXzXzXzXzX",
"zXzXzX@X+.!.zXzXzXzXzXzXzXzXzX).K.=.zXzXzXzXzX",
"zXzXzXD.B.5 zXzXzXzXzXzXzXzXzX*.` M zXzXzXzXzX",
"zXzXzXL.Z.o zXzXzXzXzXzXzXzXzX%X{ - zXzXzXzXzX",
"zXzX, G.n.zXzXzXzXzXzXzXzXzXzX*Xv.zXzXzXzXzXzX",
"zXzXs 7.x.zXzXzXzXzXzXzXzXzX= ,XoXzXzXzXzXzXzX",
"zXzX~.<.,.zXzXzXzXzXzXzXzXzXt 8.XXzXzXzXzXzXzX",
"zXzX-.1./ zXzXzXzXzXzXzXzXzXI.6.( zXzXzXzXzXzX",
"zXzX5Xo.Z zXzXzXzXzXzXzXzXzX|.#Xi zXzXzXzXzXzX",
"zXzXiXy.# zXzXzXzXzXzXzXzXzXq.V.< zXzXzXzXzXzX",
"zX$ p.Q.* > x 0 : 8 g 2 b @ P 2XzXzXzXzXzXzXzX",
"zXzXR L N.z.>Xb.h.F.wXm.3XOX3 lXzXzXzXzXzXzXzX",
"zXzXzX+XS.c.X.9.w.e.} M.4.#.K zXzXzXzXzXzXzXzX",
"zXzXzXzXzXzXzXzXzXzXzXzXzXzXzXzXzXzXzXzXzXzXzX",
"zXzXzXzXzXzXzXzXzXzXzXzXzXzXzXzXzXzXzXzXzXzXzX"
};
