/* XPM */
static xpm_row_t const Number3_xpm[] = {
/* columns rows colors chars-per-pixel */
"23 32 149 2 ",
"   c #716416",
".  c #7F7316",
"X  c #8F9508",
"o  c #94940A",
"O  c #9E9E0B",
"+  c #999A0C",
"@  c #999B0E",
"#  c #9B9B0E",
"$  c #9B9D0C",
"%  c #9B9C0D",
"&  c #9B9F0D",
"*  c #958517",
"=  c #949313",
"-  c #939512",
";  c #949117",
":  c #979714",
">  c #999E11",
",  c #9BA20F",
"<  c #9EA00D",
"1  c #9DA510",
"2  c #9AA518",
"3  c #9BA11C",
"4  c #A7A00B",
"5  c #A1A409",
"6  c #A8AB08",
"7  c #A7A212",
"8  c #ADA711",
"9  c #A7AA16",
"0  c #A7A11E",
"q  c #A4AA1E",
"w  c #B2AA1A",
"e  c #898421",
"r  c #929125",
"t  c #96942B",
"y  c #98912A",
"u  c #988731",
"i  c #A19527",
"p  c #A39B20",
"a  c #A39A21",
"s  c #AB9925",
"d  c #B39F24",
"f  c #A5A323",
"g  c #A7A624",
"h  c #AEA227",
"j  c #A8A922",
"k  c #ABA823",
"l  c #B5AA23",
"z  c #AFB021",
"x  c #A6B439",
"c  c #BFBA3C",
"v  c #BBC708",
"b  c #DDD50D",
"n  c #C5C316",
"m  c #C7C719",
"M  c #CBC919",
"N  c #D7D317",
"B  c #E2DC1B",
"V  c #E0DE1A",
"C  c #F9F707",
"Z  c #F4FF07",
"A  c #F9FF02",
"S  c #FEFF04",
"D  c #FFFD07",
"F  c #FFFF07",
"G  c #F5F709",
"H  c #FBF70D",
"J  c #FFFF09",
"K  c #FFFF0A",
"L  c #FFFF0B",
"P  c #FFFB0C",
"I  c #FCF80E",
"U  c #FAFF0E",
"Y  c #FFFF0C",
"T  c #FFFF0D",
"R  c #FFFE0E",
"E  c #FFFF0E",
"W  c #E4E417",
"Q  c #F1E91C",
"!  c #FFEF1A",
"~  c #FBEE1D",
"^  c #F6F014",
"/  c #F2F615",
"(  c #FFF614",
")  c #FFF416",
"_  c #FFF717",
"`  c #FCF910",
"'  c #FFFA11",
"]  c #FEF912",
"[  c #FFFA13",
"{  c #FFFF10",
"}  c #FEFE11",
"|  c #FFFF11",
" . c #FFFC13",
".. c #FFFD13",
"X. c #FFFF12",
"o. c #FFFF13",
"O. c #FFFB14",
"+. c #FFFF14",
"@. c #FFFF16",
"#. c #F2F019",
"$. c #FFF118",
"%. c #FFF619",
"&. c #FFF41D",
"*. c #FFF71E",
"=. c #FFFB18",
"-. c #FFFA19",
";. c #FFFD18",
":. c #FFFF18",
">. c #FFFE19",
",. c #FEFF19",
"<. c #FFFF19",
"1. c #FFFF1B",
"2. c #FFFA1C",
"3. c #FFFB1E",
"4. c #FFFD1D",
"5. c #FFFF1E",
"6. c #C2C02C",
"7. c #D2D422",
"8. c #DBD439",
"9. c #DDE623",
"0. c #E0E12A",
"q. c #F7E720",
"w. c #F9E727",
"e. c #FBEE26",
"r. c #FFF222",
"t. c #F4F922",
"y. c #F0FF21",
"u. c #FFF822",
"i. c #FBFF22",
"p. c #FFFF20",
"a. c #FFFE21",
"s. c #FFFF22",
"d. c #FFFF24",
"f. c #FFF62A",
"g. c #FFF42C",
"h. c #F7FF28",
"j. c #F3FE2D",
"k. c #FFFD28",
"l. c #FFFF2A",
"z. c #FFFF2D",
"x. c #FFFD2F",
"c. c #EEE736",
"v. c #E3F034",
"b. c #F5F336",
"n. c #FFF232",
"m. c #FFF63B",
"M. c #C0BD48",
"N. c #EAE652",
"B. c None",
/* pixels */
"B.B.B.B.B.B.B.B.B.B.B.B.B.B.B.B.B.B.B.B.B.B.B.",
"B.B.B.B.B.B.B.B.B.B.B.B.B.B.B.B.B.B.B.B.B.B.B.",
"B.B.B.B.B.B.B.N.C =...] ` I H e.w.^ h.B.B.B.B.",
"B.B.B.B.B.B.B.r 5.E T L F J | k.' R d y B.B.B.",
"B.B.B.B.B.B.B.B.B.o # + $ < % O : . s z.x B.B.",
"B.B.B.B.B.B.B.B.B.B.B.B.B.B.B.B.B.B.{ A B.B.B.",
"B.B.B.B.B.B.B.B.B.B.B.B.B.B.B.B.B.B.g.n.B.B.B.",
"B.B.B.B.B.B.B.B.B.B.B.B.B.B.B.B.B.v ! ~ B.B.B.",
"B.B.B.B.B.B.B.B.B.B.B.B.B.B.B.B.B.b $.W B.B.B.",
"B.B.B.B.B.B.B.B.B.B.B.B.B.B.B.B.B.Q ) M B.B.B.",
"B.B.B.B.B.B.B.B.B.B.B.B.B.B.B.B.B.u.%.4 B.B.B.",
"B.B.B.B.B.B.B.B.B.B.B.B.B.B.B.B.B.4.-.B.B.B.B.",
"B.B.B.B.B.B.B.B.B.B.B.B.B.B.B.B.X @.[ B.B.B.B.",
"B.B.B.B.B.B.B.B.B.B.B.B.B.B.B.B.6 | *.B.B.B.B.",
"B.B.B.B.B.B.B.B.B.B.B.B.B.B.B.B.8 p.g B.B.B.B.",
"B.B.B.B.B.t t.R >.J J Y | X.X.j.w   B.B.B.B.B.",
"B.B.B.B.B.M.d.o.a.J K | :.<.;./ 7 B.B.B.B.B.B.",
"B.B.B.B.B.B.3 & @ 1 , > - = ; * N v.B.B.B.B.B.",
"B.B.B.B.B.B.B.B.B.B.B.B.B.B.B.u <.,.B.B.B.B.B.",
"B.B.B.B.B.B.B.B.B.B.B.B.B.B.B.6._ q.B.B.B.B.B.",
"B.B.B.B.B.B.B.B.B.B.B.B.B.B.B.V &.B B.B.B.B.B.",
"B.B.B.B.B.B.B.B.B.B.B.B.B.B.B.#.2.n B.B.B.B.B.",
"B.B.B.B.B.B.B.B.B.B.B.B.B.B.B.} +.k B.B.B.B.B.",
"B.B.B.B.B.B.B.B.B.B.B.B.B.B.B.E E e B.B.B.B.B.",
"B.B.B.B.B.B.B.B.B.B.B.B.B.B.9 | { B.B.B.B.B.B.",
"B.B.B.B.B.B.B.B.B.B.B.B.B.B.m o.G B.B.B.B.B.B.",
"B.B.B.B.B.B.B.B.B.B.B.B.B.B.0.P 8.B.B.B.B.B.B.",
"B.B.B.B.B.B.B.B.B.B.B.B.B.B.7.L c B.B.B.B.B.B.",
"B.B.B.l m.3.Y S U y.J D f.c.5 b.B.B.B.B.B.B.B.",
"B.B.B.l.(  .1.s.i.Z F O.r.x.9.B.B.B.B.B.B.B.B.",
"B.B.B.B.a p 0 z q 2 f h i j B.B.B.B.B.B.B.B.B.",
"B.B.B.B.B.B.B.B.B.B.B.B.B.B.B.B.B.B.B.B.B.B.B."
};
