/* XPM */
static xpm_row_t const Number9_xpm[] = {
/* columns rows colors chars-per-pixel */
"23 32 185 2 ",
"   c #6D6715",
".  c #716A14",
"X  c #706C1B",
"o  c #726D1B",
"O  c #726B1D",
"+  c #726E1C",
"@  c #7D7B21",
"#  c #80781A",
"$  c #897F1B",
"%  c #999B0D",
"&  c #8C831B",
"*  c #9C9617",
"=  c #999A12",
"-  c #A39B17",
";  c #A29918",
":  c #A3A50A",
">  c #BDBE0B",
",  c #A3A311",
"<  c #A4A313",
"1  c #A6A015",
"2  c #A5A216",
"3  c #ADA617",
"4  c #A5A31B",
"5  c #A6A41C",
"6  c #BEBB16",
"7  c #BFBF14",
"8  c #B3B11D",
"9  c #BAB01D",
"0  c #BDBC1C",
"q  c #BFBD1F",
"w  c #918626",
"e  c #969121",
"r  c #989221",
"t  c #999627",
"y  c #9B9A23",
"u  c #9C9921",
"i  c #A49A27",
"p  c #9FA228",
"a  c #ADA023",
"s  c #A3A827",
"d  c #ADA821",
"f  c #AEA825",
"g  c #A5A72B",
"h  c #B9AD22",
"j  c #B3B324",
"k  c #B3B026",
"l  c #B7B527",
"z  c #B9B427",
"x  c #AAA931",
"c  c #C1BF13",
"v  c #C0BB26",
"b  c #C4BB24",
"n  c #C3BE28",
"m  c #D3CE0F",
"M  c #CFD10F",
"N  c #C7CA17",
"B  c #CECA14",
"V  c #CDCC1C",
"C  c #D2CD1B",
"Z  c #D3C81D",
"A  c #D1CD1D",
"S  c #D2CD1F",
"D  c #D2D117",
"F  c #D9D711",
"G  c #D9D414",
"H  c #D9D716",
"J  c #DCDC10",
"K  c #DDDD12",
"L  c #DBDA15",
"P  c #DDDD15",
"I  c #DFDE14",
"U  c #DFDF15",
"Y  c #DAD41F",
"T  c #DADA18",
"R  c #DFDB1C",
"E  c #E4DE1A",
"W  c #E3DE1D",
"Q  c #EAE80B",
"!  c #F0E90E",
"~  c #F6F109",
"^  c #F6F40C",
"/  c #F8F60F",
"(  c #E0E411",
")  c #E3E114",
"_  c #E3E317",
"`  c #E9E617",
"'  c #EAEB15",
"]  c #ECEB15",
"[  c #EAE61A",
"{  c #E8EA18",
"}  c #E9EA1A",
"|  c #EEE91A",
" . c #F0EE16",
".. c #F7ED1D",
"X. c #F7EE1D",
"o. c #F1F217",
"O. c #F6F214",
"+. c #F7F216",
"@. c #F2F414",
"#. c #F7F415",
"$. c #F7F516",
"%. c #F8F613",
"&. c #FDF610",
"*. c #F8F517",
"=. c #FAF911",
"-. c #FBFA10",
";. c #FAFA11",
":. c #FDFD10",
">. c #FFFF13",
",. c #FBFB16",
"<. c #FCFC15",
"1. c #FEFE14",
"2. c #FFFE14",
"3. c #FDFC17",
"4. c #FFFF16",
"5. c #FFFE17",
"6. c #FFFF17",
"7. c #F6F219",
"8. c #F7F31A",
"9. c #F7F718",
"0. c #F7F01E",
"q. c #F6F41E",
"w. c #F9F61E",
"e. c #F7F81C",
"r. c #FAF919",
"t. c #FBFA18",
"y. c #FBFB18",
"u. c #FBF91A",
"i. c #FBFA1A",
"p. c #FBFB1A",
"a. c #FCFD18",
"s. c #FFFF18",
"d. c #FFFE19",
"f. c #FFFF19",
"g. c #FCFC1B",
"h. c #FDFE1B",
"j. c #F9F91D",
"k. c #F8F81E",
"l. c #F8F81F",
"z. c #F8F91F",
"x. c #FFFA1C",
"c. c #FCFC1C",
"v. c #FEFE1D",
"b. c #FCFD1F",
"n. c #FFFE1F",
"m. c #C6C221",
"M. c #CBC723",
"N. c #CFC821",
"B. c #C7C02E",
"V. c #D0C823",
"C. c #D2CB22",
"Z. c #D6CF22",
"A. c #D9D725",
"S. c #DCDD24",
"D. c #D6D328",
"F. c #D4DC2E",
"G. c #CACB39",
"H. c #E0DF22",
"J. c #E3DF2C",
"K. c #E1E120",
"L. c #E0E324",
"P. c #EFEF23",
"I. c #E5E32B",
"U. c #F0F221",
"Y. c #F7F322",
"T. c #FCF620",
"R. c #F7F822",
"E. c #F8F820",
"W. c #FBFA20",
"Q. c #FCFB23",
"!. c #FDFB23",
"~. c #FBFC22",
"^. c #FCFC20",
"/. c #FFFF25",
"(. c #FDFC27",
"). c #FFFF26",
"_. c #F7F728",
"`. c #F8F128",
"'. c #F8F728",
"]. c #F9F32C",
"[. c #FCFB2D",
"{. c #F2E931",
"}. c #F2EF37",
"|. c #F0EF3B",
" X c None",
/* pixels */
" X X X X X X X X X X X X X X X X X X X X X X X",
" X X X X X X X X X X X X X X X X X X X X X X X",
" X X X X X X Xl q.j.z.z.E.k.e.R._.'.|. X X X X",
" X X X X X XA b G =.,.t.t.y.i.W.b.' 5 d  X X X",
" X X X X Xw r.J.@  X  o X + O .  X Xx U.g  X X",
" X X X X Xf x.L. X X X X X X X X X XI.d.&  X X",
" X X X X Xc n.T  X X X X X X X X X X/ `. X X X",
" X X X X XF /.B  X X X X X X X X X* -.{. X X X",
" X X X X X| ).8  X X X X X X X X Xk Q.R  X X X",
" X X X X Xw.l.y  X X X X X X X X XM.[.>  X X X",
" X X X X Xh. . X X X X X X X X X XE !.%  X X X",
" X X X X4 6.Q  X X X X X X X X X X] 1. X X X X",
" X X X Xm.4.m  X X X X X X X X X X@.>. X X X X",
" X X X XA.f.a  X X X X X X X X X# n.}  X X X X",
" X X X Xj H.h ; V.Y C S N.C.Z.e i n  X X X X X",
" X X X X Xp ` 5.T.#.%.*.8.7.$.~.z  X X X X X X",
" X X X X X XN _ I K U P L H ) W 6  X X X X X X",
" X X X X X X X X X X X X X X X$ D (  X X X X X",
" X X X X X X X X X X X X X X X XP.f. X X X X X",
" X X X X X X X X X X X X X X X= v.[  X X X X X",
" X X X X X X X X X X X X X X Xq s.V  X X X X X",
" X X X X X X X X X X X X X X XD.6.0  X X X X X",
" X X X X X X X X X X X X X X XK.2.3  X X X X X",
" X X X X X X X X X X X X X X X{ &. X X X X X X",
" X X X X X X X X X X X X X Xs o.!  X X X X X X",
" X X X X X X X X X X X X X XG.p.J  X X X X X X",
" X X X X X X X X X X X X X XB.s.M  X X X X X X",
" X X X X Xr - 1 2 , : < u  X9 u.7  X X X X X X",
" X X Xt }.^.a.g.c.3.:.<.(.].Z v  X X X X X X X",
" X X XF.9.~ O.Y.0...X.+.^ ;.S. X X X X X X X X",
" X X X X X X X X X X X X X X X X X X X X X X X",
" X X X X X X X X X X X X X X X X X X X X X X X"
};
