/* XPM */
static xpm_row_t const Number4_xpm[] = {
/* columns rows colors chars-per-pixel */
"23 32 164 2 ",
"   c #5D4C10",
".  c #635E18",
"X  c #696612",
"o  c #757713",
"O  c #7A8013",
"+  c #998F0E",
"@  c #8A8519",
"#  c #8E8B19",
"$  c #8F951F",
"%  c #97991E",
"&  c #9E9B1B",
"*  c #9B9C18",
"=  c #9E9C1B",
"-  c #AAAC0D",
";  c #A6A716",
":  c #A9A61F",
">  c #A7AD1F",
",  c #A9A81D",
"<  c #B4AF12",
"1  c #B8B415",
"2  c #BFBB13",
"3  c #BFBD17",
"4  c #BFBE16",
"5  c #B4B61A",
"6  c #8F8A27",
"7  c #888C31",
"8  c #9A8B31",
"9  c #8D9034",
"0  c #A29E20",
"q  c #A39C26",
"w  c #A7B224",
"e  c #B7B426",
"r  c #BDB826",
"t  c #BEBD24",
"y  c #BDAE34",
"u  c #BDB537",
"i  c #BDB83B",
"p  c #C2BF14",
"a  c #C0BD17",
"s  c #C9BF12",
"d  c #C5BD26",
"f  c #C3BF2C",
"g  c #BDC40E",
"h  c #B6C313",
"j  c #CFCD0A",
"k  c #CCD306",
"l  c #C2C017",
"z  c #C6C214",
"x  c #C4C318",
"c  c #D0D614",
"v  c #DBDB1C",
"b  c #DEDE1C",
"n  c #E6DF09",
"m  c #E4DB0C",
"M  c #E5DF0E",
"N  c #E3DA17",
"B  c #E7DE14",
"V  c #E3DB18",
"C  c #E5DA19",
"Z  c #E7DC18",
"A  c #EADF1F",
"S  c #E4E80B",
"D  c #FDEF02",
"F  c #FEEF05",
"G  c #FFED09",
"H  c #FFED0D",
"J  c #FEF703",
"K  c #FFF305",
"L  c #FFF007",
"P  c #FFFD00",
"I  c #FFFD02",
"U  c #FFFA07",
"Y  c #FFF009",
"T  c #FFF109",
"R  c #FFF408",
"E  c #FFF00E",
"W  c #FFF30F",
"Q  c #FFF50C",
"!  c #FFF40D",
"~  c #FFF70C",
"^  c #FFFF09",
"/  c #FFFD0B",
"(  c #FFFD0D",
")  c #FFFF0C",
"_  c #E6E31B",
"`  c #ECE91A",
"'  c #E8E91F",
"]  c #F4EA16",
"[  c #FDEA13",
"{  c #FEEF13",
"}  c #FFEE14",
"|  c #F6F114",
" . c #FFF411",
".. c #FFF511",
"X. c #FFF416",
"o. c #FFF616",
"O. c #FFF617",
"+. c #FFFA13",
"@. c #FFFF11",
"#. c #FFFC12",
"$. c #FFFF12",
"%. c #FFFC14",
"&. c #FFFE15",
"*. c #FEFC17",
"=. c #FFFF16",
"-. c #FFFF17",
";. c #FCF11D",
":. c #FFF21E",
">. c #FEF71C",
",. c #FFF91A",
"<. c #FFFA1B",
"1. c #FFFC18",
"2. c #FFFF18",
"3. c #FFFE19",
"4. c #FFFF1A",
"5. c #FCFC1D",
"6. c #C7C02F",
"7. c #D0C321",
"8. c #D5D321",
"9. c #D5D224",
"0. c #DBDC24",
"q. c #D7D12B",
"w. c #D5D529",
"e. c #D6DC2A",
"r. c #DADC2C",
"t. c #C1C030",
"y. c #C9C831",
"u. c #D9D833",
"i. c #D9D837",
"p. c #E6DB23",
"a. c #E3D92E",
"s. c #EAE227",
"d. c #ECE920",
"f. c #F1EA28",
"g. c #F2ED2A",
"h. c #F4EF28",
"j. c #F7F320",
"k. c #FFF120",
"l. c #FFF620",
"z. c #FEF722",
"x. c #FFFA20",
"c. c #FEFC20",
"v. c #FFFF21",
"b. c #F9FB26",
"n. c #FFFF27",
"m. c #F7F02A",
"M. c #F9F028",
"N. c #FFF32F",
"B. c #FFF62D",
"V. c #F9FA2A",
"C. c #FFFD29",
"Z. c #FFFD2A",
"A. c #E2E131",
"S. c #F2E137",
"D. c #FDF533",
"F. c #FFF034",
"G. c #FEF137",
"H. c #FFF236",
"J. c #FFF734",
"K. c #FFFF30",
"L. c #FFF439",
"P. c #CCCC4F",
"I. c #EBEA42",
"U. c None",
/* pixels */
"U.U.U.U.U.U.U.U.U.U.U.U.U.U.U.U.U.U.U.U.U.U.U.",
"U.U.U.U.9 P.U.U.U.U.U.U.U.U.U.U.U.U.U.U.U.U.U.",
"U.U.U.U.w.5.y U.U.U.U.U.U.U.U.U.U.U.U.w V.6 U.",
"U.U.U.U.] Y D.U.U.U.U.U.U.U.U.U.U.U.& b.^ U.U.",
"U.U.U.U.z.G d.U.U.U.U.U.U.U.U.U.U.U._ O.@.U.U.",
"U.U.U.U.B.L v U.U.U.U.U.U.U.U.U.U.U.j.W ` U.U.",
"U.U.U.- N.! 4 U.U.U.U.U.U.U.U.U.U.U.c.R q.U.U.",
"U.U.U.j k.,.= U.U.U.U.U.U.U.U.U.U.$ 1.U u U.U.",
"U.U.U.s.T x.U.U.U.U.U.U.U.U.U.U.U.h +.I 8 U.U.",
"U.U.U.m.D F.U.U.U.U.U.U.U.U.U.U.U.c X.&.U.U.U.",
"U.U.U.*.F S.U.U.U.U.U.U.U.U.U.U.U.A } h.U.U.U.",
"U.U.# #. .9.U.U.U.U.U.U.U.U.U.U.U.;.K ' U.U.U.",
"U.U.r J C.> U.U.U.U.U.U.U.U.U.U.U.3.P e.U.U.U.",
"U.U.i $.g.O U.U.U.U.U.U.U.U.U.U.X K.4.7 U.U.U.",
"U.U.U.u.s 1 g t.z p x l a 3 2 e 0 6.% U.U.U.U.",
"U.U.U.U.7.Z.) -.=.=.-.2.4.4.=.n.0.  U.U.U.U.U.",
"U.U.U.U.q A.M n Z B p.C m V N b 5 + U.U.U.U.U.",
"U.U.U.U.U.U.U.U.U.U.U.U.U.U.U.o t -., U.U.U.U.",
"U.U.U.U.U.U.U.U.U.U.U.U.U.U.U.U.v.%.8.U.U.U.U.",
"U.U.U.U.U.U.U.U.U.U.U.U.U.U.U.* ( l.< U.U.U.U.",
"U.U.U.U.U.U.U.U.U.U.U.U.U.U.U.d Q J.@ U.U.U.U.",
"U.U.U.U.U.U.U.U.U.U.U.U.U.U.U.a.{ L.. U.U.U.U.",
"U.U.U.U.U.U.U.U.U.U.U.U.U.U.U.f.[ M.U.U.U.U.U.",
"U.U.U.U.U.U.U.U.U.U.U.U.U.U.U.G.H S U.U.U.U.U.",
"U.U.U.U.U.U.U.U.U.U.U.U.U.U.U.H.E k U.U.U.U.U.",
"U.U.U.U.U.U.U.U.U.U.U.U.U.U.: :.o.; U.U.U.U.U.",
"U.U.U.U.U.U.U.U.U.U.U.U.U.U.y...<.U.U.U.U.U.U.",
"U.U.U.U.U.U.U.U.U.U.U.U.U.U.i.~ >.U.U.U.U.U.U.",
"U.U.U.U.U.U.U.U.U.U.U.U.U.U.f / | U.U.U.U.U.U.",
"U.U.U.U.U.U.U.U.U.U.U.U.U.U.U.I.r.U.U.U.U.U.U.",
"U.U.U.U.U.U.U.U.U.U.U.U.U.U.U.U.U.U.U.U.U.U.U.",
"U.U.U.U.U.U.U.U.U.U.U.U.U.U.U.U.U.U.U.U.U.U.U."
};
