/* XPM */
static xpm_row_t const Number5_xpm[] = {
/* columns rows colors chars-per-pixel */
"23 32 178 2 ",
"   c #6F6528",
".  c #878719",
"X  c #928F1C",
"o  c #A59E1A",
"O  c #A49F1A",
"+  c #AEA50F",
"@  c #A4A612",
"#  c #A8A41F",
"$  c #ACAC18",
"%  c #B2AC1A",
"&  c #B8B716",
"*  c #BCB616",
"=  c #BFBF11",
"-  c #BCBD12",
";  c #BFBF12",
":  c #BCBB15",
">  c #BFB51A",
",  c #858027",
"<  c #879225",
"1  c #989421",
"2  c #9C9525",
"3  c #A19C2D",
"4  c #A9A02B",
"5  c #ADA42D",
"6  c #AEA52C",
"7  c #B5A623",
"8  c #B0A72C",
"9  c #B7AF2D",
"0  c #B9AC29",
"q  c #ABB022",
"w  c #AFB026",
"e  c #B7BB23",
"r  c #B4B02C",
"t  c #B4B42C",
"y  c #B9B02D",
"u  c #B8B82A",
"i  c #AEA637",
"p  c #A5A93B",
"a  c #BCAF34",
"s  c #BCBE35",
"d  c #C0B418",
"f  c #C2BD19",
"g  c #C0B91E",
"h  c #C3B72C",
"j  c #C0BE32",
"k  c #BDC117",
"l  c #C3C60D",
"z  c #C0C112",
"x  c #C0C113",
"c  c #CDC410",
"v  c #C9C01B",
"b  c #C9C11E",
"n  c #D0D216",
"m  c #DDDC13",
"M  c #DFDA16",
"N  c #DFDA1A",
"B  c #E0DF06",
"V  c #E0DD10",
"C  c #E2DB1F",
"Z  c #E1E10C",
"A  c #E7E90A",
"S  c #FFF603",
"D  c #FCF307",
"F  c #FFF705",
"G  c #FEF904",
"H  c #FFFD07",
"J  c #FFFF06",
"K  c #FFF20F",
"L  c #FFF50E",
"P  c #FFF70F",
"I  c #FFFF09",
"U  c #FFFD0B",
"Y  c #FFFB0E",
"T  c #FFFC0D",
"R  c #FFFF0D",
"E  c #FFFF0F",
"W  c #EEE912",
"Q  c #EFEF12",
"!  c #F6E917",
"~  c #F5EC17",
"^  c #FFED11",
"/  c #F3EA18",
"(  c #F6E918",
")  c #F6E919",
"_  c #F7E919",
"`  c #F5EB18",
"'  c #F4EE18",
"]  c #F4EC1B",
"[  c #FEEF19",
"{  c #FEEF1B",
"}  c #F2F012",
"|  c #FBF010",
" . c #FCF311",
".. c #FDF510",
"X. c #FFF710",
"o. c #FDF317",
"O. c #FEF216",
"+. c #FEF217",
"@. c #FFFA11",
"#. c #FFF912",
"$. c #FFFB13",
"%. c #FFFC13",
"&. c #FEF915",
"*. c #FFFB14",
"=. c #FFF917",
"-. c #FFFB17",
";. c #F9FE14",
":. c #FFFD14",
">. c #FFFF16",
",. c #F0F01E",
"<. c #F7F71C",
"1. c #FEF118",
"2. c #FFF318",
"3. c #FEF11B",
"4. c #FFF21A",
"5. c #FFF618",
"6. c #FFF619",
"7. c #FEF01C",
"8. c #FCF31C",
"9. c #FFF71F",
"0. c #FBF91B",
"q. c #FEFB18",
"w. c #FFFC19",
"e. c #FFFD19",
"r. c #FFFE1A",
"t. c #FFFF1A",
"y. c #FFFE1B",
"u. c #FFF81F",
"i. c #FFFF1D",
"p. c #CDC327",
"a. c #CBCD2D",
"s. c #D6CD22",
"d. c #D5C924",
"f. c #D2C729",
"g. c #D9D625",
"h. c #DFD820",
"j. c #CFCE30",
"k. c #DBD431",
"l. c #D8D83A",
"z. c #E3D922",
"x. c #E3DB25",
"c. c #E9DA21",
"v. c #E8E326",
"b. c #EBE32B",
"n. c #F4EB22",
"m. c #F2EF23",
"M. c #F4EF25",
"N. c #FBEE20",
"B. c #FFED21",
"V. c #FCEE21",
"C. c #FBEC27",
"Z. c #F2E828",
"A. c #F3E82E",
"S. c #FDEC2B",
"D. c #F4F325",
"F. c #FFF125",
"G. c #FFF821",
"H. c #FFFC20",
"J. c #FFF826",
"K. c #FFFA26",
"L. c #FFFF27",
"P. c #FFF729",
"I. c #FAF929",
"U. c #FFFF28",
"Y. c #FDF82C",
"T. c #FDFF2E",
"R. c #FFFF2E",
"E. c #E4E435",
"W. c #EAEA37",
"Q. c #F4F631",
"!. c #FEF131",
"~. c #FFF635",
"^. c #FFFE31",
"/. c #FBFA39",
"(. c #FFFF3E",
"). c #FEFF3F",
"_. c #BFBC40",
"`. c None",
/* pixels */
"`.`.`.`.`.`.`.`.`.`.`.`.`.`.`.`.`.`.`.`.`.`.`.",
"`.`.`.`.`.`.`.`.p q u r 6 9 y 8 5 4 `.`.`.`.`.",
"`.`.`.`.`.`.`.j ^.q.G.9.%.#.X.$.*.P I /.`.`.`.",
"`.`.`.`.`.$ ).+ d.A./ ` ! _ ( ) ] ~ n.`.`.`.`.",
"`.`.`.`.`.c U Q   `.`.`.`.`.`.`.`.`.`.`.`.`.`.",
"`.`.`.`.`.z.S D.`.`.`.`.`.`.`.`.`.`.`.`.`.`.`.",
"`.`.`.`.`.!.D E.`.`.`.`.`.`.`.`.`.`.`.`.`.`.`.",
"`.`.`.`.`.u.G a.`.`.`.`.`.`.`.`.`.`.`.`.`.`.`.",
"`.`.`.`.o =.H w `.`.`.`.`.`.`.`.`.`.`.`.`.`.`.",
"`.`.`.`.b 2.e.. `.`.`.`.`.`.`.`.`.`.`.`.`.`.`.",
"`.`.`.`.h.K J.`.`.`.`.`.`.`.`.`.`.`.`.`.`.`.`.",
"`.`.`.`.Z.F M.`.`.`.`.`.`.`.`.`.`.`.`.`.`.`.`.",
"`.`.`.`.8.Y g.`.`.`.`.`.`.`.`.`.`.`.`.`.`.`.`.",
"`.`.`.`.t.K.O `.`.`.`.`.`.`.`.`.`.`.`.`.`.`.`.",
"`.`.`.`.j.k.# i t @ : l k g > * `.`.`.`.`.`.`.",
"`.`.`.`.`.% <.R.i.>.L.R i.P.r.E (., `.`.`.`.`.",
"`.`.`.`.`.`.m.m B V x.C M ' Z A v 7 `.`.`.`.`.",
"`.`.`.`.`.`.`.`.`.`.`.`.`.`.`.`.X W U.`.`.`.`.",
"`.`.`.`.`.`.`.`.`.`.`.`.`.`.`.`.s y.I.`.`.`.`.",
"`.`.`.`.`.`.`.`.`.`.`.`.`.`.`.`.v.S.b.`.`.`.`.",
"`.`.`.`.`.`.`.`.`.`.`.`.`.`.`.`. .^ s.`.`.`.`.",
"`.`.`.`.`.`.`.`.`.`.`.`.`.`.`.`.T L d `.`.`.`.",
"`.`.`.`.`.`.`.`.`.`.`.`.`.`.`.2 :.w.`.`.`.`.`.",
"`.`.`.`.`.`.`.`.`.`.`.`.`.`.`.h 6.-.`.`.`.`.`.",
"`.`.`.`.`.`.`.`.`.`.`.`.`.`.`.N B.4.`.`.`.`.`.",
"`.`.`.`.`.`.`.`.`.`.`.`.`.`.`.} F.c.`.`.`.`.`.",
"`.`.`.`.`.`.`.`.`.`.`.`.`.`.`.Y.&.p.`.`.`.`.`.",
"`.`.`.`.3 & - = ; x z f a e 1 f.J `.`.`.`.`.`.",
"`.`.`.l.0...o.7.[ 1.3.O.+.;.W.0 n `.`.`.`.`.`.",
"`.`.< T.5.@.H.~.C.N.V.{ | ,.Q._.`.`.`.`.`.`.`.",
"`.`.`.`.`.`.`.`.`.`.`.`.`.`.`.`.`.`.`.`.`.`.`.",
"`.`.`.`.`.`.`.`.`.`.`.`.`.`.`.`.`.`.`.`.`.`.`."
};
