/* XPM */
static xpm_row_t const Number2_xpm[] = {
/* columns rows colors chars-per-pixel */
"23 32 139 2 ",
"   c #838C0C",
".  c #989C09",
"X  c #858417",
"o  c #8F8911",
"O  c #8F8917",
"+  c #8E821E",
"@  c #898918",
"#  c #949014",
"$  c #959114",
"%  c #949115",
"&  c #959116",
"*  c #979316",
"=  c #9A9214",
"-  c #9C9914",
";  c #9B921B",
":  c #99961A",
">  c #A09D1F",
",  c #9BA412",
"<  c #9BA11E",
"1  c #B9B30F",
"2  c #A8A313",
"3  c #A9A215",
"4  c #AFAB12",
"5  c #A9A61C",
"6  c #AAA819",
"7  c #AEAC18",
"8  c #B6AB1C",
"9  c #AEB516",
"0  c #B7B413",
"q  c #BFBF15",
"w  c #B4B01A",
"e  c #B5BA1F",
"r  c #BCBE1D",
"t  c #8D8723",
"y  c #908E25",
"u  c #A4A222",
"i  c #A4A329",
"p  c #C2BE1B",
"a  c #C4BF19",
"s  c #C1BB26",
"d  c #CCC612",
"f  c #C9C31D",
"g  c #D9CB1D",
"h  c #D5D214",
"j  c #D5D11F",
"k  c #DAD01F",
"l  c #DFDA1E",
"z  c #E1D318",
"x  c #E5DE19",
"c  c #E2DB1E",
"v  c #E6E409",
"b  c #E7E10D",
"n  c #E9E50D",
"m  c #FFFF0F",
"M  c #E8E311",
"N  c #ECE513",
"B  c #E9E414",
"V  c #E9E515",
"C  c #EBE514",
"Z  c #EAE917",
"A  c #EFEF16",
"S  c #E5E419",
"D  c #E7E61F",
"F  c #E8E319",
"G  c #E8E11B",
"H  c #E9E21A",
"J  c #E9E61A",
"K  c #ECE61A",
"L  c #E9E21C",
"P  c #EAE21D",
"I  c #ECE31D",
"U  c #EAE71E",
"Y  c #E9E918",
"T  c #EFEC1C",
"R  c #F1E91A",
"E  c #F2EE19",
"W  c #F2EF1D",
"Q  c #F0EC1E",
"!  c #F4EF1D",
"~  c #EBF11D",
"^  c #F9F212",
"/  c #F9F617",
"(  c #FEF616",
")  c #FFFF12",
"_  c #FFFF15",
"`  c #FFFE16",
"'  c #F1F018",
"]  c #F4F01A",
"[  c #F5F11B",
"{  c #F3F01C",
"}  c #F7F21C",
"|  c #FDF819",
" . c #FEF819",
".. c #FCFB1B",
"X. c #FFFF19",
"o. c #FDFD1A",
"O. c #FFFC1B",
"+. c #FFFF1B",
"@. c #FFFF1C",
"#. c #FFFF1D",
"$. c #FFFD1F",
"%. c #FFFF1E",
"&. c #FFFF1F",
"*. c #C5C227",
"=. c #D5CF21",
"-. c #D0CC25",
";. c #D3C728",
":. c #CFD129",
">. c #D2D221",
",. c #D9D724",
"<. c #CFD031",
"1. c #D1D832",
"2. c #E1E026",
"3. c #E6E923",
"4. c #EDE921",
"5. c #EEEB21",
"6. c #EAE02B",
"7. c #EAE32E",
"8. c #EDED28",
"9. c #F1ED20",
"0. c #F6EF20",
"q. c #EFF02A",
"w. c #F6F021",
"e. c #F4F420",
"r. c #F2F226",
"t. c #F5F127",
"y. c #F8F320",
"u. c #FFFF20",
"i. c #FFFF21",
"p. c #FFFF22",
"a. c #FFFF23",
"s. c #FFFF24",
"d. c #FFFF26",
"f. c #F5F22A",
"g. c #F4F428",
"h. c #F3F02D",
"j. c #E9E130",
"k. c #F0F236",
"l. c None",
/* pixels */
"l.l.l.l.l.l.l.l.l.l.l.l.l.l.l.l.l.l.l.l.l.l.l.",
"l.l.l.l.l.l.l.l.l.l.l.l.l.l.l.l.l.l.l.l.l.l.l.",
"l.l.l.l.l.l.l.y r.v H C B V B M b n A r l.l.l.",
"l.l.l.l.l.l.l.l.<.s.+.a.a.p.u.p.p.s.D q < l.l.",
"l.l.l.l.l.l.l.l.l.@ o # & $ * % : > w S 3.l.l.",
"l.l.l.l.l.l.l.l.l.l.l.l.l.l.l.l.l.l.4 o.j.l.l.",
"l.l.l.l.l.l.l.l.l.l.l.l.l.l.l.l.l.l.j ` ;.l.l.",
"l.l.l.l.l.l.l.l.l.l.l.l.l.l.l.l.l.l.f. .1 l.l.",
"l.l.l.l.l.l.l.l.l.l.l.l.l.l.l.l.l.l.$.! . l.l.",
"l.l.l.l.l.l.l.l.l.l.l.l.l.l.l.l.l.= @.L   l.l.",
"l.l.l.l.l.l.l.l.l.l.l.l.l.l.l.l.l.2 +.c l.l.l.",
"l.l.l.l.l.l.l.l.l.l.l.l.l.l.l.l.l.0 X.k l.l.l.",
"l.l.l.l.l.l.l.l.l.l.l.l.l.l.l.l.l.h _ g l.l.l.",
"l.l.l.l.l.l.l.l.l.l.l.l.l.l.l.l.l./ i.8 l.l.l.",
"l.l.l.l.l.l.l.l.l.l.l.l.l.l.l.l.- l *.l.l.l.l.",
"l.l.l.l.l.l.:.5.Q ' W T E ] 9.q.-.t l.l.l.l.l.",
"l.l.l.l.l.i 2.e.y.w.0.} [ { t.h.u l.l.l.l.l.l.",
"l.l.l.l.>.f + l.l.l.l.l.l.l.l.l.l.l.l.l.l.l.l.",
"l.l.l.,.+.d l.l.l.l.l.l.l.l.l.l.l.l.l.l.l.l.l.",
"l.l.l.F +.7 l.l.l.l.l.l.l.l.l.l.l.l.l.l.l.l.l.",
"l.l.O N %.; l.l.l.l.l.l.l.l.l.l.l.l.l.l.l.l.l.",
"l.l.5 ^ ) l.l.l.l.l.l.l.l.l.l.l.l.l.l.l.l.l.l.",
"l.l.s ( | l.l.l.l.l.l.l.l.l.l.l.l.l.l.l.l.l.l.",
"l.l.=.O.G l.l.l.l.l.l.l.l.l.l.l.l.l.l.l.l.l.l.",
"l.l.x &.a l.l.l.l.l.l.l.l.l.l.l.l.l.l.l.l.l.l.",
"l.l.4.#.6 l.l.l.l.l.l.l.l.l.l.l.l.l.l.l.l.l.l.",
"l.X g...l.l.l.l.l.l.l.l.l.l.l.l.l.l.l.l.l.l.l.",
"l., ~ z 3 l.l.l.l.l.l.l.l.l.l.l.l.l.l.l.l.l.l.",
"l.l.9 p R +.p.d.a.@.m m &.d.e l.l.l.l.l.l.l.l.",
"l.l.l.1.8.U I P J Z K 6.7.Y k.l.l.l.l.l.l.l.l.",
"l.l.l.l.l.l.l.l.l.l.l.l.l.l.l.l.l.l.l.l.l.l.l.",
"l.l.l.l.l.l.l.l.l.l.l.l.l.l.l.l.l.l.l.l.l.l.l."
};
