/* XPM */
static xpm_row_t const Number0_xpm[] = {
/* columns rows colors chars-per-pixel */
"23 32 192 2 ",
"   c #7B7D19",
".  c #857D1E",
"X  c #988F0E",
"o  c #8E871B",
"O  c #868C19",
"+  c #908C15",
"@  c #9E9C15",
"#  c #9F9D17",
"$  c #999A18",
"%  c #A19418",
"&  c #A59B1C",
"*  c #A59C1D",
"=  c #B9BD0F",
"-  c #A6A216",
";  c #ABA514",
":  c #AEAC17",
">  c #ADAE17",
",  c #ADA319",
"<  c #A8A41A",
"1  c #AFA71C",
"2  c #A7AB1B",
"3  c #AAAD18",
"4  c #B2AD17",
"5  c #B2AB19",
"6  c #BCAD1A",
"7  c #ACB013",
"8  c #B1B317",
"9  c #B6B117",
"0  c #BBBB11",
"q  c #BDBA13",
"w  c #BCBE14",
"e  c #BFBD1A",
"r  c #9E9421",
"t  c #949F2D",
"y  c #A79E23",
"u  c #A69F24",
"i  c #A69630",
"p  c #A6A424",
"a  c #ADA821",
"s  c #B1AF24",
"d  c #B6AF29",
"f  c #AFB022",
"g  c #B5B723",
"h  c #BEB523",
"j  c #B4BA27",
"k  c #C0BD13",
"l  c #C4BE14",
"z  c #C0BA1B",
"x  c #C5B928",
"c  c #CCD308",
"v  c #DAD80E",
"b  c #DFDA0F",
"n  c #C3C513",
"m  c #C6C715",
"M  c #CCC716",
"N  c #CACA10",
"B  c #CECF10",
"V  c #CFCA15",
"C  c #C3C51C",
"Z  c #C9C418",
"A  c #CCC519",
"S  c #C8C51F",
"D  c #C4CB1C",
"F  c #CACC19",
"G  c #D0C912",
"H  c #D0C914",
"J  c #D1C01E",
"K  c #D3C918",
"L  c #D0CD1A",
"P  c #D2C91E",
"I  c #CDD519",
"U  c #CCD41B",
"Y  c #D7D214",
"T  c #D6D116",
"R  c #D6D117",
"E  c #D8D413",
"W  c #D9D317",
"Q  c #DBD616",
"!  c #D8D71A",
"~  c #D8DA1F",
"^  c #E4DF0E",
"/  c #E0DC12",
"(  c #E1E30C",
")  c #EEEA0F",
"_  c #F8FE0B",
"`  c #FDFE0B",
"'  c #FFFF0E",
"]  c #FFFF0F",
"[  c #E8E017",
"{  c #E9E616",
"}  c #EEEA11",
"|  c #E9E815",
" . c #EBEA16",
".. c #EEEC15",
"X. c #E0E018",
"o. c #E3E019",
"O. c #E5E01A",
"+. c #E7E31A",
"@. c #E7E51B",
"#. c #EDE61B",
"$. c #E9E41F",
"%. c #EEE41D",
"&. c #EAE818",
"*. c #EDE819",
"=. c #EFE819",
"-. c #E8E81D",
";. c #E9EC1D",
":. c #EAEC1C",
">. c #F3E411",
",. c #F2EB17",
"<. c #F3EC17",
"1. c #F3EE16",
"2. c #F4EF14",
"3. c #E8F115",
"4. c #EFF015",
"5. c #EDF219",
"6. c #EFF21D",
"7. c #F4F317",
"8. c #F7F716",
"9. c #FFF612",
"0. c #F9F715",
"q. c #F9F616",
"w. c #FDF716",
"e. c #FFFF12",
"r. c #FAFA15",
"t. c #F9F816",
"y. c #FFFF15",
"u. c #F7F619",
"i. c #F4F41A",
"p. c #F4F31E",
"a. c #F6F51F",
"s. c #FAF51A",
"d. c #FDF418",
"f. c #FDF519",
"g. c #FEF51B",
"h. c #F9F71E",
"j. c #FDF61D",
"k. c #FFF61F",
"l. c #FCFA18",
"z. c #FCFC18",
"x. c #FFFF19",
"c. c #F9F91F",
"v. c #FFFA1E",
"b. c #FFFF1D",
"n. c #FDFC1F",
"m. c #FEFD1E",
"M. c #FFFF1E",
"N. c #FFFF1F",
"B. c #C6C426",
"V. c #CDC525",
"C. c #CFC820",
"Z. c #CFC924",
"A. c #D2CB21",
"S. c #D3CD22",
"D. c #D2CC23",
"F. c #D3CD23",
"G. c #D4CB25",
"H. c #D0CF25",
"J. c #DBD421",
"K. c #D9D124",
"L. c #D2D029",
"P. c #DBD729",
"I. c #D7DF29",
"U. c #D5C135",
"Y. c #CDD231",
"T. c #E3D624",
"R. c #E0DE25",
"E. c #E5E122",
"W. c #E4E720",
"Q. c #ECE221",
"!. c #EFEE20",
"~. c #E6E62B",
"^. c #F2EB21",
"/. c #FFEE20",
"(. c #F1F120",
"). c #F1F023",
"_. c #F3F323",
"`. c #FBF621",
"'. c #FEF520",
"]. c #FAFA23",
"[. c #FFFF20",
"{. c #FFFF21",
"}. c #FFFF22",
"|. c #FFFF23",
" X c #FEFA24",
".X c #FFF826",
"XX c #FFF926",
"oX c #FFFF25",
"OX c #FFFF28",
"+X c #FFFF2C",
"@X c #E5E538",
"#X c None",
/* pixels */
"#X#X#X#X#X#X#X#X#X#X#X#X#X#X#X#X#X#X#X#X#X#X#X",
"#X#X#X#X#X#X#X#X#X#X#X#X#X#X#X#X#X#X#X#X#X#X#X",
"#X#X#X#X#X#X#X#X3.9.>.,.<.*.+.#.%.) _ D #X#X#X",
"#X#X#X#X#X#Xp z K oXXX/./.v.b.N.M.b.$.a #X#X#X",
"#X#X#X#X#X#X~ ^.6 : n ^ ^ k # @ 7 > & A.@X#X#X",
"#X#X#X#X#XO 5.`.r #X#X#X#X#X#X#X#X#X% t.;.#X#X",
"#X#X#X#X#Xo y...#X#X#X#X#X#X#X#X#X#XJ ' c #X#X",
"#X#X#X#X#X5 x./ #X#X#X#X#X#X#X#X#X#XQ.y.= #X#X",
"#X#X#X#X#XV {.P #X#X#X#X#X#X#X#X#X#X!.z.$ #X#X",
"#X#X#X#X#XE m.h #X#X#X#X#X#X#X#X#X#Xp.i.  #X#X",
"#X#X#X#X#Xo.l., #X#X#X#X#X#X#X#X#X0 r.&.#X#X#X",
"#X#X#X#X9 =.8.X #X#X#X#X#X#X#X#X#XN ] X.#X#X#X",
"#X#X#X#X* .X6.#X#X#X#X#X#X#X#X#X#XH {.H.#X#X#X",
"#X#X#X#Xd M.:.#X#X#X#X#X#X#X#X#X#XE.OXS #X#X#X",
"#X#X#X#Xs |.8 #X#X#X#X#X#X#X#X#X#X~.a.#X#X#X#X",
"#X#X#X#X#X#X#X#X#X#X#X#X#X#X#X#X#X#X#X#X#X#X#X",
"#X#X#X#X#X#X#X#X#X#X#X#X#X#X#X#X#X#X#X#X#X#X#X",
"#X#X#X#Xg f #X#X#X#X#X#X#X#X#X#X#X3 #X#X#X#X#X",
"#X#X#Xy N.-.#X#X#X#X#X#X#X#X#X#Xm M.W.#X#X#X#X",
"#X#X#XV.M.b #X#X#X#X#X#X#X#X#X#X .0.F #X#X#X#X",
"#X#X#XJ.[.M #X#X#X#X#X#X#X#X#X#X(.1.w #X#X#X#X",
"#X#X#X[ c.4 #X#X#X#X#X#X#X#X#X+ h.O.#X#X#X#X#X",
"#X#X#X} u.- #X#X#X#X#X#X#X#X#X< n.W #X#X#X#X#X",
"#X#X2 2.7.#X#X#X#X#X#X#X#X#X#XZ M.G #X#X#X#X#X",
"#X#Xx k.4.#X#X#X#X#X#X#X#X#X#XT M.l #X#X#X#X#X",
"#X#XU.e.( #X#X#X#X#X#X#X#X#X#X@.}.; #X#X#X#X#X",
"#X#XT.` e #X#X#X#X#X#X#X#X#X#X_.s.#X#X#X#X#X#X",
"#X#Xq.{ u #X#X#X#X#X#X#X#X#X. ).| #X#X#X#X#X#X",
"#X#XR.A q L Y R Q v W K.! B 1 G.B.#X#X#X#X#X#X",
"#X#X#XC ]. Xw.g.f.w.'.d.j.+XP.i #X#X#X#X#X#X#X",
"#X#X#Xt Y.Z.C.D.S.F.L.I U I.j #X#X#X#X#X#X#X#X",
"#X#X#X#X#X#X#X#X#X#X#X#X#X#X#X#X#X#X#X#X#X#X#X"
};
