/* XPM */
static xpm_row_t const Number7_xpm[] = {
/* columns rows colors chars-per-pixel */
"23 32 98 2 ",
"   c #686809",
".  c #766D0C",
"X  c #797330",
"o  c #95940C",
"O  c #938911",
"+  c #998F1F",
"@  c #949412",
"#  c #9C9C17",
"$  c #9F9D1F",
"%  c #9EA010",
"&  c #B8B90F",
"*  c #BEBE1A",
"=  c #838725",
"-  c #959025",
";  c #93912C",
":  c #9B972B",
">  c #9C9432",
",  c #A39825",
"<  c #A19B28",
"1  c #A29F2B",
"2  c #AEAC20",
"3  c #A9A928",
"4  c #B3AB23",
"5  c #B0AC25",
"6  c #A5A133",
"7  c #ABA833",
"8  c #BFB73A",
"9  c #C1B91C",
"0  c #C0BB1F",
"q  c #C3C11A",
"w  c #C7C11F",
"e  c #D1D010",
"r  c #D0D013",
"t  c #DDDB1B",
"y  c #DFDC19",
"u  c #E3DC1A",
"i  c #F2F209",
"p  c #F5F50F",
"a  c #FBF40F",
"s  c #FFFF0D",
"d  c #FDFC0F",
"f  c #FFFF0F",
"g  c #EBE412",
"h  c #EAE617",
"j  c #EEE417",
"k  c #EFE61F",
"l  c #EAE91A",
"z  c #EAEC18",
"x  c #F3E81F",
"c  c #F0ED1E",
"v  c #F9EC1B",
"b  c #F3F314",
"n  c #F3F315",
"m  c #F3F514",
"M  c #F4F414",
"N  c #F4F515",
"B  c #FFFF10",
"V  c #FFFF15",
"C  c #FFFF16",
"Z  c #F2F11F",
"A  c #F6F61D",
"S  c #F9F119",
"D  c #FFFF18",
"F  c #FFFF19",
"G  c #FFFF1B",
"H  c #FFFF1D",
"J  c #CCD22B",
"K  c #D0D323",
"L  c #D5D426",
"P  c #D9D325",
"I  c #C4C436",
"U  c #CDC530",
"Y  c #C8C036",
"T  c #D5CD31",
"R  c #E5DA21",
"E  c #E0E026",
"W  c #EFE821",
"Q  c #EDEE23",
"!  c #EEEA26",
"~  c #EDEC25",
"^  c #ECE82C",
"/  c #F3E521",
"(  c #F2E624",
")  c #F3F123",
"_  c #F5F421",
"`  c #F3F327",
"'  c #F4F226",
"]  c #F9F820",
"[  c #FFFF22",
"{  c #FEFE23",
"}  c #FFFF23",
"|  c #FDFD25",
" . c #FFFF27",
".. c #F4F328",
"X. c #F5F329",
"o. c #F7F528",
"O. c #F8F838",
"+. c None",
/* pixels */
"+.+.+.+.+.+.+.+.+.+.+.+.+.+.+.+.+.+.+.+.+.+.+.",
"+.+.+.+.+.+.+.$ : ; 1 6 > - +.+.+.+.+.+.+.+.+.",
"+.+.+.+.+.O.n p m b M _ ..n i A I +.+.+.+.+.+.",
"+.+.+.+.+.8 ^ g j k / ( W h ' T < 3 +.+.+.+.+.",
"+.+.+.+.+.+.+.+.+.+.+.+.+.+.+.X Y Z +.+.+.+.+.",
"+.+.+.+.+.+.+.+.+.+.+.+.+.+.+.= X.N +.+.+.+.+.",
"+.+.+.+.+.+.+.+.+.+.+.+.+.+.+.* f Q +.+.+.+.+.",
"+.+.+.+.+.+.+.+.+.+.+.+.+.+.+.u s K +.+.+.+.+.",
"+.+.+.+.+.+.+.+.+.+.+.+.+.+.+.x F % +.+.+.+.+.",
"+.+.+.+.+.+.+.+.+.+.+.+.+.+.+.v }   +.+.+.+.+.",
"+.+.+.+.+.+.+.+.+.+.+.+.+.+.@ a  .+.+.+.+.+.+.",
"+.+.+.+.+.+.+.+.+.+.+.+.+.+.2 d c +.+.+.+.+.+.",
"+.+.+.+.+.+.+.+.+.+.+.+.+.+.0 V e +.+.+.+.+.+.",
"+.+.+.+.+.+.+.+.+.+.+.+.+.+.y B & +.+.+.+.+.+.",
"+.+.+.+.+.+.+.+.+.+.+.+.+.+.` C # +.+.+.+.+.+.",
"+.+.+.+.+.+.+.+.+.+.+.+.+.+.7 L +.+.+.+.+.+.+.",
"+.+.+.+.+.+.+.+.+.+.+.+.+.+.+.+.+.+.+.+.+.+.+.",
"+.+.+.+.+.+.+.+.+.+.+.+.+.+.+.+.+.+.+.+.+.+.+.",
"+.+.+.+.+.+.+.+.+.+.+.+.+.+.E 4 +.+.+.+.+.+.+.",
"+.+.+.+.+.+.+.+.+.+.+.+.+.w [ P +.+.+.+.+.+.+.",
"+.+.+.+.+.+.+.+.+.+.+.+.+.! F 9 +.+.+.+.+.+.+.",
"+.+.+.+.+.+.+.+.+.+.+.+.+.~ H O +.+.+.+.+.+.+.",
"+.+.+.+.+.+.+.+.+.+.+.+.+.] { . +.+.+.+.+.+.+.",
"+.+.+.+.+.+.+.+.+.+.+.+.o G ) +.+.+.+.+.+.+.+.",
"+.+.+.+.+.+.+.+.+.+.+.+.5 D t +.+.+.+.+.+.+.+.",
"+.+.+.+.+.+.+.+.+.+.+.+.U C r +.+.+.+.+.+.+.+.",
"+.+.+.+.+.+.+.+.+.+.+.+.R D q +.+.+.+.+.+.+.+.",
"+.+.+.+.+.+.+.+.+.+.+.+.S | , +.+.+.+.+.+.+.+.",
"+.+.+.+.+.+.+.+.+.+.+.+.V o.+ +.+.+.+.+.+.+.+.",
"+.+.+.+.+.+.+.+.+.+.+.+.z l +.+.+.+.+.+.+.+.+.",
"+.+.+.+.+.+.+.+.+.+.+.+.+.J +.+.+.+.+.+.+.+.+.",
"+.+.+.+.+.+.+.+.+.+.+.+.+.+.+.+.+.+.+.+.+.+.+."
};
