/* XPM */
static xpm_row_t const Slash_xpm[] = {
/* columns rows colors chars-per-pixel */
"11 32 97 2 ",
"   c #B4A92B",
".  c #BBAA2E",
"X  c #BBAC2C",
"o  c #BBAE2C",
"O  c #BCAF2C",
"+  c #BDB729",
"@  c #BEB729",
"#  c #BEB52A",
"$  c #BFB52B",
"%  c #BFB62A",
"&  c #BEB72A",
"*  c #BFB12F",
"=  c #BEB928",
"-  c #BFB928",
";  c #BFB829",
":  c #C1BF27",
">  c #C5BF27",
",  c #C0B72B",
"<  c #C0B82A",
"1  c #C0BC28",
"2  c #C0BD28",
"3  c #C6BD2A",
"4  c #C2B82C",
"5  c #C6BF2C",
"6  c #C9B92D",
"7  c #C8BF2C",
"8  c #CBBF2E",
"9  c #C9AC32",
"0  c #C6B630",
"q  c #ECD61C",
"w  c #E0DB1F",
"e  c #E6DC1E",
"r  c #ECDD1E",
"t  c #EDDD1E",
"y  c #FAED0F",
"u  c #EEE417",
"i  c #EBE218",
"p  c #EAE318",
"a  c #F4E615",
"s  c #F4E617",
"d  c #FAE715",
"f  c #F5EA11",
"g  c #F6EB11",
"h  c #F9EA12",
"j  c #FAEB12",
"k  c #F9EC10",
"l  c #FAEC10",
"z  c #F9E814",
"x  c #F8E815",
"c  c #F4E01B",
"v  c #F7E31A",
"b  c #F2E418",
"n  c #F9E21A",
"m  c #F9E418",
"M  c #F8E518",
"N  c #C3C127",
"B  c #C7C125",
"V  c #C4C427",
"C  c #C6C727",
"Z  c #C7C827",
"A  c #CACC26",
"S  c #CACD26",
"D  c #CBCF26",
"F  c #C8C12B",
"G  c #CBC12A",
"H  c #CAC32B",
"J  c #CDC72C",
"K  c #CDCB29",
"L  c #CCC92A",
"P  c #CEC92B",
"I  c #CDCF28",
"U  c #CFCE28",
"Y  c #CECF28",
"T  c #D0C124",
"R  c #D4CA22",
"E  c #D0C62A",
"W  c #DEC629",
"Q  c #DAC22D",
"!  c #D4CB29",
"~  c #D7CA2A",
"^  c #D2CD2A",
"/  c #D3CA2D",
"(  c #CCD026",
")  c #CDD127",
"_  c #D0D026",
"`  c #D2D326",
"'  c #DDD323",
"]  c #DCD722",
"[  c #DCD327",
"{  c #E1CD29",
"}  c #E2D121",
"|  c #E3D227",
" . c #EED820",
".. c #E7D02C",
"X. c #EAD428",
"o. c #F5DC20",
"O. c None",
/* pixels */
"O.O.O.O.O.O.O.O.O.O.O.",
"O.O.O.O.O.O.O.O.H 3 O.",
"O.O.O.O.O.O.O.5 i  .O.",
"O.O.O.O.O.O.O.4 g } O.",
"O.O.O.O.O.O.O.E y R O.",
"O.O.O.O.O.O.P u y B O.",
"O.O.O.O.O.O.K k l A O.",
"O.O.O.O.O.O.J j q O.O.",
"O.O.O.O.O.O.8 l T O.O.",
"O.O.O.O.O.N e y > O.O.",
"O.O.O.O.O.& v w : O.O.",
"O.O.O.O.O.) t _ O.O.O.",
"O.O.O.O.O.I s ) O.O.O.",
"O.O.O.O.V / x < O.O.O.",
"O.O.O.O.@ ..c 2 O.O.O.",
"O.O.O.O.o M W O.O.O.O.",
"O.O.O.O.Y f * O.O.O.O.",
"O.O.O.V ^ p   O.O.O.O.",
"O.O.O.; X.] 1 O.O.O.O.",
"O.O.O.. m ~ ( O.O.O.O.",
"O.O.O.9 h 0 O.O.O.O.O.",
"O.O.C { r % O.O.O.O.O.",
"O.O.- o.[ 1 O.O.O.O.O.",
"O.O., n ! D O.O.O.O.O.",
"O.O.7 d 6 O.O.O.O.O.O.",
"O.Z U z O O.O.O.O.O.O.",
"O.= | o.+ O.O.O.O.O.O.",
"O.# b Q S O.O.O.O.O.O.",
"O.G a F O.O.O.O.O.O.O.",
"O.' ` $ O.O.O.O.O.O.O.",
"O.X L O.O.O.O.O.O.O.O.",
"O.O.O.O.O.O.O.O.O.O.O."
};
