/* XPM */
static xpm_row_t const opponent_anim1_xpm[] = {
/* columns rows colors chars-per-pixel */
"78 80 238 2 ",
"   c #020203",
".  c #05040A",
"X  c #09060B",
"o  c #0B090D",
"O  c #080807",
"+  c #130A0B",
"@  c #0E0C11",
"#  c #0E0E1B",
"$  c #030317",
"%  c #110E13",
"&  c #141115",
"*  c #161319",
"=  c #19151B",
"-  c #1C1A1D",
";  c #171814",
":  c #0E111E",
">  c #2C0C07",
",  c #351B19",
"<  c #271615",
"1  c #00002A",
"2  c #1E1B22",
"3  c #191426",
"4  c #191731",
"5  c #221D24",
"6  c #251E29",
"7  c #281F2C",
"8  c #1E2024",
"9  c #1F2233",
"0  c #242125",
"q  c #262329",
"w  c #2A242B",
"e  c #2C2A2E",
"r  c #292326",
"t  c #392927",
"y  c #38312A",
"u  c #2D2631",
"i  c #2E2A31",
"p  c #262635",
"a  c #322D34",
"s  c #352E39",
"d  c #362C34",
"f  c #343235",
"g  c #36323A",
"h  c #3A343C",
"j  c #3C393D",
"k  c #3B3437",
"l  c #42231B",
"z  c #4D271F",
"x  c #4B2B21",
"c  c #442B23",
"v  c #4A3629",
"b  c #583C2D",
"n  c #473935",
"m  c #533D32",
"M  c #623C2E",
"N  c #5C422A",
"B  c #44453B",
"V  c #554233",
"C  c #5A4333",
"Z  c #59463B",
"A  c #6D4C3A",
"S  c #634638",
"D  c #724C38",
"F  c #76563B",
"G  c #65533E",
"H  c #1F2243",
"J  c #3E3640",
"K  c #3E3A41",
"L  c #393948",
"P  c #33364D",
"I  c #423C44",
"U  c #463E49",
"Y  c #483F40",
"T  c #444245",
"R  c #46424A",
"E  c #4A444C",
"W  c #4C4A4D",
"Q  c #484445",
"!  c #514C4C",
"~  c #5B4C48",
"^  c #5B5348",
"/  c #434555",
"(  c #4E4651",
")  c #4E4B51",
"_  c #474955",
"`  c #524C54",
"'  c #554E59",
"]  c #504752",
"[  c #555255",
"{  c #575359",
"}  c #5A555B",
"|  c #5C5A5D",
" . c #595655",
".. c #654E40",
"X. c #6C5542",
"o. c #6E5847",
"O. c #765C49",
"+. c #7B5C4A",
"@. c #765844",
"#. c #625A58",
"$. c #795F56",
"%. c #7D634C",
"&. c #78634C",
"*. c #6B6159",
"=. c #7A6A55",
"-. c #61634E",
";. c #5C5662",
":. c #5E5B61",
">. c #585669",
",. c #4D506C",
"<. c #625C64",
"1. c #645D69",
"2. c #65576A",
"3. c #5F6078",
"4. c #636164",
"5. c #67616A",
"6. c #6B646D",
"7. c #6C6A6C",
"8. c #6E6563",
"9. c #78766A",
"0. c #6D6672",
"q. c #6E6972",
"w. c #656374",
"e. c #706773",
"r. c #726B75",
"t. c #756E7A",
"y. c #786E7D",
"u. c #767179",
"i. c #7A737C",
"p. c #777378",
"a. c #71716B",
"s. c #825D47",
"d. c #83644E",
"f. c #89654B",
"g. c #93684A",
"h. c #846A53",
"j. c #8B6D56",
"k. c #896F58",
"l. c #8D725A",
"z. c #867059",
"x. c #93745B",
"c. c #95795E",
"v. c #97765A",
"b. c #906E54",
"n. c #A37D5B",
"m. c #857B68",
"M. c #9B7D62",
"N. c #977A61",
"B. c #887B77",
"V. c #887470",
"C. c #A47960",
"Z. c #9D8166",
"A. c #978569",
"S. c #978974",
"D. c #8F917B",
"F. c #A2846A",
"G. c #A68C6D",
"H. c #AA8C6D",
"J. c #A48364",
"K. c #B38A6A",
"L. c #B4916D",
"P. c #A79678",
"I. c #B49B7B",
"U. c #BA9E7A",
"Y. c #B49874",
"T. c #A99070",
"R. c #BCA27C",
"E. c #C8A479",
"W. c #D1AE7F",
"Q. c #7D7582",
"!. c #7F7982",
"~. c #797785",
"^. c #7D6D82",
"/. c #827B84",
"(. c #857C89",
"). c #867B89",
"_. c #8A828D",
"`. c #89838A",
"'. c #8D8492",
"]. c #858496",
"[. c #908794",
"{. c #928B95",
"}. c #968C9A",
"|. c #9A929A",
" X c #B7A887",
".X c #BEB48C",
"XX c #B8B798",
"oX c #A9A38C",
"OX c #9E94A4",
"+X c #9FA2B0",
"@X c #B8BBA6",
"#X c #ADABAD",
"$X c #C5AB85",
"%X c #CCB48C",
"&X c #C7B389",
"*X c #D3B48B",
"=X c #D8BA88",
"-X c #C9B895",
";X c #D4BC93",
":X c #D4BB96",
">X c #D0AE87",
",X c #C1B6B1",
"<X c #DAC59A",
"1X c #D2C18E",
"2X c #E3C99C",
"3X c #F5CC91",
"4X c #C4C7A5",
"5X c #DAD6AC",
"6X c #DCDCBA",
"7X c #D9C5A0",
"8X c #E7CEA3",
"9X c #E9D6A9",
"0X c #E9DCB6",
"qX c #F5DCA7",
"wX c #EAE5B8",
"eX c #F7EAB7",
"rX c #FAF4BD",
"tX c #F4E3AC",
"yX c #AFA8C1",
"uX c #C5BDC7",
"iX c #D0CFD4",
"pX c #DBE0D3",
"aX c #E9E9C7",
"sX c #F6ECC8",
"dX c #FEFCCF",
"fX c #FBF4C6",
"gX c #FEFDD3",
"hX c #FFFFDC",
"jX c #FCF4D6",
"kX c #ECEFD3",
"lX c #E4DBE5",
"zX c #FFFFE3",
"xX c #FFFFEC",
"cX c #FCFCFD",
"vX c #FAFAF6",
"bX c #EEEEF3",
"nX c #D2D6E6",
"mX c None",
/* pixels */
"mXmXmXmXmXmXmXmXmXmXmXmXmXmXmXmXmXmXmXmXmXmXmXmXmXmXmXmXmXmXmXmXmXmXmXmXmXmXmXmXmXmXmXmXmXmXmXmXmXmXmXmXmXmXmXmXmXmXmXmXmXmXmXmXmXmXmXmXmXmXmXmXmXmXmXmXmXmX",
"mXmXmXmXmXmXmXmXmXmXmXmXmXmXmXmXmXmXmXmXmXmXmXmXmXmXmXmXmXmXmXmXmXmXmXmXmXmX* % o o @ mXmXmXmXmXmXmXmXmXmXmXmXmXmXmXmXmXmXmXmXmXmXmXmXmXmXmXmXmXmXmXmXmXmXmX",
"mXmXmXmXmXmXmXmXmXmXmXmXmXmXmXmXmXmXmXmXmXmXmXmXmXmXmXmXmXmXmXmXmXmXmXmXmXmXo 5 g d 8 o mXmXmXmXmXmXmXmXmXmXmXmXmXmXmXmXmXmXmXmXmXmXmXmXmXmXmXmXmXmXmXmXmXmX",
"mXmXmXmXmXmXmXmXmXmXmXmXmXmXmXmXmXmXmXmXmXmXmXmXmXmXmXmXmXmXmX& % % % % mXmX  a r.p.W * . . % & @ o O o @ X X o @ @ @ o o o @ mXmXmXmXmXmXmXmXmXmXmXmXmXmXmX",
"mXmXmXmXmXmXmXmXmXmXmXmXmXmXmXmXmXmXmXmXmXmXmXmXmXmXmXmXmXmXmXq q q w q mXmX  e !.|.r.K - 2 5 * 5 f g g f a s e 0 8 q i h J q mXmXmXmXmXmXmXmXmXmXmXmXmXmXmX",
"mXmXmXmXmXmXmXmXmXmXmXmXmXmXmXmXmXmXmXmX- * . mXmXmX- mXmXmX5 R W R [ ) 0     * ) i.Q.<.) ) n q I t.(.Q.i.Q.u.4.Q T W :.)._.( . mXmXmXmXmXmXmXmXmXmXmXmXmXmX",
"mXmXmXmXmXmXmXmXmXmXmXmXmXmXmXmXmXmXmXmXmXmXU I &   X .     O - 5 w 5.`. .q r f j { q.4.| q.0.;.r.(.t.| | 6.i.u.4.} <.B.[.`.6.E = mXmXmXmXmXmXmXmXmXmXmXmXmX",
"mXmXmXmXmXmXmXmXmXmXmXmXmXmXmXmXmXmXmXmXmXmXt.u.q   O % o @ o o   X ( `.r.)  .W f K [ )  .q.Q.r.i.r.;.R R [ 0.t.q.7.r.p.5.{ 5._.I o mXmXmXmXmXmXmXmXmXmXmXmX",
"mXmXmXmXmXmXmXmXmXmXmXmXmXmXmXmXmXmXmXmXmXmX4.u.j - e j W ( R h &   - E { { { R f d j n T ) ' ] { } ;.;.| <.6.r.r.t.r.} a - I (.p.R - mXmXmXmXmXmXmXmXmXmXmX",
"mXmXmXmXmXmXmXmXmXmXmXmXmXmXmXmXmX* & @ . @ j  .| [ { 6.).)./.7.j @   O q L h h h h s s d a u 7 e Q 7.Q.i.r.r.6.0.u.6.R %   & Q _.(.j o mXmXmXmXmXmXmXmXmXmX",
"mXmXmXmXmXmXmXmXmXmXmXmXmXmXmXmXmXX a } ' j T } r.p.r.r.i.Q.r.| I 7 X   q ( E I U U U I K I ( 1.#.[ W ' ( ` | 6.Q.Q.~./.R O   O | !.R O mXmXmXmXmXmXmXmXmXmX",
"mXmXmXmXmXmXmXmXmXmXmXmXmXmXmXmXmXO U '.B.) T ` 6.r.6.6.0.e.5.{ W j - o q R n h h J J s k W 6./.q.) d w 6 e I | r.r.r.).6.i - & j W e % mXmXmXmXmXmXmXmXmXmX",
"mXmXmXmXmXmXmXmXmXmXmXmXmXmXmXmXmXmXn ~.0.I s I `  .! ;.0.r.6.6.;.W h w 5 - - 2 2 2 2 * 5 I } ;.[ K a w 5 q d U ] ' ( ( ;.6.q.<.j * & * mXmXmXmXmXmXmXmXmXmX",
"mXmXmXmXmXmXmXmXmXmXmXmXmXmXmXmXmXmXmXR R s u h W W Q | r.0.0.y.r.| } R *   O % @ @ o   % e s q w g K I R I j w 5 5 q - d q.}.{.K     * mXmXmXmXmXmXmXmXmXmX",
"mXmXmXmXmXmXmXmXmXmXmXmXmXmXmXmXmXmXmX* d R I U <.6.1.5.6.5.6.t.Q.i.i.[ *   O * mXmXmXmXmX- * @ 7 I W { p.u.[ *     - * % 2 I <.d o mXmXmXmXmXmXmXmXmXmXmXmX",
"mXmXmXmXmXmXmXmXmXmXmXmXmXmXmXmXmXmX. o 7 h - g Q.}.r.<.6.r.q.<.;.1.4.! f - * * mXmXmXmXmXmXo X & d W <.r.i.r. .f * O & O   % i q & mXmXmXmXmXmXmXmXmXmXmXmX",
"mXmXmXmXmXmXmXmXmXmXmXmXmXmXmXmXmXmX@ % - *   2 t.}.r.5.r.^.q.[ I s a I { W 0 o mXmXmXmXmXmXmXmXX = g W I ' i.|./.j   mXmXmXmX* * & mXmXmXmXmXmXmXmXmXmXmXmX",
"mXmXmXmXmXmXmXmXmXmXmXmXmXmXmXmXmXmXmXmX@ X 2 i j | Q.(.i.1.| } W g w s } { q X mXmXmXmXmXmXmXmXmXo 5 u - w ] t.e.h o mXmXmXmX@ & * mXmXmXmXmXmXmXmXmXmXmXmX",
"mXmXmXmXmXmXmXmXmXmXmXmXmXmXmX= % O mXmXmX- y.;.O 2 !.OXQ.W W r.r.{ j h I h 2 o mXmXmXmXmXmXmXmXmXmX% % @ o & - - * * mXmXmXmXmXmXmXmXmXmXmXmXmXmXmXmXmXmXmX",
"mXmXmXmXmXmXmXmXmXmXmXmXmXmXmX% w ` f mX  - p.(.T 0 f I T ` 7.i.r.E f j U h &   O mX. O mXmXmXmXmXmXmX% % mXO     o * mXmXmXmXmXmXmXmXmXmXmXmXmXmXmXmXmXmXmX",
"mXmXmXmXmXmXmXmXmXmXmXmXmXmXmXO h _.<.&   . i q.'.[ .   o g | | W j g I E k * . o & % % % mXmXmXmXmXmXmXmXmXmXmXmXmXmXmXmXmXmXmXmXmXmXmXmXmXmXmXmXmXmXmXmXmX",
"mXmXmXmXmXmXmXmXmXmX* %   mX    q 1.u.' 2 . . s i.u.K - o . : 8 e I ] U a 5 q w w w e a w % . o mXmXmXmXmXmXmXmXmXmXmXmXmXmXmXmXmXmXmXmXmXmXmXmXmXmXmXmXmXmX",
"mXmXmXmXmXmXmXmXmXmX= % * * % o o q 2.(.2.s w w J 5.`.6.s & O   # n ' h @ X h ] U I I ( J - . & * mXmXmXmXmXmXmXmXmXmXmXmXmXmXmXmXmXmXmXmXmXmXmXmXmXmXmXmXmX",
"mXmXmXmXmXmXmXmXmXmXmXf <.r.' q % - p ' oX-X@Xa.@ 2 i.q.#.D.=.*   = e *   % I <.' U K U I e q e 2 O mXmXmXmXmXmXmXmXmXmXmXmXmXmXmXmXmXmXmXmXmXmXmXmXmXmXmXmX",
"mXmXmXmXmXmXmXmXmXmXmXmX`.].w.` n s p R P.tXxX6X-.2 9 9 } 9XeX9.*     . . @ i g f j I J h J R W a % X mXmXmXmXmXmXmXmXmXmXmXmXmXmXmXmXmXmXmXmXmXmXmXmXmXmXmX",
"mXmXmXmXmXmXmXmXmXmX  q >._ _ q.e._ _ 1.8.m.<XgXaXa..   a F.tXeXD.;   2 0 & X   O e U I h E } { I u = % mXmXmXmXmXmXmXmXmXmXmXmXmXmXmXmXmXmXmXmXmXmXmXmXmXmX",
"mXmXmXmXmXmXmXmXmXmX2 h #.*.#.;.' ! 4.>.H 3 h.tXvX6X .q = , M.gXaXa.i U ' L - O o 8 d h U { } { { E q o mXmXmXmXmXmXmXmXmXmXmXmXmXmXmXmXmXmXmXmXmXmXmXmXmXmX",
"mXmXmXmXmXmXmXmXmXp 2.9.v.1X Xh $ V ~ 4 1 3 Z Y.0XgXkX Xm   6 -XhXpX`.;.y.'.<.R j 2 o w ( }  .[ <.{ e X mXmXmXmXmXmXmXmXmXmXmXmXmXmXmXmXmXmXmXmXmXmXmXmXmXmX",
"mXmXmXmXmXmXmXmX  q p.D.m.>X<X9.B N b ~ 5.9.Z D K.<XwXqXU. .f +.8XxX+X>.yXlX}.2.1.k . o g ` } W } { e X mXmXmXmXmXmXmXmXmXmXmXmXmXmXmXmXmXmXmXmXmXmXmXmXmXmX",
"mXmXmXmXmXmXmXmX  - | >.( X.R.rX5Xd.s.;XaXwXc.A d.@.S H.eXkXXXF n.8XV.,.nXcX,X/.6.` q . o g ` [ #.} e X mXmXmXmXmXmXmXmXmXmXmXmXmXmXmXmXmXmXmXmXmXmXmXmXmXmX",
"mXmXmXmXmXmXmXmX2 g / L g m J.tXeX$XK.=XrXgXwX X+.l > b  XgXgX.Xc.g.@.V.iXbXvXuXy.I I 5 . X i | q.| q X mXmXmXmXmXmXmXmXmXmXmXmXmXmXmXmXmXmXmXmXmXmXmXmXmXmX",
"mXmXmXmXmXmXX - R >./ B m %.x.N.U.8X$Xj.L.9XhXeXN.S D x b Y.fXxXXXF n.$X9.].bXcX).f R W 5   %  .p.;.e X mXmXmXmXmXmXmXmXmXmXmXmXmXmXmXmXmXmXmXmXmXmXmXmXmXmX",
"mXmXmXmXmXmX. - #.*.Y G f.%.o.@.b. XG.+.s.F.oX.X X:X:XO.> M -XjXaX X<X=Xc 4 +XiX_.' <.<.R e 0 i ! { a X mXmXmXmXmXmXmXmXmXmXmXmXmXmXmXmXmXmXmXmXmXmXmXmXmXmX",
"mXmXmXmXmXmX. - S @.V d.c.X.V %.N.j.h.z.l.O.l S &XgXhX$X@.M b.>XeXzXgX*Xk $ / B.i.p.r.;. .| I o 5 I a o mXmXmXmXmXmXmXmXmXmXmXmXmXmXmXmXmXmXmXmXmXmXmXmXmXmX",
"mXmXmXmXmXmX. * V F d.v.J.k.A X.j.H.M.N.T.G.M x h.-XeXeX%Xl.X.s.%XsXfX=Xh.n 7 s E 1.4. .} | K X X 5 5 mXmXmXmXmXmXmXmXmXmXmXmXmXmXmXmXmXmXmXmXmXmXmXmXmXmXmX",
"mXmXmXmXmXmX$ & V b.J.Z.c.G.j.v o.8X>Xj.U.9X>X.., S >XdXjX XA S x.$X2X=XE.b.y 1 9 n W [ [ I w % X % mXmXmXmXmXmXmXmXmXmXmXmXmXmXmXmXmXmXmXmXmXmXmXmXmXmXmXmX",
"mXmXmXmXmXo . * V k.G.Z.x.Y.x.c X.tX;Xj.U.eX8X+.+ , U.dXzX&XA b s.L.>X2X=XJ.n # * a R [ ] h 5 & @ mXmXmXmXmXmXmXmXmXmXmXmXmXmXmXmXmXmXmXmXmXmXmXmXmXmXmXmXmX",
"mXmXmXmXmX* $ * v f.v.Z.M.M.%.Z %.%XY.x.Y.;XF.S v z.2XfXeXT.A X.H.2X8X;XL.+.w 3 a W { { { W a * mXmXmXmXmXmXmXmXmXmXmXmXmXmXmXmXmXmXmXmXmXmXmXmXmXmXmXmXmXmX",
"mXmXmX. 0 j : ; C F F b.G.O.C +.x.x.l.x.Z.k.l x T.wXfX9XJ.@.@.J.8XzXdX>X..- u U <.r.r.| } 4._ * mXmXmXmXmXmXmXmXmXmXmXmXmXmXmXmXmXmXmXmXmXmXmXmXmXmXmXmXmXmX",
"mXmX@ * k ( & @ Z &.V &.v.@.Z +.x.M.l.d.h.%.G h.;XdXfXG.z b H.9XfXaXrX>Xt 1 ~.#X/.0.q.;.[ [ n = mXmXmXmXmXmXmXmXmXmXmXmXmXmXmXmXmXmXmXmXmXmXmXmXmXmXmXmXmXmX",
"mX& - a R R o o W 7._ B F f.h.@.M.;XY.@.f.$X0X5XR.H.Y.Z > f.9XvX6XA.E.W.Y U nXcX).L ' { I 6 * mXmXmXmXmXmXmXmXmXmXmXmXmXmXmXmXmXmXmXmXmXmXmXmXmXmXmXmXmXmXmX",
"mX@ e ( ` d - 2 g _ / j n G c.R.:X<X$XH.*XsXhX5Xk.z l l =.<XgXaXP.D g.R.|.#XbXlX/.J I I 5 O mXmXmXmXmXmXmXmXmXmXmXmXmXmXmXmXmXmXmXmXmXmXmXmXmXmXmXmXmXmXmXmX",
"mX@ i | { a h a % 2 W / L m H.rXsXZ.C.2XgXdX&Xl.@.c > @.5XzX6Xc.g.L.&.q.iXcXiXOXe.( h 5 % mXmXmXmXmXmXmXmXmXmXmXmXmXmXmXmXmXmXmXmXmXmXmXmXmXmXmXmXmXmXmXmXmX",
"mX@ r W ' I ' d   & 6.p.*.c.*X4XP.G F S.@X@XO.M g.T.P.=X8X@X7.D E.sX{.,.nXcX#Xe.1.W 7 @ mXmXmXmXmXmXmXmXmXmXmXmXmXmXmXmXmXmXmXmXmXmXmXmXmXmXmXmXmXmXmXmXmXmX",
"mX% 5 h ` | { u   2 ^.B.J.3X2X' 2 N C a P R Z f.$XrXgXqXb.8 0 J.sXxX#X>.OXiX[.<.} k o mXmXmXmXmXmXmXmXmXmXmXmXmXmXmXmXmXmXmXmXmXmXmXmXmXmXmXmXmXmXmXmXmXmXmX",
"mX% 5 h ` { ] j 5 q L ~ d.Y.S.L 4 Z ^ H 1 $ S *XjXgX4Xm.,   n 0XzX4Xa.` 2.2.R a a -   mXmXmXmXmXmXmXmXmXmXmXmXmXmXmXmXmXmXmXmXmXmXmXmXmXmXmXmXmXmXmXmXmXmXmX",
"mX% 5 I U j j I E i O 8 ) W R w.0._ ;.5.P h M.sXcX@Xy o 2 Z $XgX4XB * g J 5 . O o % mXmXmXmXmXmXmXmXmXmXmXmXmXmXmXmXmXmXmXmXmXmXmXmXmXmXmXmXmXmXmXmXmXmXmXmX",
"mXmX- q w 5 * e ` I ; L w.3.>.0.4.R P ;.S.-XsXjXoXj . $ R 1XrX@XR     - 5 X   mXmXmXmXmXmXmXmXmXmXmXmXmXmXmXmXmXmXmXmXmXmXmXmXmXmXmXmXmXmXmXmXmXmXmXmXmXmXmX",
"mXmXmX& % % . & h I g { Q.'.q.I r 7 p ( I.eXhXXXw $ _ _ 4.<X-XB . . & @ @ % mXmXmXmXmXmXmXmXmXmXmXmXmXmXmXmXmXmXmXmXmXmXmXmXmXmXmXmXmXmXmXmXmXmXmXmXmXmXmXmX",
"mXmXmXmXmXmXmX% 5 q w a K U h * o * U r.B.A.S.[ # J _.u.! ^ v   o f e o o mXmXmXmXmXmXmXmXmXmXmXmXmXmXmXmXmXmXmXmXmXmXmXmXmXmXmXmXmXmXmXmXmXmXmXmXmXmXmXmXmX",
"mXmXmXmXmXmXmXmX% o % O     O   * K 6.t.U * % 2 ` p.u.' 2 .   O q R g & mXmXmXmXmXmXmXmXmXmXmXmXmXmXmXmXmXmXmXmXmXmXmXmXmXmXmXmXmXmXmXmXmXmXmXmXmXmXmXmXmXmX",
"mXmXmXmXmXmXmXmXmXmXmXo O       a ).r.i $   o ) {.r.0 X X 8 K n d q 2 mXmXmXmXmXmXmXmXmXmXmXmXmXmXmXmXmXmXmXmXmXmXmXmXmXmXmXmXmXmXmXmXmXmXmXmXmXmXmXmXmXmXmX",
"mXmXmXmXmXmXmXmXmXmXmXmX* * O O w u.`     & } ).r.k o & e { 6.' q O mXmXmXmXmXmXmXmXmXmXmXmXmXmXmXmXmXmXmXmXmXmXmXmXmXmXmXmXmXmXmXmXmXmXmXmXmXmXmXmXmXmXmXmX",
"mXmXmXmXmXmXmXmXmXmXmXmXmXmXmX% O - i 6 O = B.i.- o ' t.6.] I I u % mXmXmXmXmXmXmXmXmXmXmXmXmXmXmXmXmXmXmXmXmXmXmXmXmXmXmXmXmXmXmXmXmXmXmXmXmXmXmXmXmXmXmXmX",
"mXmXmXmXmXmXmXmXmXmXmXmXmXmXmXa O   e E - O E U % a _.|.6.d e R I &   mXmXmXmXmXmXmXmXmXmXmXmXmXmXmXmXmXmXmXmXmXmXmXmXmXmXmXmXmXmXmXmXmXmXmXmXmXmXmXmXmXmXmX",
"mXmXmXmXmXmXmXmXmXmXmXmXo i ] R a w W } e   O 5 ' /.).| a 5 I 1.W =   mXmXmXmXmXmXmXmXmXmXmXmXmXmXmXmXmXmXmXmXmXmXmXmXmXmXmXmXmXmXmXmXmXmXmXmXmXmXmXmXmXmXmX",
"mXmXmXmXmXmXmXmXmXmXmXmXI w 0 K W U } 6.' e = h /.}.e.U h j W W f & O mXmXmXmXmXmXmXmXmXmXmXmXmXmXmXmXmXmXmXmXmXmXmXmXmXmXmXmXmXmXmXmXmXmXmXmXmXmXmXmXmXmXmX",
"mXmXmXmXmXmXmXmXmXmXmXmXmXf   w I d ( r./.y.6.6.e.r.0.r.t.6.R = O % * mXmXmXmXmXmXmXmXmXmXmXmXmXmXmXmXmXmXmXmXmXmXmXmXmXmXmXmXmXmXmXmXmXmXmXmXmXmXmXmXmXmXmX",
"mXmXmXmXmXmXmXmXmXmXo mXmXW - q s u j <.p./.(.i.5.1.r.p.r.6.I o   O mXmXmXmXmXmXmXmXmXmXmXmXmXmXmXmXmXmXmXmXmXmXmXmXmXmXmXmXmXmXmXmXmXmXmXmXmXmXmXmXmXmXmXmX",
"mXmXmXmXmXmXmXmXmXmXo f #.4.[ I a a K W ` { 6.i.r.0.r.4.` Q a & . & & mXmXmXmXmXmXmXmXmXmXmXmXmXmXmXmXmXmXmXmXmXmXmXmXmXmXmXmXmXmXmXmXmXmXmXmXmXmXmXmXmXmXmX",
"mXmXmXmXmXmXmXmXmXmXo * e | p.#.R j } ;.i - <.'.).6.| ) I w % O - a q . mX@ % % % o     O   mXmXmXmXmXmXmXmXmXmXmXmXmXmXmXmXmXmXmXmXmXmXmXmXmXmXmXmXmXmXmXmX",
"mXmXmXmXmXmXmXmXmXmXmXmX. f :.:.! [ i.Q.e   R )./.1.` R d &   . e E a @ o & * & % % & @ % * = mXmXmXmXmXmXmXmXmXmXmXmXmXmXmXmXmXmXmXmXmXmXmXmXmXmXmXmXmXmXmX",
"mXmXmXmXmXmXmXmXmXmXmXmXmX- q 0 f | (.p.f   o e R <.4.j o   X 7 J I h u w e u w q I ' ` } e.' = mXmXmXmXmXmXmXmXmXmXmXmXmXmXmXmXmXmXmXmXmXmXmXmXmXmXmXmXmXmX",
"mXmXmXmXmXmXmXmXmXmXmXmXmXmXO   ; E 4.W q O   o r W ) e .   5 I E K s J U E I h h <._.[.}._.| * X mXmXmXmXmXmXmXmXmXmXmXmXmXmXmXmXmXmXmXmXmXmXmXmXmXmXmXmXmX",
"mXmXmXmXmXmXmXmXmXmXmXmXmXmXmXX % 5 q - @ % j E g 2 = 0 i h h I R Q f d ( | E d s ` p.OX[.' 0 * mXmXmXmXmXmXmXmXmXmXmXmXmXmXmXmXmXmXmXmXmXmXmXmXmXmXmXmXmXmX",
"mXmXmXmXmXmXmXmXmXmXmXmXmXmXmX- & X       - ` 7.{ 5   5 E ! h w T 4.{ I R W I s g a j 4.' &   o * mXmXmXmXmXmXmXmXmXmXmXmXmXmXmXmXmXmXmXmXmXmXmXmXmXmXmXmXmX",
"mXmXmXmXmXmXmXmXmXmXmXmXmXmX* * * % % % * & % g <.{ w 7 u h 6 5 T p._.0.K q a U I 0   @ * o     O o % @ & * mXmXmXmXmXmXmXmXmXmXmXmXmXmXmXmXmXmXmXmXmXmXmXmX",
"mXmXmXmXmXmXmXmXmXmXmXmXmXmX* * * * * - * &   & I [ U R E E I I E ;.t.p.} J i g k r @     o 5 i 5 & 2 q - & mXmXmXmXmXmXmXmXmXmXmXmXmXmXmXmXmXmXmXmXmXmXmXmX",
"mXmXmXmXmXmXmXmXmXmXmXmXmXmXmXmXmXmXmXmXmXmXmXmX% e  .7.t.r.r.r.' a k | u.6.J 7 e T E f - 5 E t.} a a I 5 @ mXmXmXmXmXmXmXmXmXmXmXmXmXmXmXmXmXmXmXmXmXmXmXmX",
"mXmXmXmXmXmXmXmXmXmXmXmXmXmXmXmXmXmXmXmXmXmXmXmX  - | i.i.t./.{.e.g 0 K 6.r.' J I ;.p.1.' ] e.}.[.1.I a - mXmXmXmXmXmXmXmXmXmXmXmXmXmXmXmXmXmXmXmXmXmXmXmXmX",
"mXmXmXmXmXmXmXmXmXmXmXmXmXmXmXmXmXmXmXmXmXmX- X O i 4.4.{ ! | i.(.u.{ T j W 5.t.r.q.0.7.e.y.i.Q.}.`.j O mXmXmXmXmXmXmXmXmXmXmXmXmXmXmXmXmXmXmXmXmXmXmXmXmXmX",
"mXmXmXmXmXmXmXmXmXmXmXmXmXmXmXmXmXmXmXmXmXmX* @ & 0 j j i e w s <.[.'.6. .{ 0.i.Q.r.0.t.r.1.U h I U -   mXmXmXmXmXmXmXmXmXmXmXmXmXmXmXmXmXmXmXmXmXmXmXmXmXmX",
"mXmXmXmXmXmXmXmXmXmXmXmXmXmXmXmXmXmXmXmXmXmX& * * & % % @ % X   i i.'.t.0.r.r.r.0.0.0.i.q.R *     O @ & & & mXmXmXmXmXmXmXmXmXmXmXmXmXmXmXmXmXmXmXmXmXmXmXmX",
"mXmXmXmXmXmXmXmXmXmXmXmXmXmXmXmXmXmXmXmXmXmXmX- - @     . .     % j I I } i.!.q.{ } e.Q.1.j 0 - & = h T 0 % mXmXmXmXmXmXmXmXmXmXmXmXmXmXmXmXmXmXmXmXmXmXmXmX",
"mXmXmXmXmXmXmXmXmXmXmXmXmXmXmXmXmXmXmXmXmXmXmXmXmXmXmXmXmXmXmXmXmXX   O e 4.i.5.E ! q.i.6.{ W | | 4.7.| q o mXmXmXmXmXmXmXmXmXmXmXmXmXmXmXmXmXmXmXmXmXmXmXmX",
"mXmXmXmXmXmXmXmXmXmXmXmXmXmXmXmXmXmXmXmXmXmXmXmXmXmXmXmXmXmXmXmXmXmXmXmX- w e j | 4.6.i.).!.i.Q.{.`.` 2 % mXmXmXmXmXmXmXmXmXmXmXmXmXmXmXmXmXmXmXmXmXmXmXmXmX",
"mXmXmXmXmXmXmXmXmXmXmXmXmXmXmXmXmXmXmXmXmXmXmXmXmXmXmXmXmXmXmXmXmXmXmXmXmXX   2 W [ Q { 6.0.6.6.!.r.a   mXmXmXmXmXmXmXmXmXmXmXmXmXmXmXmXmXmXmXmXmXmXmXmXmXmX",
"mXmXmXmXmXmXmXmXmXmXmXmXmXmXmXmXmXmXmXmXmXmXmXmXmXmXmXmXmXmXmXmXmXmXmXmXmXmXmXmX0 q 2 0 a a i a h f * mXmXmXmXmXmXmXmXmXmXmXmXmXmXmXmXmXmXmXmXmXmXmXmXmXmXmX",
"mXmXmXmXmXmXmXmXmXmXmXmXmXmXmXmXmXmXmXmXmXmXmXmXmXmXmXmXmXmXmXmXmXmXmXmXmXmXmXmX& @ o o o X o X X @ mXmXmXmXmXmXmXmXmXmXmXmXmXmXmXmXmXmXmXmXmXmXmXmXmXmXmXmX",
"mXmXmXmXmXmXmXmXmXmXmXmXmXmXmXmXmXmXmXmXmXmXmXmXmXmXmXmXmXmXmXmXmXmXmXmXmXmXmXmXmXmXmXmXmXmXmXmXmXmXmXmXmXmXmXmXmXmXmXmXmXmXmXmXmXmXmXmXmXmXmXmXmXmXmXmXmXmX"
};
