/* XPM */
static xpm_row_t const opponent_atack3_xpm[] = {
/* columns rows colors chars-per-pixel */
"78 80 219 2 ",
"   c #020103",
".  c #050309",
"X  c #09060B",
"o  c #0C0A0E",
"O  c #030214",
"+  c #0E0C11",
"@  c #09051A",
"#  c #110E13",
"$  c #120A1D",
"%  c #141116",
"&  c #161319",
"*  c #1A161C",
"=  c #1C191D",
"-  c #100D0E",
";  c #2C171E",
":  c #29211F",
">  c #37221B",
",  c #050D28",
"<  c #120F27",
"1  c #1E1B21",
"2  c #191729",
"3  c #161834",
"4  c #221E24",
"5  c #231C2B",
"6  c #242126",
"7  c #262329",
"8  c #2A252C",
"9  c #2C292D",
"0  c #292426",
"q  c #262432",
"w  c #2E2B31",
"e  c #2C2A38",
"r  c #322C34",
"t  c #352E39",
"y  c #352B36",
"u  c #353236",
"i  c #3A3336",
"p  c #36323A",
"a  c #3A343C",
"s  c #3C393E",
"d  c #382727",
"f  c #492D24",
"g  c #493427",
"h  c #54392C",
"j  c #423B3D",
"k  c #443637",
"l  c #533F34",
"z  c #613F32",
"x  c #5B4434",
"c  c #574539",
"v  c #4B423F",
"b  c #674B39",
"n  c #724D3D",
"m  c #72463B",
"M  c #65513D",
"N  c #72563E",
"B  c #353643",
"V  c #3D3541",
"C  c #3E3A41",
"Z  c #3E3D4A",
"A  c #302C46",
"S  c #423C44",
"D  c #453D4A",
"F  c #4A3F48",
"G  c #444245",
"H  c #4A4445",
"J  c #46434A",
"K  c #4A444C",
"L  c #4C4A4D",
"P  c #47484A",
"I  c #544948",
"U  c #53514F",
"Y  c #4D4651",
"T  c #4E4C52",
"R  c #454855",
"E  c #524D53",
"W  c #554D59",
"Q  c #4E5155",
"!  c #545255",
"~  c #565359",
"^  c #5A555C",
"/  c #5D5A5D",
"(  c #5A5556",
")  c #654D42",
"_  c #6A5747",
"`  c #735544",
"'  c #7D5B49",
"]  c #765946",
"[  c #665B57",
"{  c #754F40",
"}  c #7C634C",
"|  c #6D655E",
" . c #786457",
".. c #4B4A65",
"X. c #5C5662",
"o. c #5E5B61",
"O. c #585567",
"+. c #524F64",
"@. c #625C64",
"#. c #655E69",
"$. c #655A67",
"%. c #656265",
"&. c #66626A",
"*. c #6A646D",
"=. c #6D696E",
"-. c #6C6A66",
";. c #776A67",
":. c #6D6671",
">. c #6E6972",
",. c #676677",
"<. c #716574",
"1. c #726B75",
"2. c #766D7A",
"3. c #796F7B",
"4. c #76717A",
"5. c #7A727D",
"6. c #767275",
"7. c #7A7566",
"8. c #825E49",
"9. c #82644D",
"0. c #86664A",
"q. c #826651",
"w. c #856B54",
"e. c #896C55",
"r. c #896B57",
"t. c #8D7259",
"y. c #8D765B",
"u. c #92745B",
"i. c #99785C",
"p. c #A07E5D",
"a. c #83796A",
"s. c #967B61",
"d. c #9B7D63",
"f. c #967B67",
"g. c #867A76",
"h. c #947E77",
"j. c #A17D62",
"k. c #A97F62",
"l. c #9D8266",
"z. c #9B8B6D",
"x. c #86837B",
"c. c #968E74",
"v. c #A18265",
"b. c #A18569",
"n. c #A6896C",
"m. c #AA8A6B",
"M. c #B28D6C",
"N. c #A68E74",
"B. c #AC9474",
"V. c #A79778",
"C. c #B69977",
"Z. c #B1916E",
"A. c #B8A27D",
"S. c #C39E78",
"D. c #C7A77B",
"F. c #7D7581",
"G. c #7F7982",
"H. c #827A85",
"J. c #857D89",
"K. c #807783",
"L. c #86818A",
"P. c #89828C",
"I. c #8D8694",
"U. c #928B94",
"Y. c #958C99",
"T. c #A6A68B",
"R. c #B8A887",
"E. c #B6B795",
"W. c #A8A991",
"Q. c #9F92A2",
"!. c #AA9EAC",
"~. c #ACA4B2",
"^. c #B3A6B6",
"/. c #C4A581",
"(. c #CCAD89",
"). c #C7AC87",
"_. c #D2AF83",
"`. c #CAB28B",
"'. c #D7B689",
"]. c #C8BB94",
"[. c #D4BC92",
"{. c #D9BD95",
"}. c #E3BF8F",
"|. c #D9C598",
" X c #C9C398",
".X c #E6C798",
"XX c #F3CD9A",
"oX c #CCC8A2",
"OX c #DCCEA1",
"+X c #D6D5A9",
"@X c #E6CEA2",
"#X c #ECD5A5",
"$X c #E6D7A6",
"%X c #F6DBA8",
"&X c #EAE3AE",
"*X c #FCE3AB",
"=X c #EAE6B4",
"-X c #FDECB4",
";X c #F7EBB7",
":X c #FEF2B4",
">X c #FBF3BB",
",X c #FFF9BC",
"<X c #F6F3BF",
"1X c #B8AEC1",
"2X c #C5B9C6",
"3X c #D3CDD3",
"4X c #D4D4D7",
"5X c #EEF7C2",
"6X c #FFFFC4",
"7X c #FFFFCB",
"8X c #FFFFD3",
"9X c #FFFFDB",
"0X c #DFD7E1",
"qX c #E0DEE1",
"wX c #FFFFE3",
"eX c #FEFEFF",
"rX c #F3F7F9",
"tX c #ECEAF2",
"yX c None",
/* pixels */
"yXyXyXyXyXyXyXyXyXyXyXyXyXyXyXyXyXyXyXyXyXyXyXyXyXyXyXyXyXyXyXyXyXyXyXyXyXyXyXyXyXyXyXyXyXyXyXyXyXyXyXyXyXyXyXyXyXyXyXyXyXyXyXyXyXyXyXyXyXyXyXyXyXyXyXyXyXyX",
"yXyXyXyXyXyXyXyXyXyXyXyXyXyXyXyXyXyXyXyXyXyXyXyXyX% # # + % # # # % # # # # # # % yXyXyXyXyXyXyXyXyXyXyXyXyXyXyXyXyXyXyXyXyXyXyXyXyXyXyXyXyXyXyXyXyXyXyXyXyX",
"yXyXyXyXyXyXyXyXyXyXyXyXyXyXyXyXyXyXyXyXyXyXyXyXyX8 w 7 8 8 8 7 6 4 8 8 8 8 6 8 r = yXyXyXyXyXyXyXyXyXyXyXyXyXyXyXyXyXyXyXyXyXyXyXyXyXyXyXyXyXyXyXyXyXyXyXyX",
"yXyXyXyXyXyXyXyXyXyXyXyX& * * # . . o % * & .   * @.4.*.$.*.:.*.P G @.>.*.~ L >.K.u     + yXyXyXyXyXyXyXyXyXyXyXyXyXyXyXyXyXyXyXyXyXyXyXyXyXyXyXyXyXyXyXyXyX",
"yXyXyXyXyXyXyXyXyXyXyXyXyX# o 4 C G 8 % X * 6 6 K 5.L.F.G.K.F.5.&.%.5.K.J.*.P E ^ C 9 p u * yXyXyXyXyXyXyXyXyXyXyXyXyXyXyXyXyXyXyXyXyXyXyXyXyXyXyXyXyXyXyXyX",
"yXyXyXyXyXyXyXyXyXyXyXyXyXyX  a H.H.T &   * K :.2.:.$.*.>.:.:.*.*.*.*.:.1.~ r X   u =.L.*.4 . yXyXyXyXyXyXyXyXyXyXyXyXyXyXyXyXyXyXyXyXyXyXyXyXyXyXyXyXyXyXyX",
"yXyXyXyXyXyXyXyXyXyXyXyXyXX 1 C $.*.^ P V s ~ K.J.1.1.>.@.~ @.2.3.1.:.*.:.@.E y & = G 5.1.6   yXyXyXyXyXyXyXyXyXyXyXyXyXyXyXyXyXyXyXyXyXyXyXyXyXyXyXyXyXyXyX",
"yXyXyXyXyXyXyXyXyXyXyXyXo 1 S S r u E 2.K.~ L $.1.>.2.1.~ G / 1.:.:.:.*.:.1.2.:.! %   S ! 4 . yXyXyXyXyXyXyXyXyXyXyXyXyXyXyXyXyXyXyXyXyXyXyXyXyXyXyXyXyXyXyX",
"yXyXyXyXyXyXyXyXyXyXyX+ r P E K S G ! =.=.T C K K S K ^ #.#.W K E %.>.1.*.<.J.J.4.P 8 0 8 yXyXyXyXyXyXyXyXyXyXyXyXyXyXyXyXyXyXyXyXyXyXyXyXyXyXyXyXyXyXyXyXyX",
"yXyXyXyXyXyXyXyXyXyX+ 4 ! %.! T ! E L T H a r y r r t G =.3.Y 7 a ^ %.4.1.*.%.:.1.=.! =   yXyXyXyXyXyXyXyXyXyXyXyXyXyXyXyXyXyXyXyXyXyXyXyXyXyXyXyXyXyXyXyXyX",
"yXyXyXyXyXyXyXyXyX* W 2.-./ ^ L S j S S s t p j E @.[ T L Y a w a K J @.J.$.0 * t E E =   yXyXyXyXyXyXyXyXyXyXyXyXyXyXyXyXyXyXyXyXyXyXyXyXyXyXyXyXyXyXyXyXyX",
"yXyXyXyXyXyXyXyXX 1 *.H.T s ! P t t t a t a S P %.5.1.E i 9 a S t 8 4 C =.D .   . 7 a 4 + yXyXyXyXyXyXyXyXyXyXyXyXyXyXyXyXyXyXyXyXyXyXyXyXyXyXyXyXyXyXyXyXyX",
"yXyXyXyXyXyXyXyX% * 8 8 % 4 J Y S S j a p C S D Y Y K a r r E L 4     . % % yXyXyX& * * % yXyXyXyXyXyXyXyXyXyXyXyXyXyXyXyXyXyXyXyXyXyXyXyXyXyXyXyXyXyXyXyXyX",
"yXyXyXyXyXyXyXyX% o       & 8 r r w r a S a y r 9 5 w S S V ! ! r = 7 4 = & yXyXyXyX+ % * yXyXyXyXyXyXyXyXyXyXyXyXyXyXyXyXyXyXyXyXyXyXyXyXyXyXyXyXyXyXyXyXyX",
"yXyXyXyXyX& % o .     # y 8 X   + . o t K 9 # * # X w [ ~ C a G *.F.2.4.F.L # yXyXyXyXyXyXyXyXyXyXyXyXyXyXyXyXyXyXyXyXyXyXyXyXyXyXyXyXyXyXyXyXyXyXyXyXyXyXyX",
"yXyXyXyXyX% 4 9 u w 4 r W E 8 % * * 4 8 9 #   # + . 7 P S r 4 w W 1.*.*.4.K # yXyXyXyXyXyXyXyXyXyXyXyXyXyXyXyXyXyXyXyXyXyXyXyXyXyXyXyXyXyXyXyXyXyXyXyXyXyXyX",
"yXyXyXyXyXyXyX@.5.>.~ L &.3.1.^ P E ! 6     % yXyXyXyX& & % & % & * & & * & yXyXyXyXyXyXyXyXyXyXyXyXyXyXyXyXyXyXyXyXyXyXyXyXyXyXyXyXyXyXyXyXyXyXyXyXyXyXyXyX",
"yXyXyXyXyXyX1 C -.4./ ! :.F.J.2.&.%.~ u 1 5 6 yXyXyXyXX o # % o .   .     yXyXyXyXyXyXyXyXyXyXyXyXyXyXyXyXyXyXyXyXyXyXyXyXyXyXyXyXyXyXyXyXyXyXyXyXyXyXyXyXyX",
"yXyXyXyXyX+   . i ( L L &.1.:.1.1./ K T W E t & + yXyXyXyXyXyXyXyXyXyXyXyXyXyXyXyXyXyXyXyXyXyXyXyXyXyXyXyXyXyXyXyXyXyXyXyXyXyXyXyXyXyXyXyXyXyXyXyXyXyXyXyXyX",
"yXyXyXyX* u w 0 s ! @.@.,.*.*.*.1.#.^ [ / P t w 4 + yXyXyXyXyXyXyXyXyXyXyXyXyXyXyXyXyXyXyXyXyXyXyXyXyXyXyXyXyXyXyXyXyXyXyXyXyXyXyXyXyXyXyXyXyXyXyXyXyXyXyXyX",
"yXyXyXo 9 o.%.~ L W *.5.<.*.*.*.:.2.1.o.P u a D a % + yXyXyXyXyXyXyXyXyXyXyXyXyXyXyXyXyXyXyXyXyXyXyXyXyXyXyXyXyXyXyXyXyXyXyXyXyXyXyXyXyXyXyXyXyXyXyXyXyXyXyX",
"yX% 4 s / -.o.K j S T o.*.:.:.*.*.<.<.~ G H D S V r 1 o yXyXyXyXyXyXyXyXyXyXyXyXyXyXyXyXyXyXyXyXyXyXyXyXyXyXyXyXyXyXyXyXyXyXyXyXyXyXyXyXyXyXyXyXyXyXyXyXyXyX",
"yX# 8 ~ %.T C y r t Z ! *.:.=.:.:.1.:.^ P ! L j V F r & # yXyXyXyXyXyXyXyXyXyXyXyXyXyXyXyXyXyXyXyXyXyXyXyXyXyXyXyXyXyXyXyXyXyXyXyXyXyXyXyXyXyXyXyXyXyXyXyXyX",
"yXyXyXyXyX= 8 a y p / *.*.*.<.2.F.J.J.<./ ! U E L a p y 4 % yXyXyXyXyXyXyXyXyXyXyXyXyXyXyXyXyXyXyXyXyXyXyXyXyXyXyXyXyXyXyXyXyXyXyXyXyXyXyXyXyXyXyXyXyXyXyXyX",
"yXyXyXyXyXX 7 S p V *.K.2.:.*.*.$./ o.2.4./ P U P s S D 9 % yXyXyXyXyXyXyXyXyXyXyXyXyXyXyXyXyXyXyXyXyXyXyXyXyXyXyXyXyXyXyXyXyXyXyXyXyXyXyXyXyXyXyXyXyXyXyXyX",
"yXyXyXo * w a V p a E 1.P.K.@.s 6   X @.Y.=.S u s E W G 8 # yXyXyXyXyXyXyXyXyXyXyXyXyXyXyXyXyXyXyXyXyXyXyX% .   . yXyXyXo . o yXyXyXyXyXyXyXyXyXyXyXyXyXyXyX",
"yXyXyX+ 8 K K p a a j G W / ! 9     % S o.@.E j S T E S 6 + yXyXyXyXyXyXyXyXyXyXyXyXyXyXyXyXyXyXyXyXyXyX# % 9 w 6 % yXyX7 6 = % yXyXyXyXyXyXyXyXyXyXyXyXyXyX",
"yXyXyXyX8 K F p a a 1 o   1 L r . S 2.7   s =.%.T p a a 6 X yXyXyXyXyXyXyXyXyXyXyXyXyXyXyXyXyXyXyXyXyXyX. * $.L.@.6   & ~ %.P 1   yXyXyXyXyXyXyXyXyXyXyXyXyX",
"yXyXyXyXyXr s S L a # . 1 w 0 o   E P.T # 6 s s S S J D r = & yXyXyXyXyXyXyXyXyXyXyXyXyXyXyXyXyXyXyXyXyXyX& L 6.g./ 9 8 G %.*.G * & yXyXyXyXyXyXyXyXyXyXyXyX",
"yXyXyXyXyXyXyXK E S o 4 3.*.X   X i %.J.*.6     8 [ @.S S a 4 # yXyXyXyXyXyXyXyXyXyXyXyXyXyXyXyXyXyXyXyXyXyX  5 ,.U.J.C X a 2.=.L 6 # yXyXyXyXyXyXyXyXyXyXyX",
"yXyXyXyXyXyX* 6 4 * . 4 $.1.S 2 o O q &.F.Q 6 # & 2 7 4 S K 9 o yXyXyXyXyXyXyXyXyXyXyXyXyXyXyXyXyXyXyXyXyXyXyXo t <.U.K   w K.4.T 4 # yXyXyXyXyXyXyXyXyXyXyX",
"yXyXyXyXyX& o . . X X # 8 ^ K.#.q $ 5 s / 5.4.E 1     o r K y + yXyXyXyXyXyXyXyXyXyXyXyXyXyXyXyXyXyXyXyXyXyXyXyX  8 F.E . s 5.=.G 4 % yXyXyXyXyXyXyXyXyXyXyX",
"yXyXyXyXyXyXw K Y C 7 # 5 V ^ g.N.R.V.a , W 4.Y ( y.v . O 0 * o + yXyXyXyXyXyXyXyXyXyXyXyXyXyXyXyXyXyXyXyX& yXyX  8 K.T   6 $.6./ 7 # yXyXyXyXyXyXyXyXyXyXyX",
"yXyXyXyXyXyXyXP.I.1.Y w y w B a..X7X7X7.$ p Q B a.%X`.V $ + # & & & yXyXyXyXyXyXyXyXyXyXyXyXyXyXyXyXyXyX& % = +   w F.E o * L 5.<.w # yXyXyXyXyXyXyXyXyXyXyX",
"yXyXyXyXyX  u O.X.R &.@.J R O.*.a.[.:X>XT.B O , [ S.#X XU   O 0 1 # .   X yXyXyXyXyXyXyXyXyXyXyXyXyXyXyX% % i w   6 2.=.r w L 4.1.9 # yXyXyXyXyXyXyXyXyXyXyX",
"yXyXyXyXyX% i L U E :.:.! ( 1.W q _ '.9X9Xa.< 5 i z [.8X].a A D T S 4 # * & yXyXyXyXyXyXyXyXyXyXyXyXyXyX  * / / % 1 <.*.s a L 4.:.w + yXyXyXyXyXyXyXyXyXyXyX",
"yXyXyXo w O. .i.D.R.V < l ) e 3 3 I n..X-X5X Xu.d @ [ #X6X+Xx.R 2.K.~ S G 0 o yXyXyXyXyXyXyXyXyXyXyXyXyX  * 1.5.w 0 @.G # 0 ! 5.2.w # yXyXyXyXyXyXyXyXyXyXyX",
"yXyXyX. B F.x.i.}..X-.r b b j R &.| 8.i.(.;X:X'.' B I M.,X9XT.O.1X3XY.#.*.s = o yXyXyXyXyXyXyXyXyXyXyXyXX & W <.Y L E w . 6 ! 1.*.8 # yXyXyXyXyXyXyXyXyXyXyX",
"yXyXyX  6 / o.L  .B.&XOXr.' R.&X=XV.n 0.s.] } /.%X=XV.{ S.*X;...tXeX^.*.1.Y u # o yXyXyXyXyXyXyXyXyXyXyXyXyX% r $.*.! a w s U o.E 8 # yXyXyXyXyXyXyXyXyXyXyX",
"yXyXyX1 i P R s ) i.%X:XC.j./.*X6X#XB.i.] f g f.#X8X&Xz.v.C. .g.3XeXtX^.5.E J 9 = # yXyXyXyXyXyXyXyXyXyXyXyX  o #.J.@.L V G Q ( P 6 # yXyXyXyXyXyXyXyXyXyXyX",
"yX# 4 P +.T H x w.l.u.n.|.D.t.d.|.6X6XA.] 8.` h ' (.,X8XR.n M.'.;.J.eXeX2.C L C p % X yXyXyXyXyXyXyXyXyXyXyX  & X.J.F.^ p a ! @.! 8 % yXyXyXyXyXyXyXyXyXyXyX",
"yX# 0 [ [ P M 0.} } ] u./.C.q.8.n.). XA.B.[.C.x f u.@X8X+XN..X|.k A 4XqX2.W %.~ H a 8 & yXyXyXyXyXyXyXyXyXyX+ 9 #.5.1.E r S ! P p 1 % yXyXyXyXyXyXyXyXyXyXyX",
"yX# 0 M N x 9.d._ x e.b.t.w.y.d.e.x g d.%X7X=Xl.` } b._.;X8X>X/.v 3 X.4.>.1.2.X.L ! ! 6 o yXyXyXyXyXyXyX% % 7 K 1.1.( j r K ! r X yXyXyXyXyXyXyXyXyXyXyXyXyX",
"yX# : b } } i.d.w.M N w.n.n.t.l.B.} h ] C.$X;XOXB.q.8.p. X,X*X/.w.k y V E @.@./ E ~ L 4 X yXyXyXyXyXyXyXo % a ~ $.~ L S Z ! ! 0   yXyXyXyXyXyXyXyXyXyXyXyXyX",
"yX% : c w.s.d.u.l.y.x _ [.{.e.l.@X{.s.h g d.@X6X$Xl.' q.b._.{.`.S.q.H q r a L ! E H y = + yXyXyXyXyXyXyXo & G ! T P E E L / ! 9 - yXyXyXyXyXyXyXyXyXyXyXyXyX",
"yX% : c e.b.l.u.b.l.h x |..Xe.b.#X.Xs.g : 0.XX9X<Xz.) ] d.D.[.`.D.u.k < 7 p P ! E D 9 & % yXyXyXyXyXyXyX. - s / @./ L L U @./ w o yXyXyXyXyXyXyXyXyXyXyXyXyX",
"yX% : x w.u.i.u.l.w.x _ (.(.r.b.[.C.q.l M N.#X>X|.s.` r.B.{..X(.Z.] j q a F E ! L P a * + yXyXyXyXyXyXyXX % i @.4.<.E P L / ! 9 o yXyXyXyXyXyXyXyXyXyXyXyXyX",
"yX% > b N N t.b.} x } u.d.f.u.j.m.) f } '.>X;X`.d.9.0.m.$X7X-X/._ r V K X.*.*./ E ^ W 6 o yXyXyXyXyXyXo & r W 1.K.*.P P E s 6 & yXyXyXyXyXyXyXyXyXyXyXyXyXyX",
"yX# 0 ) _ x } i._ x q.d.u.t.t.t.w.M M n.%X7X$Xw.l q.B..X<X5X-XD.i 3 1.U.4.<.2./ L ! L 6 o yXyXyXyXyX+ & 8 J *.F.>.@.! ~ / w . yXyXyXyXyXyXyXyXyXyXyXyXyXyXyX",
"yX# 0 / @.L c N e.w.' i.`./.} ' C.@X=XR.v.C.l.g f k.*XwXoXt.'..Xk R rXeX4.Y / E D 9 * yXyXyXyXyXyXo = y s T 1.2.~ ~ *.4.%.u X yXyXyXyXyXyXyXyXyXyXyXyXyXyXyX",
"yX% 6 Z Q R S l 9.v.m.A.|.).l.C.%X8X6XC.b z b c s..X7X5XB.n d.`.J.^.eXeX4.S L a r # . yXyXyXyXyX# * r K E ^ *.o.G L >.*.K 9 % yXyXyXyXyXyXyXyXyXyXyXyXyXyXyX",
"yXyXyX# w K R B c v.:X,XB.i.'.,X7X|.i.t.' > f j.-X9X$Xr.d.S. .,.qXeX0XQ.3.E J 4 % + yXyXyXyXyXo * p H W &.>.o.L S L / S * # yXyXyXyXyXyXyXyXyXyXyXyXyXyXyXyX",
"yXyXyX  8 &.#.[ s.D.|.E.' n n.oX+Xz.z 8.n.y.n.'.@XoXl.m _.7Xg...rXeX!.$.1.T w + o yXyXyXyXyX% * 9 S H E 1.5.E v ! @./ u   yXyXyXyXyXyXyXyXyXyXyXyXyXyXyXyXyX",
"yXyXyX. C F.c.i..XXXU 2 x b w t R _ q.k.[.6X6X_.) 3 j C.6XwXW.O.^.2XJ.@.-.i # o yXyXyX& + o = a D t p L >.2.L J *.5.%.s # + yXyXyXyXyXyXyXyXyXyXyXyXyXyXyXyX",
"yXyXyXyXq E [ e.C.V.D 3 c I B 3 , S M.*X7X=XT. .;    .,X6XE.5.W <.#.S w u 1 yXyXyXyX+ 4 6 * 7 S S p L $.@.~ ~ &.2.*.G 7 % yXyXyXyXyXyXyXyXyXyXyXyXyXyXyXyXyX",
"yXyXyXyXyXX w T J Z >.2.E ~ F...e _ .XwX9X-.O < i n |.8XW.2 5 V D 9 o   X # yXyXyXo % p F S t u i P #.F.! G $.5.-.S & X yXyXyXyXyXyXyXyXyXyXyXyXyXyXyXyXyXyX",
"yXyXyXyXyXyXa ,.,.Q #.$.J Z ^ ;.N.#X7X&Xx.e O , | }.%XE.P     * # # 8 9 4 * yXyX+ 1 w a D K C a L &.*.o.@.*.4.&.s * X yXyXyXyXyXyXyXyXyXyXyXyXyXyXyXyXyXyXyX",
"yXyXyXyXyXyXyXJ.I.:.J 8 w e B a.XX8X7X| O t ! B g.*X/.q O . o o   = E $.F 8 # o # w S a p E ! K o.3.o.G %.G.=.v # X yXyXyXyXyXyXyXyXyXyXyXyXyXyXyXyXyXyXyXyX",
"yXyXyXyXyX% 8 D J a 1 # * C &.g.l.N.a.w < o.L.+.I _ d     4 9 u 4 8 H W F 7 # * w V j a G o.*.#.:.=.%.! J p w 6 + yXyXyXyXyXyXyXyXyXyXyXyXyXyXyXyXyXyXyXyXyX",
"yXyXyXyXyX& # X . X . % y o.F.O.3 @ 2 s | 4.>.K *     o 6 S ~ / L p t t S 7 # 6 F S p K [ >.F.F.o.P ! ! 6   . % yXyXyXyXyXyXyXyXyXyXyXyXyXyXyXyXyXyXyXyXyXyX",
"yXyXyXyXyXyXyXyXyXyX  0 4.2.u X O + w 4.L.C X X # 7 B E @.$.:.=.%.P y p E r o 4 D K L *.4.5.5.1.K = 1 8 & yXyXyXyXyXyXyXyXyXyXyXyXyXyXyXyXyXyXyXyXyXyXyXyXyX",
"yXyXyXyXyXyXyXyXyXyX. 7 2.#.o   . p -.F.@.6     4 U 4.F.5.1.2.<.~ G a G @.j o = S P ~ *.2.1.%.L 9 .   # yXyXyXyXyXyXyXyXyXyXyXyXyXyXyXyXyXyXyXyXyXyXyXyXyXyX",
"yXyXyXyXyXyXyXyXyXyXX o = 8 9 # X ^ U.s   V / G u J / 2.2.<.2.<.S 9 S / &.S # = C S V K E W S 1 + # o yXyXyXyXyXyXyXyXyXyXyXyXyXyXyXyXyXyXyXyXyXyXyXyXyXyXyX",
"yXyXyXyXyXyXyXyXyXyX4 *   = W p   a *.8 - $.U.=.! T o.*.*.*.1.*.K a ! ! ! 8 X 4 H D t w 8 r 4 o o * yXyXyXyXyXyXyXyXyXyXyXyXyXyXyXyXyXyXyXyXyXyXyXyXyXyXyXyX",
"yXyXyXyXyXyXyXyX# * a S w S &.G     + P 3.K.F.2.>.>.:.:.*.*.*.*.>.*.@.C 4 . . 8 K T a 1 o % * yXyXyXyXyXyXyXyXyXyXyXyXyXyXyXyXyXyXyXyXyXyXyXyXyXyXyXyXyXyXyX",
"yXyXyXyXyXyXyXyXyX& w S D J G v w # + Y 3.#.^ @.#.#.&.*.:.*.:.:.1.=./ u X X 6 r y a r % o o yXyXyXyXyXyXyXyXyXyXyXyXyXyXyXyXyXyXyXyXyXyXyXyXyXyXyXyXyXyXyXyX",
"yXyXyXyXyXyXyXyXyXyX+ 4 s y # 8 / %.P s y r p H L H ! >.:.*.2.>.o.L K w + 4 K y # # * yXyXyXyXyXyXyXyXyXyXyXyXyXyXyXyXyXyXyXyXyXyXyXyXyXyXyXyXyXyXyXyXyXyXyX",
"yXyXyXyXyXyXyXyXyXyXyX* S y yX# s @.*.! s u s ~ O.~ o.*.1.*.&.o.~ s y = # 6 p 6 o o % yXyXyXyXyXyXyXyXyXyXyXyXyXyXyXyXyXyXyXyXyXyXyXyXyXyXyXyXyXyXyXyXyXyXyX",
"yXyXyXyXyXyXyXyXyXyXyXyXyXyXyXyXX u o.%.! L ! *.1.1.>.&.:.*.~ G J r * o & % & yXyXyXyXyXyXyXyXyXyXyXyXyXyXyXyXyXyXyXyXyXyXyXyXyXyXyXyXyXyXyXyXyXyXyXyXyXyXyX",
"yXyXyXyXyXyXyXyXyXyXyXyXyXyXyXyXyX6 u 8 8 s ! *.>.*.>.5.J.5.=.E u = # + yXyXyXyXyXyXyXyXyXyXyXyXyXyXyXyXyXyXyXyXyXyXyXyXyXyXyXyXyXyXyXyXyXyXyXyXyXyXyXyXyXyX",
"yXyXyXyXyXyXyXyXyXyXyXyXyXyXyXyXyXyXo   o s / ! P P / >.4.<.*.L 6 . # * yXyXyXyXyXyXyXyXyXyXyXyXyXyXyXyXyXyXyXyXyXyXyXyXyXyXyXyXyXyXyXyXyXyXyXyXyXyXyXyXyXyX",
"yXyXyXyXyXyXyXyXyXyXyXyXyXyXyXyXyXyXyX6 P 5.4.u * 4 9 p a p i 8 * yXyXyXyXyXyXyXyXyXyXyXyXyXyXyXyXyXyXyXyXyXyXyXyXyXyXyXyXyXyXyXyXyXyXyXyXyXyXyXyXyXyXyXyXyX",
"yXyXyXyXyXyXyXyXyXyXyXyXyXyXyXyXyXyXyXyX%.K.$.=   X o X . X X + yXyXyXyXyXyXyXyXyXyXyXyXyXyXyXyXyXyXyXyXyXyXyXyXyXyXyXyXyXyXyXyXyXyXyXyXyXyXyXyXyXyXyXyXyXyX",
"yXyXyXyXyXyXyXyXyXyXyXyXyXyXyXyXyXyX% 1 9 r 9 yXyXyXyXyXyXyXyXyXyXyXyXyXyXyXyXyXyXyXyXyXyXyXyXyXyXyXyXyXyXyXyXyXyXyXyXyXyXyXyXyXyXyXyXyXyXyXyXyXyXyXyXyXyXyX",
"yXyXyXyXyXyXyXyXyXyXyXyXyXyXyXyXyX& & % % + # yXyXyXyXyXyXyXyXyXyXyXyXyXyXyXyXyXyXyXyXyXyXyXyXyXyXyXyXyXyXyXyXyXyXyXyXyXyXyXyXyXyXyXyXyXyXyXyXyXyXyXyXyXyXyX",
"yXyXyXyXyXyXyXyXyXyXyXyXyXyXyXyXyXyXyXyXyXyXyXyXyXyXyXyXyXyXyXyXyXyXyXyXyXyXyXyXyXyXyXyXyXyXyXyXyXyXyXyXyXyXyXyXyXyXyXyXyXyXyXyXyXyXyXyXyXyXyXyXyXyXyXyXyXyX",
"yXyXyXyXyXyXyXyXyXyXyXyXyXyXyXyXyXyXyXyXyXyXyXyXyXyXyXyXyXyXyXyXyXyXyXyXyXyXyXyXyXyXyXyXyXyXyXyXyXyXyXyXyXyXyXyXyXyXyXyXyXyXyXyXyXyXyXyXyXyXyXyXyXyXyXyXyXyX",
"yXyXyXyXyXyXyXyXyXyXyXyXyXyXyXyXyXyXyXyXyXyXyXyXyXyXyXyXyXyXyXyXyXyXyXyXyXyXyXyXyXyXyXyXyXyXyXyXyXyXyXyXyXyXyXyXyXyXyXyXyXyXyXyXyXyXyXyXyXyXyXyXyXyXyXyXyXyX",
"yXyXyXyXyXyXyXyXyXyXyXyXyXyXyXyXyXyXyXyXyXyXyXyXyXyXyXyXyXyXyXyXyXyXyXyXyXyXyXyXyXyXyXyXyXyXyXyXyXyXyXyXyXyXyXyXyXyXyXyXyXyXyXyXyXyXyXyXyXyXyXyXyXyXyXyXyXyX",
"yXyXyXyXyXyXyXyXyXyXyXyXyXyXyXyXyXyXyXyXyXyXyXyXyXyXyXyXyXyXyXyXyXyXyXyXyXyXyXyXyXyXyXyXyXyXyXyXyXyXyXyXyXyXyXyXyXyXyXyXyXyXyXyXyXyXyXyXyXyXyXyXyXyXyXyXyXyX"
};
