/* XPM */
static xpm_row_t const opponent_atack1_xpm[] = {
/* columns rows colors chars-per-pixel */
"78 80 224 2 ",
"   c #020103",
".  c #050309",
"X  c #09060B",
"o  c #0C090E",
"O  c #0F0C11",
"+  c #0C091C",
"@  c #060318",
"#  c #110E14",
"$  c #1F0C1B",
"%  c #141116",
"&  c #161319",
"*  c #19151B",
"=  c #1C191E",
"-  c #271F1F",
";  c #21101D",
":  c #3D2B1F",
">  c #29221E",
",  c #110E22",
"<  c #1E1A21",
"1  c #1A1528",
"2  c #191B32",
"3  c #0E0F29",
"4  c #221E24",
"5  c #221E2B",
"6  c #251F31",
"7  c #1D2337",
"8  c #252126",
"9  c #262229",
"0  c #2A252C",
"q  c #2C2A2E",
"w  c #292423",
"e  c #3C2725",
"r  c #2D2630",
"t  c #2E2A31",
"y  c #2D2B3B",
"u  c #262637",
"i  c #322C34",
"p  c #342E38",
"a  c #353136",
"s  c #36323A",
"d  c #3A353C",
"f  c #3D3A3E",
"g  c #3A3335",
"h  c #442C22",
"j  c #4A3529",
"k  c #52382C",
"l  c #483D3A",
"z  c #4F3630",
"x  c #48413D",
"c  c #5B4634",
"v  c #59453A",
"b  c #634C39",
"n  c #6B4B3B",
"m  c #664937",
"M  c #6D513F",
"N  c #74543C",
"B  c #714B3B",
"V  c #3B3641",
"C  c #3E3A42",
"Z  c #393A46",
"A  c #32364E",
"S  c #423D44",
"D  c #443D49",
"F  c #443A41",
"G  c #3F4149",
"H  c #444245",
"J  c #464249",
"K  c #4A454C",
"L  c #4D4A4D",
"P  c #4A4645",
"I  c #564946",
"U  c #57534E",
"Y  c #4E4551",
"T  c #4D4B52",
"R  c #454A55",
"E  c #524D53",
"W  c #554F59",
"Q  c #584F5B",
"!  c #545255",
"~  c #5B5557",
"^  c #565159",
"/  c #5A555B",
"(  c #5D5A5D",
")  c #5D5853",
"_  c #6C5444",
"`  c #66544A",
"'  c #695347",
"]  c #725443",
"[  c #745C47",
"{  c #745C4A",
"}  c #7B5D4A",
"|  c #7B5745",
" . c #645952",
".. c #675F5A",
"X. c #755C52",
"o. c #654B42",
"O. c #7D614D",
"+. c #6B655B",
"@. c #786556",
"#. c #5D5662",
"$. c #5E5B62",
"%. c #585768",
"&. c #625D65",
"*. c #655E69",
"=. c #665C6C",
"-. c #656265",
";. c #676169",
":. c #6A636D",
">. c #6D6A6D",
",. c #676566",
"<. c #776E68",
"1. c #7A7265",
"2. c #6D6671",
"3. c #6F6872",
"4. c #66687B",
"5. c #726B75",
"6. c #766D79",
"7. c #756B79",
"8. c #7A727D",
"9. c #787377",
"0. c #805B46",
"q. c #82634D",
"w. c #88694C",
"e. c #836650",
"r. c #856A53",
"t. c #8A6E55",
"y. c #8C6F5A",
"u. c #8E7055",
"i. c #8C735B",
"p. c #94755C",
"a. c #95785F",
"s. c #977559",
"d. c #926E55",
"f. c #A27C57",
"g. c #826E64",
"h. c #8B7768",
"j. c #957C62",
"k. c #9B7D63",
"l. c #937A66",
"z. c #897872",
"x. c #A27D63",
"c. c #988169",
"v. c #878373",
"b. c #968673",
"n. c #94927D",
"m. c #A38569",
"M. c #A28B6C",
"N. c #AA8C6D",
"B. c #A78666",
"V. c #B7926D",
"C. c #AC9373",
"Z. c #AA9A77",
"A. c #B49373",
"S. c #B4997A",
"D. c #B99F7B",
"F. c #B79877",
"G. c #B18F6C",
"H. c #B9A27E",
"J. c #AEA27E",
"K. c #C39C73",
"L. c #CAA57D",
"P. c #D1A97C",
"I. c #7D7580",
"U. c #7E7787",
"Y. c #7E7895",
"T. c #817684",
"R. c #837B86",
"E. c #867D89",
"W. c #887F8C",
"Q. c #8E7F90",
"!. c #8A818E",
"~. c #878089",
"^. c #8D8590",
"/. c #938895",
"(. c #979890",
"). c #A89B84",
"_. c #A79F9B",
"`. c #B9A686",
"'. c #B1B392",
"]. c #8C8FA7",
"[. c #A399A5",
"{. c #AEABB7",
"}. c #BCBBBF",
"|. c #CAAC84",
" X c #C5AA85",
".X c #CBB38B",
"XX c #D4B58D",
"oX c #DCBA8C",
"OX c #CAB892",
"+X c #D7BA92",
"@X c #D2AC82",
"#X c #D9C799",
"$X c #CAC399",
"%X c #E3C599",
"&X c #E6CB9E",
"*X c #EBC997",
"=X c #E9D69F",
"-X c #EBC992",
";X c #DDD5A4",
":X c #CBCEA7",
">X c #EACFA2",
",X c #E8D8A6",
"<X c #F6D9A5",
"1X c #DAE3B9",
"2X c #EDE1AE",
"3X c #F2E2AB",
"4X c #FEE8AE",
"5X c #F9EAB5",
"6X c #FDF3BA",
"7X c #FFFBBE",
"8X c #F9F2BA",
"9X c #C2BFC6",
"0X c #BFC0CD",
"qX c #C7C1C9",
"wX c #D9D4DB",
"eX c #FFFDC4",
"rX c #FFFFCC",
"tX c #FFFFD2",
"yX c #FFFFD8",
"uX c #E9E4E8",
"iX c #FEFEFF",
"pX c #F8F5FB",
"aX c #F8F4E9",
"sX c None",
/* pixels */
"sXsXsXsXsXsXsXsXsXsXsXsXsXsXsXsXsXsXsXsXsXsXsXsXsXsXsXsXsXsXsXsXsXsXsXsXsXsXsXsXsXsXsXsXsXsXsXsXsXsXsXsXsXsXsXsXsXsXsXsXsXsXsXsXsXsXsXsXsXsXsXsXsXsXsXsXsXsX",
"sXsXsXsXsXsXsXsXsXsXsXsXsXsXsXsXsX. = sXsXsXsXsXsXsXsXsXsXsXsXsXsXsXsXsXsXsXsXsXsXsXsXsXsXsXsXsXsXsXsXsXsXsXsXsXsXsXsXsXsXsXsXsXsXsXsXsXsXsXsXsXsXsXsXsXsXsX",
"sXsXsXsXsXsXsXsXsXsXsXsXsXsXsXsXsX. = sXsXsXsXsXsXsXsXsXsXsXsXsXsXsXsXsXsXsXsXsXsXsXsXsXsXsXsXsXsXsXsXsXsXsXsXsXsXsXsXsXsXsXsXsXsXsXsXsXsXsXsXsXsXsXsXsXsXsX",
"sXsXsXsXsXsXsXsXsXsXsXsXsXsXsXsXsX. = 6.2.#   * % O X . . . .   . X o o o .     sXsXsXsXsXsXsXsXsXsXsXsXsXsXsXsXsXsXsXsXsXsXsXsXsXsXsXsXsXsXsXsXsXsXsXsXsXsX",
"sXsXsXsXsXsXsXsXsXsXsXsXsXsXsXsXsXsX& #.;.a % o # 4 i f d d f f f i 9 9 0 s f C t sXsXsXsXsXsXsXsXsXsXsXsXsXsXsXsXsXsXsXsXsXsXsXsXsXsXsXsXsXsXsXsXsXsXsXsXsX",
"sXsXsXsXsXsXsXsXsXsX* % X X O sXsXsX& l ( ( a . # d $.I.5.6.6.8.8.-.L K ~ :.I.~.E o   o sXsXsXsXsXsXsXsXsXsXsXsXsXsXsXsXsXsXsXsXsXsXsXsXsXsXsXsXsXsXsXsXsXsX",
"sXsXsXsXsXsXsXsXsXsXo 9 ! ! g * sX& i G ..6./ i F =.8.R.R.6.-.:.8.5.&.&.*.3.I.^.:.f S E 4 sXsXsXsXsXsXsXsXsXsXsXsXsXsXsXsXsXsXsXsXsXsXsXsXsXsXsXsXsXsXsXsXsX",
"sXsXsXsXsXsXsXsXsXsX  t I.~.( 0 X 0 K K ( 3.:.~ -.8.5.:.3.*.J L ;.2.3.3.3.2.:.3.-.! 5.!.S   sXsXsXsXsXsXsXsXsXsXsXsXsXsXsXsXsXsXsXsXsXsXsXsXsXsXsXsXsXsXsXsX",
"sXsXsXsXsXsXsXsXsXsXsXsXi E -.! f f V d L &./ S D Y C S ^ ~ S ! 8.8.5.3.2.7.-.K i 4 K 5.3.E 8 % sXsXsXsXsXsXsXsXsXsXsXsXsXsXsXsXsXsXsXsXsXsXsXsXsXsXsXsXsXsX",
"sXsXsXsXsXsXsXsXsXsXsXsX  * L $.( D p i s P D p i p t s H L L / *.:.:.:.:.7.&.H *   % H 8.E.i O sXsXsXsXsXsXsXsXsXsXsXsXsXsXsXsXsXsXsXsXsXsXsXsXsXsXsXsXsXsX",
"sXsXsXsXsXsXsX* o .       X & a E K S S F C d p C L ,.3.! ~ 6.*.C H ~ 3.8.5.;.7.f     = ~ >.q # sXsXsXsXsXsXsXsXsXsXsXsXsXsXsXsXsXsXsXsXsXsXsXsXsXsXsXsXsXsX",
"sXsXsXsXsXsXsX% 4 0 0 0 8 & o = t t i t i d d d S ! :.3.K K 2.Q 0 q K ^ -.:.8.!.;.a .   0 H 8 % sXsXsXsXsXsXsXsXsXsXsXsXsXsXsXsXsXsXsXsXsXsXsXsXsXsXsXsXsXsX",
"sXsXsXsXsXsXsXsXsX,.5.:.! S i %   X o   = C K F S S S V s s F f p f J F K 2.W.I.R.!.J . X = sXsXsXsXsXsXsXsXsXsXsXsXsXsXsXsXsXsXsXsXsXsXsXsXsXsXsXsXsXsXsXsX",
"sXsXsXsXsXsXsXsX0 T 5.6.~ ! ^ S 9 4 - < 4 0 q i q 0 t s S S t a H p < # < S ^ K ! ;.K 8 o X sXsXsXsXsXsXsXsXsXsXsXsXsXsXsXsXsXsXsXsXsXsXsXsXsXsXsXsXsXsXsXsX",
"sXsXsXsXsXsXsXo   o S ~ H ^ 2.8.3./ L ( H % . % # % t Y ( ~ s S ~ 0     . o % # o X 0 K i O sXsXsXsXsXsXsXsXsXsXsXsXsXsXsXsXsXsXsXsXsXsXsXsXsXsXsXsXsXsXsXsX",
"sXsXsXsXsXsX8 f 0 q H ~ ( :.5.8.8.>.&.-.L 9 o o X sX; t a d s E 5.&.C L D *   sXsXsX< p 4 # sXsXsXsXsXsXsXsXsXsXsXsXsXsXsXsXsXsXsXsXsXsXsXsXsXsXsXsXsXsXsXsX",
"sXsXsXsXsXo a -.&.^ L ^ 5.6.:.;.;.7.2.~ J J t # sXsX& # . # i W 6.R.I./.8.i   sXsXsXsX# # * sXsXsXsXsXsXsXsXsXsXsXsXsXsXsXsXsXsXsXsXsXsXsXsXsXsXsXsXsXsXsXsX",
"sXsXsXsX9 J ( -.E S F H E &.2.2.;.6.:.E H ! S 0 * sXsXsXsXsX< q s F f J C 4 sXsXsXsXsXsXsXsXsXsXsXsXsXsXsXsXsXsXsXsXsXsXsXsXsXsXsXsXsXsXsXsXsXsXsXsXsXsXsXsX",
"sXsXsXo a ( ( K f i i d H / 2.2.:.3.*.! K ~ E J 0 % sXsXsXsX# o .       . sXsXsXsXsXsXsXsXsXsXsXsXsXsXsXsXsXsXsXsXsXsXsXsXsXsXsXsXsXsXsXsXsXsXsXsXsXsXsXsXsX",
"sXsXsXsXsXsXsX= i V 0 S :.9.;.6.U.R.I.5.&.~ ! ^ S 0 & X sXsXsXsXsXsXsXsXsXsXsXsXsXsXsXsXsXsXsXsXsXsXsXsXsXsXsXsXsXsXsXsXsXsXsXsXsXsXsXsXsXsXsXsXsXsXsXsXsXsX",
"sXsXsXsXsXsXsX# t S s K ;.7.3.&./ ! $.5.:.T J E E J 0 % sXsXsXsXsXsXsXsXsXsXsXsXsXsXsXsXsXsXsXsXsXsXsXsXsXsXsXsXsXsXsXsXsXsXsXsXsXsXsXsXsXsXsXsXsXsXsXsXsXsX",
"sXsXsXsXsX% 9 f p F ~ / F #.T.L %   # ~ ,.d r p J ~ K i = # sXsXsXsXsXsXsXsXsXsXsXsXsXsXsXsXsXsXsXsXsXsXsXsXsXsXsXsXsXsXsXsXsXsXsXsXsXsXsXsXsXsXsXsXsXsXsXsX",
"sXsXsXsXsX# i K S f K s # C 8.f   o 0 q a C S F K L E f < o sXsXsXsXsXsXsXsXsXsXsXsXsXsXsXsXsXsXsXsXsXsXsXsXsXsXsXsXsXsXsXsXsXsXsXsXsXsXsXsXsXsXsXsXsXsXsXsX",
"sXsXsXsXsXsXsXsXsXsX<     q ,.a . &.8.o . ~ >.$.J t V s & . sXsXsXsXsXsXsXsXsXsXsXsXsXsXsXsXsXsXsXsXsXsXsXsXsXsXsXsXsXsXsXsXsXsXsXsXsXsXsXsXsXsXsXsXsXsXsXsX",
"sXsXsXsXsXsXsXsXsXsX. # F C 0 o X / I.J 9 q i a S K K d t < sXsXsXsXsXsXsXsXsXsXsXsXsXsXsXsXsXsXsXsXsXsXsXsXsXsXsXsXsXsXsXsXsXsXsXsXsXsXsXsXsXsXsXsXsXsXsXsX",
"sXsXsXsXsXsXsXsXsXsX  g !.#.    % g +.!.*.o     g ,.E d D d = o sXsXsXsXsXsXsXsXsXsXsXsXsXsXsXsXsXsXsXsXsXsXsXsXsXsXsXsXsXsXsXsXsXsXsXsXsXsXsXsXsXsXsXsXsXsX",
"sXsXsXsXsX* O sXsXsX  9 / *.J 9 + + u *.3.T i < , & % 8 J D = o sXsXsXsXsXsXsXsXsXsXsXsXsXsXsXsXsXsXsXsXsXsXsXsXsXsXsXsXsXsXsXsXsXsXsXsXsXsXsXsXsXsXsXsXsXsX",
"sXsXsXsXsX% % & & & O & 5 ^ W.=.a i s f ( R.6.D = .   % g f = o sXsXsXsXsXsXsXsXsXsXsXsXsXsXsXsXsXsXsXsXsXsXsXsXsXsXsXsXsXsXsXsXsXsXsXsXsXsXsXsXsXsXsXsXsXsX",
"sXsXsXsXsXsXV -.:.E r = r V R b..X,X'.9 @ &.$.G v.D.l . # * # o O sXsXsXsXsXsXsXsXsXsXsXsXsXsXsXsXsXsXsXsXsXsXsXsXsXsXsXsXsXsXsXsXsXsXsXsXsXsXsXsXsXsXsXsXsX",
"sXsXsXsXsXsXK ~.!.5.E V d s G c.*XrX7X1.6 S Z Z `.4X).V & . * = = * sXsXsXsXsXsXsXsXsXsXsXsXsXsXsXsXsXsXsXsXsXsXsXsXsXsXsXsXsXsXsXsXsXsXsXsXsXsXsXsXsXsXsXsX",
"sXsXsXsXsX  0 %.A J 5.2.J ^ 6.%...H.4XrX'.5 @ 7 _ K.4X:Xp   9 t 4 O     O sXsXsXsXsXsXsXsXsXsXsXsXsXsXsXsXsXsXsXsXsXsXsXsXsXsXsXsXsXsXsXsXsXsXsXsXsXsXsXsXsX",
"sXsXsXsX= r x  .+.+.=.#.U ~ =.A 7 X.oXyXrX1.g F e v ,XtX).R K Y &.S < 4 4 sXsXsXsXsXsXsXsXsXsXsXsXsXsXsXsXsXsXsXsXsXsXsXsXsXsXsXsXsXsXsXsXsXsXsXsXsXsXsXsXsX",
"sXsXsXX Z 6.g.B.*XOXu o m x 2 3 V ' B.|.4XrX>Xt.* @ h.4XrX1X:.=.[.T.Q ^ S =   sXsXsXsXsXsXsXsXsXsXsXsXsXsXsXsXsXsXsXsXsXsXsXsXsXsXsXsXsXsXsXsXsXsXsXsXsXsXsX",
"sXsXsX  p 8.1.r.L.XXb.+.N M +.z.n.@.| k.L.$X#X@Xc.,.@.V.eXeX#.Y.iXwX7.7.( p # sXsXsXsXsXsXsXsXsXsXsXsXsXsXsXsXsXsXsXsXsXsXsXsXsXsXsXsXsXsXsXsXsXsXsXsXsXsXsX",
"sXsXsX  9 ! R R I B.eX6Xw.p.*X7X7XC.n p.O.e O.#XrXeXb.n |. XS ].iXiXQ.7.&.K 0 & O sXsXsXsXsXsXsXsXsXsXsXsXsXsXsXsXsXsXsXsXsXsXsXsXsXsXsXsXsXsXsXsXsXsXsXsXsX",
"sXsX= t G R H x ] B..X#X XF.D.&X6X5X.Xj.m j c p.#X7X,X`.x.d.c._.}.pXiX{.E E d t & o sXsXsXsXsXsXsXsXsXsXsXsXsXsXsXsXsXsXsXsXsXsXsXsXsXsXsXsXsXsXsXsXsXsXsXsX",
"sX# 9 ~ $.T v b u.k.] p.&X X] s.XXeXeXM.} m.| h } XXtXtXc.[ *XF.p {.iX}.D E L K q # o sXsXsXsXsXsXsXsXsXsXsXsXsXsXsXsXsXsXsXsXsXsXsXsXsXsXsXsXsXsXsXsXsXsXsX",
"sX# 9 ` ' x { u.M _ t.k.m.k.r.i.j.i.c.H.#X2XZ.k n N.#X5X;X#X<Xc.3 %.9X[.=.3.&.E J K q % sXsXsXsXsXsXsXsXsXsXsXsXsXsXsXsXsXsXsXsXsXsXsXsXsXsXsXsXsXsXsXsXsXsX",
"sXO > b N b u.m._ c r.p.t.t.p.j.u.h j N.5XeX,Xc.} e.k.XXrXtX>Xl.i 5 Y / :.8.:.! ! -.f O sXsXsXsXsXsXsXsXsXsXsXsXsXsXsXsXsXsXsXsXsXsXsXsXsXsXsXsXsXsXsXsXsXsX",
"sX% > b q.u.a.a.i.e.v r. XS.r.C.|.c.[ M a.+X2X,XS.e.r.x.OX>X%XS.r.I V d H E ~ ! L K 0 % sXsXsXsXsXsXsXsXsXsXsXsXsXsXsXsXsXsXsXsXsXsXsXsXsXsXsXsXsXsXsXsXsXsX",
"sX% - c u.m.c.u.M.a.j [ >X.XO.H.>X|.t.e k G.5XtX#Xq.] r.G.XX+X|.V._ 5 1 t l T ! K d 4 % sXsXsXsXsXsXsXsXsXsXsXsXsXsXsXsXsXsXsXsXsXsXsXsXsXsXsXsXsXsXsXsXsXsX",
"sX+ - c t.c.k.u.m.a.j [ &X.XO.S.>X Xr.h c G.5XrX$Xe.] r.A.XX+X|.G.' 0 9 p F T ! K f 5 % sXsXsXsXsXsXsXsXsXsXsXsXsXsXsXsXsXsXsXsXsXsXsXsXsXsXsXsXsXsXsXsXsXsX",
"sX# w b q.w.a.j.t.O.n t.D.C.r.N.`.t.n [ M.#X<X#XC.O.e.N.#X,X&XC.{ l V Z E ^ ( ! E L t # sXsXsXsXsXsXsXsXsXsXsXsXsXsXsXsXsXsXsXsXsXsXsXsXsXsXsXsXsXsXsXsXsXsX",
"sX% - b N c t.m.o.c t.j.e.t.p.j.t.h j F.5XrX;Xl.| t.x.+XtXyX<Xi.u u / *.>.8.:.E ! -.f # sXsXsXsXsXsXsXsXsXsXsXsXsXsXsXsXsXsXsXsXsXsXsXsXsXsXsXsXsXsXsXsXsXsX",
"sX# w  . .x _ w.[ [ O.k.A.M.q.u.m.C.J.D..X>Xb.k n A.,XeX$X X<Xl., 4.uX[.&.;.&.E S f 9 sXsXsXsXsXsXsXsXsXsXsXsXsXsXsXsXsXsXsXsXsXsXsXsXsXsXsXsXsXsXsXsXsXsXsX",
"sX% 9 ! $.R v m u.x.} k.&X X} k.#XrXeXM.] s._ h t.+XyXrXl.N %XS.D 9XiX9XD L P S 0 o sXsXsXsXsXsXsXsXsXsXsXsXsXsXsXsXsXsXsXsXsXsXsXsXsXsXsXsXsXsXsXsXsXsXsXsX",
"sXsXsX9 Z L G H o.B.,X,XS.A.|.3X7X,XZ.p.m h m M.,XeX#XM.B.k.g._.wXpXuX[.Q E d 0 # sXsXsXsXsXsXsXsXsXsXsXsXsXsXsXsXsXsXsXsXsXsXsXsXsXsXsXsXsXsXsXsXsXsXsXsXsX",
"sXsXsX  8 ( R L ' N.7X2X} t.+X8X5XM.n a.t.j r.%XeX8Xc.B oXOXV ].iXiXT.7.&.D 5 % o sXsXsXsXsXsXsXsXsXsXsXsXsXsXsXsXsXsXsXsXsXsXsXsXsXsXsXsXsXsXsXsXsXsXsXsXsX",
"sXsXsX  Z U.z.d.oXoX<.P N m I +.9.@.q.x.XX2X,XL.@.R { L.rXrX*.Y.pXqX8.7.~ t # sXsXsXsXsXsXsXsXsXsXsXsXsXsXsXsXsXsXsXsXsXsXsXsXsXsXsXsXsXsXsXsXsXsXsXsXsXsXsX",
"sXsXsXo y 2.1.s.oX`.y + b l 2 3 y ` V.oX5XeX$XO.$ + c.6XrX:X,.%.Q.5.K L f & . sXsXsXsXsXsXsXsXsXsXsXsXsXsXsXsXsXsXsXsXsXsXsXsXsXsXsXsXsXsXsXsXsXsXsXsXsXsXsX",
"sXsXsXsXsX< d ) U ) 2.:.! ( 6.A u @.%XyXeX) 1 g j [ 4XrXv.p D K Q s & * = sXsXsXsXsXsXsXsXsXsXsXsXsXsXsXsXsXsXsXsXsXsXsXsXsXsXsXsXsXsXsXsXsXsXsXsXsXsXsXsXsX",
"sXsXsXsXsX  t %.R R :.;.J T 5.:.1.+X5X8X(.9 @ 7 @.P.3X'.r   5 0 4 O   . o sXsXsXsXsXsXsXsXsXsXsXsXsXsXsXsXsXsXsXsXsXsXsXsXsXsXsXsXsXsXsXsXsXsXsXsXsXsXsXsXsX",
"sXsXsXsXsXsXsX^.^.7.Y i d p Z b.<XtX6X) + K J Z `.5Xb.2 = O * & & & sXsXsXsXsXsXsXsXsXsXsXsXsXsXsXsXsXsXsXsXsXsXsXsXsXsXsXsXsXsXsXsXsXsXsXsXsXsXsXsXsXsXsXsX",
"sXsXsXsXsXsXp ! ^ H 9 = 9 S $.z.Z.OXn.q 3 2.:.D @.l.a . o O # O O sXsXsXsXsXsXsXsXsXsXsXsXsXsXsXsXsXsXsXsXsXsXsXsXsXsXsXsXsXsXsXsXsXsXsXsXsXsXsXsXsXsXsXsXsX",
"sXsXsXsXsX& O o O O o & 9 / R.#.9 1 0 f -.R.3.S &   . * sXsXsXsXsXsXsXsXsXsXsXsXsXsXsXsXsXsXsXsXsXsXsXsXsXsXsXsXsXsXsXsXsXsXsXsXsXsXsXsXsXsXsXsXsXsXsXsXsXsX",
"sXsXsXsXsX* sXsXsXsX  0 :.;.g 1 + , d 5.5.d * # 1 s = o sXsXsXsXsXsXsXsXsXsXsXsXsXsXsXsXsXsXsXsXsXsXsXsXsXsXsXsXsXsXsXsXsXsXsXsXsXsXsXsXsXsXsXsXsXsXsXsXsXsX",
"sXsXsXsXsXsXsXsXsXsX. a ~./     # f -.R.( o     l >.a X sXsXsXsXsXsXsXsXsXsXsXsXsXsXsXsXsXsXsXsXsXsXsXsXsXsXsXsXsXsXsXsXsXsXsXsXsXsXsXsXsXsXsXsXsXsXsXsXsXsX",
"sXsXsXsXsXsXsXsXsXsXo o 0 i 9 o O &.R.0 = K *.;.K 8 * % sXsXsXsXsXsXsXsXsXsXsXsXsXsXsXsXsXsXsXsXsXsXsXsXsXsXsXsXsXsXsXsXsXsXsXsXsXsXsXsXsXsXsXsXsXsXsXsXsXsX",
"sXsXsXsXsXsXsXsXsXsX4 X   4 E w X ^ 5.o % 5./.R.C   . * sXsXsXsXsXsXsXsXsXsXsXsXsXsXsXsXsXsXsXsXsXsXsXsXsXsXsXsXsXsXsXsXsXsXsXsXsXsXsXsXsXsXsXsXsXsXsXsXsXsX",
"sXsXsXsXsXsXX X s E d i 0 S / q     = E 2.&.J 4 O X o # sXsXsXsXsXsXsXsXsXsXsXsXsXsXsXsXsXsXsXsXsXsXsXsXsXsXsXsXsXsXsXsXsXsXsXsXsXsXsXsXsXsXsXsXsXsXsXsXsXsX",
"sXsXsXsXsXsXsX0 9 p F D F R ( f = . 4 3.~./ 0 . X < 4 = sXsXsXsXsXsXsXsXsXsXsXsXsXsXsXsXsXsXsXsXsXsXsXsXsXsXsXsXsXsXsXsXsXsXsXsXsXsXsXsXsXsXsXsXsXsXsXsXsXsX",
"sXsXsXsXsXsXsXsX* . i S s D E P H -.5./ E / H r 0 t g s = # sXsXsXsXsXsXsXsXsXsXsXsXsXsXsXsXsXsXsXsXsXsXsXsXsXsXsXsXsXsXsXsXsXsXsXsXsXsXsXsXsXsXsXsXsXsXsXsX",
"sXsXsXsXsXsXsXsXg = p f s C L ..>.8.3.L a x K W W E / J = . sXsXsXsXsXsXsXsXsXsXsXsXsXsXsXsXsXsXsXsXsXsXsXsXsXsXsXsXsXsXsXsXsXsXsXsXsXsXsXsXsXsXsXsXsXsXsXsX",
"sXsXsXsXsXO g -.( L V t i C K ;.6.-.J C t 9 K 2.8.2.,.K - . sXsXsXsXsXsXsXsXsXsXsXsXsXsXsXsXsXsXsXsXsXsXsXsXsXsXsXsXsXsXsXsXsXsXsXsXsXsXsXsXsXsXsXsXsXsXsXsX",
"sXsXsXsXsX% < s / -.T C K L / ( ^ K g i p J *.8.E.8.&.d i = # sXsXsXsXsXsXsXsXsXsXsXsXsXsXsXsXsXsXsXsXsXsXsXsXsXsXsXsXsXsXsXsXsXsXsXsXsXsXsXsXsXsXsXsXsXsXsX",
"sXsXsXsXsXsXsXo d ..! ! ! ^ ! H q p d t J 5.8.:.7.5.K t S g & o # O O % & sXsXsXsXsXsXsXsXsXsXsXsXsXsXsXsXsXsXsXsXsXsXsXsXsXsXsXsXsXsXsXsXsXsXsXsXsXsXsXsXsX",
"sXsXsXsXsXsXsXsX= a J E ! d = 9 V i p d ~ 8.7.! J S p i H K i g K &.*.a o sXsXsXsXsXsXsXsXsXsXsXsXsXsXsXsXsXsXsXsXsXsXsXsXsXsXsXsXsXsXsXsXsXsXsXsXsXsXsXsXsX",
"sXsXsXsXsXsXsXsXsXO 0 F g < . < S f F K ( 3.&.L d i i C L ( ! :.I.^.I.d   sXsXsXsXsXsXsXsXsXsXsXsXsXsXsXsXsXsXsXsXsXsXsXsXsXsXsXsXsXsXsXsXsXsXsXsXsXsXsXsXsX",
"sXsXsXsXsXsXsXsXsXsX= < * w f f d J L ! T L ^ &.:.;.K K ,.8.2.U.^.&.8 sXsXsXsXsXsXsXsXsXsXsXsXsXsXsXsXsXsXsXsXsXsXsXsXsXsXsXsXsXsXsXsXsXsXsXsXsXsXsXsXsXsXsX",
"sXsXsXsXsXsXsXsXsXsX# .   p >.E i J / L L P / 6.I.5.( L $.2.*.:.&.0   sXsXsXsXsXsXsXsXsXsXsXsXsXsXsXsXsXsXsXsXsXsXsXsXsXsXsXsXsXsXsXsXsXsXsXsXsXsXsXsXsXsXsX",
"sXsXsXsXsXsXsXsX& * * O . g 6.W 0 S L H L &.6.6.&.T L K p i C 9 o     o = sXsXsXsXsXsXsXsXsXsXsXsXsXsXsXsXsXsXsXsXsXsXsXsXsXsXsXsXsXsXsXsXsXsXsXsXsXsXsXsXsX",
"sXsXsXsXsXsXsXsXsX% * %   C !.&.i T &.! ( 7.5.&.L H ! / D l D s 8 t C 8 O sXsXsXsXsXsXsXsXsXsXsXsXsXsXsXsXsXsXsXsXsXsXsXsXsXsXsXsXsXsXsXsXsXsXsXsXsXsXsXsXsX",
"sXsXsXsXsXsXsXsXsXsXsXsX  C !.:.f &.8.3.:.5.$.K S P $.5.2.:.:.5.8.^.E.f . sXsXsXsXsXsXsXsXsXsXsXsXsXsXsXsXsXsXsXsXsXsXsXsXsXsXsXsXsXsXsXsXsXsXsXsXsXsXsXsXsX",
"sXsXsXsXsXsXsXsXsXsXsXsXsX8 S &.5.&.$.:.5.5.&.! ! $.5.U.I.R.!.3.T E ^ i sXsXsXsXsXsXsXsXsXsXsXsXsXsXsXsXsXsXsXsXsXsXsXsXsXsXsXsXsXsXsXsXsXsXsXsXsXsXsXsXsXsX",
"sXsXsXsXsXsXsXsXsXsXsXsXsXsX  K E.~ f &.2.:.:.>.3.3.5.6.5.6.W.T .   o sXsXsXsXsXsXsXsXsXsXsXsXsXsXsXsXsXsXsXsXsXsXsXsXsXsXsXsXsXsXsXsXsXsXsXsXsXsXsXsXsXsXsX",
"sXsXsXsXsXsXsXsXsXsXsXsXsXsXsX< S $.6.8.I.8.I.T.8.,.J t s V S 0 sXsXsXsXsXsXsXsXsXsXsXsXsXsXsXsXsXsXsXsXsXsXsXsXsXsXsXsXsXsXsXsXsXsXsXsXsXsXsXsXsXsXsXsXsXsX",
"sXsXsXsXsXsXsXsXsXsXsXsXsXsXsXsX  K E.5.:.:.2.3.-.H =     .   sXsXsXsXsXsXsXsXsXsXsXsXsXsXsXsXsXsXsXsXsXsXsXsXsXsXsXsXsXsXsXsXsXsXsXsXsXsXsXsXsXsXsXsXsXsXsX",
"sXsXsXsXsXsXsXsXsXsXsXsXsXsXsXsXsX4 p 0 0 0 0 q 9 8 sXsXsXsXsXsXsXsXsXsXsXsXsXsXsXsXsXsXsXsXsXsXsXsXsXsXsXsXsXsXsXsXsXsXsXsXsXsXsXsXsXsXsXsXsXsXsXsXsXsXsXsX",
"sXsXsXsXsXsXsXsXsXsXsXsXsXsXsXsXsX% o # % o o % o % sXsXsXsXsXsXsXsXsXsXsXsXsXsXsXsXsXsXsXsXsXsXsXsXsXsXsXsXsXsXsXsXsXsXsXsXsXsXsXsXsXsXsXsXsXsXsXsXsXsXsXsX",
"sXsXsXsXsXsXsXsXsXsXsXsXsXsXsXsXsXsXsXsXsXsXsXsXsXsXsXsXsXsXsXsXsXsXsXsXsXsXsXsXsXsXsXsXsXsXsXsXsXsXsXsXsXsXsXsXsXsXsXsXsXsXsXsXsXsXsXsXsXsXsXsXsXsXsXsXsXsX"
};
