/* XPM */
static xpm_row_t const opponent_anim0_xpm[] = {
/* columns rows colors chars-per-pixel */
"78 80 212 2 ",
"   c #010102",
".  c #05030A",
"X  c #09060B",
"o  c #0C0A0E",
"O  c #020014",
"+  c #0F0C11",
"@  c #09051A",
"#  c #110E13",
"$  c #141216",
"%  c #161318",
"&  c #1A151C",
"*  c #1C191D",
"=  c #241D1D",
"-  c #230D1A",
";  c #28201F",
":  c #3A261C",
">  c #1E1B21",
",  c #1A1625",
"<  c #131731",
"1  c #0A0820",
"2  c #221E24",
"3  c #231D2B",
"4  c #281D26",
"5  c #231D32",
"6  c #1F2029",
"7  c #242226",
"8  c #262229",
"9  c #2A252C",
"0  c #2C292D",
"q  c #282121",
"w  c #342C2D",
"e  c #2C2632",
"r  c #2E2A32",
"t  c #23273D",
"y  c #322C34",
"u  c #352E38",
"i  c #362931",
"p  c #353236",
"a  c #363239",
"s  c #3A353C",
"d  c #3D393D",
"f  c #4F2F28",
"g  c #443226",
"h  c #4D3429",
"j  c #513127",
"k  c #403B3D",
"l  c #4C3C39",
"z  c #523D3B",
"x  c #5A4435",
"c  c #514239",
"v  c #644B36",
"b  c #634B3B",
"n  c #6D4D36",
"m  c #6C523D",
"M  c #71513F",
"N  c #3D3641",
"B  c #3E3A41",
"V  c #3D3D49",
"C  c #343345",
"Z  c #423D44",
"A  c #453E48",
"S  c #413744",
"D  c #423B51",
"F  c #3F414B",
"G  c #3F4350",
"H  c #444245",
"J  c #4C4345",
"K  c #46424A",
"L  c #4A444C",
"P  c #4C4A4D",
"I  c #514D4E",
"U  c #524845",
"Y  c #4B4453",
"T  c #4E4B52",
"R  c #524D53",
"E  c #554E58",
"W  c #544B57",
"Q  c #4E5058",
"!  c #545155",
"~  c #555259",
"^  c #5A545B",
"/  c #5C595D",
"(  c #5C5757",
")  c #5B524D",
"_  c #6B4F41",
"`  c #714E40",
"'  c #65554A",
"]  c #6C5647",
"[  c #755D4A",
"{  c #7A5C49",
"}  c #755846",
"|  c #625C5D",
" . c #7C634C",
".. c #76655C",
"X. c #5C5561",
"o. c #5E5A62",
"O. c #5B5C70",
"+. c #615763",
"@. c #625D64",
"#. c #665E6A",
"$. c #695F69",
"%. c #646166",
"&. c #6A6564",
"*. c #67616A",
"=. c #6B646D",
"-. c #6C696D",
";. c #6E6F63",
":. c #7A7567",
">. c #6D6672",
",. c #6E6972",
"<. c #6A6376",
"1. c #706772",
"2. c #726B75",
"3. c #756E79",
"4. c #796F7D",
"5. c #76717A",
"6. c #7A737D",
"7. c #747175",
"8. c #746961",
"9. c #845D49",
"0. c #83624E",
"q. c #89684E",
"w. c #8A6C54",
"e. c #8D6F59",
"r. c #856A55",
"t. c #916D54",
"y. c #8C725A",
"u. c #82745F",
"i. c #93745B",
"p. c #94795E",
"a. c #997658",
"s. c #816F6B",
"d. c #967B61",
"f. c #9A7D63",
"g. c #827765",
"h. c #7D8270",
"j. c #8A836A",
"k. c #9C856C",
"l. c #9D8163",
"z. c #8E8976",
"x. c #AA8B6E",
"c. c #A48669",
"v. c #B08E6C",
"b. c #AD9371",
"n. c #AB9778",
"m. c #BA9672",
"M. c #B29977",
"N. c #B89A79",
"B. c #AE8F6D",
"V. c #AAA07E",
"C. c #B9A17D",
"Z. c #C59E7A",
"A. c #7D7682",
"S. c #7E7882",
"D. c #807683",
"F. c #827A84",
"G. c #857D89",
"H. c #887F8A",
"J. c #8B838E",
"K. c #878089",
"L. c #9F9D87",
"P. c #968B98",
"I. c #A19681",
"U. c #A79F98",
"Y. c #BDA282",
"T. c #BAA985",
"R. c #A2A48A",
"E. c #8A87A4",
"W. c #A297A4",
"Q. c #9FA4B6",
"!. c #B4ADB5",
"~. c #C4AD85",
"^. c #CCAC83",
"/. c #CBB88D",
"(. c #D2B28C",
"). c #D1B98D",
"_. c #D6B485",
"`. c #D4BA91",
"'. c #D5B590",
"]. c #E5BF8A",
"[. c #DCC296",
"{. c #D8C89B",
"}. c #DCD19E",
"|. c #CFC295",
" X c #E7CA9A",
".X c #F9D69D",
"XX c #CCD5AF",
"oX c #DAD4A3",
"OX c #D5CDA2",
"+X c #ECDBAC",
"@X c #E4D7A8",
"#X c #F4DDAB",
"$X c #FFDBA7",
"%X c #E9CBA1",
"&X c #EEE9AF",
"*X c #FDEAAE",
"=X c #FFE7AB",
"-X c #E7E8B7",
";X c #FFECB4",
":X c #F3E7B2",
">X c #FFF6BB",
",X c #FFFDBF",
"<X c #F7F1BC",
"1X c #BABBC2",
"2X c #C8C4C8",
"3X c #DBD2DC",
"4X c #FFFEC4",
"5X c #FFFFCD",
"6X c #FFFFD5",
"7X c #FFFFDB",
"8X c #FEFEFF",
"9X c None",
/* pixels */
"9X9X9X9X9X9X9X9X9X9X9X9X9X9X9X9X9X9X9X9X9X9X9X9X9X9X9X9X9X9X9X9X9X9X9X9X9X9X9X9X9X9X9X9X9X9X9X9X9X9X9X9X9X9X9X9X9X9X9X9X9X9X9X9X9X9X9X9X9X9X9X9X9X9X9X9X9X9X",
"9X9X9X9X9X9X9X9X9X9X9X9X9X9X9X9X9X9X9X9X9X9X9X9X9X% $ $ $ 9X9X9X9X9X9X9X9X9X9X9X9X9X9X9X9X9X9X9X9X9X9X9X9X9X9X9X9X9X9X9X9X9X9X9X9X9X9X9X9X9X9X9X9X9X9X9X9X9X",
"9X9X9X9X9X9X9X9X9X9X9X9X9X9X9X9X9X9X9X9X9X9X9X9X9X# % 9 9 9X9X9X9X9X9X9X9X9X9X9X9X9X9X9X9X9X9X9X9X9X9X9X9X9X9X9X9X9X9X9X9X9X9X9X9X9X9X9X9X9X9X9X9X9X9X9X9X9X",
"9X9X9X9X9X9X9X9X9X9X9X9X9X9X9X9X% % % o     X 9X9XX 8 2.=.&   9X9X9X9X9X9X9X9X9X9X9X9X9X9X9X9X9X9X9X9X9X9X9X9X9X9X9X9X9X9X9X9X9X9X9X9X9X9X9X9X9X9X9X9X9X9X9X",
"9X9X9X9X9X9X9X9X9X9X9X9X9X9X9X9X% $ # 9 H d 9 $ 9X  * =.7.p o 9X9X9X9X9X9X9X9X9X9X9X9X9X9X9X9X9X9X9X9X9X9X9X9X9X9X9X9X9X9X9X9X9X9X9X9X9X9X9X9X9X9X9X9X9X9X9X",
"9X9X9X9X9X9X9X9X9X9X9X9X9X9X9X9X9X9Xo Z G.6.P 2     * H @.^ a # X $ + X . o 9X9X9X9X9X9X9X9X9X9X9X9X9X9X9X9X9X9X9X9X9X9X9X9X9X9X9X9X9X9X9X9X9X9X9X9X9X9X9X9X",
"9X9X9X9X9X9X9X9X9X9X9X9X9X9X9X9X9X9X9Xy ~ *./ K 9 * 8 H | ,./ 0 $ % 9 s K s $ 9X9X9X9X9X9X9X9X9X9X9X9X9X9X9X9X9X9X9X9X9X9X9X9X9X9X9X9X9X9X9X9X9X9X9X9X9X9X9X",
"9X9X9X9X9X9X9X9X9X9X9X9X9X9X9X9X9X9X9X9Xo p / | ! d a K / 5.2.! s r R 3.K.1.0     o # o # # 9X9X9X9X9X9X9X9X9X9X9X9X9X9X9X9X9X9X9X9X9X9X9X9X9X9X9X9X9X9X9X9X",
"9X9X9X9X9X9X9X9X9X9X9X$ +     9X9X9X9Xo . 9 ~ +.~ Z s s L o.1.2.=.#.1.F.J.S.^ A A Z y p a 7     . 9X9X9X9X9X9X9X9X9X9X9X9X9X9X9X9X9X9X9X9X9X9X9X9X9X9X9X9X9X",
"9X9X9X9X9X9X9X9X9X9X% $ $ $ $ $ 9X9X% + o 7 s k s s s s s H / 1.5.,.2.=.=.>.,.6.A.1.! ! / d + X $ 9X9X9X9X9X9X9X9X9X9X9X9X9X9X9X9X9X9X9X9X9X9X9X9X9X9X9X9X9X",
"9X9X9X9X9X9X9X9X9X9X9X9Xs / #.A #   X . . X o X % u L A s s Z A L Z T ~ R P ! / 3.6.-.-.=./ L E ! 4 9X9X9X9X9X9X9X9X9X9X9X9X9X9X9X9X9X9X9X9X9X9X9X9X9X9X9X9X",
"9X9X9X9X9X9X9X9X9X9X9X9Xa =.H.*.2   $ * & & # + $ 9 B s s s s u u s Z P ! P L R #.2.>.,.1.3.F.J.S.Z # 9X9X9X9X9X9X9X9X9X9X9X9X9X9X9X9X9X9X9X9X9X9X9X9X9X9X9X",
"9X9X9X9X9X9X9X9X9X9X9X. X w / %.B y p P ^ X.W P s 2 # $ 7 s A H E $.^ P / >.=.=.>.2.-.=.>.3.F.6.=.=.^ &   9X9X9X9X9X9X9X9X9X9X9X9X9X9X9X9X9X9X9X9X9X9X9X9X9X",
"9X9X9X9X9X9X9X9X9X9X* * # % d / %.@./ -.S.G.S.2.R 8     + 0 H R =.2./ H ^ 1.1.=.=.=.,.,.>.=.+.Z d =.G.Y # 9X9X9X9X9X9X9X9X9X9X9X9X9X9X9X9X9X9X9X9X9X9X9X9X9X",
"9X9X9X9X9X9X9X9X9Xo r I P H J / 2.4.2.2.3.5.3.%.P d 4 o X $ 0 Z T L k s N Z Z Z L / 2.6.2.^ a % $ H 7.6.^ 8 $ 9X9X9X9X9X9X9X9X9X9X9X9X9X9X9X9X9X9X9X9X9X9X9X",
"9X9X9X9X9X9X9X9X$ 0 R -.%.R L P @.*.#.#.=.=.*./ R P Z 9 $ X $ 9 y y s S u 4 9 9 d R @.1.A.$.S #   o K S.F.y + 9X9X9X9X9X9X9X9X9X9X9X9X9X9X9X9X9X9X9X9X9X9X9X",
"9X9X9X9X9X9X9X$ a / %.( H s u Z P I P ^ =.2.=.,.=.^ L Z 0 $ X $ 3 s R E k r r a S s s L 2.G.1.u     * ! %.0 # 9X9X9X9X9X9X9X9X9X9X9X9X9X9X9X9X9X9X9X9X9X9X9X",
"9X9X9X9X9X9X9X+ y P H p y y e N ( @.^ #.=.>.>.2.2.=.o.^ B $   . & 0 Z E ~ W P d 9 & # w ~ F.J.1.p X . 7 s * $ 9X9X9X9X9X9X9X9X9X9X9X9X9X9X9X9X9X9X9X9X9X9X9X",
"9X9X9X9X9X9X9X9X9X9XX # y N y Z 3.G.5.,.>.=.=.=.>.3.3.%.H $ X $ # + 2 k $.A.-.H $   X & p ~ 6.J.5.d . X % $ % 9X9X9X9X9X9X9X9X9X9X9X9X9X9X9X9X9X9X9X9X9X9X9X",
"9X9X9X9X9X9X9X9X9X9X# 8 a A L L L Z s W 6.4.#.=.>.+.W L K a 0 $ o o # 3 L $.7.>.E y + X % 9 Z *.1.Z X   9X# % 9X9X9X9X9X9X9X9X9X9X9X9X9X9X9X9X9X9X9X9X9X9X9X",
"9X9X9X9X9X9X9X9Xo % p K S Z / P $     p 5.F.>.2.=.Z 9 9 K / P & o & o $ * B +.G.P.=.8 . + o o 8 Z 9 + 9X9X9X9X9X9X9X9X9X9X9X9X9X9X9X9X9X9X9X9X9X9X9X9X9X9X9X",
"9X9X9X9X9X9X9X9X9X% 9 0 % 2 T H . X d s 7 W F.J.3.T p 9 N ! Z & o 9X9X9X# 2 y L E Z * o # 9X9X$ 2 * % 9X9X9X9X9X9X9X9X9X9X9X9X9X9X9X9X9X9X9X9X9X9X9X9X9X9X9X",
"9X9X9X9X9X9X9X9X9X9X# o . $ a 0 o d J.W   9 5.S.=.@.T s s s 9 $ # 9X9X9X& + X .   X $ * 9X9X9X9X# $ $ 9X9X9X9X9X9X9X9X9X9X9X9X9X9X9X9X9X9X9X9X9X9X9X9X9X9X9X",
"9X9X9X9X9X9X9X9X9X9X9X* L ~ 2     r =.>.L r 2 > w ! *.( T Z 9 % # 9X9X9X9X9X9X9X9X9X9X9X9X9X9X9X9X9X9X9X9X9X9X9X9X9X9X9X9X9X9X9X9X9X9X9X9X9X9X9X9X9X9X9X9X9X",
"9X9X9X9X9X9X9X9X9X9X  2 2.A.r   X > F 2.K.L     X a ! ^ P H r & + 9X9X9X9X9X9X9X9X9X9X9X9X9X9X9X9X9X9X9X9X9X9X9X9X9X9X9X9X9X9X9X9X9X9X9X9X9X9X9X9X9X9X9X9X9X",
"9X9X9X9X9X& +         $ d X.$.Y , . @ N =.,.~ d > .   + w P s & # 9X9X9X9X9X9X9X9X9X9X9X9X9X9X9X9X9X9X9X9X9X9X9X9X9X9X9X9X9X9X9X9X9X9X9X9X9X9X9X9X9X9X9X9X9X",
"9X9X9X9X9X$ , > 8 2 $ $ * Z 2.6.| U I k a o.F.*.s w *   O y p % o 9X9X9X9X9X9X9X9X9X9X9X9X9X9X9X9X9X9X9X9X9X9X9X9X9X9X9X9X9X9X9X9X9X9X9X9X9X9X9X9X9X9X9X9X9X",
"9X9X9X9X9X9Xa =.F.=.Z 2 4 u C 8.(.*X&X:.O 5 ;.~ ( T.Y.y . # * $ # $ 9X9X9X9X9X9X9X9X9X9X9X9X9X9X9X9X9X9X9X9X9X9X9X9X9X9X9X9X9X9X9X9X9X9X9X9X9X9X9X9X9X9X9X9X",
"9X9X9X9X9X9X9XA.A.*.X.L B C V &.Y.*X5XOX( r t < R (.$Xn.B .   $ & $ o 9X9X9X9X9X9X9X9X9X9X9X9X9X9X9X9X9X9X9X9X9X9X9X9X9X9X9X9X9X9X9X9X9X9X9X9X9X9X9X9X9X9X9X",
"9X9X9X9X9X9X> Q G V >.6.^ T ,.<.! g. X4X5Xh.O O s r._.4X|.e . e p 0 & . X + 9X9X9X9X9X9X9X9X9X9X9X9X9X9X9X9X9X9X9X9X9X9X9X9X9X9X9X9X9X9X9X9X9X9X9X9X9X9X9X9X",
"9X9X9X9X9Xu H [ u.:.X.D J ) ~ C < s x.*X7X@X:.U i - ] ;X6XR.~ T W | Z 7 8 7 $ 9X9X9X9X9X9X9X9X9X9X9X9X9X9X9X9X9X9X9X9X9X9X9X9X9X9X9X9X9X9X9X9X9X9X9X9X9X9X9X",
"9X9X9X9Xr <.s.p.]. X/ 1 g b y < t U r.m.[.4X4X/.` @ 5 x.<X7XXX%.<.W.J./ / P > o 9X9X9X9X9X9X9X9X9X9X9X9X9X9X9X9X9X9X9X9X9X9X9X9X9X9X9X9X9X9X9X9X9X9X9X9X9X9X",
"9X9X9X  8 ,.;...B._.T.j.] n [ z.L.j.M 9.B.C.|.[.^.z.;.[ Z.6X-XE E.8X3X4.1.+.s * o 9X9X9X9X9X9X9X9X9X9X9X9X9X9X9X9X9X9X9X9X9X9X9X9X9X9X9X9X9X9X9X9X9X9X9X9X9X",
"9X9X9X. > I Q F z i.&X5XM.9.Y.;X4X}.e.[ y.x g d.#X6X&Xy.9._.n.Y Q.8X8XW.D.$.Y y % # 9X9X9X9X9X9X9X9X9X9X9X9X9X9X9X9X9X9X9X9X9X9X9X9X9X9X9X9X9X9X9X9X9X9X9X9X",
"9X9X9Xr F Q F k _ y.~. X`.N.m.).;X,X@XC. .j f b x.#X4X@Xn.t.q.f.U.!.8X8X!.+.L Z y * X 9X9X9X9X9X9X9X9X9X9X9X9X9X9X9X9X9X9X9X9X9X9X9X9X9X9X9X9X9X9X9X9X9X9X9X",
"9X$ 6 ! o.Q c v q.i.{ y.(.`.i.{ N.#X,X{.y.t.l.x h i.+X7X-Xy.a. Xk.C 1X8X2X^ P ! L a * o 9X9X9X9X9X9X9X9X9X9X9X9X9X9X9X9X9X9X9X9X9X9X9X9X9X9X9X9X9X9X9X9X9X9X",
"9X$ q ' ' c ] w. .m [ y.c.c.e.r.i.p.j.b.(.+XoXy.f M M.#X<XoXoX$X..@ O.2XW.=.>.=.! P L y % 9X9X9X9X9X9X9X9X9X9X9X9X9X9X9X9X9X9X9X9X9X9X9X9X9X9X9X9X9X9X9X9X9X",
"9X# 2 v M v w.k.[ x [ d.i.w.y.d.d._ : } '.,X4X/.e.{ q.c.[.5X5X Xe.e e W +.>.3.=.! ~ | P & o 9X9X9X9X9X9X9X9X9X9X9X9X9X9X9X9X9X9X9X9X9X9X9X9X9X9X9X9X9X9X9X9X",
"9X# = x  .q.p.f.p. .b [ b.Y.d.p.~.b.{ v  .N.%X:X{.c.9.0.b.{.+X Xb. .l e a A ! / ! R T a * o 9X9X9X9X9X9X9X9X9X9X9X9X9X9X9X9X9X9X9X9X9X9X9X9X9X9X9X9X9X9X9X9X",
"9X# = x 0.c.f.y.c.f.x x ~.%Xl.d.`.%Xx.v : _ (.4X4XT.[ ` e.m.(.`.^.v.' 8 3 r d R ! R s 8 $ $ 9X9X9X9X9X9X9X9X9X9X9X9X9X9X9X9X9X9X9X9X9X9X9X9X9X9X9X9X9X9X9X9X",
"9X$ = x  .c.f.i.c.l.x x ~. Xl.i.[.%Xx.x : _ (.4X4XT.} } e.m.(.).^.v.] 9 3 e d R R I k 4 % # 9X9X9X9X9X9X9X9X9X9X9X9X9X9X9X9X9X9X9X9X9X9X9X9X9X9X9X9X9X9X9X9X",
"9X+ = x { w.i.f.p. .b [ b.T.d.d.~.b.} b  .N.%X:X{.c.{ 0.b.{.:X[.M. .l e u L ~ / ~ ! T a & o 9X9X9X9X9X9X9X9X9X9X9X9X9X9X9X9X9X9X9X9X9X9X9X9X9X9X9X9X9X9X9X9X",
"9X# q v m v r.c.[ x [ d.i.e.y.d.d._ g } (.>X,X/.e.{ w.c.[.6X5X%Xe.r e W / =.3.-.! ! @.K * o 9X9X9X9X9X9X9X9X9X9X9X9X9X9X9X9X9X9X9X9X9X9X9X9X9X9X9X9X9X9X9X9X",
"9X$ 7 ' ' c ] q. .m [ i.c.c.e.0.e.i.p.n.(.&X@Xy.f M M.+X<XoX}..Xr.1 O.1XW.1.=.*.! P J y % 9X9X9X9X9X9X9X9X9X9X9X9X9X9X9X9X9X9X9X9X9X9X9X9X9X9X9X9X9X9X9X9X9X",
"9X$ 8 ! / Q c v q.y. .y.(.'.d.{ N.:X4X|.e.e.l.x h a.%X7X-Xe.a. Xk.C 1X8X2XX.P E Y p & # 9X9X9X9X9X9X9X9X9X9X9X9X9X9X9X9X9X9X9X9X9X9X9X9X9X9X9X9X9X9X9X9X9X9X",
"9X9X9Xr F T F d b i.~. X`.N.M.(.*X,X@XC.{ j f b x.#X4X@XI.t.q.k.U.1X8X8X!.X.L S r * o 9X9X9X9X9X9X9X9X9X9X9X9X9X9X9X9X9X9X9X9X9X9X9X9X9X9X9X9X9X9X9X9X9X9X9X",
"9X9X9X9X> ! Q F z i.:X4XM.0.~.;X4X}.e.{ p.x g f.#X6X:Xe.q._.n.D Q.8X8XW.A.#.Y r % # 9X9X9X9X9X9X9X9X9X9X9X9X9X9X9X9X9X9X9X9X9X9X9X9X9X9X9X9X9X9X9X9X9X9X9X9X",
"9X9X9X9X8 ,.-...B._.T.j.] n [ z.I.j.M 9.B.C./.[.^.z.;.{ Z.5X-X~ E.8X3X6.1.+.s 2 o 9X9X9X9X9X9X9X9X9X9X9X9X9X9X9X9X9X9X9X9X9X9X9X9X9X9X9X9X9X9X9X9X9X9X9X9X9X",
"9X9X9X9Xt 2.s.a. X X/ @ g v u < t J w.m.[.4X4X/._ @ 3 b.>X6XXX%.<.W.J./ ( P > o 9X9X9X9X9X9X9X9X9X9X9X9X9X9X9X9X9X9X9X9X9X9X9X9X9X9X9X9X9X9X9X9X9X9X9X9X9X9X",
"9X9X9X9X9Xu J ' u.:.X.D L ) ~ C < s x.*X7X@X:.U i - ' ;X5XR.^ T W ^ Z 8 8 8 $ 9X9X9X9X9X9X9X9X9X9X9X9X9X9X9X9X9X9X9X9X9X9X9X9X9X9X9X9X9X9X9X9X9X9X9X9X9X9X9X",
"9X9X9X9X9X9X> Q A A <.6.^ T ,.,.! g. X4X5Xh.O O s r._.4X|.t . 9 u r *   X o 9X9X9X9X9X9X9X9X9X9X9X9X9X9X9X9X9X9X9X9X9X9X9X9X9X9X9X9X9X9X9X9X9X9X9X9X9X9X9X9X",
"9X9X9X9X9X9X9X5.A.O.X.L B C V &.Y.*X5XOX/ r e < R ).$XI.N .   $ * % + 9X9X9X9X9X9X9X9X9X9X9X9X9X9X9X9X9X9X9X9X9X9X9X9X9X9X9X9X9X9X9X9X9X9X9X9X9X9X9X9X9X9X9X",
"9X9X9X9X9X9X9X=.F.=.Z 2 4 u C 8.(.=X&X:.O 5 -.~ ~ ~.C.i . + * # # % 9X9X9X9X9X9X9X9X9X9X9X9X9X9X9X9X9X9X9X9X9X9X9X9X9X9X9X9X9X9X9X9X9X9X9X9X9X9X9X9X9X9X9X9X",
"9X9X9X9X9X9X* 7 9 2 $ # & Z 2.6.| U I d p o.G.#.s w *   @ y u % o 9X9X9X9X9X9X9X9X9X9X9X9X9X9X9X9X9X9X9X9X9X9X9X9X9X9X9X9X9X9X9X9X9X9X9X9X9X9X9X9X9X9X9X9X9X",
"9X9X9X9X9X* # 9X      $ s @.=.Y , O @ N &.,.E d 2 .   + w L N * + 9X9X9X9X9X9X9X9X9X9X9X9X9X9X9X9X9X9X9X9X9X9X9X9X9X9X9X9X9X9X9X9X9X9X9X9X9X9X9X9X9X9X9X9X9X",
"9X9X9X9X9X9X9X9X9X9X  2 1.6.r   X 7 H 2.K.L     . u ~ ^ P H r % # 9X9X9X9X9X9X9X9X9X9X9X9X9X9X9X9X9X9X9X9X9X9X9X9X9X9X9X9X9X9X9X9X9X9X9X9X9X9X9X9X9X9X9X9X9X",
"9X9X9X9X9X9X9X9X9X9X9X* T E 4     p =.,.L y 2 * 0 ! &./ I Z 0 $ # 9X9X9X9X9X9X9X9X9X9X9X9X9X9X9X9X9X9X9X9X9X9X9X9X9X9X9X9X9X9X9X9X9X9X9X9X9X9X9X9X9X9X9X9X9X",
"9X9X9X9X9X9X9X9X9X9X# + . $ s 0 o s K.W   8 5.A.=.@.T s a s 0 $ # 9X9X9X& + X . . . $ & 9X9X9X9X# $ % 9X9X9X9X9X9X9X9X9X9X9X9X9X9X9X9X9X9X9X9X9X9X9X9X9X9X9X",
"9X9X9X9X9X9X9X9X9Xo 8 9 % 2 L H . X d s 7 W F.J.5.R u 9 N W Z $ o 9X9X9X# 2 y L ! H = o # 9X9X$ 2 * $ 9X9X9X9X9X9X9X9X9X9X9X9X9X9X9X9X9X9X9X9X9X9X9X9X9X9X9X",
"9X9X9X9X9X9X9X9Xo + y A S H / P $     p 5.F.=.3.=.Z 9 9 H @.P * o & + # * B +.G.P.=.8 . + o o 8 B 9 + 9X9X9X9X9X9X9X9X9X9X9X9X9X9X9X9X9X9X9X9X9X9X9X9X9X9X9X",
"9X9X9X9X9X9X9X9X9X9X8 * u K L K L Z s W 6.5.*.=.>.+.W L H a 0 $ o o + 4 L #.7.,.W y # . $ 9 H *.2.A X   9X$ % 9X9X9X9X9X9X9X9X9X9X9X9X9X9X9X9X9X9X9X9X9X9X9X",
"9X9X9X9X9X9X9X9X9X9X9 X 8 S u Z 2.G.5.,.>.=.=.=.>.3.3.*.F $ . $ + + 2 k *.A.-.H $   . & p ~ 6.J.3.s . X % % $ 9X9X9X9X9X9X9X9X9X9X9X9X9X9X9X9X9X9X9X9X9X9X9X",
"9X9X9X9X9X9X9X# L -.I 0 e i e s / %.^ @.=.>.=.2.1.-.o.^ B $   X & r H ! ^ E T s 8 % $ w E F.J.1.a X X 7 s * $ 9X9X9X9X9X9X9X9X9X9X9X9X9X9X9X9X9X9X9X9X9X9X9X",
"9X9X9X9X9X9X9X+ w ! %.^ L s u S P T P ^ >.2.=.,.=./ K Z r % X + 4 s R E k e 9 s S s s R 1.H.1.u     * ! %.9 # 9X9X9X9X9X9X9X9X9X9X9X9X9X9X9X9X9X9X9X9X9X9X9X",
"9X9X9X9X9X9X9X9X$ 2 P -.%.R P P o.=.#.#.=.=.#.o.I T k 8 $ X $ 9 y y s Z y 4 3 w d R @.1.4.=.N o   + K 6.F.y + 9X9X9X9X9X9X9X9X9X9X9X9X9X9X9X9X9X9X9X9X9X9X9X",
"9X9X9X9X9X9X9X9X9Xo p P P H J ^ ,.6.2.2.3.3.3.%.P s 8 o . # 9 J T J N s N Z A Z L o.2.6.2.^ s & $ k 3.6.^ 9 $ 9X9X9X9X9X9X9X9X9X9X9X9X9X9X9X9X9X9X9X9X9X9X9X",
"9X9X9X9X9X9X9X9X9X9X> * # % k / %.| o.=.S.G.D.7.R 8     # r H T =.3./ K ^ 1.1.*.=.=.,.,.>.>.| K d =.K.K # 9X9X9X9X9X9X9X9X9X9X9X9X9X9X9X9X9X9X9X9X9X9X9X9X9X",
"9X9X9X9X9X9X9X9X9X9X9X. X 0 | %.F r a P ^ o.W L s 2 $ $ 4 N K H ~ *.^ P / ,.=.=.>.2.=.=.=.3.F.6.=.=.^ &   9X9X9X9X9X9X9X9X9X9X9X9X9X9X9X9X9X9X9X9X9X9X9X9X9X",
"9X9X9X9X9X9X9X9X9X9X9X9Xs =.J.*.=   $ * & & # # # 9 N s s s s u u u Z P R P J T #.1.1.,.>.3.S.J.F.Z # 9X9X9X9X9X9X9X9X9X9X9X9X9X9X9X9X9X9X9X9X9X9X9X9X9X9X9X",
"9X9X9X9X9X9X9X9X9X9X9X9Xs ^ @.A +   X X . X o X & a L A s s Z L K Z R ~ ! T ! @.3.6.-.-.=./ L ! W 2 9X9X9X9X9X9X9X9X9X9X9X9X9X9X9X9X9X9X9X9X9X9X9X9X9X9X9X9X",
"9X9X9X9X9X9X9X9X9X9X% $ $ $ $ $ 9X9X% + o 7 s s a s s s s H ^ >.5.2.,.>.=.>.,.3.A.2.( ! / d + X % 9X9X9X9X9X9X9X9X9X9X9X9X9X9X9X9X9X9X9X9X9X9X9X9X9X9X9X9X9X",
"9X9X9X9X9X9X9X9X9X9X9X$ o     9X9X9X9Xo . 9 ~ @.E A s s L o.,.2.=.#.1.S.J.S.^ K Z Z y y a 7     . 9X9X9X9X9X9X9X9X9X9X9X9X9X9X9X9X9X9X9X9X9X9X9X9X9X9X9X9X9X",
"9X9X9X9X9X9X9X9X9X9X9X9X9X9X9X9X9X9X9X9X+ p / | ! k s H / 7.,.! s 0 R 3.K.1.0     o + + # # 9X9X9X9X9X9X9X9X9X9X9X9X9X9X9X9X9X9X9X9X9X9X9X9X9X9X9X9X9X9X9X9X",
"9X9X9X9X9X9X9X9X9X9X9X9X9X9X9X9X9X9X9X0 ~ %./ H 9 * 8 H @.2./ 0 $ % 8 s L s $ 9X9X9X9X9X9X9X9X9X9X9X9X9X9X9X9X9X9X9X9X9X9X9X9X9X9X9X9X9X9X9X9X9X9X9X9X9X9X9X",
"9X9X9X9X9X9X9X9X9X9X9X9X9X9X9X9X9X9Xo H G.A.P 7     & H @.^ a # X $ + o . o 9X9X9X9X9X9X9X9X9X9X9X9X9X9X9X9X9X9X9X9X9X9X9X9X9X9X9X9X9X9X9X9X9X9X9X9X9X9X9X9X",
"9X9X9X9X9X9X9X9X9X9X9X9X9X9X9X9X& $ + 9 Z s 8 % 9X  > =.2.p o 9X9X9X9X9X9X9X9X9X9X9X9X9X9X9X9X9X9X9X9X9X9X9X9X9X9X9X9X9X9X9X9X9X9X9X9X9X9X9X9X9X9X9X9X9X9X9X",
"9X9X9X9X9X9X9X9X9X9X9X9X9X9X9X9X$ & % o     X 9X9X. 8 2.=.&   9X9X9X9X9X9X9X9X9X9X9X9X9X9X9X9X9X9X9X9X9X9X9X9X9X9X9X9X9X9X9X9X9X9X9X9X9X9X9X9X9X9X9X9X9X9X9X",
"9X9X9X9X9X9X9X9X9X9X9X9X9X9X9X9X9X9X9X9X9X9X9X9X9X# % 0 9 9X9X9X9X9X9X9X9X9X9X9X9X9X9X9X9X9X9X9X9X9X9X9X9X9X9X9X9X9X9X9X9X9X9X9X9X9X9X9X9X9X9X9X9X9X9X9X9X9X",
"9X9X9X9X9X9X9X9X9X9X9X9X9X9X9X9X9X9X9X9X9X9X9X9X9X& $ # $ 9X9X9X9X9X9X9X9X9X9X9X9X9X9X9X9X9X9X9X9X9X9X9X9X9X9X9X9X9X9X9X9X9X9X9X9X9X9X9X9X9X9X9X9X9X9X9X9X9X",
"9X9X9X9X9X9X9X9X9X9X9X9X9X9X9X9X9X9X9X9X9X9X9X9X9X9X9X9X9X9X9X9X9X9X9X9X9X9X9X9X9X9X9X9X9X9X9X9X9X9X9X9X9X9X9X9X9X9X9X9X9X9X9X9X9X9X9X9X9X9X9X9X9X9X9X9X9X9X"
};
