/* XPM */
static xpm_row_t const opponent_anim3_xpm[] = {
/* columns rows colors chars-per-pixel */
"78 80 226 2 ",
"   c #020104",
".  c #05030A",
"X  c #09060B",
"o  c #0B090D",
"O  c #020014",
"+  c #0E0C11",
"@  c #080419",
"#  c #110E13",
"$  c #140C1B",
"%  c #141116",
"&  c #161319",
"*  c #19161B",
"=  c #1C191E",
"-  c #181417",
";  c #0F101D",
":  c #37231A",
">  c #060622",
",  c #130D23",
"<  c #1E1B21",
"1  c #161528",
"2  c #161834",
"3  c #0E1432",
"4  c #221D24",
"5  c #241D2C",
"6  c #1C213B",
"7  c #242126",
"8  c #262329",
"9  c #2A252C",
"0  c #2C292E",
"q  c #2F2A31",
"w  c #292735",
"e  c #322D34",
"r  c #352E39",
"t  c #343235",
"y  c #363239",
"u  c #3A343C",
"i  c #3D3A3E",
"p  c #3A2D2E",
"a  c #432B25",
"s  c #4C3429",
"d  c #4C3A2C",
"f  c #443329",
"g  c #493A36",
"h  c #52362D",
"j  c #603E33",
"k  c #5C4535",
"l  c #584639",
"z  c #5F513E",
"x  c #624B3C",
"c  c #6B4B3B",
"v  c #68513B",
"b  c #72553B",
"n  c #2D2943",
"m  c #2F3343",
"M  c #3D3641",
"N  c #3E3A41",
"B  c #3A3A49",
"V  c #353556",
"C  c #423C44",
"Z  c #463E49",
"A  c #444245",
"S  c #4C4544",
"D  c #464349",
"F  c #4A444C",
"G  c #4D4A4D",
"H  c #554B47",
"J  c #5A534C",
"K  c #4D4651",
"L  c #4E4B52",
"P  c #474755",
"I  c #524D53",
"U  c #544D59",
"Y  c #504751",
"T  c #545255",
"R  c #565358",
"E  c #5A555B",
"W  c #5C5A5D",
"Q  c #5B5553",
"!  c #4C515D",
"~  c #664E43",
"^  c #6C5441",
"/  c #6A5749",
"(  c #735342",
")  c #755B45",
"_  c #7A5D46",
"`  c #745D4A",
"'  c #7C5D4A",
"]  c #785444",
"[  c #645D5C",
"{  c #655D57",
"}  c #7D644E",
"|  c #65635C",
" . c #766557",
".. c #5B5562",
"X. c #5E5A61",
"o. c #5D5C6B",
"O. c #505563",
"+. c #524B62",
"@. c #625C64",
"#. c #645E69",
"$. c #695E6D",
"%. c #656166",
"&. c #676169",
"*. c #6A646D",
"=. c #6E686A",
"-. c #796C66",
";. c #757266",
":. c #6E6671",
">. c #6E6972",
",. c #696677",
"<. c #706673",
"1. c #726B75",
"2. c #756D79",
"3. c #786A7E",
"4. c #75717A",
"5. c #7A737D",
"6. c #777273",
"7. c #815C49",
"8. c #81644D",
"9. c #816244",
"0. c #836650",
"q. c #856B53",
"w. c #8B6D55",
"e. c #856C58",
"r. c #8E735B",
"t. c #8B7559",
"y. c #92755C",
"u. c #95795F",
"i. c #9A785B",
"p. c #946D54",
"a. c #A47E5D",
"s. c #897968",
"d. c #9A7D62",
"f. c #967A64",
"g. c #857976",
"h. c #A27F63",
"j. c #9C8265",
"k. c #9C8768",
"l. c #898B78",
"z. c #988F76",
"x. c #A38164",
"c. c #A48669",
"v. c #A98C6E",
"b. c #A9896C",
"n. c #B5926E",
"m. c #AA9272",
"M. c #AA9779",
"N. c #B39475",
"B. c #B39A79",
"V. c #B89C77",
"C. c #B08C6D",
"Z. c #ACA27F",
"A. c #BCA07C",
"S. c #C19E78",
"D. c #C9A57D",
"F. c #7E7681",
"G. c #7F7981",
"H. c #827A85",
"J. c #857E89",
"K. c #847A87",
"L. c #8A818C",
"P. c #8E8286",
"I. c #8E8591",
"U. c #948A97",
"Y. c #978B89",
"T. c #A09982",
"R. c #9CA08C",
"E. c #B7A986",
"W. c #B9B793",
"Q. c #ACA98B",
"!. c #9C93A5",
"~. c #A49BA6",
"^. c #BCB7B1",
"/. c #C5AA85",
"(. c #CCAC84",
"). c #C1A485",
"_. c #D2AE85",
"`. c #C6B38A",
"'. c #CEB48C",
"]. c #CBB78C",
"[. c #D7BA8C",
"{. c #DABC94",
"}. c #D3BA91",
"|. c #BEC09A",
" X c #CAC499",
".X c #DCC196",
"XX c #DDC599",
"oX c #D9C799",
"OX c #D8C08F",
"+X c #E2C69C",
"@X c #E7C999",
"#X c #F2CF9B",
"$X c #E9D19D",
"%X c #FAD99F",
"&X c #D0CCA4",
"*X c #EBD1A3",
"=X c #E4D6A7",
"-X c #F9DCA8",
";X c #DAE2B3",
":X c #EBE1AC",
">X c #F6E7AE",
",X c #EBE5B3",
"<X c #EAEBB8",
"1X c #F5EBB5",
"2X c #FCEBB4",
"3X c #F8E7B4",
"4X c #EDF2BE",
"5X c #FEF5BC",
"6X c #FFFABB",
"7X c #F4F0B6",
"8X c #B7B2C0",
"9X c #C2B5C4",
"0X c #D4D5DD",
"qX c #CDC3CD",
"wX c #FFFCC3",
"eX c #FFFFCC",
"rX c #FBF7C0",
"tX c #FFFFD4",
"yX c #FFFFDB",
"uX c #DFD6E1",
"iX c #DDE1E9",
"pX c #E8E6E9",
"aX c #FFFFE2",
"sX c #FFFFFF",
"dX c #F4F3F8",
"fX c None",
/* pixels */
"fXfXfXfXfXfXfXfXfXfXfXfXfXfXfXfXfXfXfXfXfXfXfXfXfXfXfXfXfXfXfXfXfXfXfXfXfXfXfXfXfXfXfXfXfXfXfXfXfXfXfXfXfXfXfXfXfXfXfXfXfXfXfXfXfXfXfXfXfXfXfXfXfXfXfXfXfXfX",
"fXfXfXfXfXfXfXfXfXfXfXfXfXfXfXfXfXfXfXfXfXfXfXfXfXfXfXfXfXfXfXfXfXfXfXfXfXfXfXfXfX% # # # # # # # + # # fXfXfXfXfXfXfXfXfXfXfXfXfXfXfXfXfXfXfXfXfXfXfXfXfXfX",
"fXfXfXfXfXfXfXfXfXfXfXfXfXfXfXfXfXfXfXfXfXfXfXfXfXfXfXfXfXfXfXfXfXfXfXfXfXfXfXfXfX7 7 < 7 8 9 9 9 9 q 7 fXfXfXfXfXfXfXfXfXfXfXfXfXfXfXfXfXfXfXfXfXfXfXfXfXfX",
"fXfXfXfXfXfXfXfXfXfXfXfXfXfXfXfXfXfXfXfXfXfXfXfXfXfXfXfXfXfXfXfXfXfXfXfXfX# X   % A R A T *.:.:.:.:.H.I o fXfXfXfXfXfXfXfXfXfXfXfXfXfXfXfXfXfXfXfXfXfXfXfXfX",
"fXfXfXfXfXfXfXfXfXfXfXfXfXfXfXfXfXfXfXfXfXfXfXfXfXfXfXfXfXfXfXfXfXfXfXfXfX= 0 0 i I [ X.<.H.4.2.2.4.L.%.y * fXfXfXfXfXfXfXfXfXfXfXfXfXfXfXfXfXfXfXfXfXfXfXfX",
"fXfXfXfXfXfXfXfXfXfXfXfXfXfXfXfXfXfXfXfXfXfXfXfXfXfXfXfXfXfXfXfXfXfXX     0 W 1.<.D G *.1.*.W G T R R W %.i % fXfXfXfXfXfXfXfXfXfXfXfXfXfXfXfXfXfXfXfXfXfXfX",
"fXfXfXfXfXfXfXfXfXfXfXfXfXfXfXfXfXfXfXfXfXfXfXfXfXfXfXfXfXfXfXfXfX= C N M R 1.G.4.E W <.2.<.U e 8 7 < e A t % % fXfXfXfXfXfXfXfXfXfXfXfXfXfXfXfXfXfXfXfXfXfX",
"fXfXfXfXfXfXfXfXfXfXfXfXfXfXfXfXfXfXfXfXfXfXfX& & & % + # # # X   e 5.J.2.2.:.&.&.:.:.*.<.>.Y 9 #     . + - % & fXfXfXfXfXfXfXfXfXfXfXfXfXfXfXfXfXfXfXfXfXfX",
"fXfXfXfXfXfXfXfXfXfXfXfXfXfXfXfXfXfXfXfXfXfXfX& # # 8 i t q 0 t y X.J.5.%.E E *.5.5.2.:.1.2.*.R C u Y y X   fXfXfXfXfXfXfXfXfXfXfXfXfXfXfXfXfXfXfXfXfXfXfXfX",
"fXfXfXfXfXfXfXfXfXfXfXfXfXfXfXfXfXfXfXfXfXfXfX& + # i %.W T T [ 4.F.<.E A i G #.2.=.=.*.*.:.1.2.2.F.U.@.*   fXfXfXfXfXfXfXfXfXfXfXfXfXfXfXfXfXfXfXfXfXfXfXfX",
"fXfXfXfXfXfXfXfXfXfXfXfXfXfXfXfXfXfXfXfXfXfXfXfX.   q %.=.2.=.2.J.&.C y A %.=.U Z Z U &.@.Y F R F.J.*.F N 4 & fXfXfXfXfXfXfXfXfXfXfXfXfXfXfXfXfXfXfXfXfXfXfX",
"fXfXfXfXfXfXfXfXfXfXfXfXfXfXfXfXfXfXfXfXfXfXfXfXfX& t T &.2.<.<.1.I 0 y T 1.<.C 4 0 u G C 0 4 e X.:.t 9 Z r % # fXfXfXfXfXfXfXfXfXfXfXfXfXfXfXfXfXfXfXfXfXfX",
"fXfXfXfXfXfXfXfXfXfXfXfXfXfX& & - & & & & * o   7 G G D Z F D Z C I @.1.1.R u u y M q * X X + 4 9 0 < * 4 < & & fXfXfXfXfXfXfXfXfXfXfXfXfXfXfXfXfXfXfXfXfXfX",
"fXfXfXfXfXfXfXfXfXfXfXfXfXfX& & & - % - & % & & i %.D 8 q r e q 4 F 4.F.*.Z 9 r M Z 0 # % < & .   . o # o # & fXfXfXfXfXfXfXfXfXfXfXfXfXfXfXfXfXfXfXfXfXfXfX",
"fXfXfXfXfXfXfXfXfXfXfXfXfXfXfXfX- o X X X   0 R E Z * . q F Z C e D W I M Y I C y u u u Q &.0   X * fXfXfXfXfXfXfXfXfXfXfXfXfXfXfXfXfXfXfXfXfXfXfXfXfXfXfXfX",
"fXfXfXfXfXfXfXfXfXfXfXfXfXfXfXfX% = 8 8 4 o 7 G F e 4 * 8 r q y u Z D u q D T C r r D @.L.L.E < & # fXfXfXfXfXfXfXfXfXfXfXfXfXfXfXfXfXfXfXfXfXfXfXfXfXfXfXfX",
"fXfXfXfXfXfXfXfXfXfXfXfXfXfXo   . t R R i = .   & e G I 4   o 4 C D u M C Z Z C C t U 5.J.5.L.4.r   fXfXfXfXfXfXfXfXfXfXfXfXfXfXfXfXfXfXfXfXfXfXfXfXfXfXfXfX",
"fXfXfXfXfXfXfXfXfXfXfXfXfX* 0 9 9 A %.5.W -   7 u K @.E e o . # 0 u u y 0 9 9 0 0 9 u I U F @.@.0 X fXfXfXfXfXfXfXfXfXfXfXfXfXfXfXfXfXfXfXfXfXfXfXfXfXfXfXfX",
"fXfXfXfXfXfXfXfXfXfXfXfX  < I W T G T G.#.  * >.K.:.W A Z e &   o 9 F e + + & & & & & # & # # # fXfXfXfXfXfXfXfXfXfXfXfXfXfXfXfXfXfXfXfXfXfXfXfXfXfXfXfXfXfX",
"fXfXfXfXfXfXfXfXfXfXfX= 0 G %.X.G A A @.E 7 u 5.J.1.*.E I N e & o * e < + + # # # # + X X X X o fXfXfXfXfXfXfXfXfXfXfXfXfXfXfXfXfXfXfXfXfXfXfXfXfXfXfXfXfXfX",
"fXfXfXfXfXfXfXfXfXfXX 8 R =.R D r e u C G G R &.*.*.<.:.W A A e * + # fXfXfXfXfXfXfXfXfXfXfXfXfXfXfXfXfXfXfXfXfXfXfXfXfXfXfXfXfXfXfXfXfXfXfXfXfXfXfXfXfXfXfX",
"fXfXfXfXfXfXfXfXfXfXfX< fXy 8 e u e u I =.>.5.5.2.*.:.:.1.&.X.u #   & fXfXfXfXfXfXfXfXfXfXfXfXfXfXfXfXfXfXfXfXfXfXfXfXfXfXfXfXfXfXfXfXfXfXfXfXfXfXfXfXfXfXfX",
"fXfXfXfXfXfXfXfXfXfXfXfXfXfX  4 C r M #.F.2.1.>.:.*.*.*.2.=.&.i * X & & fXfXfXfXfXfXfXfXfXfXfXfXfXfXfXfXfXfXfXfXfXfXfXfXfXfXfXfXfXfXfXfXfXfXfXfXfXfXfXfXfXfX",
"fXfXfXfXfXfXfXfXfXfXfXfXo = 0 M Z M C X.X.N < & D J.K.&.I M C A D e # # fXfXfXfXfXfXfXfXfXfXfXfXfXfXfXfXfXfXfXfXfXfXfXfXfXfXfXfXfXfXfXfXfXfXfXfXfXfXfXfXfXfX",
"fXfXfXfXfXfXfXfXfXfXfXfX+ 9 C Z u r u I A o     e *.5.*.N 9 9 C %.A # # fXfXfXfXfXfXfXfXfXfXfXfXfXfXfXfXfXfXfXfXfXfXfXfXfXfXfXfXfXfXfXfXfXfXfXfXfXfXfXfXfXfX",
"fXfXfXfXfXfXfXfXfXfXfXfXfXfXfXfX= X o C D o = #.i . L I.L.#.M q G y # # fXfXfXfXfXfXfXfXfXfXfXfXfXfXfXfXfXfXfXfXfXfXfXfXfXfXfXfXfXfXfXfXfXfXfXfXfXfXfXfXfXfX",
"fXfXfXfXfXfXfXfXfXfXfXfXfXfXfXfX+ # 4 e 9   t I.T   q *.1.&.D y i 9 # fXfXfXfXfXfXfXfXfXfXfXfXfXfXfXfXfXfXfXfXfXfXfXfXfXfXfXfXfXfXfXfXfXfXfXfXfXfXfXfXfXfXfX",
"fXfXfXfXfXfXfXfXfXfXfXfX* * * o + E 1.7     8 W 2.&.r   . 8 T @.G 9 X fXfXfXfXfXfXfXfXfXfXfXfXfXfXfXfXfXfXfXfXfXfXfXfXfXfXfXfXfXfXfXfXfXfXfXfXfXfXfXfXfXfXfX",
"fXfXfXfXfXfXfXfXfXfXfXfX# # &   + E H.C # + < q &.J.F +   + y D e 9 7 * fXfXfXfXfXfXfXfXfXfXfXfXfXfXfXfXfXfXfXfXfXfXfXfXfXfXfXfXfXfXfXfXfXfXfXfXfXfXfXfXfXfX",
"fXfXfXfXfXfXfXfX% + # o         o 5 F 1.$.w O , r Q 6.>.I <     X 0 D e # fXfXfXfXfXfXfXfXfXfXfXfXfXfXfXfXfXfXfXfXfXfXfXfXfXfXfXfXfXfXfXfXfXfXfXfXfXfXfXfXfX",
"fXfXfXfXfXfXfXfX= 7 4 9 t u u 9 = = y ..5.s.s.s.G w R G...C J f X $ u 8 + + fXfXfXfXfXfXfXfXfXfXfXfXfXfXfXfXfXfXfXfXfXfXfXfXfXfXfXfXfXfXfXfXfXfXfXfXfXfXfXfX",
"fXfXfX# + # X o q Z u L 1.K.F.U 0 0 u w { (.7XeXz.O 2 [ B [ $X'.w . % o # # % fXfXfXfXfXfXfXfXfXfXfXfXfXfXfXfXfXfXfXfXfXfXfXfXfXfXfXfXfXfXfXfXfXfXfXfXfXfXfX",
"fXfX* 8 9 4 4 5 C F < 0 o.,...@.X.D N K :.f.XXrX,Xl.D 2 1 I _.#XQ.T . O 7 4 & o fXfXfXfXfXfXfXfXfXfXfXfXfXfXfXfXfXfXfXfXfXfXfXfXfXfXfXfXfXfXfXfXfXfXfXfXfXfX",
"fX% 4 M Z u u M S y . X A P y E H.X.L 2.2.m J V.wXaXl.O > C ^ /.tX}.1 , u N r & . + % fXfXfXfXfXfXfXfXfXfXfXfXfXfXfXfXfXfXfXfXfXfXfXfXfXfXfXfXfXfXfXfXfXfXfX",
"fX& < u Y L G C 8 4 m I ` k.B.=.n g H F m 3 g f.#XwX,XM. .g $ / 1XwXQ.1.K $.<.D q u 7 # fXfXfXfXfXfXfXfXfXfXfXfXfXfXfXfXfXfXfXfXfXfXfXfXfXfXfXfXfXfXfXfXfXfX",
"fX% = r G Q G u X & o.Y.w.D.-Xl., f b e w B { } x.).5XeX[.] 1 y N.6XaX&X+.!.9XI.&.*.g $ o fXfXfXfXfXfXfXfXfXfXfXfXfXfXfXfXfXfXfXfXfXfXfXfXfXfXfXfXfXfXfXfXfX",
"fX# 7 G I C D Z X   L 1.T  .n.].W.s.c y.E. XT.( 7.v.j.k.(.{.W.z._ S.wXT.V 0XsX^.*.2.I q & o fXfXfXfXfXfXfXfXfXfXfXfXfXfXfXfXfXfXfXfXfXfXfXfXfXfXfXfXfXfXfXfX",
"fX# 8 R I r u u * - C L B S ] XXyX].w.D.>XeX>Xd.0.r.s a f.-XtX>Xw.p._.s...0XsXuXU.F.E Z 9 & fXfXfXfXfXfXfXfXfXfXfXfXfXfXfXfXfXfXfXfXfXfXfXfXfXfXfXfXfXfXfXfX",
"fX# 7 D K u 7 * t D P G g v u.b.B.].'.b.v.+X5X6X`._ x c k e.{.5X4XE.7.p./.Y.!.sXsXJ.Z G u q &   fXfXfXfXfXfXfXfXfXfXfXfXfXfXfXfXfXfXfXfXfXfXfXfXfXfXfXfXfXfX",
"fX% = q N A * . N =.T H v 9.t.} ] V..Xy.) c..X7X Xy.v.n.l s i.*XyX:X0.S.-XH n pXsXH.D W I Z q * fXfXfXfXfXfXfXfXfXfXfXfXfXfXfXfXfXfXfXfXfXfXfXfXfXfXfXfXfXfX",
"fXfXfX& e G 5 X k ) l z w.8.l } d.d.r.r.r.i.} z j..X2X:Xu.k 7.B.oX1X4X1X[.H 3 F.!.5.:.2.X.D T G 7 o fXfXfXfXfXfXfXfXfXfXfXfXfXfXfXfXfXfXfXfXfXfXfXfXfXfXfXfX",
"fXfXfX. 4 u < o d b x } x.t.l ^ w.y.d.r.y.k.' : ( ).1X5X}.d.0.0.h.+XtXrX_.` 5 p Z E *.:.@.L [ T 9 X fXfXfXfXfXfXfXfXfXfXfXfXfXfXfXfXfXfXfXfXfXfXfXfXfXfXfXfX",
"fXfXfXfX& = + ; f } q.u.u.u.u.^ l m..Xd.y.'.(.f.c x d.+X1X=Xk.' w.v.}.XX'.N.' H r u Z I Q G D u < o fXfXfXfXfXfXfXfXfXfXfXfXfXfXfXfXfXfXfXfXfXfXfXfXfXfXfXfX",
"fXfXfXfXfX+ . - p } j.x.t.j.v.b f B.-Xd.w.+X+Xm.x : ) [.eXwXm.^ ) y.).[.'.(.i.g , 8 t A T I D q = # fXfXfXfXfXfXfXfXfXfXfXfXfXfXfXfXfXfXfXfXfXfXfXfXfXfXfXfX",
"fXfXfXfXfXfX+ % f } t.x.r.f.c.^ d B.*Xd.r.{.{.b.x f q.{.wX1Xv.] 0.d./.{.'.S.r.Z 6 0 u F T I D r 7 + # % fXfXfXfXfXfXfXfXfXfXfXfXfXfXfXfXfXfXfXfXfXfXfXfXfXfX",
"fXfXfXfXfXfXfX% f } } q.d.t.} ^ ) j.B.u.y.B.d.~ v j.}.>X=XE.t.8.d.`.,X>X(.f.g M M G E @.E L R G *   4 8 & fXfXfXfXfXfXfXfXfXfXfXfXfXfXfXfXfXfXfXfXfXfXfXfXfX",
"fXfXfXfXfXfX+ % d ) k b j.w.h ` j.y.0.r.y.u.c : 8.+XwX5XB.] ' i.S.3XyXwX(.H 1 K :.*.2.2.#.G W Q = . u i & + fXfXfXfXfXfXfXfXfXfXfXfXfXfXfXfXfXfXfXfXfXfXfXfX",
"fXfXfXfXfXfX@ % S  .S H _ 8.) ' q.v.A.r.8.j.B.E.E.B.}.].^ s w.}.rX,XM.{.#XH 2 ^.iXH.E $.E F t 9 0 u T C * + fXfXfXfXfXfXfXfXfXfXfXfXfXfXfXfXfXfXfXfXfXfXfXfX",
"fXfXfXfXfXfXo & N X.! G l } j.t.q./.@Xf.q.).3XtXoX} _ q.h x N.2XyX Xc a.+X-.,.sXsXK.C L C C # . N &.%.A & o fXfXfXfXfXfXfXfXfXfXfXfXfXfXfXfXfXfXfXfXfXfXfXfX",
"fXfXfXfXfXfXfXfX= e D L u S } D.2X].v.S.@X6X2X`.k.} s s 8.'.6X5XE.d.C.f.g.^.dXdXqXK.Y K 9 % % 8 D | W A * o fXfXfXfXfXfXfXfXfXfXfXfXfXfXfXfXfXfXfXfXfXfXfXfX",
"fXfXfXfXfXfXfXfX. o A X.D J q.XXeXm.( N.*X5X X_ ] j.v x N.>X5X}.c i.-Xg.V iXsX9X:.2.I g % o 8 G L L W N & o fXfXfXfXfXfXfXfXfXfXfXfXfXfXfXfXfXfXfXfXfXfXfXfX",
"fXfXfXfXfXfXfXfX  * o.P. .n.#XM.G x b l T ;.;.) p.N.$X>XOXj.T I i.-XaXW.+.8XpX~.<.2.Z # # e A L L L @.A * fXfXfXfXfXfXfXfXfXfXfXfXfXfXfXfXfXfXfXfXfXfXfXfXfX",
"fXfXfXfXfXfXfXfXX < U 6.w.D.XX .> p x e 2 3 Z w.(.*XwX,Xm.h O u {.wX4XR.U 3.J.@.D D 0 o 4 Z I R T G E C & fXfXfXfXfXfXfXfXfXfXfXfXfXfXfXfXfXfXfXfXfXfXfXfXfX",
"fXfXfXfXfXfXfXfXfXfX* q S Q Q &.,.E L =.o.w Z b.6XaXW.r w g f b.eX,XT M Z R Y 9 o % 4 t u u D E Q L I t * fXfXfXfXfXfXfXfXfXfXfXfXfXfXfXfXfXfXfXfXfXfXfXfXfX",
"fXfXfXfXfXfXfXfXfXfX  + ! O.B W 1.R D #.1.{ z.$X6X;X@.O > C x.@X:Xl.. O 9 7 * + X X 4 Z Z r Z G T D u 4 fXfXfXfXfXfXfXfXfXfXfXfXfXfXfXfXfXfXfXfXfXfXfXfXfXfX",
"fXfXfXfXfXfXfXfXfXfXfXfX1.U.G.X.N y M w { ).6XyXW.q w G m %.-X@X[ 1 + . # # = e C t u u u u i Z G C = % fXfXfXfXfXfXfXfXfXfXfXfXfXfXfXfXfXfXfXfXfXfXfXfXfXfX",
"fXfXfXfXfXfXfXfXfXfXfXfXI #.E u < 4 y Z =.M.}. X| @ m 6.L L M.e.@ . < 4 = . o u I D Z u C C r 7 q 9 # fXfXfXfXfXfXfXfXfXfXfXfXfXfXfXfXfXfXfXfXfXfXfXfXfXfXfX",
"fXfXfXfXfXfXfXfXfXfX& % # # # # # = u 2.H.Z 9 e y G 1.K.@.w +     < C D C - o e D C C C Z Z 8 + # & fXfXfXfXfXfXfXfXfXfXfXfXfXfXfXfXfXfXfXfXfXfXfXfXfXfXfXfX",
"fXfXfXfXfXfXfXfXfXfX* & o X o   o Z *.W M * @ 1 G 1.W y 7 & ; & < e N D C e 7 7 9 0 9 9 0 0 = + + fXfXfXfXfXfXfXfXfXfXfXfXfXfXfXfXfXfXfXfXfXfXfXfXfXfXfXfXfX",
"fXfXfXfXfXfXfXfXfXfXfXfXfXfXfXfX# &.J.0     7 D 5.J.u     & G *.E D y e u Z N = X # % % # # fXfXfXfXfXfXfXfXfXfXfXfXfXfXfXfXfXfXfXfXfXfXfXfXfXfXfXfXfXfXfXfX",
"fXfXfXfXfXfXfXfXfXfXfXfXfXfXfXfX# u D fXfX  e 5.#.9 0 g i C G W 1.#.F i t Z y * . fXfXfXfXfXfXfXfXfXfXfXfX+ fXfXfXfXfXfXfXfXfXfXfXfXfXfXfXfXfXfXfXfXfXfXfXfX",
"fXfXfXfXfXfXfXfXfXfXfXfXfXfXfX& & o X fXfX. u J.A   u I.L.2.G L 2.=.Q A y C r 4 + fXfXfXfXfXfXfXfXfXfXfX& & & % # + % % & fXfXfXfXfXfXfXfXfXfXfXfXfXfXfXfXfX",
"fXfXfXfXfXfXfXfXfXfXfXfXfXfXfXfXfXfXfXfX& X % 0 u C o.5.5.<.&.X.E G u q r T T 7 X fXfXfXfXfXfXfXfXfXX - 0 8 < u E :.E 9 . fXfXfXfX+ % fXfXfXfXfXfXfXfXfXfXfX",
"fXfXfXfXfXfXfXfXfXfXfXfXfXfXfXfXfXfXfX& & = o   u L.G.#.&.*.2.*.G i u r u U I 7 o fXfXfXfXfXfXfXfXfX+ 4 C Z N @.K.I.<.0   fXfXfXfX* & & fXfXfXfXfXfXfXfXfXfX",
"fXfXfXfXfXfXfXfXfXfXfXfXfXfXfXfXfXfXfX. + q t < K F.5.1.:.*.:.*.#.#.#.W G y = & # fXfXfXfXfXfX#   & 5 C F @.=.1.[ N * # X # X   & 9 4 % fXfXfXfXfXfXfXfXfXfX",
"fXfXfXfXfXfXfXfXfXfXfXfXfXfXfXfXfXfXfX& 8 g D u I *.*.%.*.:.*.:.1.2.2.=.T =   + * fXfXfXfXfX* < & < y G F @.2.&.C #   & < & = < C fXq X fXfXfXfXfXfXfXfXfXfX",
"fXfXfXfXfXfXfXfXfXfXfXfXfXfXfXfXfXfXfXu D u e e C I G G @.<.$.:.2.*.E T D 4   o + o + + o X 4 y 9 9 r u u Z D C u q 4 0 8 < C :.L.G.y   o * fXfXfXfXfXfXfXfX",
"fXfXfXfXfXfXfXfXfXfXfXfXfXfXfXfXfXfXfXE 1.D u i D I L I #.1.<.*.*.W D t 0 4 = = 4 4 < 4 * = y K U Y A u y q 9 e u F U K K Y E *.<.@.i & - & fXfXfXfXfXfXfXfX",
"fXfXfXfXfXfXfXfXfXfXfXfXfXfXfXfXfX  = #.L.@.L G E 1.1.>.*.*.:.#.T G D 9 # 9 C u u u y u y y Z Q 1.2...g e 5 e u G X.:.&.=.K.R *   o u G 7 % fXfXfXfXfXfXfXfX",
"fXfXfXfXfXfXfXfXfXfXfXfXfXfXfXfXfXo * D W C i G @.>.>.*.1.2.5.*.R i q X   8 G C N C C C C C C D W o.T G Y K F I X.>.4.5.2.2.i     % E 4.e o fXfXfXfXfXfXfXfX",
"fXfXfXfXfXfXfXfXfXfXfXfXfXfXfXfXfX& & % # X 7 D R E T R >.G.K.2.=.i #     4 i u r u u y p r r q 9 e C E <.5.1.<.:.&.&.2...M -   < L G.F.e + fXfXfXfXfXfXfXfX",
"fXfXfXfXfXfXfXfXfXfXfXfXfXfXfXfXfXfX& +   fX9 >.W 9 8 t N F F C u *   4 D I G L D u y C C C K U K L R [ @.@.@.*.1.<.:.2.:.I t 4 G 5.*.C fXfXfXfXfXfXfXfXfXfX",
"fXfXfXfXfXfXfXfXfXfXfXfXfXfXfXfXfXfXfXfXfXfXfXL.W .   & + o o o o .   K J.<.L W T u u L L G #.5.5.2.2.@.D i A R :.>.*.:.>.2.@.A =.J.u   fXfXfXfXfXfXfXfXfXfX",
"fXfXfXfXfXfXfXfXfXfXfXfXfXfXfXfXfXfXfXfXfXfX7 F e fXX + o fX  # 8 0 4 E H.G 8 9 t u L &.&.T %.>...X.5.H.=.%.&.1.F.>.X.X.*.F.L.5.X.N * fXfXfXfXfXfXfXfXfXfXfX",
"fXfXfXfXfXfXfXfXfXfXfXfXfXfXfXfXfXfXfXfXfX* # . fXfX* * fXfX# 4 C F C L I 7     - A =.1.&.G G G q e @.5.1.1.1.2.1.T A A T *.F.K.N   fXfXfXfXfXfXfXfXfXfXfXfX",
"fXfXfXfXfXfXfXfXfXfXfXfXfXfXfXfXfXfXfXfXfXfXfXfXfXfXfXfXfXfXfX* 7 9 4 9 9 * fX  4 =.L.>.S 7 4 9 < < e y r y u u t 0 7 8 9 q u N 7 fXfXfXfXfXfXfXfXfXfXfXfXfX",
"fXfXfXfXfXfXfXfXfXfXfXfXfXfXfXfXfXfXfXfXfXfXfXfXfXfXfXfXfXfXfXfX+ + + o o fXfX  8 :.4.G 7   . o # o X       .     o o + X       fXfXfXfXfXfXfXfXfXfXfXfXfXfX",
"fXfXfXfXfXfXfXfXfXfXfXfXfXfXfXfXfXfXfXfXfXfXfXfXfXfXfXfXfXfXfXfXfXfXfXfXfXfXfX% * 8 0 7 * fXfXfXfXfXfXfXfXfXfXfXfXfXfXfXfXfXfXfXfXfXfXfXfXfXfXfXfXfXfXfXfXfX",
"fXfXfXfXfXfXfXfXfXfXfXfXfXfXfXfXfXfXfXfXfXfXfXfXfXfXfXfXfXfXfXfXfXfXfXfXfXfXfX& % % # # & fXfXfXfXfXfXfXfXfXfXfXfXfXfXfXfXfXfXfXfXfXfXfXfXfXfXfXfXfXfXfXfXfX",
"fXfXfXfXfXfXfXfXfXfXfXfXfXfXfXfXfXfXfXfXfXfXfXfXfXfXfXfXfXfXfXfXfXfXfXfXfXfXfXfXfXfXfXfXfXfXfXfXfXfXfXfXfXfXfXfXfXfXfXfXfXfXfXfXfXfXfXfXfXfXfXfXfXfXfXfXfXfX"
};
