/* XPM */
static xpm_row_t const opponent_anim2_xpm[] = {
/* columns rows colors chars-per-pixel */
"78 80 222 2 ",
"   c #020103",
".  c #060409",
"X  c #09060B",
"o  c #0C0A0E",
"O  c #110C0F",
"+  c #030312",
"@  c #0E0C11",
"#  c #05021A",
"$  c #080815",
"%  c #110E13",
"&  c #1F0E1C",
"*  c #141116",
"=  c #161419",
"-  c #19161B",
";  c #1C191E",
":  c #22151D",
">  c #351E18",
",  c #31231C",
"<  c #160F24",
"1  c #1E1B21",
"2  c #15162B",
"3  c #161B36",
"4  c #221D24",
"5  c #241D2C",
"6  c #261E31",
"7  c #252226",
"8  c #2F2522",
"9  c #262229",
"0  c #2A252C",
"q  c #2C292E",
"w  c #272A2F",
"e  c #2D2733",
"r  c #2E2A31",
"t  c #2D2C39",
"y  c #272635",
"u  c #322D34",
"i  c #352E39",
"p  c #392F3B",
"a  c #343136",
"s  c #363139",
"d  c #3A343C",
"f  c #3D393D",
"g  c #3D3033",
"h  c #342D2C",
"j  c #422B22",
"k  c #4E3A2D",
"l  c #473C2E",
"z  c #483C38",
"x  c #543C31",
"c  c #513D2E",
"v  c #5D4234",
"b  c #5B4539",
"n  c #634D3B",
"m  c #674739",
"M  c #734D3D",
"N  c #6B523D",
"B  c #71533C",
"V  c #77593E",
"C  c #3D3641",
"Z  c #3E3A42",
"A  c #3D3C4C",
"S  c #363546",
"D  c #3F3C51",
"F  c #423C44",
"G  c #463E49",
"H  c #483F4A",
"J  c #3E4151",
"K  c #454245",
"L  c #46424A",
"P  c #4A454B",
"I  c #4C4A4D",
"U  c #4E4644",
"Y  c #5C4D44",
"T  c #534B4C",
"R  c #564743",
"E  c #4E4651",
"W  c #4E4C51",
"Q  c #464656",
"!  c #524D53",
"~  c #554E59",
"^  c #5C4F51",
"/  c #4D5158",
"(  c #545255",
")  c #5A5555",
"_  c #565359",
"`  c #5A555C",
"'  c #5C595D",
"]  c #685443",
"[  c #725241",
"{  c #7A5C43",
"}  c #745C4B",
"|  c #7B5D4A",
" . c #745945",
".. c #665C58",
"X. c #614E42",
"o. c #7D614D",
"O. c #6A625D",
"+. c #7B6656",
"@. c #5B4F62",
"#. c #5D5661",
"$. c #5E5A61",
"%. c #625C64",
"&. c #665E69",
"*. c #685E68",
"=. c #656166",
"-. c #66616A",
";. c #6A646D",
":. c #6D696C",
">. c #6D6D66",
",. c #7B7167",
"<. c #6E6671",
"1. c #6E6971",
"2. c #716574",
"3. c #726B75",
"4. c #756E79",
"5. c #796E7A",
"6. c #77717A",
"7. c #7A727D",
"8. c #797877",
"9. c #786D6E",
"0. c #855D47",
"q. c #81624E",
"w. c #83694F",
"e. c #826551",
"r. c #866B54",
"t. c #8A6D55",
"y. c #856A5D",
"u. c #956E56",
"i. c #8D725A",
"p. c #887359",
"a. c #92755C",
"s. c #9B7A5D",
"d. c #98785C",
"f. c #A07B5B",
"g. c #8A7769",
"h. c #957B61",
"j. c #9B7E63",
"k. c #887569",
"l. c #AC865D",
"z. c #9D8166",
"x. c #9A8B6E",
"c. c #8B8678",
"v. c #9F9375",
"b. c #A5896B",
"n. c #AA8B6C",
"m. c #A38466",
"M. c #B38D6C",
"N. c #B2956D",
"B. c #A98D74",
"V. c #B38E71",
"C. c #AB9274",
"Z. c #A99979",
"A. c #B69A78",
"S. c #BCA27E",
"D. c #C19C75",
"F. c #C3A37C",
"G. c #7D7581",
"H. c #7F7982",
"J. c #7A7486",
"K. c #7A6F87",
"L. c #807783",
"P. c #827A84",
"I. c #857D89",
"U. c #887F8C",
"Y. c #8A828D",
"T. c #8D8491",
"R. c #8F8895",
"E. c #938C96",
"W. c #A49986",
"Q. c #B39D81",
"!. c #ABA888",
"~. c #BBAA86",
"^. c #BAB895",
"/. c #9A97AC",
"(. c #A89CAA",
"). c #9DA0AE",
"_. c #AAA9B2",
"`. c #ACA3AE",
"'. c #C3A582",
"]. c #C4AA84",
"[. c #CBAD85",
"{. c #CAAE8A",
"}. c #CBB28D",
"|. c #D6B68A",
" X c #CABB95",
".X c #DABE94",
"XX c #D3BA92",
"oX c #E0BD91",
"OX c #C6C49C",
"+X c #DCC398",
"@X c #D7D09F",
"#X c #E7C99B",
"$X c #F4CF9C",
"%X c #FDD69F",
"&X c #C9CAA2",
"*X c #D3CAA3",
"=X c #D7D4A5",
"-X c #CED5AC",
";X c #EADAA8",
":X c #FDDCA3",
">X c #F4DCAB",
",X c #F3D8A3",
"<X c #FBE4AB",
"1X c #FDEDB5",
"2X c #F6E8B4",
"3X c #FEF4BB",
"4X c #FFFCBE",
"5X c #F7F4BE",
"6X c #ECE6B1",
"7X c #C8BBC8",
"8X c #DCD5DE",
"9X c #FEFEC5",
"0X c #FFFFCA",
"qX c #F3F9C4",
"wX c #FFFFD8",
"eX c #EEF4C3",
"rX c #E0D9E2",
"tX c #FFFFE7",
"yX c #FEFEFF",
"uX c #FAF6FD",
"iX c #EDEFF6",
"pX c None",
/* pixels */
"pXpXpXpXpXpXpXpXpXpXpXpXpXpXpXpXpXpXpXpXpXpXpXpXpXpXpXpXpXpXpXpXpXpXpXpXpXpXpXpXpXpXpXpXpXpXpXpXpXpXpXpXpXpXpXpXpXpXpXpXpXpXpXpXpXpXpXpXpXpXpXpXpXpXpXpXpXpX",
"pXpXpXpXpXpXpXpXpXpXpXpXpXpXpXpXpXpXpXpXpXpXpXpXpXpXpXpXpXpXpXpXpXpXpXpXpXpXpXpXpXpXpXpXpXpXpXpX= * @ * pXpXpXpXpXpXpXpXpXpXpXpXpXpXpXpXpXpXpXpXpXpXpXpXpXpX",
"pXpXpXpXpXpXpXpXpXpXpXpXpXpXpXpXpXpXpXpXpXpXpXpXpXpXpXpXpXpXpXpXpXpXpXpXpXpXpXpXpXpXpXpXpXpXpXpX@ 1 u 9 pXpXpXpXpXpXpXpXpXpXpXpXpXpXpXpXpXpXpXpXpXpXpXpXpXpX",
"pXpXpXpXpXpXpXpXpXpXpXpXpXpXpXpXpXpXpXpXpXpXpXpXpXpXpXpXpXpXo . . pXpXpX= % @ o o o @ @ @ * pXpX  i H.)   pXpXpXpXpXpXpXpXpXpXpXpXpXpXpXpXpXpXpXpXpXpXpXpXpX",
"pXpXpXpXpXpXpXpXpXpXpXpXpXpXpXpXpXpXpXpXpXpXpXpXpXpXpXpXpXpX9 f G e pX  % 4 u 0 0 0 9 4 9 4 pXpX  9 4.;.w % pXpXpXpXpXpXpXpXpXpXpXpXpXpXpXpXpXpXpXpXpXpXpXpX",
"pXpXpXpXpXpXpXpXpXpXpXpXpXpXpXpXpXpXpXpXpXpXpXpXpXpXpXpXpXpXP 3.Y.!     % s ! H G H Z d F d -     = K ' ' u . o = * @ o X o X o X o pXpXpXpXpXpXpXpXpXpXpXpX",
"pXpXpXpXpXpXpXpXpXpXpXpXpXpXpXpXpXpXpXpXpXpXpXpXpXpXpX* pX- I :.;.I w q u 4 - 4 4 4 F ) _ P I E L ! $.%.' K w 4 1 - 0 H ! P L F ! L ; pXpXX . pXpXpXpXpXpXpX",
"pXpXpXpXpXpXpXpXpXpXpXpXpXpXpXpXpXpXpXpXpXpXpXpXpXpX= = X ; P ( K I ) =.( 4   o o   q ` ( ( 2.I.G.7.7.%.U ( ) P d u E 5.I.7.7.7.T.4.r   % * * = pXpXpXpXpXpX",
"pXpXpXpXpXpXpXpXpXpXpXpXpXpXpXpXpXpXpXpXpXpXpXpXpXpXo - d ( ! ' %.;.-.;.-.) H J 4 X O q s L ! ! T ! %.' I %.8.1.&.*.%.` ( ( ;.6.;.( f a P $.%.r   pXpXpXpXpX",
"pXpXpXpXpXpXpXpXpXpXpXpXpXpXpXpXpXpXpXpXpXpXpXpXpXpXpX- K %.P _ 2.4.3.1.2.P.G.1.K ;   . 4 Z u e 0 s K I P #.2.2.3.7.;.I K K ' 2._ K T =.7.Y.Y.! * pXpXpXpXpX",
"pXpXpXpXpXpXpXpXpXpXpXpXpXpXpXpXpXpXpXpXpXpXpXpXpXpXpXpX- q s L P %.<.2.;.2.1.4.) s % . 7 P G F F F F d f F F p C I $.1.4.1.3.3.;.%.%.;.G.6.=.;.-.0   pXpXpX",
"pXpXpXpXpXpXpXpXpXpXpXpXpXpXpXpXpXpXpXpXpXpXpXpXpXpXpXpX. o 0 F P %.;.1.;.;.;.7.;.T 9 = 7 s s a u u s d s u s s Z F ( %.;.;.%.-.2.4.6.<.&.I r ' Y._ - pXpXpX",
"pXpXpXpXpXpXpXpXpXpXpXpXpXpXpXpXpXpXpXpXpXpXpXpXpXpXpXpX% - 4 H =.4.;.;.;.;.;.3.%.I C s 1 = = = @ 7 F P C L ( ;.6.' P F s d L _ ;.7.5.$.F ; @ a %.7.<.q % pX",
"pXpXpXpXpXpXpXpXpXpXpXpXpXpXpXpXpXpXpXpXpXpXpXpXpXpXpXpXX ; F %.3.4.;.;.;.<.;.1.<.=.$.! 7   X * X = 0 u 0 f ~ ;.;.( f u 9 e u z ! *.4.1._ 7     q :.P.u @ pX",
"pXpXpXpXpXpXpXpXpXpXpXpXpXpXpXpXpXpXpXpXpXpXpXpXpXpXpXpX. 7 %.G.;.;.;.;.;.;.;.<.3.5.1._ 9   @ - pXpX% % % 0 G F d d s s i u u d u G %.I.Y.~ X     f =.0 % pX",
"pXpXpXpXpXpXpXpXpXpXpXpXpXpXpXpXpXpXpXpXpXpXpXpXpX= - pX  ; 6.R.;.=.;.2.2.2.;.%.` #.! P F a ; % pXpXpX@ pX- 0 4 4 i G K ! ' ~ Z * % G ;.&.` I K f d q - * pX",
"pXpXpXpXpXpXpXpXpXpXpXpXpXpXpXpXpXpXpXpXpXpXpXpX- * = *   4 -.P.;.;.;.;.;.3.=.( z u e u ( %.q X pXpXpXpXpXpX% o * u L I =.7.3.T -   0 d 9 E G.E.U.d   o - pX",
"pXpXpXpXpXpXpXpXpXpXpXpXpXpXpXpXpXpXpXpXpX- @ . pXpXo - P ! ; s G.Y.G.%.( <.3.' F s u s P I 7 o pXpXpXpXpXpXpXpXpX= u L ~ ~ ;.8.<.! w % = 9 s ` &.u   pXpXpX",
"pXpXpXpXpXpXpXpXpXpXpXpXpXpXpXpXpXpXpXpXpX* = ; pXpXpX; 7.7.  % ;.7.;.W K %.1._ K Z s f C i 1 o pXpXpXpXpXpXpXpXpXX * u s 7 P 3.T.4.0   % o   = s 7 * pXpXpX",
"pXpXpXpXpXpXpXpXpXpXpXpXpXpXpXpXpXpXpXpXpXX s 3.Z     = ! 3.-.F - X 4 K =.:.$.K s C s s H G 1   @ @ @ pXpXpXpXpXpXpXpX1 1 - 4 r s q pXpXpXpXpX= ; - * pXpXpX",
"pXpXpXpXpXpXpXpXpXpXpXpXpXpXpXpXpXpXpXpXpX  Z U.$.1 $ - 0 _ Y.-.=   . 9 L K C s p d C d C u 7 = - ; ; ; pXpXpXpXpXpXpX% o % X     . pXpXpXpXpXpX@ % - pXpXpX",
"pXpXpXpXpXpXpXpXpXpXpXpXpXpXpXpX- X         1 C *.1.S $ # 5 W :.<.` e .   . 4 Z P F P P 9 % 0 Z i u d 9 o o % o @ pXpXpXpXpXpXpXpXpXpXpXpXpXpXpXpXpXpXpXpXpX",
"pXpXpXpXpXpXpXpXpXpXpXpXpXpXpXpX% 0 s s q ; - 9 ! J.8.+.,...r A G.<.F U l @ . 9 s 0 u u % X u ! P W ! s ; = ; 4 4 pXpXpXpXpXpXpXpXpXpXpXpXpXpXpXpXpXpXpXpXpX",
"pXpXpXpXpXpXpXpXpXpXpXpXpXpXpXpXpX~ I.I.*.s 9 s t K B.:X0X&X9 # _ / L {.$X^ + % o % @ % @ - i P ! ( ( K p u u C s = X @ % % pXpXpXpXpXpXpXpXpXpXpXpXpXpXpXpX",
"pXpXpXpXpXpXpXpXpXpXpXpXpXpXpXpXpXL J.-.#.$.! Z J $.k.].3X3X!._ y 2 S B.$XXX>.=   ; - % o X * q P ` ( ( L ! $.( F 0 ; 4 9 0 ; pXpXpXpXpXpXpXpXpXpXpXpXpXpXpX",
"pXpXpXpXpXpXpXpXpXpXpXpXpXpXpX. X u W s E 7.3.Q %.P.J Z j.<XtX-X1 + t b m.4X5XP # d F d 4 X   % u P W I I ;.7.$.K f d Z F H 0 @ % * % * % * pXpXpXpXpXpXpXpX",
"pXpXpXpXpXpXpXpXpXpXpXpXpXpXO y ! ..p.Q.c.C u b P S 3 y } [.3X4X^.k.b : u XX9X*XY.( @.5._ u a 0 * 7 H ( I ) %.;.*.! L I H F u 9 9 0 0 0 r 4 % o % pXpXpXpXpX",
"pXpXpXpXpXpXpXpXpXpXpXpXpXpXX Q Y.g.l.,X}.s 7 B x w S _ } d.V.,XwX<Xs.u 3 y.,XwXeX&.I.7X(.2.:.I * X u P W I K ;.4.` I ( P d s G F F F G P i * o = pXpXpXpXpX",
"pXpXpXpXpXpXpXpXpXpXpXpXpXpX  a :.` ..d.F.=X!.M r.Q.*XOXr.M j.z.p.N.#X*X^.e.u.<XOXA /.yXrX2.4.` s * o h $.' I ( ) I I W I I F d C C s F ( P 0 0 u ; X pXpXpX",
"pXpXpXpXpXpXpXpXpXpXpXpXpXpX= a ! A K b N.9X2Xa.V.#X9X4X~.r.i.m >  .|.9X9XZ.q.F.B.~ _.yXuX_.Y.#.~ 0 o 1 I ! ! I P W ( I ( ( P s d d i Z ~ ! H L L q % pXpXpX",
"pXpXpXpXpXpXpXpXpXpXpXpXo 0 L / W z b t.b.z.S.+XA.a.F.>X9X;Xd.m  .v n Z.>X0X=Xt.0.[.W.5.iXyX_.H I d s ; X 5 E I _ 1.:.I U ` P s d d d d d K W W P s 7 - = pX",
"pXpXpXpXpXpXpXpXpXpXpXpX. u O.' U ] o.w.e.[ z.XXC.} a.F.=X@XC.b.[.+.j [ {.9X9XC.n.:Xh.< ).yX(.E $._ ! u = - r f _ :.1.$.( I Z d d d C d e z / ..' &.! 4 % pX",
"pXpXpXpXpXpXpXpXpXpXpXpXo h N N b r.j.b b h.j.r.t.a.a.e.c ] {.1X9X~.B [ z.S.;X9XqX$X+.< H T.7.3.5.-.W W ' q o 0 ! T ;.P.<.Z s d d d C d u d P %.4.T.7.u % pX",
"pXpXpXpXpXpXpXpXpXpXpXpX+ 8 B V { s.z.} N o.i.z.j.i.b.z.v v j.+X1X;XS.a.o.u.'.5X9X#Xh.z u S E #.-.*.( ( ' 0   ; u q Z _ H 4 r F Z z C C F L W ` #.` L 4 pXpX",
"pXpXpXpXpX% % % * % pXpXo 8 n p.h.d.i.m.p.k p.#XS.o.S.+XA.| k  .'.2X3XS.q.o.a.S..X.XF.f.Y i e d L ( ( P f 7 * % * % % @ o o 0 H G F d G ! ) ( L u @   pXpXpX",
"pXpXpXpX- 0 9 7 q 7 pXpX$ 8 n i.b.h.a.n.i.j +.>X].| ].,X'.| > x A.3XwX X{ [ e.A.|.XX[.M.X.2 5 r f ( ( P s 1 % @ pXpXpXpXpXpX; 0 0 9 4 r L ) ` ( K I F 4 pXpX",
"pXpXpX@ 9 H G Z L d ; X + 8 n r.h.h.i.z.t.c t.#XA.e.S.+XC.o.c } ].2X2X~.q.q.j.'..XXXS.a.^ i u f I ( ( P d 9 * pXpXpXpXpXpXpXpX@ % @ . = u L ( ( ! L.U.u @ pX",
"pX* - 7 f I W P ( L d 1 o 8 B V { s.z. .n o.i.z.j.i.m.j.k v z.@X3X;XA.i.q.u.].5X9X#Xh.z r C E %.;.=.( ( ' a @ pXpXpXpXpXpXpXpXpXpXpXpXpX; 7 0 0 9 f d 4 * pX",
"pX* 1 F ( ( ( ( _ ! W t $ 8 ] n b r.h.b n a.j.t.i.a.a.r.c } {.1X3X~.M [ j.].;XqX5X$X+.2 Q E.H.2.6.*.W I ) r @ pXpXpXpXpXpXpXpXpXpXpXpXpXO o o X o     % = pX",
"pX% 7 P ` W I ! ( T K 5   7 O.' P n { r.t.[ j..XC. .a.'.;X;Xb.j.~.o.j | {.0X0Xx.m.:Xh.< _.yX`.E ' ( E s 7 = pXpXpXpXpXpXpXpXpXpXpXpXpXpXpXpXpXpXpXpXpXpXpXpX",
"pX% 7 ( ' I W ! ( W L u * 7 K / / b b r.b.b.~..XA.h.[.>X0X;Xh.m B b ] A.<X0X-Xt.0.'.W.I.iXyX`.H P f s ; . pXpXpXpXpXpXpXpXpXpXpXpXpXpXpXpXpXpXpXpXpXpXpXpXpX",
"pX% 7 ( ' I I I I I ( P d 4 * y / S L b N.9X2Xi.n.$X9X4XS.o.a.n >  ..X0X9XC.{ F.B.^ _.yXuX(.Y.` ! u ; % pXpXpXpXpXpXpXpXpXpXpXpXpXpXpXpXpXpXpXpXpXpXpXpXpXpX",
"pX% 4 P ` ( _ ( ! ( ( ( _ 9   e :.' O.z.].OXZ.B q.Z.OX^.r.B j.b.d.A.oXOX!.o.d.1X*XS /.yX8X2.3.) d - @ pXpXpXpXpXpXpXpXpXpXpXpXpXpXpXpXpXpXpXpXpXpXpXpXpXpXpX",
"pX* 1 C ! ` ' ` ( ! I ! ' q   Z T.g.l.%X}.r : B z 1 S T } s.V.>X0X,Xf.0 3 y.:XtXeX*.K.7X/.<.;.I 1 X pXpXpXpXpXpXpXpXpXpXpXpXpXpXpXpXpXpXpXpXpXpXpXpXpXpXpXpX",
"pX* - 7 q a a a F ! _ ' $.F 4 y K ^ p.C.c.A d Y I D 3 y | |.4XqX!.,.Y & j +X0X&X8._ #.3.~ e s q * pXpXpXpXpXpXpXpXpXpXpXpXpXpXpXpXpXpXpXpXpXpXpXpXpXpXpXpXpX",
"pXpXpX* * o   @ 0 L ! ) ( T G %   w / t L 7.3.L =.H.Q J b.<XtX&X2 + t Y m.9X6XF # d d s ; . X % pXpXpXpXpXpXpXpXpXpXpXpXpXpXpXpXpXpXpXpXpXpXpXpXpXpXpXpXpXpX",
"pXpXpXpXpXpXpXpX- 9 7 s P T P e 4 ! J.<.&.' I Z Z #.g.{.9X3XW.I u 3 C Z.:X}.%.=   4 4 - % pXpXpXpXpXpXpXpXpXpXpXpXpXpXpXpXpXpXpXpXpXpXpXpXpXpXpXpXpXpXpXpXpX",
"pXpXpXpXpXpXpXpX* o   * u Z d s F %.7.G.%.s 5 s t L B.:X0XOX5 + ' W L ~.#XR + @ @ @ @ @ pXpXpXpXpXpXpXpXpXpXpXpXpXpXpXpXpXpXpXpXpXpXpXpXpXpXpXpXpXpXpXpXpXpX",
"pXpXpXpXpXpXpXpXpXpXpXpX1 1 1 4 4 7 9 9 4 - - 5 ~ G.9...O.) a L I.1.Z z h @ $ d s * @ pXpXpXpXpXpXpXpXpXpXpXpXpXpXpXpXpXpXpXpXpXpXpXpXpXpXpXpXpXpXpXpXpXpXpX",
"pXpXpXpXpXpXpXpXpXpXpXpX% o @ o o X . X .   1 F *.;.S $ # 0 ( :.;.! 0 +   . 1 z d - pXpXpXpXpXpXpXpXpXpXpXpXpXpXpXpXpXpXpXpXpXpXpXpXpXpXpXpXpXpXpXpXpXpXpXpX",
"pXpXpXpXpXpXpXpXpXpXpXpXpXpXpX* * u H F 0   f Y.` o . - q ` Y.-.%   . h ( L e 4 * pXpXpXpXpXpXpXpXpXpXpXpXpXpXpXpXpXpXpXpXpXpXpXpXpXpXpXpXpXpXpXpXpXpXpXpXpX",
"pXpXpXpXpXpXpXpXpXpXpXpXpXpXpXpX= 0 Z E d . q ;.Z     * ( 3.%.f ; % 7 P ' ~ i *   pXpXpXpXpXpXpXpXpXpXpXpXpXpXpXpXpXpXpXpXpXpXpXpXpXpXpXpXpXpXpXpXpXpXpXpXpX",
"pXpXpXpXpXpXpXpXpXpXpXpXpXpXpXpXpX% - d d *   . 4 C * = 7.7.  o ;.U.7.~ r s u - * pXpXpXpXpXpXpXpXpXpXpXpXpXpXpXpXpXpXpXpXpXpXpXpXpXpXpXpXpXpXpXpXpXpXpXpXpX",
"pXpXpXpXpXpXpXpXpXpXpXpXpXpXpXpXpX  o d K 0 = * F *.4   s L 4 F L.P.` F u I P ; o pXpXpXpXpXpXpXpXpXpXpXpXpXpXpXpXpXpXpXpXpXpXpXpXpXpXpXpXpXpXpXpXpXpXpXpXpX",
"pXpXpXpXpXpXpXpXpXpXpXpXpXpXpXpXpXX * u L d F W 2.7.s     = ;.Y.2.E 9 9 d ' ( 4 X pXpXpXpXpXpXpXpXpXpXpXpXpXpXpXpXpXpXpXpXpXpXpXpXpXpXpXpXpXpXpXpXpXpXpXpXpX",
"pXpXpXpXpXpXpXpXpXpXpXpXpXpXpXpX= h d 4 4 s ! ;.7.7.` f r K 2.L.<.%.! ! K f w - % pXpXpXpXpXpXpXpXpXpXpXpXpXpXpXpXpXpXpXpXpXpXpXpXpXpXpXpXpXpXpXpXpXpXpXpXpX",
"pXpXpXpXpXpXpXpXpXpXpXpXpXpXpX@ @ T $.- . q ~ 3.4.-.3.G.L.7.;.-.;.4.7.1.I -   * - pXpXpXpXpXpXpXpXpXpXpXpXpXpXpXpXpXpXpXpXpXpXpXpXpXpXpXpXpXpXpXpXpXpXpXpXpX",
"pXpXpXpXpXpXpXpXpXpXpXpXpXpXpXo * ! >.a 1 r F ( ' %.1.4.3.2.;.2.4.;.' ` K 4   o % pXpXpXpXpXpXpXpXpXpXpXpXpXpXpXpXpXpXpXpXpXpXpXpXpXpXpXpXpXpXpXpXpXpXpXpXpX",
"pXpXpXpXpXpXpXpXpXpXpXpXpXpXpXpX* s ( P F d F W K f ` 3.:.;.<.<.2.) K d r - * - - pXpXpXpXpXpXpXpXpXpXpXpXpXpXpXpXpXpXpXpXpXpXpXpXpXpXpXpXpXpXpXpXpXpXpXpXpX",
"pXpXpXpXpXpXpXpXpXpXpXpXpXpXpXpXpX% 7 ! %.K ` G.Z o _ E.7.4.7.2.~ I L u * X * s u @ . % pXpXpXpXpXpXpXpXpXpXpXpXpXpXpXpXpXpXpXpXpXpXpXpXpXpXpXpXpXpXpXpXpXpX",
"pXpXpXpXpXpXpXpXpXpXpXpXpXpXpXpXpXpXo d ( ( :.7.d   q %.%.%.%.` T Z 0 % X % 0 G F 4 = 4 - pXpXpXpXpXpXpXpXpXpXpXpXpXpXpXpXpXpXpXpXpXpXpXpXpXpXpXpXpXpXpXpXpX",
"pXpXpXpXpXpXpXpXpXpXpXpXpXpXpXpXpXpXpXo 7 ( :.=.f X   % r G i P =.F X   % 0 F d s d d d 1 X @ o . . .     pXpXpXpXpXpXpXpXpXpXpXpXpXpXpXpXpXpXpXpXpXpXpXpXpX",
"pXpXpXpXpXpXpXpXpXpXpXpXpXpXpXpXpXpXpX  * a K f 7 % - 7 u d s s f q = ; 9 d H F Z f P ! d ; - 7 s d u f L 0 pXpXpXpXpXpXpXpXpXpXpXpXpXpXpXpXpXpXpXpXpXpXpXpX",
"pXpXpXpXpXpXpXpXpXpXpXpXpXpXpXpXpX* - - = * % * X * K :.P C P q . ; H F F s f I K u F ` P d u G <.G.<.L.Y.P . pXpXpXpXpXpXpXpXpXpXpXpXpXpXpXpXpXpXpXpXpXpXpX",
"pXpXpXpXpXpXpXpXpXpXpXpXpXpXpXpXpXpX= - pXpXo @ o % u Z r 7 0 4 - 9 C d d r f ;.=.K f L F F u G ;.P.T.7.! 9 @ pXpXpXpXpXpXpXpXpXpXpXpXpXpXpXpXpXpXpXpXpXpXpX",
"pXpXpXpXpXpXpXpXpXpXpXpXpXpXpXpXpXpXpXpXpXpXpX- - = % o o *   4 F K i i s r G 2.3.) Z u s d s d K ' L.I     ; pXpXpXpXpXpXpXpXpXpXpXpXpXpXpXpXpXpXpXpXpXpXpX",
"pXpXpXpXpXpXpXpXpXpXpXpXpXpXpXpXpXpXpXpXpXpXpXpXpXpXpXpX= o   = L $.$.%.` P f F _ 1.$.Z u u d d ; ; s 4       o @ o % * pXpXpXpXpXpXpXpXpXpXpXpXpXpXpXpXpXpX",
"pXpXpXpXpXpXpXpXpXpXpXpXpXpXpXpXpXpXpXpXpXpXpXpXpXpXpXpX= = @ q W <.4.G.4.=.P 0 Z 3.3.( H d F s =   . o - 1 ; ; = - = = = pXpXpXpXpXpXpXpXpXpXpXpXpXpXpXpXpX",
"pXpXpXpXpXpXpXpXpXpXpXpXpXpXpXpXpXpXpXpXpXpXpXpXpXpX= = o 1 K ' ` O.$.8.P.4.` F f I $.;.;.$.d 0 f s 9 - 4 K %.L u F p = * pXpXpXpXpXpXpXpXpXpXpXpXpXpXpXpXpX",
"pXpXpXpXpXpXpXpXpXpXpXpXpXpXpXpXpXpXpXpXpXpXpXpXpXpX= = o 1 I ` K f f P %.3.7.%.! I ` 3.H.5.E C ' %.! H L 4.T._ q F s - @ pXpXpXpXpXpXpXpXpXpXpXpXpXpXpXpXpX",
"pXpXpXpXpXpXpXpXpXpXpXpXpXpXpXpXpXpXpXpXpXpXpXpXpXpXpXpXpXpX; ; - ; ; X 4 *.R.L.6.2.;.;.;.;.;.*.;.;.2.4.5.T.U.d   - ; pXpXpXpXpXpXpXpXpXpXpXpXpXpXpXpXpXpXpX",
"pXpXpXpXpXpXpXpXpXpXpXpXpXpXpXpXpXpXpXpXpXpXpXpXpXpXpXpXpXpXo X o o o   . s %.! ` ;.3.4.<.<.3.4.4.1.;.` ~ _ P 4   X pXpXpXpXpXpXpXpXpXpXpXpXpXpXpXpXpXpXpXpX",
"pXpXpXpXpXpXpXpXpXpXpXpXpXpXpXpXpXpXpXpXpXpXpXpXpXpXpXpXpXpXpXpXpXpXpXpXpX= % . 7 ( 3.G.7.;.-.;.4.%.F - X . X o o pXpXpXpXpXpXpXpXpXpXpXpXpXpXpXpXpXpXpXpXpX",
"pXpXpXpXpXpXpXpXpXpXpXpXpXpXpXpXpXpXpXpXpXpXpXpXpXpXpXpXpXpXpXpXpXpXpXpXpXpX. pX* q f F _ :.6.6.7.` F 7 ; = ; s d pXpXpXpXpXpXpXpXpXpXpXpXpXpXpXpXpXpXpXpXpX",
"pXpXpXpXpXpXpXpXpXpXpXpXpXpXpXpXpXpXpXpXpXpXpXpXpXpXpXpXpXpXpXpXpXpXpXpXpXpXpXpXpX*   . q ' 2.6.3.' I I ( ( ( =.) 7 X pXpXpXpXpXpXpXpXpXpXpXpXpXpXpXpXpXpXpX",
"pXpXpXpXpXpXpXpXpXpXpXpXpXpXpXpXpXpXpXpXpXpXpXpXpXpXpXpXpXpXpXpXpXpXpXpXpXpXpXpXpXpXpXpX= u 0 F 3.Y.3.2.4.G.8.! 9 - % pXpXpXpXpXpXpXpXpXpXpXpXpXpXpXpXpXpXpX",
"pXpXpXpXpXpXpXpXpXpXpXpXpXpXpXpXpXpXpXpXpXpXpXpXpXpXpXpXpXpXpXpXpXpXpXpXpXpXpXpXpXpXpXpXpXo   @ ` H.2.<.<.G.3.y   o - pXpXpXpXpXpXpXpXpXpXpXpXpXpXpXpXpXpXpX",
"pXpXpXpXpXpXpXpXpXpXpXpXpXpXpXpXpXpXpXpXpXpXpXpXpXpXpXpXpXpXpXpXpXpXpXpXpXpXpXpXpXpXpXpXpXpXpXpX9 u q q 0 u r pXpXpXpXpXpXpXpXpXpXpXpXpXpXpXpXpXpXpXpXpXpXpX",
"pXpXpXpXpXpXpXpXpXpXpXpXpXpXpXpXpXpXpXpXpXpXpXpXpXpXpXpXpXpXpXpXpXpXpXpXpXpXpXpXpXpXpXpXpXpXpXpX% @ @ @ @ @ % pXpXpXpXpXpXpXpXpXpXpXpXpXpXpXpXpXpXpXpXpXpXpX",
"pXpXpXpXpXpXpXpXpXpXpXpXpXpXpXpXpXpXpXpXpXpXpXpXpXpXpXpXpXpXpXpXpXpXpXpXpXpXpXpXpXpXpXpXpXpXpXpXpXpXpXpXpXpXpXpXpXpXpXpXpXpXpXpXpXpXpXpXpXpXpXpXpXpXpXpXpXpX"
};
