/* XPM */
static xpm_row_t const opponent_atack2_xpm[] = {
/* columns rows colors chars-per-pixel */
"98 80 223 2 ",
"   c #010002",
".  c #050309",
"X  c #09060B",
"o  c #0B090D",
"O  c #010213",
"+  c #0F0C11",
"@  c #030118",
"#  c #0A0318",
"$  c #110E13",
"%  c #11091E",
"&  c #131115",
"*  c #161419",
"=  c #19161B",
"-  c #1C191E",
";  c #191316",
":  c #281B18",
">  c #371E17",
",  c #29211F",
"<  c #070B26",
"1  c #1E1B21",
"2  c #1A162B",
"3  c #1B1B32",
"4  c #0D1234",
"5  c #221E24",
"6  c #231D29",
"7  c #242126",
"8  c #26232A",
"9  c #2A252C",
"0  c #2D2A2E",
"q  c #2C2422",
"w  c #322422",
"e  c #34282A",
"r  c #242333",
"t  c #2D2631",
"y  c #2F2A31",
"u  c #2A2A3A",
"i  c #322D35",
"p  c #352E39",
"a  c #312730",
"s  c #2F333A",
"d  c #343135",
"f  c #363139",
"g  c #3A353C",
"h  c #3D3A3D",
"j  c #3A3233",
"k  c #4C2E26",
"l  c #463127",
"z  c #55392D",
"x  c #423D3E",
"c  c #4B3E3B",
"v  c #5C3F35",
"b  c #623E34",
"n  c #544233",
"m  c #594738",
"M  c #644D3B",
"N  c #664837",
"B  c #6A513C",
"V  c #73573D",
"C  c #714A3C",
"Z  c #3D3641",
"A  c #3D3A41",
"S  c #373646",
"D  c #32354A",
"F  c #423C44",
"G  c #453F4B",
"H  c #483E4A",
"J  c #423B51",
"K  c #3D404B",
"L  c #454245",
"P  c #4A4244",
"I  c #464349",
"U  c #4A454B",
"Y  c #4D4A4D",
"T  c #554945",
"R  c #55524C",
"E  c #4D4551",
"W  c #4E4A51",
"Q  c #474856",
"!  c #524D53",
"~  c #554F59",
"^  c #545255",
"/  c #5B5556",
"(  c #565359",
")  c #5A555C",
"_  c #5C5A5D",
"`  c #5E5A53",
"'  c #6E5542",
"]  c #645543",
"[  c #735645",
"{  c #735A47",
"}  c #735C4C",
"|  c #7D5E4A",
" . c #7C5A42",
".. c #665954",
"X. c #745F53",
"o. c #6A4F40",
"O. c #7C614C",
"+. c #7A6457",
"@. c #66655B",
"#. c #5D5660",
"$. c #5E5A61",
"%. c #595B69",
"&. c #625C64",
"*. c #655E69",
"=. c #655A69",
"-. c #6A5E74",
";. c #656266",
":. c #66616A",
">. c #6A646C",
",. c #6C696D",
"<. c #6A6563",
"1. c #776B67",
"2. c #777168",
"3. c #6D6671",
"4. c #6E6972",
"5. c #706773",
"6. c #726B75",
"7. c #766E79",
"8. c #7A6E7C",
"9. c #77717A",
"0. c #7A727D",
"q. c #777472",
"w. c #FF2828",
"e. c #835E49",
"r. c #82634D",
"t. c #86634A",
"y. c #836551",
"u. c #856A53",
"i. c #8A6E56",
"p. c #876E59",
"a. c #926E58",
"s. c #8D725A",
"d. c #8C7157",
"f. c #92755C",
"g. c #96775C",
"h. c #877866",
"j. c #9A7E63",
"k. c #967A62",
"l. c #887B73",
"z. c #AA835F",
"x. c #9E8166",
"c. c #9C876C",
"v. c #878472",
"b. c #978A74",
"n. c #8F8D77",
"m. c #A38569",
"M. c #A48A6D",
"N. c #AB8B6C",
"B. c #A38366",
"V. c #A7936F",
"C. c #A68D74",
"Z. c #AA9578",
"A. c #B59474",
"S. c #BA9D7B",
"D. c #B59877",
"F. c #B28C6D",
"G. c #BCA37F",
"H. c #C19F77",
"J. c #C7A478",
"K. c #D1A97C",
"L. c #7D7582",
"P. c #7F7A85",
"I. c #827A85",
"U. c #867D89",
"Y. c #867D8A",
"T. c #8A828D",
"R. c #8D8591",
"E. c #8F8797",
"W. c #938B96",
"Q. c #978C9A",
"!. c #98919C",
"~. c #979C89",
"^. c #A69D95",
"/. c #BEA684",
"(. c #B8B594",
"). c #A9A98B",
"_. c #9E9AB1",
"`. c #A296A6",
"'. c #B1AAB6",
"]. c #B2ADAE",
"[. c #C6AA84",
"{. c #C9A985",
"}. c #CDB28C",
"|. c #CBB98D",
" X c #D5B78A",
".X c #DCBD94",
"XX c #D3B991",
"oX c #D2B690",
"OX c #E3BE8E",
"+X c #C9C397",
"@X c #DDC299",
"#X c #D7C697",
"$X c #DED49E",
"%X c #E1CA9C",
"&X c #E6C99A",
"*X c #F5D29C",
"=X c #E9D39B",
"-X c #CED2A9",
";X c #E8D8A6",
":X c #F7D9A5",
">X c #E5CCA0",
",X c #E6E2AE",
"<X c #FDE7AB",
"1X c #ECE9B4",
"2X c #FDECB3",
"3X c #F6E9B6",
"4X c #FDF4BC",
"5X c #F8F3BB",
"6X c #B7BACB",
"7X c #C6BAC6",
"8X c #CAC4CB",
"9X c #D7CCD7",
"0X c #FFFDC3",
"qX c #FFFFCB",
"wX c #F4F8C1",
"eX c #FFFFD4",
"rX c #FFFFDA",
"tX c #E1D6E1",
"yX c #EAEDEF",
"uX c #FFFFEE",
"iX c #FFFFFF",
"pX c #F8F6F8",
"aX c None",
/* pixels */
"aXaXaXaXaXaXaXaXaXaXaXaXaXaXaXaXaXaXaXaXaXaXaXaXaXaXaXaXaXaXaXaXaXaXaXaXaXaXaXaXaXaXaXaXaXaXaXaXaXaXaXaXaXaXaXaXaXaXaXaXaXaXaXaXaXaXaXaXaXaXaXaXaXaXaXaXaXaXaXaXaXaXaXaXaXaXaXaXaXaXaXaXaXaXaXaXaXaX",
"aXaXaXaXaXaXaXaXaXaXaXaXaXaXaXaXaXaXaXaXaXaXaX+ o + + + o $ & + o + $ $ o + aXaXaXaXaXaXaXaXaXaXaXaXaXaXaXaXaXaXaXaXaXaXaXaXaXaXaXaXaXaXaXaXaXaXaXaXaXaXaXaXaXaXaXaXaXaXaXaXaXaXaXaXaXw.w.aXaXaXaXaX",
"aXaXaXaXaXaXaXaXaXaXaXaXaXaXaXaXaXaXaXaXaXaX& d f i i i d 0 7 y f i 0 8 F f aXaXaXaXaXaXaXaXaXaXaXaXaXaXaXaXaXaXaXaXaXaXaXaXaXaXaXaXaXaXaXaXaXaXaXaXaXaXaXaXaXaXaXaXaXaXaXaXaXaXaXaXaXw.w.aXaXaXaXaX",
"aXaXaXaXaXaXaXaXaXaXaX* * = + X o & = * &   8 0.Y.7.7.9.0.;.U >.P.L.;.^ T.9.$   o aXaXaXaXaXaXaXaXaXaXaXaXaXaXaXaXaXaXaXaXaXaXaXaXaXaXaXaXaXaXaXaXaXaXaXaXaXaXaXaXaXaXaXaXaXaXaXaXaXaXw.w.aXaXaXaXaX",
"aXaXaXaXaXaXaXaXaXaXaXaX+   g *.W 7   o i F #.7.0.6.0.0.7.>.&.6.0.L.$.d a d L ^ ) 9 X aXaXaXaXaXaXaXaXaXaXaXaXaXaXaXaXaXaXaXaXaXaXaXaXaXaXaXaXaXaXaXaXaXaXaXaXaXaXaXaXaXaXaXaXaXaXaXaXw.w.aXaXaXaXaX",
"aXaXaXaXaXaXaXaXaXaXaXaXaXo ~ R.6.L * 5 E 8.I.>.,.>.*.*.>.6.6.>.>.6.) i   o U P.T.g   aXaXaXaXaXaXaXaXaXaXaXaXaXaXaXaXaXaXaXaXaXaXaXaXaXaXaXaXaXaXaXaXaXaXaXaXaXaXaXaXaXaXaXaXaXaXaXaXw.w.aXaXaXaXaX",
"aXaXaXaXaXaXaXaXaXaX    * i g Z L ..3.) Y 6.I.7.8.6.Y Y 7.L.3.3.>.3.3.*.^ 0   d 6.d   aXaXaXaXaXaXaXaXaXaXaXaXaXaXaXaXaXaXaXaXaXaXaXaXaXaXaXaXaXaXaXaXaXaXaXaXaXaXaXaXaXaXaXaXaXaXaXaXw.w.aXaXaXaXaX",
"aXaXaXaXaXaXaXaXaXi L 8 i W F f L &.L.$.P ~ ) ! #.&._ ( ) #.&.5.4.>.7.I.I._ - 7 h 5 $ aXaXaXaXaXaXaXaXaXaXaXaXaXaXaXaXaXaXaXaXaXaXaXaXaXaXaXaXaXaXaXaXaXaXaXaXaXaXaXaXaXaXaXaXaXaXaXaXw.w.aXaXaXaXaX",
"aXaXaXaXaXaXaXaX. #.W.;.U ! ^ ^ ^ ! W x i i 0 8 d W 0.3.a d ! >.7.:.3.7.L.7.,.d . aXaXaXaXaXaXaXaXaXaXaXaXaXaXaXaXaXaXaXaXaXaXaXaXaXaXaXaXaXaXaXaXaXaXaXaXaXaXaXaXw.w.aXaXaXaXaXaXaXaXw.w.w.aXaXaXaX",
"aXaXaXaXaXaXaXaX$ 8 U _ ;./ Y A F F F g f x ! =._ Y ( H y d U U =.T.&.8 0 F / f . aXaXaXaXaXaXaXaXaXaXaXaXaXaXaXaXaXaXaXaXaXaXaXaXaXaXaXaXaXaXaXw.w.aXaXaXaXaXaXaXaXw.w.aXaXaXaXaXaXaXw.w.w.aXaXaXaX",
"aXaXaXaXaXaXaXaX=     g ) ! F i p p f p Z L ;.0.:.L a y F Z y 5 g 6.F     o p y $ aXaXaXaXaXaXaXaXaXaXaXaXaXaXaXaXaXaXaXaXaXaXaXaXaXaXaXaXaXaXaXw.w.aXaXaXaXaXaXaXaXaXw.w.aXaXaXaXaXaXw.w.w.aXaXaXaX",
"aXaXaXaX- & o       X X 8 U U F L F f A H G L U F d i L $.0       X aXaXaXaX= = & aXaXaXaXaXaXaXaXaXaXaXaXaXaXaXaXaXaXaXaXaXaXaXaXaXaXaXaXaXaXaXaXaXw.w.aXaXaXaXaXaXw.w.w.w.aXaXaXaXaXw.w.w.aXaXaXaX",
"aXaXaXaXaX= 0 g f d 8 & $ 5 8 9 5 y F g 0 8 6 1 d U A G ^ L i f f i 1 aXaXaX+ & = aXaXaXaXaXaXaXaXaXaXaXaXaXaXaXaXaXaXaXaXaXaXaXaXaXaXaXaXaXaXaXaXaXw.w.aXaXaXaXaXaXaXw.w.w.aXaXaXaXaXw.w.w.aXaXaXaX",
"aXaXaXaXaXaXY 0.P.3.W U 8     o   - U a X $ + . h ;.U i i &.R.Y.Y.!.! . aXaXaXaXaXaXaXaXaXaXaXaXaXaXaXaXaXaXaXaXaXaXaXaXaXaXaXaXaXaXaXaXaXaXaXaXaXaXw.w.w.w.aXaXaXaXaXaXw.w.aXaXaXaXaXw.w.w.aXaXaXaX",
"aXaXaXaXaXX & F >._ Y ..) Y g 0 h i = X X aXaXaX5 d 8 5 - a F F F L 0 aXaXaXaXaXaXaXaXaXaXaXaXaXaXaXaXaXaXaXaXaXaXaXaXaXaXaXaXaXaXaXaXaXaXaXaXaXaXaXaXw.w.w.aXaXaXaXaXaXw.w.aXaXaXaXaXw.w.w.aXaXaXaX",
"aXaXaXaX- -   - Y W ~ 5.I.I.6.) ,.L $ $ - aXaXaXaX  o $ $           aXaXaXaXaXaXaXaXaXaXaXaXaXaXaXaXaXaXaXaXaXaXaXaXaXaXaXaXaXaXaXaXaXaXaXaXaXaXaXaXaXaXw.w.aXaXaXaXaXaXw.w.aXaXaXaXaXw.w.w.aXaXaXaX",
"aXaXaX  0 ^ Y Y ! ;.7.3.>.>.5.*.! L Y G i & X aXaXaXaXaXaXaXaXaXaXaXaXaXaXaXaXaXaXaXaXaXaXaXaXaXaXaXaXaXaXaXaXaXaXaXaXaXaXaXaXaXaXaXaXaXaXaXaXaXaXaXaXaXaXaXaXaXaXaXaXaXw.w.w.w.aXaXaXw.w.w.aXaXaXaX",
"aXaX- y ^ ,.) Y F ( >.3.3.>.6.6._ ( _ ! g 0 = aXaXaXaXaXaXaXaXaXaXaXaXaXaXaXaXaXaXaXaXaXaXaXaXaXaXaXaXaXaXaXaXaXaXaXaXaXaXaXaXaXaXaXaXaXaXaXaXaXaXaXaXaXaXaXaXaXaXaXaXaXaXw.w.w.aXaXaXw.w.w.w.aXaXaX",
"aX$ y ;.:.! g y p h Y *.4.>.>.*.6.:.W h i H f $ aXaXaXaXaXaXaXaXaXaXaXaXaXaXaXaXaXaXaXaXaXaXaXaXaXaXaXaXaXaXaXaXaXaXaXaXaXaXaXaXaXaXaXaXaXaXaXaXaXaXaXaXaXaXaXaXaXaXaXaXaXaXw.w.aXaXaXw.w.w.w.w.aXaX",
"aX& aXaX9 5 p g i W 3.7.6.>.6.L.R.6.U L I F p 0 = o aXaXaXaXaXaXaXaXaXaXaXaXaXaXaXaXaXaXaXaXaXaXaXaXaXaXaXaXaXaXaXaXaXaXaXaXaXaXaXaXaXaXaXaXaXaXaXaXaXaXaXaXaXaXaXaXaXaXaXaXw.w.aXaXaXw.w.w.w.w.aXaX",
"aXaXaXaX  $ f F i ..L.3.>.4.:.$.*._ ^ / ^ F g W i $ aXaXaXaXaXaXaXaXaXaXaXaXaXaXaXaXaXaXaXaXaXaXaXaXaXaXaXaXaXaXaXaXaXaXaXaXaXaXaXaXaXaXaXaXaXaXaXaXaXaXaXaXaXaXaXaXaXaXaXaXw.w.aXaXaXw.w.w.w.w.aXaX",
"aXaXaX& 8 h g f p ^ :.A ) Y.E X   8 T.6.L U W ( U i 1 $ aXaXaXaXaXaXaXaXaXaXaXaXaXaXaXaXaXaXaXaXaXaXaXaXaXaXaXaXaXaXaXaXaXaXaXaXaXaXaXaXaXaXaXaXaXaXaXaXaXaXaXaXaXaXaXaXaXaXw.w.aXaXaXw.w.w.w.w.aXaX",
"aXaXaX$ p ! Z g g h i + i 6.y   * f I ~ ^ _ / U U F - X aXaXaXaXaXaXaXaXaXaXaXaXaXaXaXaXaXaXaXaXaXaXaXaXaXaXaXaXaXaXaXaXaXaXaXaXaXaXaXaXaXaXaXaXaXaXaXaXaXaXaXaXaXaXaXaXaXaXw.w.aXaXaXw.w.w.w.w.aXaX",
"aXaXaXaXa I Z g F 5     = H 1 & I.:.  - ,.;.Y i p g = X aXaXaXaXaXaXaXaXaXaXaXaXaXaXaXaXaXaXaXaXaXaXaXaXaXaXaXaXaXaXaXaXaX$ o & = aXaXaXaXaXaXaXaXaXaXaXaXaXaXaXaXaXaXaXaXaXw.w.aXaXaXw.w.w.w.w.aXaX",
"aXaXaXaXaXaXA E U = X ~ E X   $ &.9.U 9 $ & d ^ ! A f 7 ; aXaXaXaXaXaXaXaXaXaXaXaXaXaXaXaXaXaXaXaXaXaXaXaXaXaXaXaXaXaXaX  g ) 1 X aXaXaXaXaXaXaXaXaXaXaXaXaXaXaXaXaXaXaXaXaXaXaXaXaXaXw.w.w.w.w.aXaX",
"aXaXaXaXaXaXi F Z $ & I.6.+ . * i ;.R.E     1 ^ U i U Z * $ aXaXaXaXaXaXaXaXaXaXaXaXaXaXaXaXaXaXaXaXaXaXaXaXaXaXaXaXaXaX+ >.R.9   aXaXaXaXaXaXaXaXaXaXaXaXaXaXaXaXaXaXaXaXaXaXaXaXaXaXw.w.w.w.w.aXaX",
"aXaXaXaX= $ X       $ i #.7.A @ @ u _ 6.*.U &     ; G G * aXaXaXaXaXaXaXaXaXaXaXaXaXaXaXaXaXaXaXaXaXaXaXaX- o   aXaX  7 *.Y.4.6   aXaXaXaXaXaXaXaXaXaXaXaXaXaXaXaXaXaXaXaXaXw.w.aXw.w.w.w.w.w.w.aXaX",
"aXaXaXaXaX= y f d 5 = 1 G 7.l.h.v.` 1 W I.~ P ] , . 7 8 $ $ aXaXaXaXaXaXaXaXaXaXaXaXaXaXaXaXaXaXaXaXaXaXaX+ 7 A 5 aX& U I.T._ 7   aXaXaXaXaXaXaXaXaXaXaXaXaXaXaXaXaXaXaXaXaXw.w.aXw.w.w.w.w.w.w.aXaX",
"aXaXaXaXaXaX4.!.Y.~ 0 i p s M.<XrX+X% 2 / S l.2XC.< # o & & $ aXaXaXaXaXaXaXaXaXaXaXaXaXaXaXaXaXaXaXaXaXaX  F R.g   L ,.5.>.Y 5 . o $ * aXaXaXaXaXaXaXaXaXaXaXaXaXaXaXaXaXaXaXaXaXw.w.w.w.w.w.w.aXaX",
"aXaXaXaXaXX ~ %.K =.>.L Q >.<.b.:X4X-X/ @ < ..K.:X).6   9 7 * X   o aXaXaXaXaXaXaXaXaXaXaXaXaXaXaXaXaXaXaX  i W.y   ~ I.0.E *   = ) f X aXaXaXaXaXaXaXaXaXaXaXaXaXaXaXaXaXaXaXaXaXw.w.w.w.w.w.w.aXaX",
"aXaXaXaX$ 6 P R R >.5.^ / 7.D u s.<XuX(.1 u j v =XrXv.u L E E 0 $ 5 = aXaXaXaXaXaXaXaXaXaXaXaXaXaXaXaXaXaXo F L.i $ *.T.9.8     U Q.W   aXaXaXaXaXaXaXaXaXaXaXaXaXaXaXaXaXaXaXaXaXw.w.w.w.w.w.w.aXaX",
"aXaXaX+ I L.u.J.>X..@ c n 3 4 u X.H.%XqX5XV.w @ +.3XqX-X$.3.E.*.U W 8   aXaXaXaXaXaXaXaXaXaXaXaXaXaXaXX - ( 0.6.W L <.0.,.=   Y I.I.F   aXaXaXaXaXaXaXaXaXaXaXaXaXaXaXaXaXaXaXaXaXw.w.w.w.w.w.w.aXaX",
"aXaXaX  Q T.+.V.#XZ.@.V B ..v.n.{ e.N.XX$X XM.;.} F.qX0XQ _.iX'.3.6.F * $ aXaXaXaXaXaXaXaXaXaXaXaXaXaX  5 7.R.>./ ( 0.=.0 & 0 6.R.6.d . aXaXaXaXaXaXaXaXaXaXaXaXaXaXaXaXaXaXaXaXaXw.w.w.w.w.w.w.aXaX",
"aXaXaX  y / D U [ <XeXx.a.&XqX4Xj.[ j.z l D.0XeX/.b {./.S 6XiX9X8.9.~ g = X aXaXaXaXaXaXaXaXaXaXaXaXaX. - &.L.>.W U L.W   7 ;.,.>._ 0 o aXaXaXaXaXaXaXaXaXaXaXaXaXaXaXaXaXaXaXaXaXw.w.w.w.w.w.w.aXaX",
"aX& 5 K Y Y j M a.S.|.}.S.N..X2X4X|.y.z v M D.<X4X+Xg.t.Z.^.'.iXpX7.I L f 1 X aXaXaXaXaXaXaXaXaXaXaXaX. - *.P.6.:.$.3.L $ F 9.I.) 8 & aXaXaXaXaXaXaXaXaXaXaXaXaXaXaXaXaXaXaXaXaXaXw.w.w.w.w.w.aXaXaX",
"aX& 0 ;._ Y N t.f.{ r.XX[.[ a.}.5X;Xg.m.V.k z A.0XrXM.a.:Xp.3 yXiX5.U / W g 1 & aXaXaXaXaXaXaXaXaXaXaX  - *.0.:.7.4.Y h F &.0.P.U   aXaXaXaXaXaXaXaXaXaXaXaXaXaXaXaXaXaXaXaXaXaXaXw.w.w.w.w.aXaXaXaX",
"aX$ 0 { m m g.u.n O.m.s.a.s.f.u.n u..X0X,Xp.b a./.;XwXwX*X..< 3.!.6.7.6.( U _ d o aXaXaXaXaXaXaXaXaXaX. 1 6.9.L 3.7.g 0 L =.6.;.g $ aXaXaXaXaXaXaXaXaXaXaXaXaXaXaXaXaXaXaXaXaXaXw.w.w.w.w.w.aXaXaXaX",
"aX$ q V V O.B.s.M V i.x.x.p.c.x.z m A.;X5X#Xc.O.e.D.3XqX&Xh.j a F ~ :.>.) ! _ g o aXaXaXaXaXaXaXaXaXaX  = $.;.h $.*.h A _ 6.3._ d $ aXaXaXaXaXaXaXaXaXaXaXaXaXaXaXaXaXaXaXaXaXaXw.w.w.w.w.w.aXaXaXaX",
"aX+ , B d.x.f.j.x.M m XXoXO.S.%XD.[ l u..X0X;Xs.[ i.D..XXXJ.f.T r i F Y ^ U A 8 $ aXaXaXaXaXaXaXaXaXaXX & U ( U Y W Y _ 4.8.>.&.g & aXaXaXaXaXaXaXaXaXaXaXaXaXaXaXaXaXaXaXaXaXaXw.w.w.w.w.w.aXaXaXaX",
"aX& q M g.N.f.g.V.m z @X.X| /.:XJ.B : [ .XeX5Xf.C | F.oXXX{.z.c % 8 d Y ^ W g 5 $ aXaXaXaXaXaXaXaXaX* 5 a h _ 4.U d L &.7.:./ ,.L $ o aXaXaXaXaXaXaXaXaXaXaXaXaXaXaXaXaXaXaXaXaXw.w.w.w.w.w.aXaXaXaX",
"aX$ , B u.g.f.g.s.B B [.[.O.D.}.j.[ N m.>X3X+Xi.e.k.{.%X.XD.O.P s Z U ( ( Y L 9 + aXaXaXaXaXaXaXaXaX$ y W W :.9.E a L $.6.) h ^ g & aXaXaXaXaXaXaXaXaXaXaXaXaXaXaXaXaXaXaXaXaXaXw.w.w.w.w.w.aXaXaXaX",
"aX+ q V B V m.s.n } k.p.s.s.j.u.> m }.0X0X/.y.O.a.{.qXeX&X+.2 p W =.6.4./ ^ :.A o aXaXaXaXaXaXaXaXaX  9 _ 4.4.^ W U F _ I.) 8 1 * aXaXaXaXaXaXaXaXaXaXaXaXaXaXaXaXaXaXaXaXaXw.w.w.w.w.w.w.aXaXaXaXaX",
"aX+ 0 +.T m u.r.B O.g.M.x.u.s.j.k.V.{.;X#X[ z g..XwX$X#X:X} < !.8X6.3.>.( L U 0 & aXaXaXaXaXaXaXaX& 7 Y >.4.) g L ^ ( _ ) ~ A $   aXaXaXaXaXaXaXaXaXaXaXaXaXaXaXaXaXaXaXaXaXw.w.w.w.w.w.w.aXaXaXaXaX",
"aX& 0 $.%.R n  .x.r.y.@X}.{ j.&XeX1XO.y.s.l N {.qXrXh.e.*Xk.S iXiX4.A Y U a o o aXaXaXaXaXaXaXaX. 9 ^ 6.4.^ h y g ^ 9._ 8 ! ` 6 o aXaXaXaXaXaXaXaXaXaXaXaXaXaXaXaXaXaXaXaXaXw.w.w.w.w.w.w.aXaXaXaXaX",
"aXaX= 9 h Y S m r.#X2XG.A.{.2X0X@XM.u.k l u.@XqX;Xc.N.k.1.].yXiX8XL.W F t * aXaXaXaXaXaXaXaXaX$ = G ,.L.6.W n K ! >.L.:.F d 9 aXaXaXaXaXaXaXaXaXaXaXaXaXaXaXaXaXaXaXaXaXaXaXw.w.w.w.w.w.w.aXaXaXaXaX",
"aXaXaX  s ;.Q / a.;X5Xu.e.}.1X;Xp.C m.[ ' J.2X1XN.b &XXXD 6XiX7X=.6.W 0 & . aXaXaXaXaXaXaXaX$ 1 f &.7.6.*.! I ! :.7.3.;._ 7   aXaXaXaXaXaXaXaXaXaXaXaXaXaXaXaXaXaXaXaXaXaXaXw.w.w.w.w.w.w.aXaXaXaXaX",
"aXaXaXo ^ W.p.J.:Xl.8 M N d Q @.} a.A.<X0X XX.u !  XrXeX#.E.tX`.6.3.h o aXaXaXaXaXaXaXaXaXo 5 g h $.L.=.Y L L Y *.5.! / :.d   aXaXaXaXaXaXaXaXaXaXaXaXaXaXaXaXaXaXaXaXaXw.w.w.w.w.w.w.aXaXaXw.w.aXaX",
"aXaXaX+ s $.O.c./.) 2 n T S 4 r |  X4X5X(.p.w # c.0X,X~.~ =.8.U y g 1 X aXaXaXaXaXaXaXaX& 5 g ~ _ ;.;.U L ) ) Y :.6._ L h 7 $ aXaXaXaXaXaXaXaXaXaXaXaXaXaXaXaXaXaXaXaXaXw.w.w.w.w.w.w.aXaXaXw.w.aXaX",
"aXaXaXaX  + A I s :.I.^ ) Y.Q S M.4XuXn.O < x e.<XqX/ @ g F i $   o aXaXaXaXaXaXaXaXaX. 5 L U ) 6.<.U F W 7.>.U :.7.<.g X aXaXaXaXaXaXaXaXaXaXaXaXaXaXaXaXaXaXaXaXaXaXaXw.w.w.w.w.w.w.aXaXaXw.w.aXaX",
"aXaXaXaXaXaX%.I.>.%.~ A S W h.XX0X2Xv.h 8 3 1.*X%X2.-   ; + + y h 8 5 & aXaXaXaX$ o & 0 f g h / 0.:.h ( 3.,.! d ! _ g = aXaXaXaXaXaXaXaXaXaXaXaXaXaXaXaXaXaXaXaXaXaXaXw.w.w.w.w.w.w.aXaXaXw.w.aXaXaX",
"aXaXaXaXaXaX=.I.6.G 5 t f A b.*XqX~.. 3 ,.K 2.>X+.. O & * X $ Y <.E 0 o aXaXaX* - $ 1 F G g L _ >.&.Y >.4.W g i W U o   aXaXaXaXaXaXaXaXaXaXaXaXaXaXaXaXaXaXaXaXaXaXw.w.w.w.w.w.w.aXaXaXw.w.aXaXaXaX",
"aXaXaXaX& & - 5 1 * * = W Y.6.P n K g ,.T.) y :     - g L h t g F F 6   o + . 5 A p y i g L >.6.U ^ 7.>.Y f g Y ;._ - X aXaXaXaXaXaXaXaXaXaXaXaXaXaXaXaXaXaXaXaXaXaXaXw.w.w.w.w.w.aXaXaXaXw.aXaXaXaX",
"aXaXaXaX= & o   X   & Y >.! r @ # f 4.:.F y $ . * d U =.:.$.L f i I p 5 5 5 1 t G I L g U ;.>.&.^ &.4.! f i L ( Y d - aXaXaXaXaXaXaXaXaXaXaXaXaXaXaXaXaXaXaXaXaXaXaXw.w.w.w.w.w.w.aXaXaXw.w.aXaXaXaX",
"aXaXaXaXaXaXaXaXaXX 1 I.3.    = h 6.R.A     5 / 6.L.6.4.6.;.^ f g ^ W g F F F g f L ^ L $.0.^ U 0.4.Y f f U / ^ 8   aXaXaXaXaXaXaXaXaXaXaXaXaXaXaXaXaXaXaXaXaXaXaXw.w.w.w.w.w.w.aXaXaXw.w.w.aXaXaXaX",
"aXaXaXaXaXaXaXaXaXaX+ i d 6   & 7.6.- y U y y Y :.L.6.6.0.~ i A W ) W g g g f g F / >.:.,.:._ ^ ) E f d L :.6.;.9   aXaXaXaXaXaXaXaXaXaXaXaXaXaXaXaXaXaXaXaXaXaXaXw.w.w.w.w.w.w.aXaXaXw.w.aXaXaXaXaX",
"aXaXaXaXaXaXaXaXaX- =   = ( 7 o 3.)   L W.4.! Y _ 4.>.3.7.W a Y / ! F f g g f P ) 3.8.0._ g U U 0 8 g U &.7.4.U 7 + aXaXaXaXaXaXaXaXaXaXaXaXaXaXaXaXaXaXaXaXaXaXaXw.w.w.w.w.w.w.aXaXaXw.w.aXaXaXaXaX",
"aXaXaXaXaXaXaXaX$ i U a L >.y     0 >.I.0.6.5.6.5.>.>.>.>.4.3...Y x i g W / U _ 6.9.6.,.h $ * - o 7 U &.6.4.U & $ aXaXaXaXaXaXaXaXaXaXaXaXaXaXaXaXaXaXaXaXaXaXw.w.w.w.w.w.w.aXaXaXw.w.w.w.aXaXaXaXaX",
"aXaXaXaXaXaXaXaX& 7 g F U F g 0 o 0 6.>.! $.;.&.>.3.>.3.3.6.4./ g p i g P ! L / >.9.&.L - . X X   0 ;.P.6.L * . aXaXaXaXaXaXaXaXaXaXaXaXaXaXaXaXaXaXaXaXaXaXaXw.w.w.w.w.w.aXaXaXaXw.w.w.w.aXaXaXaXaX",
"aXaXaXaXaXaXaXaXaXo $ A y   d ,.;.U y 8 i G U h ( 6.>.3.7.%.Y g p g g g g f y Z Y _ U $ X aXaXaX  h 9.T.=.*   aXaXaXaXaXaXaXaXaXaXaXaXaXaXaXaXaXaXaXaXaXaXaXw.w.w.w.w.w.aXaXaXaXw.w.w.w.w.aXaXaXaXaX",
"aXaXaXaXaXaXaXaXaXaXaXaXaXaX& h _ ;.! A F #.,.&.:.3.3.>.$.U g f f g G G a y F ( _ h - aXaXaXaXaX  0 0.I./ *   aXaXaXaXaXaXaXaXaXaXaXaXaXaXaXaXaXaXaXaXaXw.w.w.w.w.w.w.aXaXaXaXaXw.w.w.aXaXaXaXaXaXaX",
"aXaXaXaXaXaXaXaXaXaXaXaXaXaXaXX h / Y Y ( 3.9.3.5.>.6.:.Y g i f Z Z f i g I ( _ Y =   aXaXaXaXaXo F 0.;.d = + aXaXaXaXaXaXaXaXaXaXaXaXaXaXaXaXaXaXaXaXaXw.w.w.w.w.w.aXaXaXaXaXaXw.w.w.aXaXaXaXaXaXaX",
"aXaXaXaXaXaXaXaXaXaXaXaXaXaXaXaX1 &   0 ^ $..._ 6.I.Y.0.&.U F F U ! =   E I.,.h & aXaXaXaXaXX 1 ~ Y.T.F . aXaXaXaXaXaXaXaXaXaXaXaXaXaXaXaXaXaXaXaXaXw.w.w.w.w.w.w.aXaXaXaXaXw.w.w.w.w.aXaXaXaXaXaXaX",
"aXaXaXaXaXaXaXaXaXaXaXaXaXaXaXaXaXo = ^ ,.K 8 d F ! ! U x i 0 7 6 5 7 f >.9.L = . aXaXaXaXaX  7 T.R.Y =   aXaXaXaXaXaXaXaXaXaXaXaXaXaXaXaXaXaXaXaXaXw.w.w.w.w.w.aXaXaXaXaXw.w.w.w.w.w.aXaXaXaXaXaXaX",
"aXaXaXaXaXaXaXaXaXaXaXaXaXaXaXaXaXaX_ T.0.7   $ + o X o $ $ $ o     L Q.9.h $ X aXaXaXaXaXaX  7 I.)   aXaXaXaXaXaXaXaXaXaXaXaXaXaXaXaXaXaXaXaXaXaXw.w.w.w.w.w.aXaXaXaXaXw.w.w.w.w.aXaXaXaXaXaXaXaXaX",
"aXaXaXaXaXaXaXaXaXaXaXaXaXaXaXaX+ 1 y A g * aXaXaXaXaXaXaX    d $.&.! f i - aXaXaXaXaXaXaXaX$ = h 8 aXaXaXaXaXaXaXaXaXaXaXaXaXaXaXaXaXaXaXaXaXw.w.w.w.w.aXaXaXaXaXaXaXw.w.w.w.w.aXaXaXaXaXaXaXaXaXaX",
"aXaXaXaXaXaXaXaXaXaXaXaXaXaXaXaX= & X     aXaXaXaXaXaXaXaXaX1 >.!.T.Z     $ aXaXaXaXaXaXaXaX= $   aXaXaXaXaXaXaXaXaXaXaXaXaXaXaXaXaXaXaXaXaXaXw.w.w.w.w.aXaXaXaXaXaXw.w.w.w.w.aXaXaXaXaXaXaXaXaXaXaX",
"aXaXaXaXaXaXaXaXaXaXaXaXaXaXaXaXaXaXaXaXaXaXaXaXaXaXaXaX  G U.!.6.5 o aXaXaXaXaXaXaXaXaXaXaXaXaXaXaXaXaXaXaXaXaXaXaXaXaXaXaXaXaXaXaXaXaXaXw.w.w.w.w.aXaXaXaXaXaXaXw.w.w.w.w.aXaXaXaXaXaXaXaXaXaXaXaX",
"aXaXaXaXaXaXaXaXaXaXaXaXaXaXaXaXaXaXaXaXaXaXaXaXaXaXaXaXX g >.*.g   aXaXaXaXaXaXaXaXaXaXaXaXaXaXaXaXaXaXaXaXaXaXaXaXaXaXaXaXaXaXaXaXaXaXaXw.w.w.w.w.aXaXaXaXaXaXw.w.w.w.w.aXaXaXaXaXaXaXaXaXaXaXaXaX",
"aXaXaXaXaXaXaXaXaXaXaXaXaXaXaXaXaXaXaXaXaXaXaXaXaXaXaXaX* $ . X + aXaXaXaXaXaXaXaXaXaXaXaXaXaXaXaXaXaXaXaXaXaXaXaXaXaXaXaXaXaXaXaXaXaXw.w.w.w.aXaXaXaXaXaXaXaXw.w.w.w.w.aXaXaXaXaXaXaXaXaXaXaXaXaXaX",
"aXaXaXaXaXaXaXaXaXaXaXaXaXaXaXaXaXaXaXaXaXaXaXaXaXaXaXaXaXaXaXaXaXaXaXaXaXaXaXaXaXaXaXaXaXaXaXaXaXaXaXaXaXaXaXaXaXaXaXaXaXaXaXaXw.w.w.w.aXaXaXaXaXaXaXaXaXaXw.w.w.w.w.aXaXaXaXaXaXaXaXaXaXaXaXaXaXaX",
"aXaXaXaXaXaXaXaXaXaXaXaXaXaXaXaXaXaXaXaXaXaXaXaXaXaXaXaXaXaXaXaXaXaXaXaXaXaXaXaXaXaXaXaXaXaXaXaXaXaXaXaXaXaXaXaXaXaXaXaXaXaXaXaXw.w.w.aXaXaXaXaXaXaXaXaXaXw.w.w.w.w.aXaXaXaXaXaXaXaXaXaXaXaXaXaXaXaX",
"aXaXaXaXaXaXaXaXaXaXaXaXaXaXaXaXaXaXaXaXaXaXaXaXaXaXaXaXaXaXaXaXaXaXaXaXaXaXaXaXaXaXaXaXaXaXaXaXaXaXaXaXaXaXaXaXaXaXaXaXaXw.w.w.aXaXaXaXaXaXaXaXaXaXaXaXw.w.w.aXaXaXaXaXaXaXaXaXaXaXaXaXaXaXaXaXaXaX",
"aXaXaXaXaXaXaXaXaXaXaXaXaXaXaXaXaXaXaXaXaXaXaXaXaXaXaXaXaXaXaXaXaXaXaXaXaXaXaXaXaXaXaXaXaXaXaXaXaXaXaXaXaXaXaXaXaXaXaXaXaXw.w.w.aXaXaXaXaXaXaXaXaXaXaXw.w.w.w.aXaXaXaXaXaXaXaXaXaXaXaXaXaXaXaXaXaXaX",
"aXaXaXaXaXaXaXaXaXaXaXaXaXaXaXaXaXaXaXaXaXaXaXaXaXaXaXaXaXaXaXaXaXaXaXaXaXaXaXaXaXaXaXaXaXaXaXaXaXaXaXaXaXaXaXaXaXaXaXaXaXaXaXaXaXaXaXaXaXaXaXaXaXaXw.w.aXaXaXaXaXaXaXaXaXaXaXaXaXaXaXaXaXaXaXaXaXaX",
"aXaXaXaXaXaXaXaXaXaXaXaXaXaXaXaXaXaXaXaXaXaXaXaXaXaXaXaXaXaXaXaXaXaXaXaXaXaXaXaXaXaXaXaXaXaXaXaXaXaXaXaXaXaXaXaXaXaXaXaXaXaXaXaXaXaXaXaXaXaXaXaXaXw.w.aXaXaXaXaXaXaXaXaXaXaXaXaXaXaXaXaXaXaXaXaXaXaX",
"aXaXaXaXaXaXaXaXaXaXaXaXaXaXaXaXaXaXaXaXaXaXaXaXaXaXaXaXaXaXaXaXaXaXaXaXaXaXaXaXaXaXaXaXaXaXaXaXaXaXaXaXaXaXaXaXaXaXaXaXaXaXaXaXaXaXaXaXaXaXaXaXw.w.aXaXaXaXaXaXaXaXaXaXaXaXaXaXaXaXaXaXaXaXaXaXaXaX",
"aXaXaXaXaXaXaXaXaXaXaXaXaXaXaXaXaXaXaXaXaXaXaXaXaXaXaXaXaXaXaXaXaXaXaXaXaXaXaXaXaXaXaXaXaXaXaXaXaXaXaXaXaXaXaXaXaXaXaXaXaXaXaXaXaXaXaXaXaXaXaXaXaXaXaXaXaXaXaXaXaXaXaXaXaXaXaXaXaXaXaXaXaXaXaXaXaXaX",
"aXaXaXaXaXaXaXaXaXaXaXaXaXaXaXaXaXaXaXaXaXaXaXaXaXaXaXaXaXaXaXaXaXaXaXaXaXaXaXaXaXaXaXaXaXaXaXaXaXaXaXaXaXaXaXaXaXaXaXaXaXaXaXaXaXaXaXaXaXaXaXaXaXaXaXaXaXaXaXaXaXaXaXaXaXaXaXaXaXaXaXaXaXaXaXaXaXaX",
"aXaXaXaXaXaXaXaXaXaXaXaXaXaXaXaXaXaXaXaXaXaXaXaXaXaXaXaXaXaXaXaXaXaXaXaXaXaXaXaXaXaXaXaXaXaXaXaXaXaXaXaXaXaXaXaXaXaXaXaXaXaXaXaXaXaXaXaXaXaXaXaXaXaXaXaXaXaXaXaXaXaXaXaXaXaXaXaXaXaXaXaXaXaXaXaXaXaX",
"aXaXaXaXaXaXaXaXaXaXaXaXaXaXaXaXaXaXaXaXaXaXaXaXaXaXaXaXaXaXaXaXaXaXaXaXaXaXaXaXaXaXaXaXaXaXaXaXaXaXaXaXaXaXaXaXaXaXaXaXaXaXaXaXaXaXaXaXaXaXaXaXaXaXaXaXaXaXaXaXaXaXaXaXaXaXaXaXaXaXaXaXaXaXaXaXaXaX"
};
