/* XPM */
static xpm_row_t const opponent_atack0_xpm[] = {
/* columns rows colors chars-per-pixel */
"78 80 221 2 ",
"   c #020103",
".  c #060409",
"X  c #09060B",
"o  c #0C0A0E",
"O  c #020013",
"+  c #0E0C11",
"@  c #08051B",
"#  c #110E13",
"$  c #150416",
"%  c #141116",
"&  c #161318",
"*  c #19161B",
"=  c #1C191E",
"-  c #331A16",
";  c #3E281E",
":  c #090927",
">  c #140D24",
",  c #1E1B21",
"<  c #181626",
"1  c #121733",
"2  c #0F142F",
"3  c #221D23",
"4  c #241925",
"5  c #1C2337",
"6  c #242125",
"7  c #2C2322",
"8  c #262229",
"9  c #2A252C",
"0  c #2C2A2E",
"q  c #3D2C27",
"w  c #252233",
"e  c #2C2631",
"r  c #2E2A32",
"t  c #2E2E3A",
"y  c #25273A",
"u  c #322C34",
"i  c #362F39",
"p  c #343235",
"a  c #363239",
"s  c #3A353C",
"d  c #3C393D",
"f  c #3F3435",
"g  c #462E23",
"h  c #4B362A",
"j  c #573C2F",
"k  c #463736",
"l  c #573D31",
"z  c #4F423C",
"x  c #5B4436",
"c  c #55443E",
"v  c #584536",
"b  c #634C3B",
"n  c #6C4D3C",
"m  c #654538",
"M  c #6C523C",
"N  c #67513E",
"B  c #71523B",
"V  c #77583E",
"C  c #333442",
"Z  c #3E3741",
"A  c #3E3A41",
"S  c #393C49",
"D  c #343552",
"F  c #262641",
"G  c #423C44",
"H  c #453F49",
"J  c #403740",
"K  c #453F56",
"L  c #3E4049",
"P  c #3F4047",
"I  c #444245",
"U  c #464349",
"Y  c #4A454C",
"T  c #4D4A4D",
"R  c #48494C",
"E  c #544543",
"W  c #574C47",
"Q  c #5F544C",
"!  c #4D4650",
"~  c #4D4A52",
"^  c #4A4C59",
"/  c #454556",
"(  c #524C54",
")  c #554E5B",
"_  c #524758",
"`  c #545255",
"'  c #575259",
"]  c #5A545C",
"[  c #5C595C",
"{  c #595656",
"}  c #4E514E",
"|  c #695549",
" . c #735443",
".. c #745A47",
"X. c #7C5B46",
"o. c #7B5D4B",
"O. c #755847",
"+. c #635958",
"@. c #7E634D",
"#. c #7A6C5C",
"$. c #6A615E",
"%. c #5D5661",
"&. c #5E5A62",
"*. c #5A5867",
"=. c #4C4961",
"-. c #625C64",
";. c #665E69",
":. c #665B68",
">. c #656166",
",. c #676269",
"<. c #6A646D",
"1. c #6D696E",
"2. c #6A6566",
"3. c #756B67",
"4. c #7A746A",
"5. c #6E6671",
"6. c #6F6971",
"7. c #716673",
"8. c #726B75",
"9. c #766E79",
"0. c #786F77",
"q. c #757077",
"w. c #77717B",
"e. c #7A737D",
"r. c #805846",
"t. c #82634C",
"y. c #846953",
"u. c #8B6D56",
"i. c #866955",
"p. c #916D56",
"a. c #8D735B",
"s. c #8B7257",
"d. c #93755C",
"f. c #94795E",
"g. c #9B775C",
"h. c #A27B5D",
"j. c #897A67",
"k. c #967B63",
"l. c #9A7C62",
"z. c #927966",
"x. c #81787A",
"c. c #9B8164",
"v. c #9A866A",
"b. c #88867A",
"n. c #978875",
"m. c #9D927D",
"M. c #82806C",
"N. c #A58B6C",
"B. c #AC8B6D",
"V. c #A58567",
"C. c #B4916F",
"Z. c #AC9272",
"A. c #A99976",
"S. c #B39475",
"D. c #B39E7A",
"F. c #B99A78",
"G. c #AF8F6C",
"H. c #B9A27B",
"J. c #C29D76",
"K. c #C09769",
"L. c #C6A579",
"P. c #7D7581",
"I. c #7F7983",
"U. c #827A85",
"Y. c #867D89",
"T. c #837A85",
"R. c #8B838E",
"E. c #878089",
"W. c #9A9A83",
"Q. c #8D8591",
"!. c #928995",
"~. c #928796",
"^. c #9A919D",
"/. c #A29E83",
"(. c #BAA582",
"). c #BCB896",
"_. c #AAA68E",
"`. c #9A98A7",
"'. c #A599A5",
"]. c #B3A7B3",
"[. c #AFACB0",
"{. c #C4A381",
"}. c #C5AB86",
"|. c #CCAE88",
" X c #D3AD83",
".X c #CBB48C",
"XX c #C8B48C",
"oX c #D2B58C",
"OX c #D8B98D",
"+X c #C6B692",
"@X c #D6BB92",
"#X c #CBC599",
"$X c #D9C497",
"%X c #E4CA9E",
"&X c #E6C597",
"*X c #EEC996",
"=X c #CFD3AB",
"-X c #ECCFA0",
";X c #E9D8A5",
":X c #F7DCA7",
">X c #FCE4AC",
",X c #F1E4AD",
"<X c #FCEAB4",
"1X c #F6EAB6",
"2X c #EEF4BF",
"3X c #FFF2B5",
"4X c #FFF8BC",
"5X c #EBE4B0",
"6X c #B8B0C2",
"7X c #D5CCD6",
"8X c #FFFEC4",
"9X c #FFFFCB",
"0X c #F7FAC2",
"qX c #FFFFD4",
"wX c #FFFFDE",
"eX c #D9D9E2",
"rX c #FFFF99",
"tX c #FFFFFF",
"yX c #F1F1F3",
"uX c #E9E6F0",
"iX c None",
/* pixels */
"iXiXiXiXiXiXiXiXiXiXiXiXiXiXiXiXiXiXiXiXiXiXiXiXiXiXiXiXiXiXiXiXiXiXiXiXiXiXiXiXiXiXiXiXiXiXiXiXiXiXiXiXiXiXiXiXiXiXiXiXiXiXiXiXiXiXiXiXiXiXiXiXiXiXiXiXiXiX",
"iXiXiXiXiXiXiXiXiXiXiXiXiXiXiXiXiXiXiXiXiXiXiX& % # # iXiXiXiXiXiXiXiXiXiXiXiXiXiXiXiXiXiXiXiXiXiXiXiXiXiXiXiXiXiXiXiXiXiXiXiXiXiXiXiXiXiXiXiXiXiXiXiXiXiXiX",
"iXiXiXiXiXiXiXiXiXiXiXiXiXiXiXiXiXiXiXiXiXiXiXiX% p u iXiXiXiXiXiXiXiXiXiXiXiXiXiXiXiXiXiXiXiXiXiXiXiXiXiXiXiXiXiXiXiXiXiXiXiXiXiXiXiXiXiXiXiXiXiXiXiXiXiXiX",
"iXiXiXiXiXiXiXiXiXiXiXiXiXiXiX& * % o . o iXiXiX* 9.8.+ iXiXiXiXiXiXiXiXiXiXiXiXiXiXiXiXiXiXiXiXiXiXiXiXiXiXiXiXiXiXiXiXiXiXiXiXiXiXiXiXiXiXiXiXiXiXiXiXiXiX",
"iXiXiXiXiXiXiXiXiXiXiXiXiXiXiXiXo % H [ d 3 iX  % -.8.p % iXiXiXiXiXo iXiXiXiXiXiXiXiXiXiXiXiXiXiXiXiXiXiXiXiXiXiXiXiXiXiXiXiXiXiXiXiXiXiXiXiXiXiXiXiXiXiXiX",
"iXiXiXiXiXiXiXiXiXiXiXiXiXiXiXiXiX% ;.Q.1.d #   % s [ >.I o + & % % % iXiXiXiXiXiXiXiXiXiXiXiXiXiXiXiXiXiXiXiXiXiXiXiXiXiXiXiXiXiXiXiXiXiXiXiXiXiXiXiXiXiXiX",
"iXiXiXiXiXiXiXiXiXiXiXiXiXiXiXiXiXiX3 d [ [ U u u I -.w.[ p 6 8 ( ;.-.9     . X X X iXiXiXiXiXiXiXiXiXiXiXiXiXiXiXiXiXiXiXiXiXiXiXiXiXiXiXiXiXiXiXiXiXiXiXiX",
"iXiXiXiXiXiXiXiXiXiXiXiXiXiXiXiXiXiX  X I [ [ ( d I ` 1.8.>.T R 9.!.R.( * 3 6 , = 6 * iXiXiXiXiXiXiXiXiXiXiXiXiXiXiXiXiXiXiXiXiXiXiXiXiXiXiXiXiXiXiXiXiXiXiX",
"iXiXiXiXiXiXiXiXiXiX. X .   X iXiX* o , G ( G J s a J ( ,.w.w.8.8.8.9.7.<.7.>.Y I T 6     X iXiXiXiXiXiXiXiXiXiXiXiXiXiXiXiXiXiXiXiXiXiXiXiXiXiXiXiXiXiXiXiX",
"iXiXiXiXiXiXiXiXiXiXp u p G u iXX # o o = 3 = u H Z s d ( %.%.%.&.&.[ -.7.P.e.>.2.<.Y 0 G r iXiXiXiXiXiXiXiXiXiXiXiXiXiXiXiXiXiXiXiXiXiXiXiXiXiXiXiXiXiXiXiX",
"iXiXiXiXiXiXiXiXiXiXiXiX-.R.-.+   # + X .   . 9 U H J s u u 4 u I ~ U A I &.7.<.5.5.7.q.Q.&.o iXiXiXiXiXiXiXiXiXiXiXiXiXiXiXiXiXiXiXiXiXiXiXiXiXiXiXiXiXiXiX",
"iXiXiXiXiXiXiXiXiXiXiX= 0 >.-.p 9 p G ( Y G a 6 = = 9 d G I ) -.~ { >.<.>.7.8.7.<.6.w.U.w.,.&.8 iXiXiXiXiXiXiXiXiXiXiXiXiXiXiXiXiXiXiXiXiXiXiXiXiXiXiXiXiXiX",
"iXiXiXiXiXiXiXiXiXiXo   + s { [ [ [ 8.Y.Y.w.-.0 .   & u U ( 0.9.T ` 8.w.7.<.<.1.5.,.5.;.G ( Q.' o iXiXiXiXiXiXiXiXiXiXiXiXiXiXiXiXiXiXiXiXiXiXiXiXiXiXiXiXiX",
"iXiXiXiXiXiXiXiX  = Y Y U T [ 6.8.1.5.5.8.>.T A 4 # X % u T T G a d H G G T -.8.P.6.( e % 0 >.e.>.r # iXiXiXiXiXiXiXiXiXiXiXiXiXiXiXiXiXiXiXiXiXiXiXiXiXiXiX",
"iXiXiXiXiXiXiXiX= I >.>.` I ( <.5.;.5.<.6.>.` ( G 9 # X * u u u A s e 8 u s ( ] 8.8.%.u     0 8.R.s o iXiXiXiXiXiXiXiXiXiXiXiXiXiXiXiXiXiXiXiXiXiXiXiXiXiXiX",
"iXiXiXiXiXiX. 6 { 1.[ H i a A Y I I &.8.5.5.7.[ I G e * o % u T { R u e s G G s ( w.Y.;.&   X k ,.r # iXiXiXiXiXiXiXiXiXiXiXiXiXiXiXiXiXiXiXiXiXiXiXiXiXiXiX",
"iXiXiXiXiXiXiX= iXiX0 u s 9 G ;.<.-.,.5.,.7.8.7.-.&.s #   % = u H [ [ ( d 3 # % u ] U.T.-.8 . & s 6 % iXiXiXiXiXiXiXiXiXiXiXiXiXiXiXiXiXiXiXiXiXiXiXiXiXiXiX",
"iXiXiXiXiXiXiXiXiXiX. 8 G u Y 9.U.0.6.,.5.,.,.9.9.,.d % X & o % 8 ) P.0.I *   X * i [ P.!.>.*   o % % iXiXiXiXiXiXiXiXiXiXiXiXiXiXiXiXiXiXiXiXiXiXiXiXiXiXiX",
"iXiXiXiXiXiXiXiXX = u Z U ( Y p * = -.R.5.,.8.) G G I Y 0 # o % % u ( 8.e.w.! * . 3 3 a %.( & X iXiXiXiXiXiXiXiXiXiXiXiXiXiXiXiXiXiXiXiXiXiXiXiXiXiXiXiXiXiX",
"iXiXiXiXiXiXiXiX# 9 H s i [ I     o U 8.5.9.8.! 8 9 G >.I o % % X # 3 ! 8.R.>.,   #     8 r & iXiXiXiXiXiXiXiXiXiXiXiXiXiXiXiXiXiXiXiXiXiXiXiXiXiXiXiXiXiXiX",
"iXiXiXiXiXiXiXiXiXiX,   X U G   G w.* X 8.^.U.>.G p i U 0 # iXiXiXiX* = 3 3 , & % iXiXiX= * & % iXiXiXiXiXiXiXiXiXiXiXiXiXiXiXiXiXiXiXiXiXiXiXiXiXiXiXiXiXiX",
"iXiXiXiXiXiXiXiXiXiXX 6 p 9 &   ~ R.s % H ( T ' [ T G Z 8 # iXiXiXiX# X .   . & iXiXiXiXiX# & iXiXiXiXiXiXiXiXiXiXiXiXiXiXiXiXiXiXiXiXiXiXiXiXiXiXiXiXiXiXiX",
"iXiXiXiXiXiXiXiXiXiXo ,.Y.*   . r [ E.5.+     s 2.>.` H 3 # iXiXiXiXiXiXiXiXiXiXiXiXiXiXiXiXiXiXiXiXiXiXiXiXiXiXiXiXiXiXiXiXiXiXiXiXiXiXiXiXiXiXiXiXiXiXiXiX",
"iXiXiXiXiXo iXiXiX  X U 5.( e > @ w -.9.U 8 * + < 6 s U u # iXiXiXiXiXiXiXiXiXiXiXiXiXiXiXiXiXiXiXiXiXiXiXiXiXiXiXiXiXiXiXiXiXiXiXiXiXiXiXiXiXiXiXiXiXiXiXiX",
"iXiXiXiX# % # % % # & * A P.e.Z 9 a s { Y.9.H &     * G u # iXiXiXiXiXiXiXiXiXiXiXiXiXiXiXiXiXiXiXiXiXiXiXiXiXiXiXiXiXiXiXiXiXiXiXiXiXiXiXiXiXiXiXiXiXiXiXiX",
"iXiXiXiXiXiX-.%.,.U 3 4 a C 4.{.:X#Xd O [ >.S m.F.e   * % + + # iXiXiXiXiXiXiXiXiXiXiXiXiXiXiXiXiXiXiXiXiXiXiXiXiXiXiXiXiXiXiXiXiXiXiXiXiXiXiXiXiXiXiXiXiXiX",
"iXiXiXiXiXiX9.P.P.,.! Z d C #..X9X9Xm.t C t C }.>XW.a +   , < * iXiXiXiXiXiXiXiXiXiXiXiXiXiXiXiXiXiXiXiXiXiXiXiXiXiXiXiXiXiXiXiXiXiXiXiXiXiXiXiXiXiXiXiXiXiX",
"iXiXiXiXiX  a ^ y ) I.] / 9.5.U v.-XqX=Xw . w | K.4X#X> O u u 4 X   X iXiXiXiXiXiXiXiXiXiXiXiXiXiXiXiXiXiXiXiXiXiXiXiXiXiXiXiXiXiXiXiXiXiXiXiXiXiXiXiXiXiXiX",
"iXiXiXiX+ u W s.M.3.K T W ] D 1 E F.8XqX/.Q l 4 H >X9XW.-.T :.:.a 8 0 = iXiXiXiXiXiXiXiXiXiXiXiXiXiXiXiXiXiXiXiXiXiXiXiXiXiXiXiXiXiXiXiXiXiXiXiXiXiXiXiXiXiX",
"iXiXiXX ^ Q.d.C.>Xn.O q M 8 1 C | d.C.-XqX<Xg.4 > l.3XrX=X) Y.].P.-.[ 0 X iXiXiXiXiXiXiXiXiXiXiXiXiXiXiXiXiXiXiXiXiXiXiXiXiXiXiXiXiXiXiXiXiXiXiXiXiXiXiXiXiX",
"iXiXiX  C 0.[ #.C.XX).s.n a./.).v.n p.Z.v.H.OX).W.o.B.8X_.D eXtX'.<.8.U 3 # iXiXiXiXiXiXiXiXiXiXiXiXiXiXiXiXiXiXiXiXiXiXiXiXiXiXiXiXiXiXiXiXiXiXiXiXiXiXiXiX",
"iXiXiX# p ` S U n oXqXXXp. X3XqX#Xy.p.O.- n @X9X9Xv.r. Xz.) eXtX7X~.8.) s 3 # iXiXiXiXiXiXiXiXiXiXiXiXiXiXiXiXiXiXiXiXiXiXiXiXiXiXiXiXiXiXiXiXiXiXiXiXiXiXiX",
"iX% 6 I ^ } z b d.N.N..XOXc.B.%X8X0XZ.m  .m b F.>X9X#XX.p..Xb.`.tXtX,.H I s 3 X iXiXiXiXiXiXiXiXiXiXiXiXiXiXiXiXiXiXiXiXiXiXiXiXiXiXiXiXiXiXiXiXiXiXiXiXiXiX",
"iX# 0 $.[ R b t.y.o.O.F.oXy.@.B.#X;XH.V.}.s.;  .|.qX0Xz.J.:Xc F yXyX;.) [ ( Z e * iXiXiXiXiXiXiXiXiXiXiXiXiXiXiXiXiXiXiXiXiXiXiXiXiXiXiXiXiXiXiXiXiXiXiXiXiX",
"iX# 7 B b v a.a.l | V.d.y.a.d.a.x j Z.<X9X#XO.n l.L.5XqX4XOXE 2 ;.T.7.9.7.' R -.d # iXiXiXiXiXiXiXiXiXiXiXiXiXiXiXiXiXiXiXiXiXiXiXiXiXiXiXiXiXiXiXiXiXiXiXiX",
"iX# 7 M X.@.g.k... .@.l.Z.a.z.S.@.j @.(.:X5X}.z.o.u.}.1X<XoXs.k a Z ) -.>.{ ( [ s # iXiXiXiXiXiXiXiXiXiXiXiXiXiXiXiXiXiXiXiXiXiXiXiXiXiXiXiXiXiXiXiXiXiXiXiX",
"iX# 6 N u.V.d.d.V...h D.-Xz.f.-X.Xd.h l S.>X9X+Xo.o.k.{.@X@XJ.u.J 8 u d T ` R A 8 % iXiXiXiXiXiXiXiXiXiXiXiXiXiXiXiXiXiXiXiXiXiXiXiXiXiXiXiXiXiXiXiXiXiXiXiX",
"iX% 3 b d.N.f.d.Z...q D.:Xd.k.-XOXl.g g V.<XqX@XX. .u.F.OX.XL.g.f < 9 s T { T J 4 # iXiXiXiXiXiXiXiXiXiXiXiXiXiXiXiXiXiXiXiXiXiXiXiXiXiXiXiXiXiXiXiXiXiXiXiX",
"iX% 7 N y.d.f.f.d...v Z.@Xd.k.oXS.@.x @.|.,X5XD.t.y.N.@X%XoXB...I t J Y ] ` T Y 0 # iXiXiXiXiXiXiXiXiXiXiXiXiXiXiXiXiXiXiXiXiXiXiXiXiXiXiXiXiXiXiXiXiXiXiXiX",
"iX# 7 M B M l.k.x M d.s.u.a.f.l.v ; k.:X9X;XV.o.t.h.$XqX9X.X| < Z ( >.7.7.[ ( >.G + iXiXiXiXiXiXiXiXiXiXiXiXiXiXiXiXiXiXiXiXiXiXiXiXiXiXiXiXiXiXiXiXiXiXiXiX",
"iX+ 9 | Q z @.s.b ..d.V.v.u.u.l.s.j.F.%X,XD.j n Z.-X1X=X;X&Xc 1 '.[.9.5.<.` I Y 0 % iXiXiXiXiXiXiXiXiXiXiXiXiXiXiXiXiXiXiXiXiXiXiXiXiXiXiXiXiXiXiXiXiXiXiXiX",
"iX# 9 &.&.T v V l.u. .}.%Xu.t.{.4X9XD.O.V. .; @.%XwX0X| h.:X+.^ tXtX:.I T Y u * o iXiXiXiXiXiXiXiXiXiXiXiXiXiXiXiXiXiXiXiXiXiXiXiXiXiXiXiXiXiXiXiXiXiXiXiXiX",
"iXiX= r L } d z X.F.;X.XF.F.@X3X<XXXc.b g m c.;X8X#XZ.h.p.n.[.eXtX7X5.! G u * + iXiXiXiXiXiXiXiXiXiXiXiXiXiXiXiXiXiXiXiXiXiXiXiXiXiXiXiXiXiXiXiXiXiXiXiXiXiX",
"iXiXiX  0 [ / } O.$XqXD. .{.<X8X(.n u.s.g @.%X8X1Xy.X.-Xn.D uXtX].7.8.( u & X iXiXiXiXiXiXiXiXiXiXiXiXiXiXiXiXiXiXiXiXiXiXiXiXiXiXiXiXiXiXiXiXiXiXiXiXiXiXiX",
"iXiXiX. / R.3.V.*X(.} b B E [ 4.#.r.g.|.,X;XJ.$.R y.&XwX=X=.6XuX^.7.1.d % iXiXiXiXiXiXiXiXiXiXiXiXiXiXiXiXiXiXiXiXiXiXiXiXiXiXiXiXiXiXiXiXiXiXiXiXiXiXiXiXiX",
"iXiXiXX a 6.y.G.$Xj.: u b e 1 1 E V.$X<X8X+XX.$ < H.8X2X_._ 9.T.%.G U 6 . iXiXiXiXiXiXiXiXiXiXiXiXiXiXiXiXiXiXiXiXiXiXiXiXiXiXiXiXiXiXiXiXiXiXiXiXiXiXiXiXiX",
"iXiXiXiX  . p Q I +.w.&.` 0.*.5 |  XrXqXQ : a k p.4X4X( w G ( H , + * & iXiXiXiXiXiXiXiXiXiXiXiXiXiXiXiXiXiXiXiXiXiXiXiXiXiXiXiXiXiXiXiXiXiXiXiXiXiXiXiXiXiX",
"iXiXiXiXiXt ` *./ *.<.~ S ] 3.3.$X4X5Xb.w O y k.&X;Xx.@ . 4 3 % . . X iXiXiXiXiXiXiXiXiXiXiXiXiXiXiXiXiXiXiXiXiXiXiXiXiXiXiXiXiXiXiXiXiXiXiXiXiXiXiXiXiXiXiX",
"iXiXiXiXiXiXP.P.R.-.u e s w 3.&X9X8X+.O Y ~ L +X>X+.O # o % % % iXiXiXiXiXiXiXiXiXiXiXiXiXiXiXiXiXiXiXiXiXiXiXiXiXiXiXiXiXiXiXiXiXiXiXiXiXiXiXiXiXiXiXiXiXiX",
"iXiXiXiXiXG s s J 9 = * s %.x.j.n.M.p w q.8.G Q x & O i 9 o o iXiXiXiXiXiXiXiXiXiXiXiXiXiXiXiXiXiXiXiXiXiXiXiXiXiXiXiXiXiXiXiXiXiXiXiXiXiXiXiXiXiXiXiXiXiXiX",
"iXiXiXiX    .   .   o 8 T 9.%.< O 2 G 2.w.-.u O     6 U a # iXiXiXiXiXiXiXiXiXiXiXiXiXiXiXiXiXiXiXiXiXiXiXiXiXiXiXiXiXiXiXiXiXiXiXiXiXiXiXiXiXiXiXiXiXiXiXiX",
"iXiXiXiXiXiXiXiXiXiXX -.U.i X # , G I.w.3     0 ~ J 9 3 & iXiXiXiXiXiXiXiXiXiXiXiXiXiXiXiXiXiXiXiXiXiXiXiXiXiXiXiXiXiXiXiXiXiXiXiXiXiXiXiXiXiXiXiXiXiXiXiXiX",
"iXiXiXiXiXiXiXiXiXiXo ( ,.=     s 1.1.T = o 4 U &.( u o o iXiXiXiXiXiXiXiXiXiXiXiXiXiXiXiXiXiXiXiXiXiXiXiXiXiXiXiXiXiXiXiXiXiXiXiXiXiXiXiXiXiXiXiXiXiXiXiXiX",
"iXiXiXiXiXiXiXiXiXiX# . # s u . ' ~.=   -.Q.P.) u s 0 * % iXiXiXiXiXiXiXiXiXiXiXiXiXiXiXiXiXiXiXiXiXiXiXiXiXiXiXiXiXiXiXiXiXiXiXiXiXiXiXiXiXiXiXiXiXiXiXiXiX",
"iXiXiXiXiXiXiX& iXu 8 & * T s   * U 8 s w.U.%.J 9 ( I % o iXiXiXiXiXiXiXiXiXiXiXiXiXiXiXiXiXiXiXiXiXiXiXiXiXiXiXiXiXiXiXiXiXiXiXiXiXiXiXiXiXiXiXiXiXiXiXiXiX",
"iXiXiXiXiXiX+ 3 G Y G s G [ I #     ] !.w.~ 8 8 J -.T * + iXiXiXiXiXiXiXiXiXiXiXiXiXiXiXiXiXiXiXiXiXiXiXiXiXiXiXiXiXiXiXiXiXiXiXiXiXiXiXiXiXiXiXiXiXiXiXiXiX",
"iXiXiXiXiXiXiXiX# 9 G s J ,.8.) H U ;.w.7.>.%.] T p = * % iXiXiXiXiXiXiXiXiXiXiXiXiXiXiXiXiXiXiXiXiXiXiXiXiXiXiXiXiXiXiXiXiXiXiXiXiXiXiXiXiXiXiXiXiXiXiXiXiX",
"iXiXiXiXiXiXiXiX+ 3 Z i Z :.P.w.U.U.8.;.<.9.w.6.R %   % * iXiXiXiXiXiXiXiXiXiXiXiXiXiXiXiXiXiXiXiXiXiXiXiXiXiXiXiXiXiXiXiXiXiXiXiXiXiXiXiXiXiXiXiXiXiXiXiXiX",
"iXiXiXiXo * T &.R A u u a I { [ >.7.,.5.9.,.{ ( k , X + + iXiXiXiXiXiXiXiXiXiXiXiXiXiXiXiXiXiXiXiXiXiXiXiXiXiXiXiXiXiXiXiXiXiXiXiXiXiXiXiXiXiXiXiXiXiXiXiXiX",
"iXiXiXiXiX& a { >.[ G J J ] T 0 ( P.9.5.,.[ U s 3 * % 6 , iXiXiXiXiXiXiXiXiXiXiXiXiXiXiXiXiXiXiXiXiXiXiXiXiXiXiXiXiXiXiXiXiXiXiXiXiXiXiXiXiXiXiXiXiXiXiXiXiX",
"iXiXiXiXiXiX. , ` >.{ T ( U.'   a Q.E.<.` I H 8 + . , G u X X # # # # X . X . . o iXiXiXiXiXiXiXiXiXiXiXiXiXiXiXiXiXiXiXiXiXiXiXiXiXiXiXiXiXiXiXiXiXiXiXiXiX",
"iXiXiXiXiXiXiX% r p r T >.I.(   o s Y [ [ G , . X , a A s 9 6 9 9 8 6 a ! G U [ A + iXiXiXiXiXiXiXiXiXiXiXiXiXiXiXiXiXiXiXiXiXiXiXiXiXiXiXiXiXiXiXiXiXiXiXiX",
"iXiXiXiXiXiXiXiXo     p [ [ A *     = G [ G X   * Z U a d G H J G s s -.Y.P.P.~.{ o iXiXiXiXiXiXiXiXiXiXiXiXiXiXiXiXiXiXiXiXiXiXiXiXiXiXiXiXiXiXiXiXiXiXiXiX",
"iXiXiXiXiXiXiXiXiXiX% = 9 8 = o p ( G 9 = = u u t s G Y s 0 Y ` G s a ( 6.Q.P.A * % iXiXiXiXiXiXiXiXiXiXiXiXiXiXiXiXiXiXiXiXiXiXiXiXiXiXiXiXiXiXiXiXiXiXiXiX",
"iXiXiXiXiXiXiXiXiXiX* + . . X o a [ ' a X & H U J u J -.` J ~ ~ s a s a s ;.( .   % iXiXiXiXiXiXiXiXiXiXiXiXiXiXiXiXiXiXiXiXiXiXiXiXiXiXiXiXiXiXiXiXiXiXiXiX",
"iXiXiXiXiXiXiXiX% & & % & & & % o & T >.s e u r u 3 J 8.E.8.I 8 a G H 3 . + % # .   X # o # & iXiXiXiXiXiXiXiXiXiXiXiXiXiXiXiXiXiXiXiXiXiXiXiXiXiXiXiXiXiXiX",
"iXiXiXiXiXiXiXiX& & iXiX& & & * iXiX9 T U ~ ) ( ( T ! _ ;.6.%.H i u s 0 * o # * r s 9 * 9 9 % % iXiXiXiXiXiXiXiXiXiXiXiXiXiXiXiXiXiXiXiXiXiXiXiXiXiXiXiXiXiX",
"iXiXiXiXiXiXiXiXiXiXiXiXiXiXiXiXiXiX  % I ,.8.w.9.P.-.9 9 T 0.w.G 3 u U [ I u 9 ( U.) 0 U s % % iXiXiXiXiXiXiXiXiXiXiXiXiXiXiXiXiXiXiXiXiXiXiXiXiXiXiXiXiXiX",
"iXiXiXiXiXiXiXiXiXiXiXiXiXiXiXiXiX*   * ` 6.1.,.1.Y.e.) I I ` [ [ ) ) -.,.-.] &.0.R.R.;.s % iXiXiXiXiXiXiXiXiXiXiXiXiXiXiXiXiXiXiXiXiXiXiXiXiXiXiXiXiXiXiXiX",
"iXiXiXiXiXiXiXiXiXiXiXiXiXiXiXiX& & o , U { I A U [ 8.P.,.T G T 7.P.9.8.7.9.9.9.<.;.e.7.3   iXiXiXiXiXiXiXiXiXiXiXiXiXiXiXiXiXiXiXiXiXiXiXiXiXiXiXiXiXiXiXiX",
"iXiXiXiXiXiXiXiXiXiXiXiXiXiXiXiX& & % & 3 6 , = 3 # Z U.Q.w.6.>.<.7.9.8.,.w.>.! 9 % & = . X & iXiXiXiXiXiXiXiXiXiXiXiXiXiXiXiXiXiXiXiXiXiXiXiXiXiXiXiXiXiXiX",
"iXiXiXiXiXiXiXiXiXiXiXiXiXiXiXiXiX& * % o . X o X   # ( ;.%.>.0.9.,.-.,.5.9.:.s = o . # 8 8 % % iXiXiXiXiXiXiXiXiXiXiXiXiXiXiXiXiXiXiXiXiXiXiXiXiXiXiXiXiXiX",
"iXiXiXiXiXiXiXiXiXiXiXiXiXiXiXiXiXiXiXiXiXiXiXiXiXiXiX* X o s 1.U.8.U [ 9.9.;.T z T T T 2.T & o iXiXiXiXiXiXiXiXiXiXiXiXiXiXiXiXiXiXiXiXiXiXiXiXiXiXiXiXiXiX",
"iXiXiXiXiXiXiXiXiXiXiXiXiXiXiXiXiXiXiXiXiXiXiXiXiXiXiXo   iX, s A Y T [ ,.9.w.5.<.8.e.6.` 9 & iXiXiXiXiXiXiXiXiXiXiXiXiXiXiXiXiXiXiXiXiXiXiXiXiXiXiXiXiXiXiX",
"iXiXiXiXiXiXiXiXiXiXiXiXiXiXiXiXiXiXiXiXiXiXiXiXiXiXiXiXiXiX% X   , { { T >.w.9.q.8.E.6.,   iXiXiXiXiXiXiXiXiXiXiXiXiXiXiXiXiXiXiXiXiXiXiXiXiXiXiXiXiXiXiXiX",
"iXiXiXiXiXiXiXiXiXiXiXiXiXiXiXiXiXiXiXiXiXiXiXiXiXiXiXiXiXiXiXiXiXiX0 8 6 0 u u r t a u iXiXiXiXiXiXiXiXiXiXiXiXiXiXiXiXiXiXiXiXiXiXiXiXiXiXiXiXiXiXiXiXiXiX",
"iXiXiXiXiXiXiXiXiXiXiXiXiXiXiXiXiXiXiXiXiXiXiXiXiXiXiXiXiXiXiXiXiXiX# # % % o + o # o # iXiXiXiXiXiXiXiXiXiXiXiXiXiXiXiXiXiXiXiXiXiXiXiXiXiXiXiXiXiXiXiXiXiX",
"iXiXiXiXiXiXiXiXiXiXiXiXiXiXiXiXiXiXiXiXiXiXiXiXiXiXiXiXiXiXiXiXiXiXiXiXiXiXiXiXiXiXiXiXiXiXiXiXiXiXiXiXiXiXiXiXiXiXiXiXiXiXiXiXiXiXiXiXiXiXiXiXiXiXiXiXiXiX",
"iXiXiXiXiXiXiXiXiXiXiXiXiXiXiXiXiXiXiXiXiXiXiXiXiXiXiXiXiXiXiXiXiXiXiXiXiXiXiXiXiXiXiXiXiXiXiXiXiXiXiXiXiXiXiXiXiXiXiXiXiXiXiXiXiXiXiXiXiXiXiXiXiXiXiXiXiXiX",
"iXiXiXiXiXiXiXiXiXiXiXiXiXiXiXiXiXiXiXiXiXiXiXiXiXiXiXiXiXiXiXiXiXiXiXiXiXiXiXiXiXiXiXiXiXiXiXiXiXiXiXiXiXiXiXiXiXiXiXiXiXiXiXiXiXiXiXiXiXiXiXiXiXiXiXiXiXiX"
};
