/* XPM */
static xpm_row_t const opponent_anim4_xpm[] = {
/* columns rows colors chars-per-pixel */
"78 80 222 2 ",
"   c #020103",
".  c #050409",
"X  c #09060B",
"o  c #0C0A0E",
"O  c #110C0F",
"+  c #030312",
"@  c #0E0C11",
"#  c #05021A",
"$  c #080815",
"%  c #110E13",
"&  c #1F0E1C",
"*  c #141116",
"=  c #161419",
"-  c #19161B",
";  c #1C191E",
":  c #22151D",
">  c #351E18",
",  c #31231C",
"<  c #160F24",
"1  c #1E1B21",
"2  c #15162B",
"3  c #161B36",
"4  c #221D24",
"5  c #241D2C",
"6  c #261E31",
"7  c #252226",
"8  c #2F2522",
"9  c #262229",
"0  c #2A252C",
"q  c #2C292E",
"w  c #272A2F",
"e  c #2D2733",
"r  c #2E2A31",
"t  c #2D2C39",
"y  c #272635",
"u  c #322D34",
"i  c #352E39",
"p  c #392F3B",
"a  c #343136",
"s  c #363139",
"d  c #3A343C",
"f  c #3D393D",
"g  c #3D3033",
"h  c #342D2C",
"j  c #422B22",
"k  c #4E3A2D",
"l  c #473C2E",
"z  c #483C38",
"x  c #543C31",
"c  c #513D2E",
"v  c #5D4234",
"b  c #5B4539",
"n  c #634D3B",
"m  c #674739",
"M  c #734D3D",
"N  c #6B523D",
"B  c #71533C",
"V  c #77593E",
"C  c #3D3641",
"Z  c #3E3A42",
"A  c #3D3C4C",
"S  c #363546",
"D  c #3F3C51",
"F  c #423C44",
"G  c #463E49",
"H  c #483F4A",
"J  c #3E4151",
"K  c #454245",
"L  c #46424A",
"P  c #4A454B",
"I  c #4C4A4D",
"U  c #4E4644",
"Y  c #5C4D44",
"T  c #534B4C",
"R  c #564743",
"E  c #4E4651",
"W  c #4E4C51",
"Q  c #464656",
"!  c #524D53",
"~  c #554E59",
"^  c #5C4F51",
"/  c #4D5158",
"(  c #545255",
")  c #5A5555",
"_  c #565359",
"`  c #5A555C",
"'  c #5C595D",
"]  c #685443",
"[  c #725241",
"{  c #7A5C43",
"}  c #745C4B",
"|  c #7B5D4A",
" . c #745945",
".. c #665C58",
"X. c #614E42",
"o. c #7D614D",
"O. c #6A625D",
"+. c #7B6656",
"@. c #5B4F62",
"#. c #5D5661",
"$. c #5E5A61",
"%. c #625C64",
"&. c #665E69",
"*. c #685E68",
"=. c #656166",
"-. c #66616A",
";. c #6A646D",
":. c #6D696C",
">. c #6D6D66",
",. c #7B7167",
"<. c #6E6671",
"1. c #6E6971",
"2. c #716574",
"3. c #726B75",
"4. c #756E79",
"5. c #796E7A",
"6. c #77717A",
"7. c #7A727D",
"8. c #797877",
"9. c #786D6E",
"0. c #855D47",
"q. c #81624E",
"w. c #83694F",
"e. c #826551",
"r. c #866B54",
"t. c #8A6D55",
"y. c #856A5D",
"u. c #956E56",
"i. c #8D725A",
"p. c #887359",
"a. c #92755C",
"s. c #9B7A5D",
"d. c #98785C",
"f. c #A07B5B",
"g. c #8A7769",
"h. c #957B61",
"j. c #9B7E63",
"k. c #887569",
"l. c #AC865D",
"z. c #9D8166",
"x. c #9A8B6E",
"c. c #8B8678",
"v. c #9F9375",
"b. c #A5896B",
"n. c #AA8B6C",
"m. c #A38466",
"M. c #B38D6C",
"N. c #B2956D",
"B. c #A98D74",
"V. c #B38E71",
"C. c #AB9274",
"Z. c #A99979",
"A. c #B69A78",
"S. c #BCA27E",
"D. c #C19C75",
"F. c #C3A37C",
"G. c #7D7581",
"H. c #7F7982",
"J. c #7A7486",
"K. c #7A6F87",
"L. c #807783",
"P. c #827A84",
"I. c #857D89",
"U. c #887F8C",
"Y. c #8A828D",
"T. c #8D8491",
"R. c #8F8895",
"E. c #938C96",
"W. c #A49986",
"Q. c #B39D81",
"!. c #ABA888",
"~. c #BBAA86",
"^. c #BAB895",
"/. c #9A97AC",
"(. c #A89CAA",
"). c #9DA0AE",
"_. c #AAA9B2",
"`. c #ACA3AE",
"'. c #C3A582",
"]. c #C4AA84",
"[. c #CBAD85",
"{. c #CAAE8A",
"}. c #CBB28D",
"|. c #D6B68A",
" X c #CABB95",
".X c #DABE94",
"XX c #D3BA92",
"oX c #E0BD91",
"OX c #C6C49C",
"+X c #DCC398",
"@X c #D7D09F",
"#X c #E7C99B",
"$X c #F4CF9C",
"%X c #FDD69F",
"&X c #C9CAA2",
"*X c #D3CAA3",
"=X c #D7D4A5",
"-X c #CED5AC",
";X c #EADAA8",
":X c #FDDCA3",
">X c #F4DCAB",
",X c #F3D8A3",
"<X c #FBE4AB",
"1X c #FDEDB5",
"2X c #F6E8B4",
"3X c #FEF4BB",
"4X c #FFFCBE",
"5X c #F7F4BE",
"6X c #ECE6B1",
"7X c #C8BBC8",
"8X c #DCD5DE",
"9X c #FEFEC5",
"0X c #FFFFCA",
"qX c #F3F9C4",
"wX c #FFFFD8",
"eX c #EEF4C3",
"rX c #E0D9E2",
"tX c #FFFFE7",
"yX c #FEFEFF",
"uX c #FAF6FD",
"iX c #EDEFF6",
"pX c None",
/* pixels */
"pXpXpXpXpXpXpXpXpXpXpXpXpXpXpXpXpXpXpXpXpXpXpXpXpXpXpXpXpXpXpXpXpXpXpXpXpXpXpXpXpXpXpXpXpXpXpXpXpXpXpXpXpXpXpXpXpXpXpXpXpXpXpXpXpXpXpXpXpXpXpXpXpXpXpXpXpXpX",
"pXpXpXpXpXpXpXpXpXpXpXpXpXpXpXpXpXpXpXpXpXpXpXpXpXpXpXpXpXpXpXpXpXpXpXpXpXpXpXpXpXpXpXpXpXpXpXpX* o @ % @ @ % pXpXpXpXpXpXpXpXpXpXpXpXpXpXpXpXpXpXpXpXpXpXpX",
"pXpXpXpXpXpXpXpXpXpXpXpXpXpXpXpXpXpXpXpXpXpXpXpXpXpXpXpXpXpXpXpXpXpXpXpXpXpXpXpXpXpXpXpXpXpXpXpX9 u q q q r r pXpXpXpXpXpXpXpXpXpXpXpXpXpXpXpXpXpXpXpXpXpXpX",
"pXpXpXpXpXpXpXpXpXpXpXpXpXpXpXpXpXpXpXpXpXpXpXpXpXpXpXpXpXpXpXpXpXpXpXpXpXpXpXpXpXpXpXpXpXo   o _ H.1.2.<.G.3.y   o = pXpXpXpXpXpXpXpXpXpXpXpXpXpXpXpXpXpXpX",
"pXpXpXpXpXpXpXpXpXpXpXpXpXpXpXpXpXpXpXpXpXpXpXpXpXpXpXpXpXpXpXpXpXpXpXpXpXpXpXpXpXpXpXpX- r 0 F 3.I.3.3.6.g.8.W 9 = * pXpXpXpXpXpXpXpXpXpXpXpXpXpXpXpXpXpXpX",
"pXpXpXpXpXpXpXpXpXpXpXpXpXpXpXpXpXpXpXpXpXpXpXpXpXpXpXpXpXpXpXpXpXpXpXpXpXpXpXpXpX* .   q $.1.4.3.%.I P _ / ( =.) 9 X pXpXpXpXpXpXpXpXpXpXpXpXpXpXpXpXpXpXpX",
"pXpXpXpXpXpXpXpXpXpXpXpXpXpXpXpXpXpXpXpXpXpXpXpXpXpXpXpXpXpXpXpXpXpXpXpXpXpX. pX@ q f Z _ :.4.7.5.#.F 9 1 = 1 s f pXpXpXpXpXpXpXpXpXpXpXpXpXpXpXpXpXpXpXpXpX",
"pXpXpXpXpXpXpXpXpXpXpXpXpXpXpXpXpXpXpXpXpXpXpXpXpXpXpXpXpXpXpXpXpXpXpXpXpX= % . 7 ( 3.G.7.:.-.;.4.%.Z - X . X X o pXpXpXpXpXpXpXpXpXpXpXpXpXpXpXpXpXpXpXpXpX",
"pXpXpXpXpXpXpXpXpXpXpXpXpXpXpXpXpXpXpXpXpXpXpXpXpXpXpXpXpXpXo . o X o     d %.! ` ;.3.4.<.<.1.4.4.<.&.#.~ ` P 1   o pXpXpXpXpXpXpXpXpXpXpXpXpXpXpXpXpXpXpXpX",
"pXpXpXpXpXpXpXpXpXpXpXpXpXpXpXpXpXpXpXpXpXpXpXpXpXpXpXpXpXpX; ; - ; ; o 4 &.R.L.4.2.*.;.<.<.-.&.-.<.2.4.5.T.I.f . = ; pXpXpXpXpXpXpXpXpXpXpXpXpXpXpXpXpXpXpX",
"pXpXpXpXpXpXpXpXpXpXpXpXpXpXpXpXpXpXpXpXpXpXpXpXpXpX= = o 4 I ' K f f P %.3.3.%.! P #.3.H.4.E C $.%.! G H 3.Y.` 0 F i = % pXpXpXpXpXpXpXpXpXpXpXpXpXpXpXpXpX",
"pXpXpXpXpXpXpXpXpXpXpXpXpXpXpXpXpXpXpXpXpXpXpXpXpXpXpX= o 1 K ' ' ' =.7.I.4.' K f W ` ;.<.#.z 9 f s 7 ; 4 K &.P i F i = % pXpXpXpXpXpXpXpXpXpXpXpXpXpXpXpXpX",
"pXpXpXpXpXpXpXpXpXpXpXpXpXpXpXpXpXpXpXpXpXpXpXpXpXpXpXpX= = @ 0 I :.4.G.4.&.P 0 Z 3.3.( K s F i =   . o = 1 ; = = = = = = pXpXpXpXpXpXpXpXpXpXpXpXpXpXpXpXpX",
"pXpXpXpXpXpXpXpXpXpXpXpXpXpXpXpXpXpXpXpXpXpXpXpXpXpXpXpX= @   = P $.%.%.` K f F _ 1.%.Z u u f d ; ; a 7     . o * o % = pXpXpXpXpXpXpXpXpXpXpXpXpXpXpXpXpXpX",
"pXpXpXpXpXpXpXpXpXpXpXpXpXpXpXpXpXpXpXpXpXpXpX= = = % o o % X 4 F K i a d q F 2.5.( F u a f p d K ' P.I     ; pXpXpXpXpXpXpXpXpXpXpXpXpXpXpXpXpXpXpXpXpXpXpX",
"pXpXpXpXpXpXpXpXpXpXpXpXpXpXpXpXpXpX= pXpXpXo o o = u Z u 4 0 4 - 9 d f d e F ;.=.F f L F F i G -.I.T.6.W 0 @ pXpXpXpXpXpXpXpXpXpXpXpXpXpXpXpXpXpXpXpXpXpXpX",
"pXpXpXpXpXpXpXpXpXpXpXpXpXpXpXpXpX= = = = = % * o % P :.P f P q X ; G G C p f W L u F _ P d u G ;.G.<.L.Y.P . pXpXpXpXpXpXpXpXpXpXpXpXpXpXpXpXpXpXpXpXpXpXpX",
"pXpXpXpXpXpXpXpXpXpXpXpXpXpXpXpXpXpXpX. % s K d 4 % = 9 u d i d f 0 = - 9 d H F F f P ! d 1 ; 7 a f i f G q pXpXpXpXpXpXpXpXpXpXpXpXpXpXpXpXpXpXpXpXpXpXpXpX",
"pXpXpXpXpXpXpXpXpXpXpXpXpXpXpXpXpXpXpXo 9 ( :.=.f o   % e F a E =.z X   % q F s p d f d 1 . @ o .   .     pXpXpXpXpXpXpXpXpXpXpXpXpXpXpXpXpXpXpXpXpXpXpXpXpX",
"pXpXpXpXpXpXpXpXpXpXpXpXpXpXpXpXpXpXo s / / 1.g.a   q &.%.%.%.` / Z 0 % X % 0 K F ; ; 4 = pXpXpXpXpXpXpXpXpXpXpXpXpXpXpXpXpXpXpXpXpXpXpXpXpXpXpXpXpXpXpXpXpX",
"pXpXpXpXpXpXpXpXpXpXpXpXpXpXpXpXpX* 9 ! %.K ' 7.Z o ( E.G.4.G.;.( I L q = . * a u % . o pXpXpXpXpXpXpXpXpXpXpXpXpXpXpXpXpXpXpXpXpXpXpXpXpXpXpXpXpXpXpXpXpXpX",
"pXpXpXpXpXpXpXpXpXpXpXpXpXpXpXpX* s ( P F s F ( K F ` 3.;.;.;.<.<.' G f u ; * = = pXpXpXpXpXpXpXpXpXpXpXpXpXpXpXpXpXpXpXpXpXpXpXpXpXpXpXpXpXpXpXpXpXpXpXpXpX",
"pXpXpXpXpXpXpXpXpXpXpXpXpXpXpXo * I :.t 4 e F ( ' %.:.3.3.3.;.2.4.:.' ` L : . o % pXpXpXpXpXpXpXpXpXpXpXpXpXpXpXpXpXpXpXpXpXpXpXpXpXpXpXpXpXpXpXpXpXpXpXpXpX",
"pXpXpXpXpXpXpXpXpXpXpXpXpXpXpX@ * ! ..= . q ~ 3.3.;.3.G.P.7.;.&.;.3.5.3.I =   = = pXpXpXpXpXpXpXpXpXpXpXpXpXpXpXpXpXpXpXpXpXpXpXpXpXpXpXpXpXpXpXpXpXpXpXpXpX",
"pXpXpXpXpXpXpXpXpXpXpXpXpXpXpXpX* r f 4 4 u ! ;.7.7.` f u F 3.P.<.%.! ! L C 9 ; % pXpXpXpXpXpXpXpXpXpXpXpXpXpXpXpXpXpXpXpXpXpXpXpXpXpXpXpXpXpXpXpXpXpXpXpXpX",
"pXpXpXpXpXpXpXpXpXpXpXpXpXpXpXpXpXX * a L f G T 3.7.a     = ;.Y.3.P 7 5 d ..( 1 X pXpXpXpXpXpXpXpXpXpXpXpXpXpXpXpXpXpXpXpXpXpXpXpXpXpXpXpXpXpXpXpXpXpXpXpXpX",
"pXpXpXpXpXpXpXpXpXpXpXpXpXpXpXpXpX  X s G 9 = * F %.4   a L 1 F G.L.$.F e I P ; o pXpXpXpXpXpXpXpXpXpXpXpXpXpXpXpXpXpXpXpXpXpXpXpXpXpXpXpXpXpXpXpXpXpXpXpXpX",
"pXpXpXpXpXpXpXpXpXpXpXpXpXpXpXpXpX% - f d *   . 4 f = = 7.7.  @ <.U.7.~ r d u - % pXpXpXpXpXpXpXpXpXpXpXpXpXpXpXpXpXpXpXpXpXpXpXpXpXpXpXpXpXpXpXpXpXpXpXpXpX",
"pXpXpXpXpXpXpXpXpXpXpXpXpXpXpXpX= 0 Z E d X 0 ;.C     * T 4.$.Z - * 0 L ' ~ i * . pXpXpXpXpXpXpXpXpXpXpXpXpXpXpXpXpXpXpXpXpXpXpXpXpXpXpXpXpXpXpXpXpXpXpXpXpX",
"pXpXpXpXpXpXpXpXpXpXpXpXpXpXpX* = u G F 9 . f Y.` o . - q ' Y.-.%     u ( L q 4 = pXpXpXpXpXpXpXpXpXpXpXpXpXpXpXpXpXpXpXpXpXpXpXpXpXpXpXpXpXpXpXpXpXpXpXpXpX",
"pXpXpXpXpXpXpXpXpXpXpXpX% o @ o o o X X . . ; F *.<.S # # 0 ( :.;.! q +   . 4 z f = pXpXpXpXpXpXpXpXpXpXpXpXpXpXpXpXpXpXpXpXpXpXpXpXpXpXpXpXpXpXpXpXpXpXpXpX",
"pXpXpXpXpXpXpXpXpXpXpXpX; 1 4 1 4 4 7 7 4 = - 9 ~ G.9...O.) u L P.1.F z h @ $ s a = @ pXpXpXpXpXpXpXpXpXpXpXpXpXpXpXpXpXpXpXpXpXpXpXpXpXpXpXpXpXpXpXpXpXpXpX",
"pXpXpXpXpXpXpXpXpX@   * u F s d Z %.7.H.%.a 9 a t L B.,X0XOX1 # _ ( L ~.#XE + @ O @ % % pXpXpXpXpXpXpXpXpXpXpXpXpXpXpXpXpXpXpXpXpXpXpXpXpXpXpXpXpXpXpXpXpXpX",
"pXpXpXpXpXpXpXpX; 9 7 s L ! P 0 4 / J.1.&.$.P A A #.g.}.4X5X!.W t 2 S Z.:X}.%.=   4 4 = * pXpXpXpXpXpXpXpXpXpXpXpXpXpXpXpXpXpXpXpXpXpXpXpXpXpXpXpXpXpXpXpXpX",
"pXpXpX* % @ . o 0 G ! _ ~ I K =   w / t L J.1.I =.H.Q G z.<XtX&X1 # t m m.4X6XG # a f i - . o % pXpXpXpXpXpXpXpXpXpXpXpXpXpXpXpXpXpXpXpXpXpXpXpXpXpXpXpXpXpX",
"pXpX= 9 q s a a F ! _ ' ..F 4 9 L X.y.Z.g.A d Y T D 3 y | |.4X4X!.,.R : g +X0X&X8.~ @.2.! u a 0 = pXpXpXpXpXpXpXpXpXpXpXpXpXpXpXpXpXpXpXpXpXpXpXpXpXpXpXpXpX",
"pX* 1 d ! ' ' _ ( ( I ( ' q   A R.g.l.%X}.e : B k 3 s ( } s.V.>X0X,Xf.0 2 y.<XwXeX;.K.7X/.<.;.I 1 X pXpXpXpXpXpXpXpXpXpXpXpXpXpXpXpXpXpXpXpXpXpXpXpXpXpXpXpX",
"pX* 4 P _ ( _ ( ! W ( ( ( 9   q 1.$.O.z.[.OXZ.N o.Z.OX^.+.M z.b.h.A.oXOX!.e.d.1X*XD /.yX8X2.3.` s = @ pXpXpXpXpXpXpXpXpXpXpXpXpXpXpXpXpXpXpXpXpXpXpXpXpXpXpX",
"pX% 7 ( ' I I I I ! ( L s 4 % r ! J K b N.9X2Xi.n.$X0X9XS.o.d.m > } .X0X9XC.| F.B.~ _.yXuX(.U.#.! u ; % pXpXpXpXpXpXpXpXpXpXpXpXpXpXpXpXpXpXpXpXpXpXpXpXpXpX",
"pX% 9 ( ' I ! I ( I L u = 7 J / W z b r.b.b.~..XA.d.[.>X0X;Xa.m [ v ] A.<X9X@Xt.0.'.W.I.iXyX`.G P Z d ; . pXpXpXpXpXpXpXpXpXpXpXpXpXpXpXpXpXpXpXpXpXpXpXpXpX",
"pX* 4 I ` I ! W ( W K 5   7 O.' P N o.w.w.B z..XC. .d.'.;X;Xn.j.~.o.j  .{.0X0Xx.m.<Xh.< _.yX(.E ' ( W s 4 = pXpXpXpXpXpXpXpXpXpXpXpXpXpXpXpXpXpXpXpXpXpXpXpX",
"pX* 1 F ! ( ( ( ( ( W u $ 8  .n b r.h.b b z.z.r.t.a.a.r.v } [.1X4X~.M B m.'.;XqX5X$X+.2 Q E.H.3.4.&.! I ( a @ pXpXpXpXpXpXpXpXpXpXpXpXpX% o X X X   . % = pX",
"pX= = 9 f I I I ! P d 1 X 8 N V  .d.z. .n o.i.z.j.i.m.s.k v z.@X3X;XA.p.q.u.].qX9X#Xd.z e C E %.;.&.( ( ' a @ pXpXpXpXpXpXpXpXpXpXpXpXpX1 7 0 0 0 s f 1 * pX",
"pXpXpXo 9 G G Z L Z ; . $ 8 n t.d.h.a.z.r.k r.#XA.| ~..XC.o.k } ].2X2X~.q.o.j.'..X.XA.d.Y i u f P ( ( P C 7 % pXpXpXpXpXpXpXpX@ O % X = u L ! ( ( P.I.i @ pX",
"pXpXpXpX- 9 0 5 q 7 pXpXo 8 n i.b.z.i.b.i.j r.>X].| ].,X'.| , c A.3X0X X| [ r.V.|.XX[.M.X.1 5 e J W ( P s 4 @ % pXpXpXpXpXpX; q 0 9 4 e P _ ' ( K I G 4 pXpX",
"pXpXpXpXpX% % % % * pXpX$ 8 n p.h.d.a.z.r.k p.#XS.o.~.+XA.| k  .'.2X3X~.q.o.d.~..X.XF.j.Y t t s U T ( P z 4 * @ = % % @ o o 0 L F F C F ~ ( T L u o   pXpXpX",
"pXpXpXpXpXpXpXpXpXpXpXpX+ 8 N V o.d.z.o.n o.p.m.z.t.b.m.x m j.+X2X;XS.a.| u.'.2X9X#Xh.z u F H %.;.=.( ( ' 0 . = u q f ( G 4 q F F f f F K L I ` %.` L 4 pXpX",
"pXpXpXpXpXpXpXpXpXpXpXpXX h N n b r.z.b b d.z.r.t.a.a.e.k ] {.1X9X~.[ [ j.F.;X0XqX$X+.2 H U.K.3.7.=.T W ' q o 0 E ! ;.I.<.F p d d d d d u d P %.4.T.7.r % pX",
"pXpXpXpXpXpXpXpXpXpXpXpXX u O.' P N o.w.w.B j.XXn.| a.F.=X@Xn.n.].o.j { {.0X9XB.n.:Xh.< ).yX(.E ' _ ! r * - e f ( <.1.%.( I J a d d f p e z ( ' ' =.! 4 % pX",
"pXpXpXpXpXpXpXpXpXpXpXpXo 0 L / W z v t.b.z.S.+XA.a.S.>X9X6Xa.m } m n C.>X0X=Xr.0.].W.G.iXyX_.G I f a 1 X 9 E I _ 1.:.P K ' U a s d C d s G I ! P s 7 - = pX",
"pXpXpXpXpXpXpXpXpXpXpXpXpXpX= a ! J L b N.9X2Xa.M.#X9X4X'.r.a.m > } XX9X0XZ.e.D.b.` _.yXuX_.Y.#.~ e $ ; P ( W P P ( ( I ( _ P a p f i C ! ! G L P q % pXpXpX",
"pXpXpXpXpXpXpXpXpXpXpXpXpXpX  a ;.` ..d.F.=X!.B e.Q.*XOXr.M j.z.+.N.oX@X^.e.u.<X*XS /.yXrX2.3.' a = o h =.' I _ ' P L T I I F f C F s F _ P e 0 u - o pXpXpX",
"pXpXpXpXpXpXpXpXpXpXpXpXpXpXX Q T.g.l.%X}.i 4 B v y S ( } d.V.;X0X<Xs.u 3 y.,XwXeX&.K.8X(.;.1.I = X u L I P K ;.4.` I ) P d s F F F F F P a = o = pXpXpXpXpX",
"pXpXpXpXpXpXpXpXpXpXpXpXpXpXpXe ~ ..p.Z.c.S u Y U S 3 t } |.3X4X^.g.X.: g XX9X=XY.^ ~ 2.` i u 0 = 4 L ( T ' %.;.-.! K E L F u 0 0 q q 0 u 1 % o % pXpXpXpXpX",
"pXpXpXpXpXpXpXpXpXpXpXpXpXpXpXpXX r Q S P 7.3.P &.H.J Z h.<XtX-X2 # r x f.9X5XP # d F p 4 X . % u P ! T I ;.7.$.K Z d C F L 0 o o * * % % % pXpXpXpXpXpXpXpX",
"pXpXpXpXpXpXpXpXpXpXpXpXpXpXpXpXpXP 7.&.%.%.! Z A $.k.~.3X3X!._ e 2 S Z.$X X>.=   ; - % X X % e G _ ) ! K ( #.( F 0 ; 4 9 0 ; pXpXpXpXpXpXpXpXpXpXpXpXpXpXpX",
"pXpXpXpXpXpXpXpXpXpXpXpXpXpXpXpXpX~ I.I.&.a 9 d t K B.<X0XOX5 # ' W L {.;X^ + @ o % % % o = u P ! ( ( L d u u Z d = X @ % @ pXpXpXpXpXpXpXpXpXpXpXpXpXpXpXpX",
"pXpXpXpXpXpXpXpXpXpXpXpXpXpXpXpX* 0 a d q ; - 7 ~ G.9.+.,...q A G.<.F U l o . 5 i q u u = o u ! P E ! s ; = ; 4 4 pXpXpXpXpXpXpXpXpXpXpXpXpXpXpXpXpXpXpXpXpX",
"pXpXpXpXpXpXpXpXpXpXpXpXpXpXpXpX= o       . : C &.3.S # # y W :.3.` e .     1 C P F H H 9 * q f i i f 7 o X % o o pXpXpXpXpXpXpXpXpXpXpXpXpXpXpXpXpXpXpXpXpX",
"pXpXpXpXpXpXpXpXpXpXpXpXpXpXpXpXpXpXpXpXpX  Z I.$.- @ - 0 _ Y.-.%   . 0 P K f s p f C f d u 4 = ; ; ; = pXpXpXpXpXpXpX% @ % X     . pXpXpXpXpXpXo * = pXpXpX",
"pXpXpXpXpXpXpXpXpXpXpXpXpXpXpXpXpXpXpXpXpX. s 3.Z     = W 3.-.F = X 4 K =.:.$.L p d d d L K ; . o % o pXpXpXpXpXpXpXpX; 1 = 4 q i r pXpXpXpXpX= 1 ; = pXpXpX",
"pXpXpXpXpXpXpXpXpXpXpXpXpXpXpXpXpXpXpXpXpX= = = pXpXpX= 7.5.  % ;.7.;.W K =.<.( F f a f C s : o pXpXpXpXpXpXpXpXpXX = i i 9 P 3.T.3.0   % X   = a 9 * pXpXpX",
"pXpXpXpXpXpXpXpXpXpXpXpXpXpXpXpXpXpXpXpXpXpX% . pXpXo = P ~ 1 a G.Y.G.&.( <.3.' K d u i P P 9 o pXpXpXpXpXpXpXpXpX= e K _ ( ;.7.3.! q % = 9 s ` -.a   @ pXpX",
"pXpXpXpXpXpXpXpXpXpXpXpXpXpXpXpXpXpXpXpXpXpXpXpXpX= = =   4 &.L.;.;.-.;.<.3.=.( f i q u _ %.q X pXpXpXpXpXpX% X = u P I =.7.3.T =   0 f 0 P G.E.I.s   o = pX",
"pXpXpXpXpXpXpXpXpXpXpXpXpXpXpXpXpXpXpXpXpXpXpXpXpX= = pX  - 6.R.*.;.;.<.<.<.;.%.` #.~ H F a ; % pXpXpXo pX; 0 4 4 p G K ! #.! f = % L ;.%.#.E L z d w - * pX",
"pXpXpXpXpXpXpXpXpXpXpXpXpXpXpXpXpXpXpXpXpXpXpXpXpXpXpXpX. 9 =.7.;.;.<.;.;.<.;.<.3.5.;.` 0   o - pXpX= o % q F F f s a s i u i d i F &.H.T.! X     f %.w * pX",
"pXpXpXpXpXpXpXpXpXpXpXpXpXpXpXpXpXpXpXpXpXpXpXpXpXpXpXpXX 4 F %.3.3.;.;.;.<.;.<.:.=.$.! 4   o % o = q u 0 f ~ *.;.( f i 0 q u F ! &.3.<._ 9     q 1.P.i o pX",
"pXpXpXpXpXpXpXpXpXpXpXpXpXpXpXpXpXpXpXpXpXpXpXpXpXpXpXpX% = 4 G ;.4.;.;.;.;.;.4.%.P f i 4 = = = o 9 F L F L ( ;.6.' P Z s C G ( ;.7.7...F ; o a =.7.;.q % pX",
"pXpXpXpXpXpXpXpXpXpXpXpXpXpXpXpXpXpXpXpXpXpXpXpXpXpXpXpX. O 9 G P ' ;.:.;.;.;.7.;.W 0 = 9 a i u u i a d i i i d C F ( %.;.&.&.&.1.4.4.<.*.P u ' Y.~ = pXpXpX",
"pXpXpXpXpXpXpXpXpXpXpXpXpXpXpXpXpXpXpXpXpXpXpXpXpXpXpXpX= 0 d L P %.3.2.;.3.;.8.` i % . 7 E G F F F Z f f F F p f I $.1.3.<.3.3.;.%.&.:.G.6.=.;.-.0   pXpXpX",
"pXpXpXpXpXpXpXpXpXpXpXpXpXpXpXpXpXpXpXpXpXpXpXpXpXpXo - L %.P ( <.4.3.1.2.P.7.3.L ;   . 4 z u e 0 a K I P ` 2.3.3.7.;.T K K $.3._ K T -.7.Y.Y.! * pXpXpXpXpX",
"pXpXpXpXpXpXpXpXpXpXpXpXpXpXpXpXpXpXpXpXpXpXpXpXpXpXo = f ( T ' &.;.&.;.-._ G F 9 . o q d L E ~ T ~ $.' T =.5.;.&.-.%.' ( ( -.4.;.( f a I _ &.e   pXpXpXpXpX",
"pXpXpXpXpXpXpXpXpXpXpXpXpXpXpXpXpXpXpXpXpXpXpXpXpXpX= = X 1 P ( K I _ =.' 4   o o . q _ ( ( 3.I.G.7.5.%.P T ' L d u I 4.I.7.G.7.T.6.q   % = % = pXpXpXpXpXpX",
"pXpXpXpXpXpXpXpXpXpXpXpXpXpXpXpXpXpXpXpXpXpXpXpXpXpXpX= pX= I :.;.W 0 q q 7 = 4 4 4 F ` ` I P P L ! $.&.' K q 4 1 ; 0 L ! L H F ! L ;   o X X pXpXpXpXpXpXpX",
"pXpXpXpXpXpXpXpXpXpXpXpXpXpXpXpXpXpXpXpXpXpXpXpXpXpXpXpXpXpXpX3.I.W .   * d P L G G F s F s =     = K ' ` u . o = = @ o X o X o X o pXpXpXpXpXpXpXpXpXpXpXpX",
"pXpXpXpXpXpXpXpXpXpXpXpXpXpXpXpXpXpXpXpXpXpXpXpXpXpXpXpXpXpX0 s G 0 pX. % 4 u 0 9 0 9 4 9 4 pXpX  9 3.-.q = pXpXpXpXpXpXpXpXpXpXpXpXpXpXpXpXpXpXpXpXpXpXpXpX",
"pXpXpXpXpXpXpXpXpXpXpXpXpXpXpXpXpXpXpXpXpXpXpXpXpXpXpXpXpXpX% . . pXpXpX= * @ o o o * o @ * pXpX. u H._ . pXpXpXpXpXpXpXpXpXpXpXpXpXpXpXpXpXpXpXpXpXpXpXpXpX",
"pXpXpXpXpXpXpXpXpXpXpXpXpXpXpXpXpXpXpXpXpXpXpXpXpXpXpXpXpXpXpXpXpXpXpXpXpXpXpXpXpXpXpXpXpXpXpXpX@ ; u 9 pXpXpXpXpXpXpXpXpXpXpXpXpXpXpXpXpXpXpXpXpXpXpXpXpXpX",
"pXpXpXpXpXpXpXpXpXpXpXpXpXpXpXpXpXpXpXpXpXpXpXpXpXpXpXpXpXpXpXpXpXpXpXpXpXpXpXpXpXpXpXpXpXpXpXpX= = o * pXpXpXpXpXpXpXpXpXpXpXpXpXpXpXpXpXpXpXpXpXpXpXpXpXpX",
"pXpXpXpXpXpXpXpXpXpXpXpXpXpXpXpXpXpXpXpXpXpXpXpXpXpXpXpXpXpXpXpXpXpXpXpXpXpXpXpXpXpXpXpXpXpXpXpXpXpXpXpXpXpXpXpXpXpXpXpXpXpXpXpXpXpXpXpXpXpXpXpXpXpXpXpXpXpX"
};
