/* XPM */
static xpm_row_t const player_right3[] = {
/* columns rows colors chars-per-pixel */
"78 67 199 2 ",
"   c #020103",
".  c #060308",
"X  c #09060B",
"o  c #0C0B0C",
"O  c #080505",
"+  c #0F0E10",
"@  c #120E13",
"#  c #151415",
"$  c #161418",
"%  c #1A151B",
"&  c #1C1B1C",
"*  c #181817",
"=  c #100F0F",
"-  c #221E1F",
";  c #1E211B",
":  c #21231F",
">  c #1F1B21",
",  c #1D1423",
"<  c #211D23",
"1  c #251F29",
"2  c #232323",
"3  c #272925",
"4  c #292A25",
"5  c #262329",
"6  c #2A252D",
"7  c #2C2C2C",
"8  c #2E322A",
"9  c #32342D",
"0  c #2C2531",
"q  c #2E2A32",
"w  c #312C35",
"e  c #352E3A",
"r  c #353434",
"t  c #393C36",
"y  c #363239",
"u  c #39343C",
"i  c #3D3C3D",
"p  c #353931",
"a  c #413F3D",
"s  c #3E423B",
"d  c #41453D",
"f  c #454B3D",
"g  c #3C3641",
"h  c #3F3C41",
"j  c #423C45",
"k  c #473F4D",
"l  c #434243",
"z  c #474B42",
"x  c #494D45",
"c  c #47424B",
"v  c #49454D",
"b  c #4C4C4C",
"n  c #4D5445",
"m  c #4F5549",
"M  c #51554D",
"N  c #545B4D",
"B  c #515C47",
"V  c #4C4552",
"C  c #4E4A52",
"Z  c #514C55",
"A  c #544D5A",
"S  c #4D5354",
"D  c #555454",
"F  c #575D51",
"G  c #595D54",
"H  c #5A555C",
"J  c #5C5C5B",
"K  c #53545C",
"L  c #57604D",
"P  c #59624F",
"I  c #5C6453",
"U  c #5F6856",
"Y  c #5D615A",
"T  c #606A57",
"R  c #636C5A",
"E  c #66715C",
"W  c #69735E",
"Q  c #6C795F",
"!  c #5C5963",
"~  c #615B65",
"^  c #645D69",
"/  c #5E6369",
"(  c #636363",
")  c #666B61",
"_  c #66636A",
"`  c #69636D",
"'  c #6B6C6C",
"]  c #696E63",
"[  c #6C7463",
"{  c #6E7864",
"}  c #6F7569",
"|  c #71756D",
" . c #737C6B",
".. c #707966",
"X. c #6E6B72",
"o. c #6C6671",
"O. c #716C75",
"+. c #6E727A",
"@. c #747474",
"#. c #767379",
"$. c #7C7B7B",
"%. c #777977",
"&. c #76816C",
"*. c #79816F",
"=. c #748167",
"-. c #7D8574",
";. c #7F8876",
":. c #7F827A",
">. c #77857D",
",. c #808977",
"<. c #81857D",
"1. c #848C7C",
"2. c #88927F",
"3. c #787881",
"4. c #817E83",
"5. c #7E8688",
"6. c #838384",
"7. c #878D80",
"8. c #888E82",
"9. c #8C8C8D",
"0. c #888589",
"q. c #8B9284",
"w. c #8E938A",
"e. c #87908D",
"r. c #91968C",
"t. c #939A8D",
"y. c #919A87",
"u. c #8F8B91",
"i. c #928F95",
"p. c #949394",
"a. c #969B93",
"s. c #999D95",
"d. c #969398",
"f. c #99959C",
"g. c #9B9B9C",
"h. c #959A99",
"j. c #8F9F91",
"k. c #9CA594",
"l. c #9EA29A",
"z. c #9AA797",
"x. c #A1A59D",
"c. c #A4AB9E",
"v. c #9F9BA4",
"b. c #A19EA4",
"n. c #9BA3A4",
"m. c #9AA6B0",
"M. c #A4A4A4",
"N. c #A5AAA1",
"B. c #AAAEA6",
"V. c #A6AAAA",
"C. c #ABACAC",
"Z. c #A6A7A9",
"A. c #AEB3A9",
"S. c #A8B4A8",
"D. c #B1B4AD",
"F. c #B1B8AC",
"G. c #ACADB0",
"H. c #AAB1B5",
"J. c #B5B5B5",
"K. c #B6B9B5",
"L. c #B7B7B9",
"P. c #BBBBBB",
"I. c #B9BAB7",
"U. c #BDC1BC",
"Y. c #C1C8BE",
"T. c #BEBDC0",
"R. c #A9B9C2",
"E. c #C0BFC2",
"W. c #B4C7CC",
"Q. c #BBD1D7",
"!. c #B3C5CB",
"~. c #C3C3C3",
"^. c #C5C9C6",
"/. c #C7C6C8",
"(. c #CBCCCC",
"). c #C6C8CA",
"_. c #CDD1CD",
"`. c #CECED0",
"'. c #CED1D1",
"]. c #C2D8DA",
"[. c #D2D4D5",
"{. c #D4D7D8",
"}. c #D6D9DA",
"|. c #DADDDD",
" X c #D7D8D7",
".X c #DDDFE1",
"XX c #C5DBE1",
"oX c #CCE3E8",
"OX c #DEE1E2",
"+X c #D1E9ED",
"@X c #D4EDF1",
"#X c #E2E5E6",
"$X c #E6E9EB",
"%X c #EAEDED",
"&X c #E3E6E8",
"*X c #EBEFF1",
"=X c #EBF7F7",
"-X c #F5F9FB",
";X c None",
/* pixels */
";X;X;X;X;X;X;X;X;X;X;X;X;X;X;X;X;X;X;X;X;X;X;X;X;X;X;X;X;X;X;X;X;X;X;X;X;X;X;X;X;X;X;X;X;X;X;X;X;X;X;X;X;X;X;X;X;X;X;X;X;X;X;X;X;X;X;X;X;X;X;X;X;X;X;X;X;X;X",
";X;X;X;X;X;X;X;X;X;X;X;X;X;X;X;X;X;X;X;X;X;X;X;X;X;X;X;X;X;X;X# # $ # # # * # # # ;X;X;X;X;X;X;X;X;X;X;X;X;X;X;X;X;X;X;X;X;X;X;X;X;X;X;X;X;X;X;X;X;X;X;X;X;X",
";X;X;X;X;X;X;X;X;X;X;X;X;X;X;X;X;X;X;X;X;X;X;X;X;X;X;X;X;X;X> 9 l l i i y i i r 3 ;X;X;X;X;X;X;X;X;X;X;X;X;X;X;X;X;X;X;X;X;X;X;X;X;X;X;X;X;X;X;X;X;X;X;X;X;X",
";X;X;X;X;X;X;X;X;X;X;X;X;X;X;X;X;X;X;X;X;X;X;X;X;X;X;X;X;X  r $.M.V.M.u.9.w.0.-.N 2 . ;X;X;X;X;X;X;X;X;X;X;X;X;X;X;X;X;X;X;X;X;X;X;X;X;X;X;X;X;X;X;X;X;X;X;X",
";X;X;X;X;X;X;X;X;X;X;X;X;X;X;X;X;X;X;X;X;X;X;X;X;X;X;X;X= & ( K.$X%X#X[./.(.U.N. .s * ;X;X;X;X;X;X;X;X;X;X;X;X;X;X;X;X;X;X;X;X;X;X;X;X;X;X;X;X;X;X;X;X;X;X;X",
";X;X;X;X;X;X;X;X;X;X;X;X;X;X;X;X;X;X;X;X;X;X;X;X;X;X;X  & n y.^.#XOXOX.X[./.D.k.*.U s 2 # ;X;X;X;X;X;X;X;X;X;X;X;X;X;X;X;X;X;X;X;X;X;X;X;X;X;X;X;X;X;X;X;X;X",
";X;X;X;X;X;X;X;X;X;X;X;X;X;X;X;X;X;X;X;X;X;X;X;X;X;X* 7 G w.U.'..X}.}.{.`.E.B.r.-.=.L 8 o ;X;X;X;X;X;X;X;X;X;X;X;X;X;X;X;X;X;X;X;X;X;X;X;X;X;X;X;X;X;X;X;X;X",
";X;X;X;X;X;X;X;X;X;X;X;X;X;X;X;X;X;X;X;X;X;X;X;X;X# l $.C.U.[. X|..X[.~.T.E.D.a.-. .B 7 = ;X;X;X;X;X;X;X;X;X;X;X;X;X;X;X;X;X;X;X;X;X;X;X;X;X;X;X;X;X;X;X;X;X",
";X;X;X;X;X;X;X;X;X;X;X;X;X;X;X;X;X;X;X;X;X;X;X;X;X= J L.&X#XOX}.{.[./.P.D.J.b.q. ...m 4 o ;X;X;X;X;X;X;X;X;X;X;X;X;X;X;X;X;X;X;X;X;X;X;X;X;X;X;X;X;X;X;X;X;X",
";X;X;X;X;X;X;X;X;X;X;X;X;X;X;X;X;X;X;X;X;X;X;X;X;Xo J P.%X*X%X.X`.W.P.T.D.x.8. .E [ N 4 @ ;X;X;X;X;X;X;X;X;X;X;X;X;X;X;X;X;X;X;X;X;X;X;X;X;X;X;X;X;X;X;X;X;X",
";X;X;X;X;X;X;X;X;X;X;X;X;X;X;X;X;X;X;X;X;X;X;X;Xo @ b p.I.L./.[.`.P.D.J.x.1.[ T T E N 8 @ ;X;X;X;X;X;X;X;X;X;X;X;X;X;X;X;X;X;X;X;X;X;X;X;X;X;X;X;X;X;X;X;X;X",
";X;X;X;X;X;X;X;X;X      . o o o = = o o ;X;X;XX o $ w c V A 0.~. XE.G.x.2. .T T T ..I 8 o ;X;X;X;X;X;X;X;X;X;X;X;X;X;X;X;X;X;X;X;X;X;X;X;X;X;X;X;X;X;X;X;X;X",
";X;X;X;X;X;X;X;X2 r r r 7 2 2 & 2 : 2 - * ;X;X3 y c k u 6 6 D i.J.J.x.2.[ T P T T T n 4 = ;X;X;X;X;X;X;X;X;X;X;X;X;X;X;X;X;X;X;X;X;X;X;X;X;X;X;X;X;X;X;X;X;X",
";X;X;X;X;X;X;X# _ M.Z.p.%.I n z f f b j 6 # r R 7.d.f.i.4.[ J D X.t.y. .T T T E F t 2 & ;X;X;X;X;X;X;X;X;X;X;X;X;X;X;X;X;X;X;X;X;X;X;X;X;X;X;X;X;X;X;X;X;X;X",
";X;X;X;X;X;X# b A.=X-XOXF.1...E R E ' ~ w # t -.x.J.P.L.M.q.M 6 y | *.E I T T W B 2 X ;X;X;X;X;X;X;X;X;X;X;X;X;X;X;X;X;X;X;X;X;X;X;X;X;X;X;X;X;X;X;X;X;X;X;X",
";X;X;X;X;X* ! G.'.%X*X}.F.,.[ R E [ %.^ w X * l ~ #.4.3._ b 6 , r R =.W T T E ..F 4 X ;X;X;X;X;X;X;X;X;X;X;X;X;X;X;X;X;X;X;X;X;X;X;X;X;X;X;X;X;X;X;X;X;X;X;X",
";X;X;X;X# S G.=X#X{.OX'.N.-.W U P N G Z y 2 5 u V ~ ^ ^ Z j e y l N I I I T T T x 4 @ ;X;X;X;X;X;X;X;X;X;X;X;X;X;X;X;X;X;X;X;X;X;X;X;X;X;X;X;X;X;X;X;X;X;X;X",
";X;X# 7 ' G. X%XOX{.&X{.N.-.=.R f 2 $ & r N @.4.i.f.g.f.i.u.4.| D i w y x R U d 3 * ;X;X;X;X;X;X;X;X;X;X;X;X;X;X;X;X;X;X;X;X;X;X;X;X;X;X;X;X;X;X;X;X;X;X;X;X",
";X;X# l J.*X#X[.{.{.|.^.c.;.[ N 9 * + 2 N w.D.I.P.J.J.J.L.P.B.y.R j 0 0 j I m 2 X ;X;X;X;X;X;X;X;X;X;X;X;X;X;X;X;X;X;X;X;X;X;X;X;X;X;X;X;X;X;X;X;X;X;X;X;X;X",
";X;X# i M..X(.~.}.{.I.z.z.1.z ; 8 m ( $.g.D.K.c.t.2.1.2.9.8.,...E ] ! Z v v r * X ;X;X;X;X;X;X;X;X;X;X;X;X;X;X;X;X;X;X;X;X;X;X;X;X;X;X;X;X;X;X;X;X;X;X;X;X;X",
";X;X* r 0.~.I.P.[.(.l.*.,.| t - M y.F.P.~.J.s.,.E I L P P P I T  .1.:._ V e 1 & # ;X;X;X;X;X;X;X;X;X;X;X;X;X;X;X;X;X;X;X;X;X;X;X;X;X;X;X;X;X;X;X;X;X;X;X;X;X",
";X;X* r 0.U.I.L./.~.B.*.n r b #.a.B.D.x.t.<. .[ T F L P B n [ t.s.<.( C g e 0 6 2 * ;X;X;X;X;X;X;X;X;X;X;X;X;X;X;X;X;X;X;X;X;X;X;X;X;X;X;X;X;X;X;X;X;X;X;X;X",
";X;X# r i./.T.I.I.C.s.[ 3 & @./.`.I.l.-.[ I I T T R R T I T 8.J.b.` j e 6 0 w e q & # ;X;X;X;X;X;X;X;X;X;X;X;X;X;X;X;X;X;X;X;X;X;X;X;X;X;X;X;X;X;X;X;X;X;X;X",
";X;X# i g.{./.D.A.q.G p 8 N p.(.[.P.x.-. .{ T P [  .[ I [ r.g.i.O.V e e 6 > 1 w e q 1 * # ;X;X;X;X;X;X;X;X;X;X;X;X;X;X;X;X;X;X;X;X;X;X;X;X;X;X;X;X;X;X;X;X;X",
";X;X# i V.&X[.C.s.[ 4 * M t.B.I.P.J.a.1.1.1. .T ..<. .T 2.I.b.^ g e 0 q 5 % % 5 w e 0 > # ;X;X;X;X;X;X;X;X;X;X;X;X;X;X;X;X;X;X;X;X;X;X;X;X;X;X;X;X;X;X;X;X;X",
";X;X* i V.$X XC.0.G e j $.A.N.t.p.t.2.-.,.2.,. .....W ..a.P.b.^ e 1 % > 1 5 1 > 1 w w & # ;X;X;X;X;X;X;X;X;X;X;X;X;X;X;X;X;X;X;X;X;X;X;X;X;X;X;X;X;X;X;X;X;X",
";X;X# h V.#X[.M.O.A V ` g.I.x.<.,.1.1.1.1.1.2.1. .T W ,.x.I.b.o.g > o # > q 0 % % 0 q > # ;X;X;X;X;X;X;X;X;X;X;X;X;X;X;X;X;X;X;X;X;X;X;X;X;X;X;X;X;X;X;X;X;X",
";X;X$ s C.OXI.8.X.A V ~ f.P.D.s.a.g.x.l.q.,.<.1.*... .,.x.P.C.<.c > . X @ > 1 > 1 0 q 1 $ # ;X;X;X;X;X;X;X;X;X;X;X;X;X;X;X;X;X;X;X;X;X;X;X;X;X;X;X;X;X;X;X;X",
";X;X# l C.|.S...~ A Z ` i.P.T.J.I.L.T.L.g.1.,.1.1.1.,.,.a.D.D.y.Y 5 X $ % @ , q y q w e w & # ;X;X;X;X;X;X;X;X;X;X;X;X;X;X;X;X;X;X;X;X;X;X;X;X;X;X;X;X;X;X;X",
";X;X# l G.|.S.[ d u ( d.C.L.P.P.P.P.P.P.J.M.w.<.<.2.<.,.2.s.A.A.| 5 $ g y % > z D u y D M 7 # ;X;X;X;X;X;X;X;X;X;X;X;X;X;X;X;X;X;X;X;X;X;X;X;X;X;X;X;X;X;X;X",
";X;X# i G.|.F.W : 2 %.~.~.I.J.L.J.J.L.I.P.I.l.1.,.,.1.1.<.,.x.P.0.5 , Z V > : B P y h %.-.i o ;X;X;X;X;X;X;X;X;X;X;X;X;X;X;X;X;X;X;X;X;X;X;X;X;X;X;X;X;X;X;X",
";X;X$ l G.|.F.] & & $./.~.L.J.J.J.J.L.J.C.x.l.l.1. .1.l.q.Q q.P.9.q + y y & & r s 5 v n.S.M X ;X;X;X;X;X;X;X;X;X;X;X;X;X;X;X;X;X;X;X;X;X;X;X;X;X;X;X;X;X;X;X",
";X;X$ s D.|.D.] : : #.Y.E.L.I.J.J.L.P.J.a.1.l.L.9.T <.J.s.R ,.K.9.q   @ $ $ $ @ % % A R.Q.! O ;X;X;X;X;X;X;X;X;X;X;X;X;X;X;X;X;X;X;X;X;X;X;X;X;X;X;X;X;X;X;X",
";X;X# h C.|.A.R : < #.~.E.J.J.L.J.J.P.J.y.-.l.E.r.P <.T.l.T %.J.e.r   . X $ @ . X @ ! Q.oX/ O ;X;X;X;X;X;X;X;X;X;X;X;X;X;X;X;X;X;X;X;X;X;X;X;X;X;X;X;X;X;X;X",
";X;X# l G.|.D.W : 2 #.Y.E.I.J.J.J.L.P.J.a.1.g.I.w.T ,.J.s.R -.I.u.q   + $ $ % @ $ $ K !.Q./ O ;X;X;X;X;X;X;X;X;X;X;X;X;X;X;X;X;X;X;X;X;X;X;X;X;X;X;X;X;X;X;X",
";X;X* i C.#X/.:.: & #.(.~.J.J.L.I.J.L.J.C.x.x.x.8...1.l.8.[ w.U.9.q # t t & , e e % g z.m.S O o ;X;X;X;X;X;X;X;X;X;X;X;X;X;X;X;X;X;X;X;X;X;X;X;X;X;X;X;X;X;X",
";X;X# h Z.&X|.a.r & @.~.~.I.J.J.J.L.J.J.P.I.g.1.-.1.1.1.-.;.l.P.0.6 - N B : > V A e g %.-.i o + * ;X;X;X;X;X;X;X;X;X;X;X;X;X;X;X;X;X;X;X;X;X;X;X;X;X;X;X;X;X",
";X;X* i C.$X|.M.D y ~ d.C.L.P.P.P.P.P.P.J.N.y.-.1.q.1.-.7.k.A.A.@.5 # i t @ @ w K +.5.>.T 9 o o # # ;X;X;X;X;X;X;X;X;X;X;X;X;X;X;X;X;X;X;X;X;X;X;X;X;X;X;X;X",
";X;X# h Z.&X XZ.O.Z v ` d.P.P.I.L.L.T.L.l.1.;.1.1.1.-.,.s.J.D.a.I 2 o $ * @ $ , ! R.Q.k.m 4 @ @ # # # # # ;X;X;X;X;X;X;X;X;X;X;X;X;X;X;X;X;X;X;X;X;X;X;X;X;X",
";X;X$ t g. X`.Z.#.Z k ^ f.P.D.s.s.s.x.g.w.;.,.1.-.....1.x.P.C.$.z 2     o 8 l u $.+X@X;.: - < % > 5 r y q & ;X;X;X;X;X;X;X;X;X;X;X;X;X;X;X;X;X;X;X;X;X;X;X;X",
";X;X$ t 9.)./.B.#.C V ` g.L.x.,.,.<.1.8.1.<.1.1. .T [ -.x.I.b.o.g > . . 8 E ;.=.j.oXW.S X - q 0 w c H ^ Z q # ;X;X;X;X;X;X;X;X;X;X;X;X;X;X;X;X;X;X;X;X;X;X;X",
";X;X* r 0.~.E.C.f.X.h u $.D.N.t.t.r.1.-.1.2.,. .[ { [ { a.I.b.~ w , 6 K 5.m.U.z.j.n.5.r . $ e a b ( %.$.@.J d 2 ;X;X;X;X;X;X;X;X;X;X;X;X;X;X;X;X;X;X;X;X;X;X",
";X;X# r 9.~.P.L.~.f.i # n t.A.J.P.D.s.<.1.2. .R [ 1...T 7.J.M.` g > K H.@X+XQ.c.} S 5 $ # < y x R -.1.1.,.q.-.z # ;X;X;X;X;X;X;X;X;X;X;X;X;X;X;X;X;X;X;X;X;X",
";X;X* i M.#X[.~.|.P.] 8 4 N p.(. XT.l.,. .[ T P W *.[ I  .x.M.i.! g +.XX-X=XQ.5.l > o @ 5 e v G Q ;.2.q.2.k.w.M # X ;X;X;X;X;X;X;X;X;X;X;X;X;X;X;X;X;X;X;X;X",
";X;X# h V.*X#X{..X).c.R : - @./.`.I.l.,.W T P T T T T U [ 1.x.J.i.K +.W.=X=XR./ > $ # > e V H Y R -.1.8.1.y.1.n # ;X;X;X;X;X;X;X;X;X;X;X;X;X;X;X;X;X;X;X;X;X",
";X;X# 7 ( C.[.*X$X[.(.z.J 9 x #.p.B.A.x.t.<. .W U P N P P R 1.s.p.#.5.m.H.m.3.y @ $ 5 g A ! ` ^ R  .-.-.-.1.@.l # o ;X;X;X;X;X;X;X;X;X;X;X;X;X;X;X;X;X;X;X;X",
";X;X;X;Xo b G.*X#X X|.^.c.[ 9 - M y.D.P.E.J.l.,.W I P I I I T T  .1.<.O.! k q > $ 2 g Z ! ~ ~ ! ~ T E W ] ' ! u # @ # = + X X o + o o o o o X X X o # # ;X;X",
";X;X;X;X;X# J V.[.%X-X&XY.2.n : 9 G ' 4.l.D.K.x.t.8.1.1.8.q.-.[ ] ] G j g q 3 $ # > q h c k j h j d d f d i w & X o > t D ) _ Y M G _ ' ' ' ' | @.D 6 # ;X;X",
";X;X;X;X;X;X@ z V.=X-X|.F.1.{ P p : # 2 G w.A.I.P.J.J.J.I.L.B.y.R j 0 0 i G n 4 + # * > > & - & & & & : - # @ o o @ 0 ( s.Y.(.I.k.Z.(.{.'.'.'.}.#Xv.t # ;X;X",
";X;X;X;X;X;X;X# ( v.g.9.| G L x 3 X   O 4 N @.4.d.f.f.f.d.i.4.| D i w r x E L 4 X + = o X O O           O 4 v D b y 0 V $.M.L.D.g.g.M.V.Z.Z.V.C.J.5.r $ ;X;X",
";X;X;X;X;X;X;X;X2 7 7 7 3 : : > * # # # * 2 7 y V ! _ ^ Z g e y l N I I T W m 4 o # # = = = o X X X O   = ( M.T.M.^ 0 < e V ^ o.` C r 5 7 7 7 7 r 2 * * ;X;X",
";X;X;X;X;X;X;X;X;X      . o X + # # # # X X : l ^ #.4.3._ b 6 , r R =.W E W m 7 $ $ > 5 9 p d x b b b i D p.`.#X(.r.D b H o.#.O.! r X             O # $ ;X;X",
";X;X;X;X;X;X;X;X;X;X;X;X;X;X;X;X;X;X;X;Xo # l -.x.D.P.L.N.q.M 6 y ..;.W T R N i 1 1 0 j H ] ,.p.Z.M.M.g.M.G.T./.P.l.1.r.D.T.L.f.o.u & X ;X;X;X;X;X;X;X;X;X;X",
";X;X;X;X;X;X;X;X;X;X;X;X;X;X;X;X;X;X;X;X;X# t R <.9.d.i.$.} J H O.p.q.W P R N i w g V A ` ,.k.P.[.'.(.[.`.U.C.M.g.$.]  .i.f.r.O.C 6 * ;X;X;X;X;X;X;X;X;X;X;X",
";X;X;X;X;X;X;X;X;X;X;X;X;X;X;X;X;X;X;X;X;X;X& 2 w y g u w 6 H d.L.L.s.[ P R M y e k ! A ^  .y.F.~.~.Y.(./.A.y.<.X.c 3 5 8 w q 4 2 % ;X;X;X;X;X;X;X;X;X;X;X;X",
";X;X;X;X;X;X;X;X;X;X;X;X;X;X;X;X;X;X;X;X;X;X;XX 5 c Z v j c $.L. X~.M.-.T R N e g A ^ ! ~ ' <.p.b.M.g.i.<.} G b u < X   O   O O + ;X;X;X;X;X;X;X;X;X;X;X;X;X",
";X;X;X;X;X;X;X;X;X;X;X;X;X;X;X;X;X;X;X;X;X;X;X@ Z a.C.g.f.g.Z.J.P.P.B.8. .W M y e A ~ ~ ~ ^ ` o.O.#.o.v 7 3 2 5 < * ;X;X;X;X;X;X;X;X;X;X;X;X;X;X;X;X;X;X;X;X",
";X;X;X;X;X;X;X;X;X;X;X;X;X;X;X;X;X;X;X;X;X;X;X= ( T.|.'.[.'.~.I.J.P.C.y.*.Q M r e k A A V k j h g j u &     X o o ;X;X;X;X;X;X;X;X;X;X;X;X;X;X;X;X;X;X;X;X;X",
";X;X;X;X;X;X;X;X;X;X;X;X;X;X;X;X;X;X;X;X;X;X;X# J J.}.[.{. X).L.J.L.C.r. .Q M t 0 e g g y 6 & : 1 > > * ;X;X;X;X;X;X;X;X;X;X;X;X;X;X;X;X;X;X;X;X;X;X;X;X;X;X",
";X;X;X;X;X;X;X;X;X;X;X;X;X;X;X;X;X;X;X;X;X;X;X# D x.'.}.OX|.'.~.P.P.Z.r.*.{ M a 0 1 5 5 1 # o o = o = ;X;X;X;X;X;X;X;X;X;X;X;X;X;X;X;X;X;X;X;X;X;X;X;X;X;X;X",
";X;X;X;X;X;X;X;X;X;X;X;X;X;X;X;X;X;X;X;X;X;XX # x q.Y. X#X}.{.[./.T.N.w.*.{ G j 6 & $ * * ;X;X;X;X;X;X;X;X;X;X;X;X;X;X;X;X;X;X;X;X;X;X;X;X;X;X;X;X;X;X;X;X;X",
";X;X;X;X;X;X;X;X;X;X;X;X;X;X;X;X;X;X;X;X;X;X;X# 8 G s.(.&X|.#X#X|.^.C.a.*.T z r 1 $ # = # ;X;X;X;X;X;X;X;X;X;X;X;X;X;X;X;X;X;X;X;X;X;X;X;X;X;X;X;X;X;X;X;X;X",
";X;X;X;X;X;X;X;X;X;X;X;X;X;X;X;X;X;X;X;X;X;X;X;X= : ' Y.$X$X*X%X#X[.K.k. .C 7 1 # ;X;X;X;X;X;X;X;X;X;X;X;X;X;X;X;X;X;X;X;X;X;X;X;X;X;X;X;X;X;X;X;X;X;X;X;X;X",
";X;X;X;X;X;X;X;X;X;X;X;X;X;X;X;X;X;X;X;X;X;X;X;X;X  i 4.M.V.C.V.M.d.7. .D w % # # ;X;X;X;X;X;X;X;X;X;X;X;X;X;X;X;X;X;X;X;X;X;X;X;X;X;X;X;X;X;X;X;X;X;X;X;X;X",
";X;X;X;X;X;X;X;X;X;X;X;X;X;X;X;X;X;X;X;X;X;X;X;X;X;X2 r i l l l h i t r 2 & * ;X;X;X;X;X;X;X;X;X;X;X;X;X;X;X;X;X;X;X;X;X;X;X;X;X;X;X;X;X;X;X;X;X;X;X;X;X;X;X",
";X;X;X;X;X;X;X;X;X;X;X;X;X;X;X;X;X;X;X;X;X;X;X;X;X;X;X$ $ # # # # # # # # * # ;X;X;X;X;X;X;X;X;X;X;X;X;X;X;X;X;X;X;X;X;X;X;X;X;X;X;X;X;X;X;X;X;X;X;X;X;X;X;X",
";X;X;X;X;X;X;X;X;X;X;X;X;X;X;X;X;X;X;X;X;X;X;X;X;X;X;X;X;X;X;X;X;X;X;X;X;X;X;X;X;X;X;X;X;X;X;X;X;X;X;X;X;X;X;X;X;X;X;X;X;X;X;X;X;X;X;X;X;X;X;X;X;X;X;X;X;X;X"
};
