/* XPM */
static xpm_row_t const player_right2[] = {
/* columns rows colors chars-per-pixel */
"76 65 204 2 ",
"   c #030203",
".  c #070409",
"X  c #09060A",
"o  c #0C0B0D",
"O  c #090807",
"+  c #100F0F",
"@  c #0E0B10",
"#  c #0E0711",
"$  c #110E12",
"%  c #170F18",
"&  c #141314",
"*  c #191A17",
"=  c #171519",
"-  c #19151B",
";  c #1C1A1C",
":  c #171915",
">  c #11120E",
",  c #1E211A",
"<  c #20211F",
"1  c #1F1623",
"2  c #1E1B21",
"3  c #221D24",
"4  c #231B26",
"5  c #242324",
"6  c #272825",
"7  c #292A26",
"8  c #262229",
"9  c #2A252C",
"0  c #2C2B2B",
"q  c #282626",
"w  c #302E2F",
"e  c #2F302D",
"r  c #31342C",
"t  c #2D2732",
"y  c #2E2932",
"u  c #312C34",
"i  c #352E3A",
"p  c #333234",
"a  c #363239",
"s  c #39343B",
"d  c #3C3B3C",
"f  c #373935",
"g  c #3E4338",
"h  c #41443D",
"j  c #444A3D",
"k  c #3C3542",
"l  c #3E3B42",
"z  c #3F3C48",
"x  c #433D46",
"c  c #443E49",
"v  c #434344",
"b  c #474B41",
"n  c #494D44",
"m  c #46414A",
"M  c #49444D",
"N  c #4B4B4B",
"B  c #474C4F",
"V  c #4C5345",
"C  c #4E5448",
"Z  c #4D5842",
"A  c #515A47",
"S  c #51564B",
"D  c #535B4B",
"F  c #4C4553",
"G  c #4F4A52",
"H  c #514C54",
"J  c #544D5A",
"K  c #535352",
"L  c #575C51",
"P  c #595D53",
"I  c #55515B",
"U  c #5A555D",
"Y  c #5B5A5D",
"T  c #555D5B",
"R  c #59634E",
"E  c #57614C",
"W  c #5B6453",
"Q  c #5E6557",
"!  c #616B56",
"~  c #62655B",
"^  c #636D5A",
"/  c #66715C",
"(  c #69735E",
")  c #647057",
"_  c #5C5562",
"`  c #5C5963",
"'  c #625C66",
"]  c #645D6A",
"[  c #5E6163",
"{  c #666B61",
"}  c #65626A",
"|  c #69646D",
" . c #6D6D6E",
".. c #676767",
"X. c #6B7363",
"o. c #6E7964",
"O. c #6F716B",
"+. c #717B66",
"@. c #737B6C",
"#. c #72766F",
"$. c #6E6B72",
"%. c #646471",
"&. c #716C75",
"*. c #736C78",
"=. c #6E7079",
"-. c #747474",
";. c #777C71",
":. c #797F72",
">. c #77737B",
",. c #7C7C7D",
"<. c #7A757F",
"1. c #75806A",
"2. c #78816F",
"3. c #7C8474",
"4. c #7D8379",
"5. c #7F8877",
"6. c #82877C",
"7. c #838B7C",
"8. c #808877",
"9. c #7D7982",
"0. c #807E82",
"q. c #7F8C92",
"w. c #838286",
"e. c #868B81",
"r. c #888E82",
"t. c #868489",
"y. c #8C8D8C",
"u. c #888A8A",
"i. c #8B9284",
"p. c #8E9589",
"a. c #879285",
"s. c #91968C",
"d. c #949B8E",
"f. c #939D87",
"g. c #918F92",
"h. c #949594",
"j. c #939A93",
"k. c #999D94",
"l. c #9B9B9C",
"z. c #98989A",
"x. c #86929A",
"c. c #9BA195",
"v. c #9FA39B",
"b. c #A1A49D",
"n. c #A3AC9D",
"m. c #A4B19F",
"M. c #9F9CA1",
"N. c #A09DA2",
"B. c #94A0AA",
"V. c #A3A3A3",
"C. c #A7ABA3",
"Z. c #A9ABA6",
"A. c #A6A5A9",
"S. c #A9A7AB",
"D. c #ACACAB",
"F. c #A6A8AA",
"G. c #ABB2A5",
"H. c #AFB2AC",
"J. c #B2B7AE",
"K. c #ADADB0",
"L. c #A0ACB2",
"P. c #B1AEB3",
"I. c #AEB1B1",
"U. c #A7B8B8",
"Y. c #B5B5B5",
"T. c #B6B9B4",
"R. c #B9BCB6",
"E. c #B6B9BB",
"W. c #BBBBBB",
"Q. c #B5B7B8",
"!. c #BEC2BD",
"~. c #C0C2BE",
"^. c #B5BEC1",
"/. c #C0BFC1",
"(. c #BEC1C1",
"). c #B4C6C6",
"_. c #B9CDD3",
"`. c #B7CAD1",
"'. c #BFD4D7",
"]. c #C3C4C4",
"[. c #C5C6C8",
"{. c #CBCBCC",
"}. c #C6C8C7",
"|. c #CCD0CD",
" X c #CFD1D2",
".X c #C0D6DA",
"XX c #D2D3D4",
"oX c #D6D9DA",
"OX c #DADCDC",
"+X c #D5D7D8",
"@X c #D0D0CF",
"#X c #DCE1DE",
"$X c #C3D7E0",
"%X c #DCDEE0",
"&X c #DEE1E2",
"*X c #D0E9EB",
"=X c #E2E5E6",
"-X c #E4E6E8",
";X c #E9ECED",
":X c #E5E8EA",
">X c #EDF8F8",
",X c #FBFEFF",
"<X c #F3F9F9",
"1X c None",
/* pixels */
"1X1X1X1X1X1X1X1X1X1X1X1X1X1X1X1X1X1X1X1X1X1X1X1X1X1X1X1X1X1X1X1X1X1X1X1X1X1X1X1X1X1X1X1X1X1X1X1X1X1X1X1X1X1X1X1X1X1X1X1X1X1X1X1X1X1X1X1X1X1X1X1X1X1X1X1X",
"1X1X1X1X1X1X1X1X1X1X1X1X1X1X1X1X1X1X1X1X1X1X= = = = = = = = = = 1X1X1X1X1X1X1X1X1X1X1X1X1X1X1X1X1X1X1X1X1X1X1X1X1X1X1X1X1X1X1X1X1X1X1X1X1X1X1X1X1X1X1X1X",
"1X1X1X1X1X1X1X1X1X1X1X1X1X1X1X1X1X1X1X1X1X1Xu h v v d f d s f 7 1X1X1X1X1X1X1X1X1X1X1X1X1X1X1X1X1X1X1X1X1X1X1X1X1X1X1X1X1X1X1X1X1X1X1X1X1X1X1X1X1X1X1X1X",
"1X1X1X1X1X1X1X1X1X1X1X1X1X1X1X1X1X1X1X1X  5  .V.F.F.h.y.h.y.:.S 5   1X1X1X1X1X1X1X1X1X1X1X1X1X1X1X1X1X1X1X1X1X1X1X1X1X1X1X1X1X1X1X1X1X1X1X1X1X1X1X1X1X1X",
"1X1X1X1X1X1X1X1X1X1X1X1X1X1X1X1X1X1X1X1X: K Z.-X;X:X+X{.{.!.n.+.g * 1X1X1X1X1X1X1X1X1X1X1X1X1X1X1X1X1X1X1X1X1X1X1X1X1X1X1X1X1X1X1X1X1X1X1X1X1X1X1X1X1X1X",
"1X1X1X1X1X1X1X1X1X1X1X1X1X1X1X1X1X1Xo 5 n r.W.=X&XOXOX X[.H.k.2.~ g < $ 1X1X1X1X1X1X1X1X1X1X1X1X1X1X1X1X1X1X1X1X1X1X1X1X1X1X1X1X1X1X1X1X1X1X1X1X1X1X1X1X",
"1X1X1X1X1X1X1X1X1X1X1X1X1X1X1X1X1X1X. r @.!. X&XOXoX%XXX].Z.s.3.@.A 7 o 1X1X1X1X1X1X1X1X1X1X1X1X1X1X1X1X1X1X1X1X1X1X1X1X1X1X1X1X1X1X1X1X1X1X1X1X1X1X1X1X",
"1X1X1X1X1X1X1X1X1X1X1X1X1X1X1X1X1X1X  f e.}.oX%XoXoX%XXX].Z.d.3.+.C 7 o 1X1X1X1X1X1X1X1X1X1X1X1X1X1X1X1X1X1X1X1X1X1X1X1X1X1X1X1X1X1X1X1X1X1X1X1X1X1X1X1X",
"1X1X1X1X1X1X1X1X1X1X1X1X1X1X1X1X1X1X  d l.+X+X+XOXOXoX@X].C.i.+.o.V 6 o 1X1X1X1X1X1X1X1X1X1X1X1X1X1X1X1X1X1X1X1X1X1X1X1X1X1X1X1X1X1X1X1X1X1X1X1X1X1X1X1X",
"1X1X1X1X1X1X1X1X1X1X1X1X1X1X1X1X1X1X  d N.OX{.XX-X=X+X]./.b.3.! / C 7 o 1X1X1X1X1X1X1X1X1X1X1X1X1X1X1X1X1X1X1X1X1X1X1X1X1X1X1X1X1X1X1X1X1X1X1X1X1X1X1X1X",
"1X1X1X1X1X1X1X1X1X1X1X1X1X1X1X1X1X1XX p -.l.g.z.S.A.h.l.W.Z.@.D ^ C 5 o 1X1X1X1X1X1X1X1X1X1X1X1X1X1X1X1X1X1X1X1X1X1X1X1X1X1X1X1X1X1X1X1X1X1X1X1X1X1X1X1X",
"1X1X1X1X1X1X1X1X1X1X1X1X1X1X1X1X1X1X& * q a d x m c s ] Y.W.;.D ) C < . 1X1X1X1X1X1X1X1X1X1X1X1X1X1X1X1X1X1X1X1X1X1X1X1X1X1X1X1X1X1X1X1X1X1X1X1X1X1X1X1X",
"1X1X1X1X1X1X1X1X1X1X1X1X1X1X1X1X1X1X= = * 0 d m c d u G t.k.:.^ / D f ; 1X1X1X1X1X1X1X1X1X1X1X1X1X1X1X1X1X1X1X1X1X1X1X1X1X1X1X1X1X1X1X1X1X1X1X1X1X1X1X1X",
"1X1X1X1X1X1X1X1X1X1X1X1X1X1X1X1X1X1Xo 6 D 6.h.N.N.h.8.{ H I @.8.( W E j 5 $ 1X1X1X1X1X1X1X1X1X1X1X1X1X1X1X1X1X1X1X1X1X1X1X1X1X1X1X1X1X1X1X1X1X1X1X1X1X1X",
"1X1X1X1X1X1X1X1X1X1X1X1X1X1X1X1X1X1XX q W s.V.Y.Y.b.r.P 4 u X.7.X.^ o.L 7 o 1X1X1X1X1X1X1X1X1X1X1X1X1X1X1X1X1X1X1X1X1X1X1X1X1X1X1X1X1X1X1X1X1X1X1X1X1X1X",
"1X1X1X1X1X1X1X1X1X1X1X1X1X1X= = = & X $ 9 M ' *.*.' m t 4 u W 1.( ( ( A 6 o 1X1X1X1X1X1X1X1X1X1X1X1X1X1X1X1X1X1X1X1X1X1X1X1X1X1X1X1X1X1X1X1X1X1X1X1X1X1X",
"1X1X1X1X1X1X1X1X1X1X1X1X1X1X& $ o = 5 f d J ' $.$.' H c c m V S S W / D 6 o 1X1X1X1X1X1X1X1X1X1X1X1X1X1X1X1X1X1X1X1X1X1X1X1X1X1X1X1X1X1X1X1X1X1X1X1X1X1X",
"1X1X1X1X1X1X        X @ & = o     * n 4.g.V.A.S.S.A.A.h.6.~ x 9 u v ! R 7 o & & & o $ o o & o o o & > o . O .     o 1X1X1X1X1X1X1X1X1X1X1X1X1X1X1X1X1X1X",
"1X1X1X1X1X1Xf M N x d q & & 5 r 0 S e.G.R.W.I.Z.H.H.T.Z.f.o.N i i l L n 5 $ - 3 5 9 8 5 6 6 7 6 6 6 5 9 p d d d d p 1X1X1X1X1X1X1X1X1X1X1X1X1X1X1X1X1X1X",
"1X1X1X1X  5 w.(.^.Z.s.D > o j 3.y.A.Y.Y.b.i.4.@.@.@.3.@.^ / @.O.` F m 0 * & 4 a m H F N C D C C A N c U 0.z.h.h.b.-.p X 1X1X1X1X1X1X1X1X1X1X1X1X1X1X1X1X",
"1X1X1X1X5 $.[.,X<X~.f.P f N 6.G.R.W.H.l.7.( W A D E A R ( 3.7.,.} F i 4 ; ; 5 a H ' ] } X.( ( ( ( ^ Y 9.P.+X{.@XOXb.x   1X1X1X1X1X1X1X1X1X1X1X1X1X1X1X1X",
"1X1X  8 4.{.&X#X~.8.r r -.V.D.G.b.i.3.X.( ^ W R W W Z X.v.F.w._ c i i u y 4 ; 3 u F _ } ^ ^ ! ^ / / W :.D.}./.~.{.h.d   1X1X1X1X1X1X1X1X1X1X1X1X1X1X1X1X",
"1X1X8  .{.,X;XQ.6.h * x N.OX{.P.p.+.^ R R Q ( / ! ! X.e.Z.M.| k u 9 9 t i t ; * 3 u c U Q ! ~ Q P D V X.l.R.W.].{.h.d   1X1X1X1X1X1X1X1X1X1X1X1X1X1X1X1X",
"= f u.[.OX-X%Xv.h , j 6.D.{.{.P.p.2.3.+.Q ! :.3.W X.h.V.0.' M i i 9 ; 1 u i u 4 - ; u m U } } _ m s a S 8.H.~.XXOXb.d   1X1X1X1X1X1X1X1X1X1X1X1X1X1X1X1X",
"= v T.<X&X[.Y.>.9 0 ;.G.Z.D.H.b.i.8.7.8.X.X.3.2.^ 4.T.P.*.k 9 4 t 8 2 ; 8 y s t : & 3 k c I J c y 1 1 u S @.y.l.N.-.p X 1X1X1X1X1X1X1X1X1X1X1X1X1X1X1X1X",
"= d l.XX{.D.t.U x U l.H.d.7.r.7.8.8.7.7.8.@.( ^ +.p.R.S.*.k 4 & - 1 9 9 - 1 t t = = 9 s k x z s 5 = = ; 9 p f h h p 1X1X1X1X1X1X1X1X1X1X1X1X1X1X1X1X1X1X",
"= d h.{.].l.} F F >.D.W.k.7.r.i.p.p.7.7.r.8.X.( 2.k.Y.D.0.m 4 X o - 9 t 1 ; t t 2 ; 8 9 4 8 9 3 = & & & o X       o 1X1X1X1X1X1X1X1X1X1X1X1X1X1X1X1X1X1X",
"= g F.&X{.M.*.H F | N./.H.A.Z.D.H.n.7.2.7.8.3.3.3.d.Y.Y.s.P 0 X X @ - 1 2 t y y 8 2 2 ; 1 ; ; - 1X1X1X1X1X1X1X1X1X1X1X1X1X1X1X1X1X1X1X1X1X1X1X1X1X1X1X1X",
"= v I.;X Xl.` m _ 0.A./.W.W.W.W./.Y.b.7.7.7.7.7.8.i.b.H.m.@.w $ 2 8 $ ; s z p i x d ; o & & & & 1X1X1X1X1X1X1X1X1X1X1X1X1X1X1X1X1X1X1X1X1X1X1X1X1X1X1X1X",
"= v I.;X+Xh.s p 0.Y.Y.W.W.Y.W.Y.W.Y.Y.b.7.3.7.7.8.8.i.v.R.y.u = m M 1 5 C W s d { W 0 o 1X1X1X1X1X1X1X1X1X1X1X1X1X1X1X1X1X1X1X1X1X1X1X1X1X1X1X1X1X1X1X1X",
"& v H.-X{.,.; 6 h.@X/.Y.Y.W.Y.W.Y.Y.Y.Z.k.7.3.8.i.r.@.i.W.l.s % m M 2 < n C y F j.p.f X 1X1X1X1X1X1X1X1X1X1X1X1X1X1X1X1X1X1X1X1X1X1X1X1X1X1X1X1X1X1X1X1X",
"& v I.&XJ.^ ; 0 g.{.W.Y.Y.Y.Y.Y.W.D.k.d.D.b.+.@.b.b.+.;.J.l.s X 1 8 = : 5 5 2 _ U.U.v   1X1X1X1X1X1X1X1X1X1X1X1X1X1X1X1X1X1X1X1X1X1X1X1X1X1X1X1X1X1X1X1X",
"& v Y.OXn.L * w g.{./.Y.Y.Y.Y.Y.W.Z.7.i.Y.F./ X.I.I.X.X.H.l.l   . @ % $ # @ % ` $X_.B   1X1X1X1X1X1X1X1X1X1X1X1X1X1X1X1X1X1X1X1X1X1X1X1X1X1X1X1X1X1X1X1X",
"& v Y.OXm.P * w g./.W.Y.W.Y.Y.W.W.C.8.r.R.S.X.X.D.H.X.X.H.l.l   . @ & & X @ % %.$X_.B   1X1X1X1X1X1X1X1X1X1X1X1X1X1X1X1X1X1X1X1X1X1X1X1X1X1X1X1X1X1X1X1X",
"= v W.=XZ.R : w g.}./.Y.Y.Y.Y.W.W.D.d.d.D.l.@.@.b.b.@.@.Y.l.s o 3 8 * - 2 8 1 I ^.L.v   1X1X1X1X1X1X1X1X1X1X1X1X1X1X1X1X1X1X1X1X1X1X1X1X1X1X1X1X1X1X1X1X",
"* N ].;Xm.A + w h.@X/.Y.Y.Y.Y.Y.W.Y.Y.Z.k.7.8.8.i.r.@.r.W.z.f = V V < 2 m m 1 a a.a.f X 1X1X1X1X1X1X1X1X1X1X1X1X1X1X1X1X1X1X1X1X1X1X1X1X1X1X1X1X1X1X1X1X",
"& s y.E.P.-.u a 0.Y.Y.W.W.W.Y.W.W.Y.Y.C.7.3.7.7.8.8.i.b.R.y.u = V V ; - c _ J [ 2.! 0 o 1X1X1X1X1X1X1X1X1X1X1X1X1X1X1X1X1X1X1X1X1X1X1X1X1X1X1X1X1X1X1X1X",
"1X1X0 ..Q.P...c _ 0.A./.W.W.W.W./.P.l.r.7.8.i.7.8.r.V.H.n.#.e @ 5 5 @ @ 1 _ B.U.a.A 6 o 1X1X1X1X1X1X1X1X1X1X1X1X1X1X1X1X1X1X1X1X1X1X1X1X1X1X1X1X1X1X1X1X",
"1X1X  p /.+X0.c c | N./.J.Z.Z.D.H.b.7.8.7.7.3.2.3.d.R.Y.s.P 9 X . o 2 0 7  .$X*X4.r ; $ 1X1X1X1X1X1X1X1X1X1X1X1X1X1X1X1X1X1X1X1X1X1X1X1X1X1X1X1X1X1X1X1X",
"1X1X  h /.oX0.c J >.S.W.c.7.7.i.p.i.7.7.7.8.( ( 2.k.Y.D.0.m 8     $ n X.^ B.*X$XW o 1X1X1X1X1X1X1X1X1X1X1X1X1X1X1X1X1X1X1X1X1X1X1X1X1X1X1X1X1X1X1X1X1X1X",
"1X1X  v E.XXt.N x ` l.J.d.7.r.7.8.8.7.7.8.@.( / +.p.Y.S.*.k 4 & t T p.C.f.c.).x.a   1X1X1X1X1X1X1X1X1X1X1X1X1X1X1X1X1X1X1X1X1X1X1X1X1X1X1X1X1X1X1X1X1X1X",
"1X1X  v E.OXv.S ; 0 :.G.Z.D.D.b.7.8.7.7.o.X.3.:.^ 4.J.D.*.i 4 l q.`.'.).n.8.} z 3 o 1X1X1X1X1X1X1X1X1X1X1X1X1X1X1X1X1X1X1X1X1X1X1X1X1X1X1X1X1X1X1X1X1X1X",
"1X1X  v D.OXJ.@.f < j 4.I.{.[.P.f.2.3.+.W ! ;.2.W o.b.F.t._ i ` _.<X>X'.j.S 0 @ & : 1X1X1X1X1X1X1X1X1X1X1X1X1X1X1X1X1X1X1X1X1X1X1X1X1X1X1X1X1X1X1X1X1X1X",
"1X1X  d z.@XW.k.@.j * v b.OX{.P.p.+.^ R W ! / ( W ( 7.n.P.g.J %._.>X>X_.$.0 - o 1X1X1X1X1X1X1X1X1X1X1X1X1X1X1X1X1X1X: $ o         O                 & = ",
"1X1X  f y.].^.W.T.5.r 0  .N.I.H.b.i.3.X.X.! W R R Q ( 7.C.V.-.>.L._._.x.z # & & 1X1X1X1X1X1X1X1X1X1X1X1X1X1X1X1X1X1X& 5 p g M v s d v N N m N N N d 5 = ",
"1X1X. d g.].Y./.|.J.3.j w v 8.G.R.W.H.l.8.X.R D E R R ! X.:.8.e.q.9.` l 1 @ 1X1X1X1X1X1X1X1X1X1X1X1X1X1X1X1XX     X = m ;.V.Q.H.p.h.I.[.(.(.(.}.XXz.d & ",
"1X1X  d l. X].}.OXOX!.3.0 : j @.u.V.Y.Y.n.p.4.@.2.;.;.o.! / @.X.M i y 5 8 < 1X1X1X1X1X1X1X1X1X1X1X1X1X1X1X1Xp g d a 8 m -.H.}.}.Z.C.T.(.(.(.!.(. Xz.d : ",
"1X1X  m Y.<XOX@XoXOXoXZ.X.r 7 < q N 7.G.R.W.H.Z.Z.H.Y.F.f.o.G i t a n D D j 5 @ 1X1X1X1X1X1X1X1XX         5 -.V.V.<.z 1 a G } 9.>.} K v v B N B G d < = ",
"1X1X. f t.}.%X&XOXOX;X}.a.Z 6 @ o 5 V :.y.V.A.S.A.A.A.g.e.~ l 9 y h W o.+.A 7 o 1X1X1X1X1X1X1X1Xp h d a 0 U Z.OXOXI.] s x H ] | ] x &               & = ",
"1X1X1X1X6  .}.,X&XoX&X(.5.E Z n M l u e l J ' $.$.' J c x v V S S D W ( o.D 5 o & & & & &     9 -.l.z.p.y.l.Y.{.{.Y.7.8.z.D.Y.N.>.c 3   1X1X1X1X1X1X1X1X",
"1X1X1X1X  5 9.}.oX-X;X(.5.R ) O.&.G ; X 8 M ' *.&.' m 9 4 u W +.+.( ! ! / C 0 $ = * - 1 5 5 ; K A.OX@X{.@X}.Y.Z.D.z.:.;.h.V.Z.y.} a ; & 1X1X1X1X1X1X1X1X",
"1X1X1X1X1X1X5  .}.,X,X|.5.R / X.$.F - , L p.V.Y.Y.V.r.P 9 9 ~ 7.7.@.^ W ^ D p 4 9 9 3 t l K W 8.J.@X}.}.@X].G.s.0.] h w f h x s 0 3 1X1X1X1X1X1X1X1X1X1X",
"1X1X1X1X1X1X  5 w.(.E.z.{ g Z S H s - 5 L r.l.S.V.h.6.~ H U 6.d.i.8.o.^ ^ W v s i i a c J &.7.c.N.A.A.N.l.e.#.P G u =   O O   . o & 1X1X1X1X1X1X1X1X1X1X",
"1X1X1X1X1X1X1X1Xf v N d e 6 7 7 5 5 - * 7 d H J M k u N 0.Z.P.b.i.2.2.+.^ Q W N a i F I I | 7.p.,.>.9.| N p r 7 q 3 1X1X1X1X1X1X1X1X1X1X1X1X1X1X1X1X1X1X",
"1X1X1X1X1X1X1X1X        o $ @ @ o & & = X o & 9 x c x ' Z.@X{.Y.k.i.d.7.X.W / W s i J ] _ } :.-.H x c u $   . o o @ 1X1X1X1X1X1X1X1X1X1X1X1X1X1X1X1X1X1X",
"1X1X1X1X1X1X1X1X1X1X1X1X1X1X1X1X1X1X1X1X1X1X  s w.I.M.M.P./. X{.J.C.J.l.o.R ! D s i J ] ] } &.Y p ; 3 2 1X1X1X1X1X1X1X1X1X1X1X1X1X1X1X1X1X1X1X1X1X1X1X1X",
"1X1X1X1X1X1X1X1X1X1X1X1X1X1X1X1X1X1X1X1X1X1X  p ,.Y.R.!.W.[.+XoX}./.].Z.:.! ( D s i F J F F G k ; O o & 1X1X1X1X1X1X1X1X1X1X1X1X1X1X1X1X1X1X1X1X1X1X1X1X",
"1X1X1X1X1X1X1X1X1X1X1X1X1X1X1X1X1X1X1X1X1X1X1X1X0 P 7.J.}.oXoXoX+X@X].A.r.@.o.P l u k s 9 5 5 ; 1X1X1X1X1X1X1X1X1X1X1X1X1X1X1X1X1X1X1X1X1X1X1X1X1X1X1X1X",
"1X1X1X1X1X1X1X1X1X1X1X1X1X1X1X1X1X1X1X1X1X1X1X1X  & j i.(.:X&X&X=X%X[.I.c.2.^ n p 8 8 3 & o o & 1X1X1X1X1X1X1X1X1X1X1X1X1X1X1X1X1X1X1X1X1X1X1X1X1X1X1X1X",
"1X1X1X1X1X1X1X1X1X1X1X1X1X1X1X1X1X1X1X1X1X1X1X1X1X1X: K Z.:X;X;X;X-X+XW.n.;.H w 3 - * - 1X1X1X1X1X1X1X1X1X1X1X1X1X1X1X1X1X1X1X1X1X1X1X1X1X1X1X1X1X1X1X1X",
"1X1X1X1X1X1X1X1X1X1X1X1X1X1X1X1X1X1X1X1X1X1X1X1X1X1X  5  .V.S.D.K.A.l.u.3.P p - & & & & 1X1X1X1X1X1X1X1X1X1X1X1X1X1X1X1X1X1X1X1X1X1X1X1X1X1X1X1X1X1X1X1X",
"1X1X1X1X1X1X1X1X1X1X1X1X1X1X1X1X1X1X1X1X1X1X1X1X1X1X1X1Xr d x v v h d f f q 3 = 1X1X1X1X1X1X1X1X1X1X1X1X1X1X1X1X1X1X1X1X1X1X1X1X1X1X1X1X1X1X1X1X1X1X1X1X",
"1X1X1X1X1X1X1X1X1X1X1X1X1X1X1X1X1X1X1X1X1X1X1X1X1X1X1X1X= = = = = = = = & * = = 1X1X1X1X1X1X1X1X1X1X1X1X1X1X1X1X1X1X1X1X1X1X1X1X1X1X1X1X1X1X1X1X1X1X1X1X",
"1X1X1X1X1X1X1X1X1X1X1X1X1X1X1X1X1X1X1X1X1X1X1X1X1X1X1X1X1X1X1X1X1X1X1X1X1X1X1X1X1X1X1X1X1X1X1X1X1X1X1X1X1X1X1X1X1X1X1X1X1X1X1X1X1X1X1X1X1X1X1X1X1X1X1X1X",
"1X1X1X1X1X1X1X1X1X1X1X1X1X1X1X1X1X1X1X1X1X1X1X1X1X1X1X1X1X1X1X1X1X1X1X1X1X1X1X1X1X1X1X1X1X1X1X1X1X1X1X1X1X1X1X1X1X1X1X1X1X1X1X1X1X1X1X1X1X1X1X1X1X1X1X1X"
};
