/* XPM */
static xpm_row_t const player_right1[] = {
/* columns rows colors chars-per-pixel */
"76 65 205 2 ",
"   c #030203",
".  c #09060A",
"X  c #0D0B0D",
"o  c #070608",
"O  c #100E0F",
"+  c #0F0D10",
"@  c #110E13",
"#  c #151415",
"$  c #1A1B17",
"%  c #161318",
"&  c #19161A",
"*  c #1C1B1C",
"=  c #211F1E",
"-  c #1F211D",
";  c #20211F",
":  c #25281E",
">  c #1E1B21",
",  c #1F1622",
"<  c #221D25",
"1  c #251E2A",
"2  c #281E2D",
"3  c #1F2020",
"4  c #242324",
"5  c #282A25",
"6  c #262229",
"7  c #2A252C",
"8  c #2C2B2B",
"9  c #272B21",
"0  c #302C2D",
"q  c #2E322A",
"w  c #31342E",
"e  c #36392F",
"r  c #2D2630",
"t  c #2E2932",
"y  c #312C35",
"u  c #342E39",
"i  c #343334",
"p  c #3A3E35",
"a  c #37313A",
"s  c #3A343D",
"d  c #3B3B3B",
"f  c #373935",
"g  c #403F3D",
"h  c #3E4239",
"j  c #3D4436",
"k  c #41443D",
"l  c #44493F",
"z  c #4A543F",
"x  c #3C3642",
"c  c #3F3B42",
"v  c #413C45",
"b  c #443D49",
"n  c #493F4F",
"m  c #424243",
"M  c #464A43",
"N  c #4A4D45",
"B  c #47434A",
"V  c #4A444D",
"C  c #4C4C4C",
"Z  c #504F4F",
"A  c #4A5144",
"S  c #4E524B",
"D  c #51554C",
"F  c #545C4C",
"G  c #4C4351",
"H  c #4E4953",
"J  c #514B54",
"K  c #534C5A",
"L  c #545353",
"P  c #5A5D55",
"I  c #56515B",
"U  c #59545D",
"Y  c #5C5D5C",
"T  c #575B53",
"R  c #4F525C",
"E  c #58624E",
"W  c #5C6553",
"Q  c #5F6856",
"!  c #5F635A",
"~  c #606A57",
"^  c #61655C",
"/  c #636C5B",
"(  c #67715D",
")  c #68725F",
"_  c #5C5562",
"`  c #5E5963",
"'  c #615B65",
"]  c #645D6B",
"[  c #5F6061",
"{  c #636463",
"}  c #696C64",
"|  c #66626A",
" . c #69646C",
".. c #6C6C6C",
"X. c #666B62",
"o. c #6B7463",
"O. c #6E7964",
"+. c #6F7569",
"@. c #717B67",
"#. c #747C6B",
"$. c #757B6D",
"%. c #6C6670",
"&. c #6B6D71",
"*. c #716C76",
"=. c #737374",
"-. c #767A72",
";. c #767379",
":. c #7C7C7C",
">. c #797878",
",. c #6E7376",
"<. c #76816D",
"1. c #78836D",
"2. c #7C8574",
"3. c #7F8876",
"4. c #7C837A",
"5. c #808977",
"6. c #81867B",
"7. c #848B7C",
"8. c #818775",
"9. c #88917F",
"0. c #797881",
"q. c #817E83",
"w. c #7A8184",
"e. c #848484",
"r. c #868C82",
"t. c #898E85",
"y. c #8C8B8C",
"u. c #87848A",
"i. c #8B9283",
"p. c #8F938A",
"a. c #8F9986",
"s. c #91968B",
"d. c #949A8D",
"f. c #8B8B93",
"g. c #928D96",
"h. c #899499",
"j. c #949394",
"k. c #969B92",
"l. c #999E95",
"z. c #99969C",
"x. c #9C9B9C",
"c. c #969399",
"v. c #908E8F",
"b. c #9BA295",
"n. c #9DA299",
"m. c #98A38D",
"M. c #A1A69C",
"N. c #A3A99D",
"B. c #969BA1",
"V. c #A19EA3",
"C. c #99A1A5",
"Z. c #8FA0A5",
"A. c #A3A3A4",
"S. c #A6ABA2",
"D. c #A9ACA5",
"F. c #ABADAC",
"G. c #A7A8A9",
"H. c #AAB2A4",
"J. c #AEB2AB",
"K. c #B1B4AD",
"L. c #B2B9AD",
"P. c #ADAFB2",
"I. c #A1AEB5",
"U. c #B0AFB1",
"Y. c #AAB7B6",
"T. c #B4B5B4",
"R. c #B6B9B3",
"E. c #B9BCB6",
"W. c #B6B6B8",
"Q. c #B8B7B8",
"!. c #BBBBBC",
"~. c #B8B7B7",
"^. c #B1AFAF",
"/. c #C0BFBF",
"(. c #AEC0B9",
"). c #BFC0BE",
"_. c #BDC6B6",
"`. c #BFBEC0",
"'. c #C1BFC2",
"]. c #B9CAC6",
"[. c #C4C4C4",
"{. c #CBCCCC",
"}. c #C6C9C7",
"|. c #CFD1D2",
" X c #C2D7DE",
".X c #D2D4D4",
"XX c #D6D9DA",
"oX c #DADDDD",
"OX c #D6D6D8",
"+X c #CDD0CE",
"@X c #DCE0DE",
"#X c #DBDEE1",
"$X c #C7DDE1",
"%X c #CAE2E7",
"&X c #DEE1E2",
"*X c #D5EBEF",
"=X c #D7F0F7",
"-X c #E2E5E5",
";X c #E4E7E9",
":X c #E6E9EA",
">X c #E8EBEC",
",X c #EBF7F8",
"<X c #F6F8FA",
"1X c #ECEFF1",
"2X c None",
/* pixels */
"2X2X2X2X2X2X2X2X2X2X2X2X2X2X2X2X2X2X2X2X2X2X2X2X2X2X2X2X2X2X2X2X2X2X2X2X2X2X2X2X2X2X2X2X2X2X2X2X2X2X2X2X2X2X2X2X2X2X2X2X2X2X2X2X2X2X2X2X2X2X2X2X2X2X2X2X",
"2X2X2X2X2X2X2X2X2X2X2X2X2X2X2X2X2X2X2X2X2X2X2X2X2X# $ # # & % % # # % 2X2X2X2X2X2X2X2X2X2X2X2X2X2X2X2X2X2X2X2X2X2X2X2X2X2X2X2X2X2X2X2X2X2X2X2X2X2X2X2X2X",
"2X2X2X2X2X2X2X2X2X2X2X2X2X2X2X2X2X2X2X2X2X2X2X2X2X5 d d c h i i d i 8 * 2X2X2X2X2X2X2X2X2X2X2X2X2X2X2X2X2X2X2X2X2X2X2X2X2X2X2X2X2X2X2X2X2X2X2X2X2X2X2X2X",
"2X2X2X2X2X2X2X2X2X2X2X2X2X2X2X2X2X2X2X2X2X2X2X2X# Z v.G.A.c.y.f.p.6.X.w X 2X2X2X2X2X2X2X2X2X2X2X2X2X2X2X2X2X2X2X2X2X2X2X2X2X2X2X2X2X2X2X2X2X2X2X2X2X2X2X",
"2X2X2X2X2X2X2X2X2X2X2X2X2X2X2X2X2X2X2X2X2X2X2XX i e.|.>X:XXX{.}.[.J.9.D 4 # 2X2X2X2X2X2X2X2X2X2X2X2X2X2X2X2X2X2X2X2X2X2X2X2X2X2X2X2X2X2X2X2X2X2X2X2X2X2X",
"2X2X2X2X2X2X2X2X2X2X2X2X2X2X2X2X2X2X2X2X2X2X& e o.S.oX;X&XoX.X{._.N.9.( A 5 % 2X2X2X2X2X2X2X2X2X2X2X2X2X2X2X2X2X2X2X2X2X2X2X2X2X2X2X2X2X2X2X2X2X2X2X2X2X",
"2X2X2X2X2X2X2X2X2X2X2X2X2X2X2X2X2X2X2X2X2Xo * P n.}.@XoXXX#XoX{.T.l.5.<.~ p % O 2X2X2X2X2X2X2X2X2X2X2X2X2X2X2X2X2X2X2X2X2X2X2X2X2X2X2X2X2X2X2X2X2X2X2X2X",
"2X2X2X2X2X2X2X2X2X2X2X2X2X2X2X2X2X2X2X2X2X  < } R..X&XXXXXoXoX{.T.n.9.<./ j % O 2X2X2X2X2X2X2X2X2X2X2X2X2X2X2X2X2X2X2X2X2X2X2X2X2X2X2X2X2X2X2X2X2X2X2X2X",
"2X2X2X2X2X2X2X2X2X2X2X2X2X2X2X2X2X2X2X2X2X  4 >.}.XXoXoX#XXX.X}.W.l.3.o.Q p # X 2X2X2X2X2X2X2X2X2X2X2X2X2X2X2X2X2X2X2X2X2X2X2X2X2X2X2X2X2X2X2X2X2X2X2X2X",
"2X2X2X2X2X2X2X2X2X2X2X2X2X2X2X2X2X2X2X2X2X  4 q.|.OX.X-X:X.X/.'.Q.p.o.~ Q p # + 2X2X2X2X2X2X2X2X2X2X2X2X2X2X2X2X2X2X2X2X2X2X2X2X2X2X2X2X2X2X2X2X2X2X2X2X",
"2X2X2X2X2X2X2X2X2X2X2X2X2X2X2X2X2X2X2X2X2X  * { V.A.x.P.!.!.~.!.F.3.W W Q p # O 2X2X2X2X2X2X2X2X2X2X2X2X2X2X2X2X2X2X2X2X2X2X2X2X2X2X2X2X2X2X2X2X2X2X2X2X",
"2X2X2X2X2X2X2X2X2X2X2X2X2X2X2X2X2X2X2X2X2Xo + y V C B b ' z.[.R.p.O.Q Q Q j # O 2X2X2X2X2X2X2X2X2X2X2X2X2X2X2X2X2X2X2X2X2X2X2X2X2X2X2X2X2X2X2X2X2X2X2X2X",
"2X2X2X2X2X2X2X2X2X2X2X2X2X2X2X2X2X2X2X2X2X= 8 y x v u 2 a ;.G.M.2.) ~ ( Q j % O 2X2X2X2X2X2X2X2X2X2X2X2X2X2X2X2X2X2X2X2X2X2X2X2X2X2X2X2X2X2X2X2X2X2X2X2X",
"2X2X2X2X2X2X2X2X2X2X2X2X2X2X2X2X2X2X2X2X= M O.6.y.g.u.-.^ L Y =.5.<.~ ~ W p % O 2X2X2X2X2X2X2X2X2X2X2X2X2X2X2X2X2X2X2X2X2X2X2X2X2X2X2X2X2X2X2X2X2X2X2X2X",
"2X2X2X2X2X2X2X2X2X2X2X2X2X2X2X2X2X2X2Xo * D t.S.!.'.R.M.$.d 2 Z 5.<.Q ~ Q p % O 2X2X2X2X2X2X2X2X2X2X2X2X2X2X2X2X2X2X2X2X2X2X2X2X2X2X2X2X2X2X2X2X2X2X2X2X",
"2X2X2X2X2X2X2X2X      o X X + # % & # o @ 5 C  .q.q.;.' v < < C <.<.( ( Q p # 2X2X2X2X2X2X2X2X2X2X2X2X2X2X2X2X2X2X2X2X2X2X2X2X2X2X2X2X2X2X2X2X2X2X2X2X2X",
"2X2X2X2X2X2X2X4 8 8 5 4 4 ; * $ # # $ $ 4 8 x K ' ] ' G s u g N E W W / Q j % + 2X2X2X2X2X2X2X2X2X2X2X2X2X2X2X2X2X2X2X2X2X2X2X2X2X2X2X2X2X2X2X2X2X2X2X2X",
"2X2X2X2X2X2X& { x.x.e.} T F l -     X w ! =.u.g.z.z.c.g.q.>.{ N i i c W / j % X # # @ X O X X O X + + X O 2X2X2X2X2X2X2X2X2X2X2X2X2X2X2X2X2X2X2X2X2X2X2X",
"2X2X2X2X2XX N P.<X<X.XH.3.( D q % # 8 / b.K.!.Q.T.K.T.E.Q.N.8.L u 2 a C W h # + % & * * * * * * * * * * * & 2X2X2X2X2X2X2X2X2X2X2X2X2X2X2X2X2X2X2X2X2X2X",
"2X2X2X2X# I A..X1X<X:X_.3.j - e W ..u.A.R.K.N.d.9.9.t.p.t.-.) ( { I G V m 5 # % 6 d b M v x x v j k j m x 7 & 2X2X2X2X2X2X2X2X2X2X2X2X2X2X2X2X2X2X2X2X2X",
"2X2X2XX M P.>X;XoX@X{.b.^ 5 1 ^ b.T.!.!.F.k.2.( E E ~ E W ^ ) 8.7.=.I v r > & * t B I ' ' ` ` { / ( ) } | v * X 2X2X2X2X2X2X2X2X2X2X2X2X2X2X2X2X2X2X2X2X",
"2X% 8 [ A.XX1X;XOX{.b.D w Z :.x.H.K.M.d.6.$.( W F E E z F 2.l.j.=.Y n u y 7 6 > < y G _ ] | { o.1.3.2.8.:.Z * X 2X2X2X2X2X2X2X2X2X2X2X2X2X2X2X2X2X2X2X2X",
"2X# m G.>X#XoX&X{.M.W $ 6 e.{.{.T.k.1.) W E W ~ / / ~ E ) l.T.f.K u t r t u u < & & r b I Y / @.7.9.9.a.i.P * o 2X2X2X2X2X2X2X2X2X2X2X2X2X2X2X2X2X2X2X2X",
"2X# c G.&X+X{.oXQ.^ : 9 P S.OX.XQ.d.1.@.) W W O.$./ ~ -.k.z.q.] b u t < > r u t 4 & , r v D ( 1.9.a.i.m.m./ ; o 2X2X2X2X2X2X2X2X2X2X2X2X2X2X2X2X2X2X2X2X",
"2X& p y././.E.[.j.i & T l.K.Q.!.F.s.5.7.5.o./ 1.3.( ( l.Q.f.K u t r t > & > t a u < # & t m W #.5.t.7.i.5.F * X 2X2X2X2X2X2X2X2X2X2X2X2X2X2X2X2X2X2X2X2X",
"2X# f u././.^.j. .a v r.L.N.s.d.s.7.3.7.7.2.#.@.o.o.2.J.`.u.n 2 & , > 1 7 > > r u < O & 8 s m Y =.:.=.{ N 8 2X2X2X2X2X2X2X2X2X2X2X2X2X2X2X2X2X2X2X2X2X2X",
"2X% f v.{.{.G.;.J n %.V.E.b.8.8.r.7.7.7.5.t.5.o./ o.i.J.W.v.I 7 # . % 1 y 1 % > y < % > t 7 y v I ] _ d & X 2X2X2X2X2X2X2X2X2X2X2X2X2X2X2X2X2X2X2X2X2X2X",
"2X& d x.OX|.V.*.G n %.V./.D.k.k.l.M.b.i.3.9.7.-.O.$.i.J.!.x.} i +   + , 6 > , r y 7 > > < < * 1 t a y > 2X2X2X2X2X2X2X2X2X2X2X2X2X2X2X2X2X2X2X2X2X2X2X2X",
"2X% c G.*XOXV.*.J G %.x././.Q.Q.Q.`.K.k.7.5.5.7.7.3.7.A.W.H.8.k % + & % % 6 u u y u u 6 # # % # # % # # 2X2X2X2X2X2X2X2X2X2X2X2X2X2X2X2X2X2X2X2X2X2X2X2X",
"2X# m J.>X@Xx.C g ] z.^.Q./.!./.!.`.Q.T.n.t.3.7.i.5.3.p.n.R.l.D % 6 c 6 @ i D B y B P d # X O O X 2X2X2X2X2X2X2X2X2X2X2X2X2X2X2X2X2X2X2X2X2X2X2X2X2X2X2X",
"2X# m G.;XoXs.8 = q.[.[.T.Q.T.T.W.W.R.Q.K.k.5.3.5.7.7.2.i.K.K.U % t _ a % f Q M t [ 3.W - o # % 2X2X2X2X2X2X2X2X2X2X2X2X2X2X2X2X2X2X2X2X2X2X2X2X2X2X2X2X",
"2X# m F.&X}.-.= = q.|.[.^.T.Q.T.W.~.T.D.M.A.l.3.#.p.b.2.@.S.W.' % , c 7 % 5 h w t w.(.4.- o # 2X2X2X2X2X2X2X2X2X2X2X2X2X2X2X2X2X2X2X2X2X2X2X2X2X2X2X2X2X",
"2X$ m P.oXL./ $ 6 e.[.[.T.T.Q.T.Q.!.J.s.7.F.K.:./ k.^.6.( l.K.| +   % % % @ % @ r h.%Xh.3   2X2X2X2X2X2X2X2X2X2X2X2X2X2X2X2X2X2X2X2X2X2X2X2X2X2X2X2X2X2X",
"2X# m P.oXH.^ - 5 q.[.[.T.W.R.Q.W.!.F.9.3.F.Q.2.^ x.!.6.^ d.T.| @   . + % + . . r C.=XZ.3   2X2X2X2X2X2X2X2X2X2X2X2X2X2X2X2X2X2X2X2X2X2X2X2X2X2X2X2X2X2X",
"2X& m J.@XL.~ $ 6 e.[.'.T.W.W.T.~.!.P.p.7.F.P.4.~ k.T.7./ l.^.| @   % % % @ % @ t h.%Xh.>   2X2X2X2X2X2X2X2X2X2X2X2X2X2X2X2X2X2X2X2X2X2X2X2X2X2X2X2X2X2X",
"2X% m H.oXL.~ # 4 e.+X[.^.T.R.W.R.Q.T.S.n.M.l.3.@.p.l.2.@.S.Q.' % > k 8 % 1 x 1 > ,.Y.4.3 o 2X2X2X2X2X2X2X2X2X2X2X2X2X2X2X2X2X2X2X2X2X2X2X2X2X2X2X2X2X2X",
"2X% m P.oXL.~ $ 4 e.}.'.W.W.R.W.W.W.W.!.T.l.5.3.7.7.7.2.9.K.U.U % e Q h % x K b 7 ! w.W * . 2X2X2X2X2X2X2X2X2X2X2X2X2X2X2X2X2X2X2X2X2X2X2X2X2X2X2X2X2X2X",
"2X% m P.XXH.( f s ..x.U.Q./.!.!.!.`.Q.K.n.i.3.7.9.5.3.p.N.L.n.Z % 5 M 6 . , n ] w.w.1.z & X 2X2X2X2X2X2X2X2X2X2X2X2X2X2X2X2X2X2X2X2X2X2X2X2X2X2X2X2X2X2X",
"2X% m P.XXH.=.' K K %.V./.!.W.W.Q.!.U.k.5.5.5.5.7.2.7.S.Q.D.8.k @ X > @ + @ u f. X(.( e $ @ 2X2X2X2X2X2X2X2X2X2X2X2X2X2X2X2X2X2X2X2X2X2X2X2X2X2X2X2X2X2X",
"2X% m J.@XE.t.%.K n  .V.!.F.k.l.n.N.l.i.3.5.r.2.O.$.i.K.!.x.} a +     & h x V `.,X(.M $ # 2X2X2X2X2X2X2X2X2X2X2X2X2X2X2X2X2X2X2X2X2X2X2X2X2X2X2X2X2X2X2X",
"2X# c G.;X|.A.*.H G %.V.Q.b.3.3.7.9.7.7.7.9.6.o.~ o.i.K.W.v.I 7 @ o % M 1.8.5.].*Xh.-   2X2X2X2X2X2X2X2X2X2X2X2X2X2X2X2X2X2X2X2X2X2X2X2X2X2X2X2X2X2X2X2X",
"2X# c P.:XXXF.e.L t b r.L.N.s.s.s.7.2.7.7.3.#.O.o.) 2.D.W.u.n < > x &.Z.(.H.m.n.h.R @   2X2X2X2X2X2X2X2X2X2X2X2X2X2X2X2X2X2X2X2X2X2X2X2X2X2X2X2X2X2X2X2X",
"2X& m G.-X+XK.b./ 4 * W b.J.Q.!.F.s.8.7.5.o./ #.8.) ) b.W.g.H 2 y w. X*X%XE.9.^ x 4 # @ 2X2X2X2X2X2X2X2X2X2X2X2X2X2X2X2X2X2X2X2X2X2X2X2X2X2X2X2X2X2X2X2X",
"2X# h n.OX[.R.H.t.F q q P A.OX.XQ.d.1.@.) W W O.-./ ~ 7.A.A.q.n b I.,X<X=XI.^ 8 @ X % 2X2X2X2X2X2X2X2X2X2X2X2X2X2X2X2X2X2X2X2X2X2X2X2X2X2X2X2X2X2X2X2X2X",
"2X% d v.[.!.Q.Q.H.k.Q - 6 e.|.{.K.l.-.( W W ~ ^ ~ W ~ @.i.K.^.;._ Z.*X,X%Xh.a & # # 2X2X2X2X2X2X2X2X2X2X2X2X2X2X2X2X# # # O X O + # X O O O O X O @ # # ",
"2X# f u./.Q.!.{.[.H.$.l i L q.n.K.D.M.s.4.#.( E F F E Q O.p.l.e.,.h.I.I.h.R , . # 2X2X2X2X2X2X2X2X2X2X2X2X2X2X2X2X+ & i C { ..{ T I  .=.=.&.&.,.>.P 7 # ",
"2X% d y.'.Q.!.OX{.b.1.8.} 0 4 / M.K./.!.D.k.1.( E W E W ~ ~ ) 2.7.:.| K x 6 & # 2X2X2X2X2X2X2X2X2X2X2X2X2X2XX X X @ > R t.E.|.).n.S.}..X.X+X|.oX&XC.g % ",
"2X% d V.oX{.}.XX.XL.N.M.2.p $ e T } e.S.R.K.M.s.7.7.t.t.7.#.) } { H s y r * # 2X2X2X2X2X2X2X2X2X2X2X2X2X2X8 C Y L c r m &.x.W.P.x.k.C.G.G.A.A.F.K.w.i % ",
"2X% m J.1X&X.X.XoX.X[.b.2./ A 5 & + w } b.L.!.Q.W.T.T.Q.Q.N.8.D u 1 u N W p & 2X2X2X2X2X2X2X2X2XX o o   . V l./.^.>.s < r b '  .%.I i 4 7 8 8 8 8 4 & % ",
"2X% w &.Y.oX>X#X#X;X.XN.1.O.W p * @ 4 d ^ >.y.c.z.x.z.c.y.:.X.C a y g W / h # X 2X2X2X2X2X2X2X5 M L C m M :.'.&XOXV.^ V I  .;.;.] x +             X # # ",
"2X2X2X# L !.,X-X.X#X{.n.1.( Q E F L V t 4 7 x J ] ] ` G s u g N F W W / W p # X # # # O #   o C z.T.A.x.V.^./.[.[.D.9.t.G./.'.V.*.v & X 2X2X2X2X2X2X2X2X",
"2X2X2X2X* { T.XX1X,XoXD.3.( ~ ( +.=._ 6 X 4 C ..0.e.>.` v < < M O.O./ ( W h & % * * & < 7 4 f >.[.oX|.|..X[.K.G.V.e.} $.y.z.j.:.L y & 2X2X2X2X2X2X2X2X2X",
"2X2X2X2X2X# L T.<X<XXXH.3.o.( ( o..._ < $ N 9.N.Q.`.T.M.#.s 1 Z 2.<.Q ~ Q M 7 2 t 7 7 a H Y $.k./.{.[.{.{.R.b.7.;.J 0 ; 0 i 0 8 4 * 2X2X2X2X2X2X2X2X2X2X",
"2X2X2X2X2X2X* =.T.P.j.-.W A M z A C x > $ l =.r.v.c.v.:.X.D U :.d.5.( ~ Q D v a u u x G ' -.p.b.V.V.V.c.y.-.^ D v 6 # o o   o . X 2X2X2X2X2X2X2X2X2X2X2X",
"2X2X2X2X2X2X2X7 i f w 8 4 4 - ; ; 4 > 2X2X; 8 a x v a 7 s ..G.E.J.k.<.( Q Q W m u x K _ _ =.i.7.*.*.*.K w ; 4 ; * & 2X2X2X2X2X2X2X2X2X2X2X2X2X2X2X2X2X2X",
"2X2X2X2X2X2X2X2X      o X X @ X X X # 2X2X  X a I I V s K c.|..XQ.D.s.#.W / / M t b ' ' ' =.:.X.b g v < .   X X X 2X2X2X2X2X2X2X2X2X2X2X2X2X2X2X2X2X2X2X",
"2X2X2X2X2X2X2X2X2X2X2X2X2X2X2X2X2X2X2X2X2X  * ..^.K.x.j.x.].XX{.Q.W.F.7.W Q ~ M y b ` ] ' %. .B - % * & 2X2X2X2X2X2X2X2X2X2X2X2X2X2X2X2X2X2X2X2X2X2X2X2X",
"2X2X2X2X2X2X2X2X2X2X2X2X2X2X2X2X2X2X2X2X2X2X> { A.E.[.+X.XXXXX{.!.[.!.p.} ~ / M u x H H V G b 8 # o X 2X2X2X2X2X2X2X2X2X2X2X2X2X2X2X2X2X2X2X2X2X2X2X2X2X",
"2X2X2X2X2X2X2X2X2X2X2X2X2X2X2X2X2X2X2X2X2X2X2X* d o.N.}.#X#XXX.X.X}.W.k.2.@./ N u u s y < * < & 2X2X2X2X2X2X2X2X2X2X2X2X2X2X2X2X2X2X2X2X2X2X2X2X2X2X2X2X",
"2X2X2X2X2X2X2X2X2X2X2X2X2X2X2X2X2X2X2X2X2X2X2X2X  5 } F.#X;X&X;X-X.X`.S.p.o.F d 7 6 < & X X X 2X2X2X2X2X2X2X2X2X2X2X2X2X2X2X2X2X2X2X2X2X2X2X2X2X2X2X2X2X",
"2X2X2X2X2X2X2X2X2X2X2X2X2X2X2X2X2X2X2X2X2X2X2X2X2XX w e.|.>X:X1X;XXX[.H.i.^ d 4 & & $ % 2X2X2X2X2X2X2X2X2X2X2X2X2X2X2X2X2X2X2X2X2X2X2X2X2X2X2X2X2X2X2X2X",
"2X2X2X2X2X2X2X2X2X2X2X2X2X2X2X2X2X2X2X2X2X2X2X2X2X2X@ C y.A.A.F.A.l.y.:./ m 1 % O # # 2X2X2X2X2X2X2X2X2X2X2X2X2X2X2X2X2X2X2X2X2X2X2X2X2X2X2X2X2X2X2X2X2X",
"2X2X2X2X2X2X2X2X2X2X2X2X2X2X2X2X2X2X2X2X2X2X2X2X2X2X2X5 f m k k v d d f 8 4 & % 2X2X2X2X2X2X2X2X2X2X2X2X2X2X2X2X2X2X2X2X2X2X2X2X2X2X2X2X2X2X2X2X2X2X2X2X",
"2X2X2X2X2X2X2X2X2X2X2X2X2X2X2X2X2X2X2X2X2X2X2X2X2X2X2X% % % % # % % # # # # % % 2X2X2X2X2X2X2X2X2X2X2X2X2X2X2X2X2X2X2X2X2X2X2X2X2X2X2X2X2X2X2X2X2X2X2X2X",
"2X2X2X2X2X2X2X2X2X2X2X2X2X2X2X2X2X2X2X2X2X2X2X2X2X2X2X2X2X2X2X2X2X2X2X2X2X2X2X2X2X2X2X2X2X2X2X2X2X2X2X2X2X2X2X2X2X2X2X2X2X2X2X2X2X2X2X2X2X2X2X2X2X2X2X2X"
};
