/* XPM */
static xpm_row_t const player_right0[] = {
/* columns rows colors chars-per-pixel */
"78 67 197 2 ",
"   c #020103",
".  c #0B060D",
"X  c #0C090E",
"o  c #070309",
"O  c #0F0C10",
"+  c #110E13",
"@  c #151416",
"#  c #161318",
"$  c #1A161C",
"%  c #1B1A1C",
"&  c #161813",
"*  c #211B1F",
"=  c #1E201B",
"-  c #24251D",
";  c #1F1C21",
":  c #221D25",
">  c #251E2A",
",  c #211722",
"<  c #242224",
"1  c #272825",
"2  c #282926",
"3  c #27222A",
"4  c #2A252D",
"5  c #2B2C2A",
"6  c #292627",
"7  c #2F322C",
"8  c #31332E",
"9  c #33382F",
"0  c #2C2631",
"q  c #2F2A33",
"w  c #312C34",
"e  c #342D39",
"r  c #302636",
"t  c #353434",
"y  c #363931",
"u  c #393C35",
"i  c #39353B",
"p  c #3C3B3B",
"a  c #373438",
"s  c #3C4137",
"d  c #3E433A",
"f  c #42463C",
"g  c #464C3F",
"h  c #3D3642",
"j  c #3F3B41",
"k  c #423D45",
"l  c #443E49",
"z  c #434343",
"x  c #494C46",
"c  c #46424A",
"v  c #49434D",
"b  c #4B4B4B",
"n  c #474A43",
"m  c #4D5346",
"M  c #4F5549",
"N  c #4F5A44",
"B  c #51564B",
"V  c #545C4C",
"C  c #4C4552",
"Z  c #4E4A53",
"A  c #514C55",
"S  c #544D5A",
"D  c #555455",
"F  c #595E54",
"G  c #56515A",
"H  c #5A555E",
"J  c #5C5A5D",
"K  c #565B51",
"L  c #59624F",
"P  c #57614D",
"I  c #5C6653",
"U  c #5F6855",
"Y  c #606A57",
"T  c #61675A",
"R  c #636C5A",
"E  c #66705D",
"W  c #68725E",
"Q  c #5F5963",
"!  c #5A5661",
"~  c #615B65",
"^  c #645E68",
"/  c #5F6160",
"(  c #656465",
")  c #6A6F64",
"_  c #67626A",
"`  c #6A656D",
"'  c #6C6C6D",
"]  c #656C67",
"[  c #6B7362",
"{  c #6E7963",
"}  c #6E7469",
"|  c #677067",
" . c #707A66",
".. c #71766B",
"X. c #747D6C",
"o. c #6C6670",
"O. c #6E6A73",
"+. c #636771",
"@. c #726D77",
"#. c #737372",
"$. c #767C70",
"%. c #767379",
"&. c #79797B",
"*. c #76806D",
"=. c #79836D",
"-. c #7C8473",
";. c #7E8678",
":. c #818977",
">. c #81867C",
",. c #838B7C",
"<. c #86907E",
"1. c #7F7A83",
"2. c #787884",
"3. c #817F83",
"4. c #7C8789",
"5. c #848484",
"6. c #888E82",
"7. c #8B8C8B",
"8. c #888788",
"9. c #8B9284",
"0. c #8E9389",
"q. c #8F9985",
"w. c #91968C",
"e. c #92998C",
"r. c #898990",
"t. c #8B989D",
"y. c #939394",
"u. c #969B91",
"i. c #999D95",
"p. c #9B9B9C",
"a. c #98959B",
"s. c #9BA295",
"d. c #9EA19A",
"f. c #9BA798",
"g. c #A1A49D",
"h. c #A3AA9E",
"j. c #929DA5",
"k. c #9F9DA2",
"l. c #8F9BA2",
"z. c #A09FA2",
"x. c #9CA6A3",
"c. c #9CAAB0",
"v. c #A3A3A4",
"b. c #A6AAA3",
"n. c #A9ACA6",
"m. c #A7A4A9",
"M. c #A8A6AA",
"N. c #ABADAA",
"B. c #ABB2A5",
"V. c #AEB2AB",
"C. c #AABAAF",
"Z. c #B1B5AE",
"A. c #B3BBAE",
"S. c #AEAFB1",
"D. c #B0AFB2",
"F. c #AFB0B3",
"G. c #A6B6BA",
"H. c #B5B5B5",
"J. c #B5BAB3",
"K. c #B8BCB4",
"L. c #B7B5B8",
"P. c #B8B7B8",
"I. c #BBBBBB",
"U. c #B5B9B8",
"Y. c #BEC5BB",
"T. c #ACC2BC",
"R. c #BDBFC0",
"E. c #C0BFC2",
"W. c #BDC0C1",
"Q. c #B7CACB",
"!. c #BED2D7",
"~. c #BCD0CF",
"^. c #C3C3C4",
"/. c #CBCCCC",
"(. c #C7C8C8",
"). c #CDCFD1",
"_. c #CED1D1",
"`. c #D3D5D5",
"'. c #D5D7D9",
"]. c #D6D9DA",
"[. c #DADDDD",
"{. c #D5D8D7",
"}. c #DCE1DE",
"|. c #DCDEE1",
" X c #DEE0E2",
".X c #D2ECF3",
"XX c #DCF7FC",
"oX c #E1E4E5",
"OX c #E6E9EA",
"+X c #E9ECEC",
"@X c #E2E4E8",
"#X c #E9F7F9",
"$X c #F5FCFD",
"%X c #FAFEFF",
"&X c #F1F5F6",
"*X c #ECEFF0",
"=X c None",
/* pixels */
"=X=X=X=X=X=X=X=X=X=X=X=X=X=X=X=X=X=X=X=X=X=X=X=X=X=X=X=X=X=X=X=X=X=X=X=X=X=X=X=X=X=X=X=X=X=X=X=X=X=X=X=X=X=X=X=X=X=X=X=X=X=X=X=X=X=X=X=X=X=X=X=X=X=X=X=X=X=X",
"=X=X=X=X=X=X=X=X=X=X=X=X=X=X=X=X=X=X=X=X=X=X=X=X=X=X=X=X@ @ @ @ @ @ @ @ @ =X=X=X=X=X=X=X=X=X=X=X=X=X=X=X=X=X=X=X=X=X=X=X=X=X=X=X=X=X=X=X=X=X=X=X=X=X=X=X=X=X",
"=X=X=X=X=X=X=X=X=X=X=X=X=X=X=X=X=X=X=X=X=X=X=X=X=X=X=X=Xp z z j p p p u 5 =X=X=X=X=X=X=X=X=X=X=X=X=X=X=X=X=X=X=X=X=X=X=X=X=X=X=X=X=X=X=X=X=X=X=X=X=X=X=X=X=X",
"=X=X=X=X=X=X=X=X=X=X=X=X=X=X=X=X=X=X=X=X=X=X=X=X=X=X=XD y.N.N.p.7.y.y.5.[ u =X=X=X=X=X=X=X=X=X=X=X=X=X=X=X=X=X=X=X=X=X=X=X=X=X=X=X=X=X=X=X=X=X=X=X=X=X=X=X=X",
"=X=X=X=X=X=X=X=X=X=X=X=X=X=X=X=X=X=X=X=X=X=X=X=X=X=Xu 8.{.*XOX|././.(.A.0.V 2 =X=X=X=X=X=X=X=X=X=X=X=X=X=X=X=X=X=X=X=X=X=X=X=X=X=X=X=X=X=X=X=X=X=X=X=X=X=X=X",
"=X=X=X=X=X=X=X=X=X=X=X=X=X=X=X=X=X=X=X=X=X=X=X=X=Xu ..B.].oX|.[.`./.I.h.,.[ M 7 =X=X=X=X=X=X=X=X=X=X=X=X=X=X=X=X=X=X=X=X=X=X=X=X=X=X=X=X=X=X=X=X=X=X=X=X=X=X",
"=X=X=X=X=X=X=X=X=X=X=X=X=X=X=X=X=X=X=X=X=X=X=X=X% I h.(.[.|.'.[.].).P.s.,.=.W s % =X=X=X=X=X=X=X=X=X=X=X=X=X=X=X=X=X=X=X=X=X=X=X=X=X=X=X=X=X=X=X=X=X=X=X=X=X",
"=X=X=X=X=X=X=X=X=X=X=X=X=X=X=X=X=X=X=X=X=X=X=X=X+ ( K.`.[.[.[.[.[.).I.g.,.=.R u @ =X=X=X=X=X=X=X=X=X=X=X=X=X=X=X=X=X=X=X=X=X=X=X=X=X=X=X=X=X=X=X=X=X=X=X=X=X",
"=X=X=X=X=X=X=X=X=X=X=X=X=X=X=X=X=X=X=X=X=X=X=X=Xb 7.(.[.[.{.).`.).^.n.w.-.{ Y u @ =X=X=X=X=X=X=X=X=X=X=X=X=X=X=X=X=X=X=X=X=X=X=X=X=X=X=X=X=X=X=X=X=X=X=X=X=X",
"=X=X=X=X=X=X=X=X=X=X=X=X=X=X=X=X=X=X=X=X=X=X=X] M.E.(.oXOX`.I.^.E.N.0.X.W W Y u % =X=X=X=X=X=X=X=X=X=X=X=X=X=X=X=X=X=X=X=X=X=X=X=X=X=X=X=X=X=X=X=X=X=X=X=X=X",
"=X=X=X=X=X=X=X=X=X=X=X=X=X=X=X=X=X=X=X=X=X=X% ' M.v.y.z.S.L.P.Z.b.e.:.E I Y Y s @ =X=X=X=X=X=X=X=X=X=X=X=X=X=X=X=X=X=X=X=X=X=X=X=X=X=X=X=X=X=X=X=X=X=X=X=X=X",
"=X=X=X=X=X=X=X=X=X=X=X=X=X=X=X=X=X=X=X=X=X=X+ w v c k i G a.^.Z.6.<.,. .Y R Y s @ =X=X=X=X=X=X=X=X=X=X=X=X=X=X=X=X=X=X=X=X=X=X=X=X=X=X=X=X=X=X=X=X=X=X=X=X=X",
"=X=X=X=X=X=X=X=X=X=X=X=X=X=X=X=X=X=X=X=X=X=Xt k l c k w i O.p.e.:.:.=.[ Y W R s % =X=X=X=X=X=X=X=X=X=X=X=X=X=X=X=X=X=X=X=X=X=X=X=X=X=X=X=X=X=X=X=X=X=X=X=X=X",
"=X=X=X=X=X=X=X=X=X=X=X=X=X=X=X=X=X=X=X=X=Xx :.w.z.m.p.6...D A ' ,.=.E Y R W W f @ =X=X=X=X=X=X=X=X=X=X=X=X=X=X=X=X=X=X=X=X=X=X=X=X=X=X=X=X=X=X=X=X=X=X=X=X=X",
"=X=X=X=X=X=X=Xt n c j t 5 2 1 2 5 5 < + % x >.g.D.H.N.u.} a : B :.X.I U Y I m 8 =X=X=X=X=X=X=X=X=X=X=X=X=X=X=X=X=X=X=X=X=X=X=X=X=X=X=X=X=X=X=X=X=X=X=X=X=X=X",
"=X=X=X=X=X=X=X2.I.I.x.>.Y V m V F J v % X * k H O.%.^ A e , > x  . .R E Y g 2 =X=X=X=X=X=X=X=X=X=X=X=X=X=X=X=X=X=X=X=X=X=X=X=X=X=X=X=X=X=X=X=X=X=X=X=X=X=X=X",
"=X=X=X=X=X< ( W.%X%X[.V.:.*.R L B B v t 5 i C Q o.O._ G v l z b B B V R Y y X =X=X=X=X=X=X=X=X=X=X=X=X=X=X=X=X=X=X=X=X=X=X=X=X=X=X=X=X=X=X=X=X=X=X=X=X=X=X=X",
"=X=X=X=X=X&.^.'.oX+X_.h.=.=.U 9 @ X ; f ..7.k.m.M.M.m.m.p.7...x w 4 i F E f @ =X=X=X=X=X=X=X=X=X=X=X=X=X=X=X=X=X=X=X=X=X=X=X=X=X=X=X=X=X=X=X=X=X=X=X=X=X=X=X",
"=X=X=X1 ' ^.$XoX{. X_.h.=.I f 5 < < f #.h.K.K.J.N.N.V.J.N.s.-.F h r e b V u @ =X=X=X=X=X=X=X=X=X=X=X=X=X=X=X=X=X=X=X=X=X=X=X=X=X=X=X=X=X=X=X=X=X=X=X=X=X=X=X",
"=X=X=X5.(.[.oX[.].oX{.K.X.8 & s } 5.p.H.K.n.e.>.X.X.=.=.$.[ R { X.( S v p < @ =X=X=X=X=X=X=X=X=X=X=X=X=X=X=X=X=X=X=X=X=X=X=X=X=X=X=X=X=X=X=X=X=X=X=X=X=X=X=X",
"=X@ z H.&X[.).'.{.{.P.6.K 8 i #.b.K.I.J.g.9.{ U V V P P F R X.5.,.#.S h 0 : % =X=X=X=X=X=X=X=X=X=X=X=X=X=X=X=X=X=X=X=X=X=X=X=X=X=X=X=X=X=X=X=X=X=X=X=X=X=X=X",
"=X@ p p._.^.^.].{.Y.,.u 6 ^ p.N.V.h.0.-...[ R I F I I g L 6.N.y.` C i e e r 4 % =X=X=X=X=X=X=X=X=X=X=X=X=X=X=X=X=X=X=X=X=X=X=X=X=X=X=X=X=X=X=X=X=X=X=X=X=X=X",
"=X@ a =X=XL.I.'.^.<.g = t y.`.`.J.u.*.E I I I R E R Y R $.g.M.3.C e 0 4 4 e e 4 % =X=X=X=X=X=X=X=X=X=X=X=X=X=X=X=X=X=X=X=X=X=X=X=X=X=X=X=X=X=X=X=X=X=X=X=X=X",
"=X@ a 7.^.P.R.`.n.b = s ..n.(./.J.u.-.-...Y I X.:.E T ,.v.y.O.S h e r : $ 4 e e 4 : =X=X=X=X=X=X=X=X=X=X=X=X=X=X=X=X=X=X=X=X=X=X=X=X=X=X=X=X=X=X=X=X=X=X=X=X",
"=X@ p y./.^.H.H.3.w : ) h.B.V.D.b.0.:.,.,.X.W X.:.W  .h.E.3.l r 3 3 0 : $ : 4 e e 3 @ =X=X=X=X=X=X=X=X=X=X=X=X=X=X=X=X=X=X=X=X=X=X=X=X=X=X=X=X=X=X=X=X=X=X=X",
"=X@ z m.}./.m.5.~ k D y.Z.i.<.6.6.:.-.,.,.:.$.[ R W :.V.L.8.S r $ @ $ 3 0 : @ 3 w 3 @ =X=X=X=X=X=X=X=X=X=X=X=X=X=X=X=X=X=X=X=X=X=X=X=X=X=X=X=X=X=X=X=X=X=X=X",
"=X@ z N.+X`.v.o.l C O.m.I.g.,.<.9.0.0.,.,.<.,.[ E  .6.Z.H.y.J q + o + : q : $ 3 w 4 % =X=X=X=X=X=X=X=X=X=X=X=X=X=X=X=X=X=X=X=X=X=X=X=X=X=X=X=X=X=X=X=X=X=X=X",
"=X@ k N.OX`.M.%.S l ^ p.E.Z.n.n.n.Z.b.0.-.:.,.:.$.=.6.N.I.g.} p + o O @ ; : > 0 w 0 : % =X=X=X=X=X=X=X=X=X=X=X=X=X=X=X=X=X=X=X=X=X=X=X=X=X=X=X=X=X=X=X=X=X=X",
"=X@ z N. X(.y.~ l ~ 1.g.I.E.I.I.I.E.H.g.0.,.>.,.9.:.,.i.V.V.9.x @ # 4 @ + 4 k p w p z q @ =X=X=X=X=X=X=X=X=X=X=X=X=X=X=X=X=X=X=X=X=X=X=X=X=X=X=X=X=X=X=X=X=X",
"=X@ k F.}.T. .8 e %.D.H.P.P.P.P.P.P.P.P.n.0.=.>.<.:.:.,.u.Z.b.D + q S q @ u I b w Z ) n % =X=X=X=X=X=X=X=X=X=X=X=X=X=X=X=X=X=X=X=X=X=X=X=X=X=X=X=X=X=X=X=X=X",
"=X@ z H.[.B.L & > 8._.^.H.H.P.H.L.L.J.J.N.d.9.:.:.6.0.-.=.N.P./ # q S e @ y V p q ' f.| % =X=X=X=X=X=X=X=X=X=X=X=X=X=X=X=X=X=X=X=X=X=X=X=X=X=X=X=X=X=X=X=X=X",
"=X@ z F.}.B.Y % 6 8.(.E.P.H.H.P.L.I.H.i.w.b.b.-.W w.n.>.) g.H.^ + + 4 ; @ % 2 : q r.~.4.% =X=X=X=X=X=X=X=X=X=X=X=X=X=X=X=X=X=X=X=X=X=X=X=X=X=X=X=X=X=X=X=X=X",
"=X@ z H.}.B.T * 6 5.^.I.H.H.H.P.P.I.D.9.:.V.P.-.I a.E.>.I i.H.( @   O O # O O . 0 j..Xt.; =X=X=X=X=X=X=X=X=X=X=X=X=X=X=X=X=X=X=X=X=X=X=X=X=X=X=X=X=X=X=X=X=X",
"=X& k D.}.B.R = 6 5.^.E.P.P.H.H.P.I.D.<.:.N.P.&.Y i.I.>.I i.D.( +   . @ # O O . r j..Xt.; =X=X=X=X=X=X=X=X=X=X=X=X=X=X=X=X=X=X=X=X=X=X=X=X=X=X=X=X=X=X=X=X=X",
"=X@ z D.[.B.T = 6 5./.E.H.H.P.H.P.I.D.d.w.b.b.-.E w.n.>.E g.H.^ + @ 2 % # ; 4 ; 0 4.Q.4.% =X=X=X=X=X=X=X=X=X=X=X=X=X=X=X=X=X=X=X=X=X=X=X=X=X=X=X=X=X=X=X=X=X",
"=X@ z Z.{.B.L & < 7./.^.H.H.H.H.H.P.H.H.N.d.6.:.:.<.0.-.=.V.P.~ # 8 K y # e C 0 ; I f.| @ =X=X=X=X=X=X=X=X=X=X=X=X=X=X=X=X=X=X=X=X=X=X=X=X=X=X=X=X=X=X=X=X=X",
"=X@ z F. XJ...8 w %.D.H.P.P.P.P.P.I.P.P.n.0.:.:.,.>.:.,.u.Z.m.D @ 9 F 9 + 0 S ! ! | *.m % =X=X=X=X=X=X=X=X=X=X=X=X=X=X=X=X=X=X=X=X=X=X=X=X=X=X=X=X=X=X=X=X=X",
"=X@ z N.@X(.y.~ c H 1.v.I.E.I.E.I.E.P.g.9.,.:.,.<.:.,.d.V.B.9.x + $ 6 @ . + h 2.G.x.{ d @ =X=X=X=X=X=X=X=X=X=X=X=X=X=X=X=X=X=X=X=X=X=X=X=X=X=X=X=X=X=X=X=X=X",
"=X@ k N.OX`.z.3.S l ^ p.E.Z.n.n.n.D.h.0.:.:.>.:.-.=.<.V.I.z.} p +   o @ 5 4 h c.XXT.B - =X=X=X=X=X=X=X=X=X=X=X=X=X=X=X=X=X=X=X=X=X=X=X=X=X=X=X=X=X=X=X=X=X=X",
"=X@ k S.+X'.z.O.l Z O.m.I.g.,.6.<.0.0.,.:.<.,.[ E  .9.D.H.y.J r +     8 T R | Q.XXx.5 =X=X=X=X=X=X=X=X=X=X=X=X=X=X=X=X=X=X=X=X=X=X=X=X=X=X=X=X=X=X=X=X=X=X=X",
"=X& j v. X/.n.8.! l D y.Z.i.,.6.<.,.:.:.,.:.=.[ R W >.N.J.8.S 0 @ ; c &.h.f.q.C.G.+.+ =X=X=X=X=X=X=X=X=X=X=X=X=X=X=X=X=X=X=X=X=X=X=X=X=X=X=X=X=X=X=X=X=X=X=X",
"=X@ p y./.^.H.H.4.q : ) n.V.M.N.h.0.:.:.>. .W $.:.W [ h.I.8.l , 4 ' G.!.~.C.q.$.! e @ =X=X=X=X=X=X=X=X=X=X=X=X=X=X=X=X=X=X=X=X=X=X=X=X=X=X=X=X=X=X=X=X=X=X=X",
"=X@ p 7.^.P.I.`.V.m = s X.b.(./.P.u.:.:. .Y Y  .:.R Y 0.M.a.o.k j l.XX$X.XC...p $ + =X=X=X=X=X=X=X=X=X=X=X=X=X=X=X=X=X=X=X=X=X=X=X=X=X=X=X=X=X=X=X=X=X=X=X=X",
"=X@ i =X=XL.I.'.W.6.g % t y.'.`.H.u.X.E Y F Y E W Y Y =.i.D.m.^ Z j.XX$XXXj.c % # =X=X=X=X=X=X=X=X=X=X=X=X=X=X=X=X=X=X=X=X=X=X=X=X=X=X=X=X=X=X=X=X=X=X=X=X=X",
"=X@ p p.`.^.^.'.{.Y.,.u 1 ( p.N.N.h.0.:.} W E Y L L Y R $.i.N.3.+.t.Q.!.G.Q > O =X=X=X=X=X=X=X=X=X=X=X=X=X=X=X=X=X=X=X=X=X=X=X=X=X=X=X=X=X=X=X=X=X=X=X=X=X=X",
"=X@ z H.&X[.).'.].{.K.9.B t p ..h.K.I.P.g.6.[ Y V V V L Y E $.:.5.8.2.o.Z e % =X=X=X=X=X=X=X=X=X=X=X=X=X=X=X=X=X=X=X=X=X=X=X=X=X=X=X=X=X=X=X=X=X=X=X=X=X=X=X",
"=X=X=X5.(.|.oX[.].@X{.A.X.8 & s ..5.p.D.K.h.w.:.X.X.$.$.X.E Y  ...J l e 4 % + =X=X=X=X=X=X=X=X=X=X=X=X=X=X=X=X=X=X=X$ 6 y k n z a p c v b n n b Z p < @ =X=X",
"=X=X=X1 ` ^.&XoX'.oX/.h.$.I f 5 < - f $.n.K.I.H.N.V.B.H.B.s.:.F j q r z M y @ =X=X=X=X=X=X=X=X=X=X=X=X=X=X=X=X=X=XO ; Z ;.N.U.N.0.u.U.(.W.R.W.(._.y.p & =X=X",
"=X=X=X=X=X&.^.'.oXOX_.h.-.=.I 9 @ X ; f ..7.k.m.M.M.m.m.p.7...x e 4 t F E f @ =X=X=X=X=X=X=X=X=X=X=X=X=X=X=Xi z p q 4 Z 5.D./.E.b.m.J.^.W.W.W.(._.a.p @ =X=X",
"=X=X=X=X=X< ] R.%X%X XV.:.*.E L B A v t 7 i C Q o.O.` G c l c x M B V R Y u @ X =X=X=X=X=X=X=X=X=X=X=X=X=Xp 5.n.i.` w > i D O.2.%._ Z z c n n b Z p ; @ =X=X",
"=X=X=X=X=X=X=X2.I.I.x.;.Y V N V I J v : X ; k H O.@.^ A t , > x { { R W U u @ $ % % @ : 6 6 5 t p p p q w #.I.oX`.p.D i l S ^ ` ~ i O   =X=X=X=X=X=X=X=X=X=X",
"=X=X=X=X=X=X=Xt c n j t 5 1 1 1 6 5 < O & x ,.d.S.L.N.u.} a > b =. .I R Y f > > 4 3 3 a v J E >.7.y.y.0.y.z.I././.n.>.>.k.D.L.p.@.j % o =X=X=X=X=X=X=X=X=X=X",
"=X=X=X=X=X=X=X=X=X=X=X=X=X=X=X=X=X=X=X=X=Xm -.u.k.m.p.6...G A #.e.,.R R U M j e e e h C ~ %.9.B.(.`././.).^.Z.n.M.7.X.;.a.m.g.5.! w =X=X=X=X=X=X=X=X=X=X=X=X",
"=X=X=X=X=X=X=X=X=X=X=X=X=X=X=X=X=X=X=X=X=X=Xt p l l k e p ' p.D.n.e.*.E Y I V z r j S G ! ..<.B.^.(.^././.I.h.7.3.H a 8 p z z a 5 =X=X=X=X=X=X=X=X=X=X=X=X=X",
"=X=X=X=X=X=X=X=X=X=X=X=X=X=X=X=X=X=X=X=X=X=XX w C v k e v 7.(.).P.n.q.X.U R E x r l ~ ~ ! ( &.0.v.M.m.z.i.>.) K c 4 =X=X=X=X=X=X=X=X=X=X=X=X=X=X=X=X=X=X=X=X",
"=X=X=X=X=X=X=X=X=X=X=X=X=X=X=X=X=X=X=X=X=X=X< ' M.m.y.7.y.M.I.I.L.I.N.;.L U R z r l Q ^ Q ( ` @.%.2.%.~ j 8 8 6 < =X=X=X=X=X=X=X=X=X=X=X=X=X=X=X=X=X=X=X=X=X",
"=X=X=X=X=X=X=X=X=X=X=X=X=X=X=X=X=X=X=X=X=X=X=X( N.^.(././.^.I.L.L.R.I.w.R R Y g r h S S S C v l k v l 4 =X=X=X=X=X=X=X=X=X=X=X=X=X=X=X=X=X=X=X=X=X=X=X=X=X=X",
"=X=X=X=X=X=X=X=X=X=X=X=X=X=X=X=X=X=X=X=X=X=X=X=Xb 7.(.{.`.{.).R.H.I.L.s.-.[ I n e e h k j e 1 : : < < =X=X=X=X=X=X=X=X=X=X=X=X=X=X=X=X=X=X=X=X=X=X=X=X=X=X=X",
"=X=X=X=X=X=X=X=X=X=X=X=X=X=X=X=X=X=X=X=X=X=X=X=X+ ( K.{.|. X[.(.I.I.L.g.,.*.Y x e > 4 4 3 % =X=X=X=X=X=X=X=X=X=X=X=X=X=X=X=X=X=X=X=X=X=X=X=X=X=X=X=X=X=X=X=X",
"=X=X=X=X=X=X=X=X=X=X=X=X=X=X=X=X=X=X=X=X=X=X=X=X% F h./.|. X'.`./.^.L.i.,.*.R x e : % @ % =X=X=X=X=X=X=X=X=X=X=X=X=X=X=X=X=X=X=X=X=X=X=X=X=X=X=X=X=X=X=X=X=X",
"=X=X=X=X=X=X=X=X=X=X=X=X=X=X=X=X=X=X=X=X=X=X=X=X=Xu ..B.].oX[.oX X`.I.g.<.[ F p 0 % =X=X=X=X=X=X=X=X=X=X=X=X=X=X=X=X=X=X=X=X=X=X=X=X=X=X=X=X=X=X=X=X=X=X=X=X",
"=X=X=X=X=X=X=X=X=X=X=X=X=X=X=X=X=X=X=X=X=X=X=X=X=X=Xu 8.{.+X+X&X+X[.^.V.0.R p 4 % =X=X=X=X=X=X=X=X=X=X=X=X=X=X=X=X=X=X=X=X=X=X=X=X=X=X=X=X=X=X=X=X=X=X=X=X=X",
"=X=X=X=X=X=X=X=X=X=X=X=X=X=X=X=X=X=X=X=X=X=X=X=X=X=X=XD y.N.N.S.N.v.y.>.[ z > $ =X=X=X=X=X=X=X=X=X=X=X=X=X=X=X=X=X=X=X=X=X=X=X=X=X=X=X=X=X=X=X=X=X=X=X=X=X=X",
"=X=X=X=X=X=X=X=X=X=X=X=X=X=X=X=X=X=X=X=X=X=X=X=X=X=X=X=Xp z k z z p p t 7 < $ =X=X=X=X=X=X=X=X=X=X=X=X=X=X=X=X=X=X=X=X=X=X=X=X=X=X=X=X=X=X=X=X=X=X=X=X=X=X=X",
"=X=X=X=X=X=X=X=X=X=X=X=X=X=X=X=X=X=X=X=X=X=X=X=X=X=X=X=X@ @ @ @ @ @ % @ @ @ @ =X=X=X=X=X=X=X=X=X=X=X=X=X=X=X=X=X=X=X=X=X=X=X=X=X=X=X=X=X=X=X=X=X=X=X=X=X=X=X",
"=X=X=X=X=X=X=X=X=X=X=X=X=X=X=X=X=X=X=X=X=X=X=X=X=X=X=X=X=X=X=X=X=X=X=X=X=X=X=X=X=X=X=X=X=X=X=X=X=X=X=X=X=X=X=X=X=X=X=X=X=X=X=X=X=X=X=X=X=X=X=X=X=X=X=X=X=X=X",
"=X=X=X=X=X=X=X=X=X=X=X=X=X=X=X=X=X=X=X=X=X=X=X=X=X=X=X=X=X=X=X=X=X=X=X=X=X=X=X=X=X=X=X=X=X=X=X=X=X=X=X=X=X=X=X=X=X=X=X=X=X=X=X=X=X=X=X=X=X=X=X=X=X=X=X=X=X=X"
};
