/* XPM */
static xpm_row_t const player_right1[] = {
/* columns rows colors chars-per-pixel */
"78 67 205 2 ",
"   c #030203",
".  c #09060A",
"X  c #0D0B0D",
"o  c #070608",
"O  c #100E0F",
"+  c #0F0D10",
"@  c #110E13",
"#  c #151415",
"$  c #1A1B17",
"%  c #161318",
"&  c #19161A",
"*  c #1C1B1C",
"=  c #211F1E",
"-  c #1F211D",
";  c #20211F",
":  c #25281E",
">  c #1E1B21",
",  c #1F1622",
"<  c #221D25",
"1  c #251E2A",
"2  c #281E2D",
"3  c #1F2020",
"4  c #242324",
"5  c #282A25",
"6  c #262229",
"7  c #2A252C",
"8  c #2C2B2B",
"9  c #272B21",
"0  c #302C2D",
"q  c #2E322A",
"w  c #31342E",
"e  c #36392F",
"r  c #2D2630",
"t  c #2E2932",
"y  c #312C35",
"u  c #342E39",
"i  c #343334",
"p  c #3A3E35",
"a  c #37313A",
"s  c #3A343D",
"d  c #3B3B3B",
"f  c #373935",
"g  c #403F3D",
"h  c #3E4239",
"j  c #3D4436",
"k  c #41443D",
"l  c #44493F",
"z  c #4A543F",
"x  c #3C3642",
"c  c #3F3B42",
"v  c #413C45",
"b  c #443D49",
"n  c #493F4F",
"m  c #424243",
"M  c #464A43",
"N  c #4A4D45",
"B  c #47434A",
"V  c #4A444D",
"C  c #4C4C4C",
"Z  c #504F4F",
"A  c #4A5144",
"S  c #4E524B",
"D  c #51554C",
"F  c #545C4C",
"G  c #4C4351",
"H  c #4E4953",
"J  c #514B54",
"K  c #534C5A",
"L  c #545353",
"P  c #5A5D55",
"I  c #56515B",
"U  c #59545D",
"Y  c #5C5D5C",
"T  c #575B53",
"R  c #4F525C",
"E  c #58624E",
"W  c #5C6553",
"Q  c #5F6856",
"!  c #5F635A",
"~  c #606A57",
"^  c #61655C",
"/  c #636C5B",
"(  c #67715D",
")  c #68725F",
"_  c #5C5562",
"`  c #5E5963",
"'  c #615B65",
"]  c #645D6B",
"[  c #5F6061",
"{  c #636463",
"}  c #696C64",
"|  c #66626A",
" . c #69646C",
".. c #6C6C6C",
"X. c #666B62",
"o. c #6B7463",
"O. c #6E7964",
"+. c #6F7569",
"@. c #717B67",
"#. c #747C6B",
"$. c #757B6D",
"%. c #6C6670",
"&. c #6B6D71",
"*. c #716C76",
"=. c #737374",
"-. c #767A72",
";. c #767379",
":. c #7C7C7C",
">. c #797878",
",. c #6E7376",
"<. c #76816D",
"1. c #78836D",
"2. c #7C8574",
"3. c #7F8876",
"4. c #7C837A",
"5. c #808977",
"6. c #81867B",
"7. c #848B7C",
"8. c #818775",
"9. c #88917F",
"0. c #797881",
"q. c #817E83",
"w. c #7A8184",
"e. c #848484",
"r. c #868C82",
"t. c #898E85",
"y. c #8C8B8C",
"u. c #87848A",
"i. c #8B9283",
"p. c #8F938A",
"a. c #8F9986",
"s. c #91968B",
"d. c #949A8D",
"f. c #8B8B93",
"g. c #928D96",
"h. c #899499",
"j. c #949394",
"k. c #969B92",
"l. c #999E95",
"z. c #99969C",
"x. c #9C9B9C",
"c. c #969399",
"v. c #908E8F",
"b. c #9BA295",
"n. c #9DA299",
"m. c #98A38D",
"M. c #A1A69C",
"N. c #A3A99D",
"B. c #969BA1",
"V. c #A19EA3",
"C. c #99A1A5",
"Z. c #8FA0A5",
"A. c #A3A3A4",
"S. c #A6ABA2",
"D. c #A9ACA5",
"F. c #ABADAC",
"G. c #A7A8A9",
"H. c #AAB2A4",
"J. c #AEB2AB",
"K. c #B1B4AD",
"L. c #B2B9AD",
"P. c #ADAFB2",
"I. c #A1AEB5",
"U. c #B0AFB1",
"Y. c #AAB7B6",
"T. c #B4B5B4",
"R. c #B6B9B3",
"E. c #B9BCB6",
"W. c #B6B6B8",
"Q. c #B8B7B8",
"!. c #BBBBBC",
"~. c #B8B7B7",
"^. c #B1AFAF",
"/. c #C0BFBF",
"(. c #AEC0B9",
"). c #BFC0BE",
"_. c #BDC6B6",
"`. c #BFBEC0",
"'. c #C1BFC2",
"]. c #B9CAC6",
"[. c #C4C4C4",
"{. c #CBCCCC",
"}. c #C6C9C7",
"|. c #CFD1D2",
" X c #C2D7DE",
".X c #D2D4D4",
"XX c #D6D9DA",
"oX c #DADDDD",
"OX c #D6D6D8",
"+X c #CDD0CE",
"@X c #DCE0DE",
"#X c #DBDEE1",
"$X c #C7DDE1",
"%X c #CAE2E7",
"&X c #DEE1E2",
"*X c #D5EBEF",
"=X c #D7F0F7",
"-X c #E2E5E5",
";X c #E4E7E9",
":X c #E6E9EA",
">X c #E8EBEC",
",X c #EBF7F8",
"<X c #F6F8FA",
"1X c #ECEFF1",
"2X c None",
/* pixels */
"2X2X2X2X2X2X2X2X2X2X2X2X2X2X2X2X2X2X2X2X2X2X2X2X2X2X2X2X2X2X2X2X2X2X2X2X2X2X2X2X2X2X2X2X2X2X2X2X2X2X2X2X2X2X2X2X2X2X2X2X2X2X2X2X2X2X2X2X2X2X2X2X2X2X2X2X2X2X",
"2X2X2X2X2X2X2X2X2X2X2X2X2X2X2X2X2X2X2X2X2X2X2X2X2X2X2X2X2X2X2X2X2X2X2X2X2X2X2X2X2X2X2X2X2X2X2X2X2X2X2X2X2X2X2X2X2X2X2X2X2X2X2X2X2X2X2X2X2X2X2X2X2X2X2X2X2X2X",
"2X2X2X2X2X2X2X2X2X2X2X2X2X2X2X2X2X2X2X2X2X2X2X2X2X# # # % % # # % # % 2X2X2X2X2X2X2X2X2X2X2X2X2X2X2X2X2X2X2X2X2X2X2X2X2X2X2X2X2X2X2X2X2X2X2X2X2X2X2X2X2X2X2X",
"2X2X2X2X2X2X2X2X2X2X2X2X2X2X2X2X2X2X2X2X2X2X2X2X2X4 d m d d d s p i q - 2X2X2X2X2X2X2X2X2X2X2X2X2X2X2X2X2X2X2X2X2X2X2X2X2X2X2X2X2X2X2X2X2X2X2X2X2X2X2X2X2X2X",
"2X2X2X2X2X2X2X2X2X2X2X2X2X2X2X2X2X2X2X2X2X2X2X2X# C s.G.A.c.u.y.y.5.~ w X 2X2X2X2X2X2X2X2X2X2X2X2X2X2X2X2X2X2X2X2X2X2X2X2X2X2X2X2X2X2X2X2X2X2X2X2X2X2X2X2X2X",
"2X2X2X2X2X2X2X2X2X2X2X2X2X2X2X2X2X2X2X2X2X2X2XX i r..X>X;XXX{.}.}.J.i.S 4 # 2X2X2X2X2X2X2X2X2X2X2X2X2X2X2X2X2X2X2X2X2X2X2X2X2X2X2X2X2X2X2X2X2X2X2X2X2X2X2X2X",
"2X2X2X2X2X2X2X2X2X2X2X2X2X2X2X2X2X2X2X2X2X2X& e } H.oX;X-XoXOX{.!.N.9.( A 8 # 2X2X2X2X2X2X2X2X2X2X2X2X2X2X2X2X2X2X2X2X2X2X2X2X2X2X2X2X2X2X2X2X2X2X2X2X2X2X2X",
"2X2X2X2X2X2X2X2X2X2X2X2X2X2X2X2X2X2X2X2X2Xo - P b.}.oX#XOXoXXX{.W.l.7.<./ j % X 2X2X2X2X2X2X2X2X2X2X2X2X2X2X2X2X2X2X2X2X2X2X2X2X2X2X2X2X2X2X2X2X2X2X2X2X2X2X",
"2X2X2X2X2X2X2X2X2X2X2X2X2X2X2X2X2X2X2X2X2X  > } R..X#XXXOX#XoX{.T.b.t.<.~ j # + 2X2X2X2X2X2X2X2X2X2X2X2X2X2X2X2X2X2X2X2X2X2X2X2X2X2X2X2X2X2X2X2X2X2X2X2X2X2X",
"2X2X2X2X2X2X2X2X2X2X2X2X2X2X2X2X2X2X2X2X2X  4 >.}.XX#X&X#XXX.X}.T.l.2.O.Q e # + 2X2X2X2X2X2X2X2X2X2X2X2X2X2X2X2X2X2X2X2X2X2X2X2X2X2X2X2X2X2X2X2X2X2X2X2X2X2X",
"2X2X2X2X2X2X2X2X2X2X2X2X2X2X2X2X2X2X2X2X2X  4 q..XOX|.&X;X.X/./.!.s.) ~ Q p % X 2X2X2X2X2X2X2X2X2X2X2X2X2X2X2X2X2X2X2X2X2X2X2X2X2X2X2X2X2X2X2X2X2X2X2X2X2X2X",
"2X2X2X2X2X2X2X2X2X2X2X2X2X2X2X2X2X2X2X2X2X  * { C.A.x.P.!.!.!.!.F.5.W W Q j % @ 2X2X2X2X2X2X2X2X2X2X2X2X2X2X2X2X2X2X2X2X2X2X2X2X2X2X2X2X2X2X2X2X2X2X2X2X2X2X",
"2X2X2X2X2X2X2X2X2X2X2X2X2X2X2X2X2X2X2X2X2Xo O y V V B b ' c.[.R.p.O.Q ~ Q p # X 2X2X2X2X2X2X2X2X2X2X2X2X2X2X2X2X2X2X2X2X2X2X2X2X2X2X2X2X2X2X2X2X2X2X2X2X2X2X",
"2X2X2X2X2X2X2X2X2X2X2X2X2X2X2X2X2X2X2X2X2X; 7 y s v s 6 a ;.D.n.3.( ~ ( Q p # # 2X2X2X2X2X2X2X2X2X2X2X2X2X2X2X2X2X2X2X2X2X2X2X2X2X2X2X2X2X2X2X2X2X2X2X2X2X2X",
"2X2X2X2X2X2X2X2X2X2X2X2X2X2X2X2X2X2X2X2X= l +.6.y.g.u.-.^ I Y =.5.#.~ ~ Q p # X 2X2X2X2X2X2X2X2X2X2X2X2X2X2X2X2X2X2X2X2X2X2X2X2X2X2X2X2X2X2X2X2X2X2X2X2X2X2X",
"2X2X2X2X2X2X2X2X2X2X2X2X2X2X2X2X2X2X2X. = D t.S.!./.R.M.$.d 2 L 5.1./ / Q p # @ 2X2X2X2X2X2X2X2X2X2X2X2X2X2X2X2X2X2X2X2X2X2X2X2X2X2X2X2X2X2X2X2X2X2X2X2X2X2X",
"2X2X2X2X2X2X2X2X      . X X X # % $ # o O 8 C  .q.q.;.' g < 1 N @.#.( ( Q e % 2X2X2X2X2X2X2X2X2X2X2X2X2X2X2X2X2X2X2X2X2X2X2X2X2X2X2X2X2X2X2X2X2X2X2X2X2X2X2X",
"2X2X2X2X2X2X2X4 8 8 8 4 4 - * $ # # % & 4 8 x H ' ] ' G a y s N E W W ~ Q j % O 2X2X2X2X2X2X2X2X2X2X2X2X2X2X2X2X2X2X2X2X2X2X2X2X2X2X2X2X2X2X2X2X2X2X2X2X2X2X",
"2X2X2X2X2X2X& { n.x.e.} T F l *     X e ! =.u.c.c.z.c.g.q.:.X.N i i m W ( h % O # O O O O O X @ X X + X O 2X2X2X2X2X2X2X2X2X2X2X2X2X2X2X2X2X2X2X2X2X2X2X2X2X",
"2X2X2X2X2X. N U.1X<XOXH.3.( D q # # w ^ b.K.!.W.T.T.R.~.Q.A.8.L u 2 u S W h # @ % * * * & * * * * * * * * * 2X2X2X2X2X2X2X2X2X2X2X2X2X2X2X2X2X2X2X2X2X2X2X2X",
"2X2X2X2X# U A.|.1X<X:X_.8.j ; e W ..u.A.R.K.N.d.9.7.t.p.i.-.} / { I G V m 5 # % 8 s m B v x v x k k h k x r % 2X2X2X2X2X2X2X2X2X2X2X2X2X2X2X2X2X2X2X2X2X2X2X",
"2X2X2XX B J.1X-XXX@X{.b.~ 5 4 ! b.L.!.!.F.k.2.( W E ~ W W ~ ( 8.7.=.I v t , # * t B _ ` ' ` ` { / ( ( } | v * X 2X2X2X2X2X2X2X2X2X2X2X2X2X2X2X2X2X2X2X2X2X2X",
"2X# 8 [ A.OX,X;XXX+Xb.D w C q.x.J.J.M.s.6.#.( W F E F z F 2.n.s.=.U b a y 7 6 > > y V _ ] { { o.1.8.2.8.:.S * X 2X2X2X2X2X2X2X2X2X2X2X2X2X2X2X2X2X2X2X2X2X2X",
"2X# m F.>X&XXX&X}.M.^ $ 7 q.{.{.T.k.2.( W W W ~ ~ ~ ~ E o.l.U.f.K x t r t u u < % & r b U Y / #.7.9.9.a.i.P > . 2X2X2X2X2X2X2X2X2X2X2X2X2X2X2X2X2X2X2X2X2X2X",
"2X& h G.-X+X{.oXR.^ : : P D.OX.XT.d.<.@.) W W O.-./ Q 2.j.z.u.' v y t < > r u t < * > 7 c L ~ 1.9.a.i.m.m./ - . 2X2X2X2X2X2X2X2X2X2X2X2X2X2X2X2X2X2X2X2X2X2X",
"2X# d y.[.!.!.[.j.u $ P l.K.Q.!.F.d.8.7.3.o.~ <.8.( ( n.Q.g.K a t r t > & < t a u < # % r m W $.7.r.7.i.5.T * . 2X2X2X2X2X2X2X2X2X2X2X2X2X2X2X2X2X2X2X2X2X2X",
"2X# i u././.^.c. .s v r.L.S.s.d.s.7.3.7.7.3.#.O.O.( 2.F.!.u.V 1 , , > 6 7 > > t u 4 # & r s M Y =.:.=.{ N 8 2X2X2X2X2X2X2X2X2X2X2X2X2X2X2X2X2X2X2X2X2X2X2X2X",
"2X# d y.}.}.G.*.H n  .V.T.l.8.8.7.7.7.7.7.r.5.o.Q O.r.J.W.g.K 7 # . % 6 u > % < t 4 # , t t t v I ' _ d % X 2X2X2X2X2X2X2X2X2X2X2X2X2X2X2X2X2X2X2X2X2X2X2X2X",
"2X# d n.XX|.A.*.G n %.V./.J.l.l.n.M.l.i.2.7.7.2.O.#.a.J.!.x.X.i @   + & 1 > , r y 7 , , 4 * > 4 t a y > 2X2X2X2X2X2X2X2X2X2X2X2X2X2X2X2X2X2X2X2X2X2X2X2X2X2X",
"2X& m G.-X.XA.*.J G %.x././.T.T.!.!.^.l.7.8.7.7.7.3.7.A.~.H.6.k % X & % % < y x y i y 6 # # # # # # # # 2X2X2X2X2X2X2X2X2X2X2X2X2X2X2X2X2X2X2X2X2X2X2X2X2X2X",
"2X% m F.>XoXx.H a | z.^.~./.Q./.!.!.!.K.n.t.2.7.i.7.3.p.M.R.b.D % , c 7 # i L m y B P h # X # O O 2X2X2X2X2X2X2X2X2X2X2X2X2X2X2X2X2X2X2X2X2X2X2X2X2X2X2X2X2X",
"2X# m G.:XoXj.8 < q.[.[.T.T.R.T.W.W.W.!.K.l.5.8.5.7.5.2.i.K.F.U % u _ a % f Q M y ` 7.! * . # % 2X2X2X2X2X2X2X2X2X2X2X2X2X2X2X2X2X2X2X2X2X2X2X2X2X2X2X2X2X2X",
"2X# m F.&X}.#.* = e.{.[.T.T.T.~.W.!.T.D.M.A.l.2.$.i.l.-.$.S.Q.' % , x 7 % 5 k t t 0.(.w.>   # 2X2X2X2X2X2X2X2X2X2X2X2X2X2X2X2X2X2X2X2X2X2X2X2X2X2X2X2X2X2X2X",
"2X# m P.@XL./ - 4 e.[.[.W.T.~.T.W.!.F.s.7.D.P.4./ l.T.6./ l.T.{ @   @ , % @ % @ t h.%Xh.3   2X2X2X2X2X2X2X2X2X2X2X2X2X2X2X2X2X2X2X2X2X2X2X2X2X2X2X2X2X2X2X2X",
"2X$ m U.XXH.W $ 7 e.[.'.T.R.T.T.T.!.F.i.3.F.Q.4.~ l.!.7.~ k.U.| @   . + % + . . t Z.=XZ.3   2X2X2X2X2X2X2X2X2X2X2X2X2X2X2X2X2X2X2X2X2X2X2X2X2X2X2X2X2X2X2X2X",
"2X% m J.@XL.~ - 6 e.[.[.T.T.W.T.W.!.F.a.7.F.T.2./ k.T.7./ l.T.{ @   , @ % @ % @ t h.%Xh.3   2X2X2X2X2X2X2X2X2X2X2X2X2X2X2X2X2X2X2X2X2X2X2X2X2X2X2X2X2X2X2X2X",
"2X% m U.@XL.~ # ; t.{.}.T.T.W.W.T.!.T.S.n.A.b.4.$.p.l.2.@.S.W.' @ 3 k 8 % > x , , ,.Y.4.- o 2X2X2X2X2X2X2X2X2X2X2X2X2X2X2X2X2X2X2X2X2X2X2X2X2X2X2X2X2X2X2X2X",
"2X# m P.@XL.~ $ 4 e.}.'.W.Q.T.T.T.T.T.!.K.k.3.3.6.7.6.2.i.K.U.U % f Q h % x _ b t ^ 9.Q * . 2X2X2X2X2X2X2X2X2X2X2X2X2X2X2X2X2X2X2X2X2X2X2X2X2X2X2X2X2X2X2X2X",
"2X# m U.XXH.) f s %.z.U.E.!.!.!.!.!.!.K.n.i.3.7.i.8.8.a.M.L.M.J % 5 m 3 . , n ] >.w.<.z & X 2X2X2X2X2X2X2X2X2X2X2X2X2X2X2X2X2X2X2X2X2X2X2X2X2X2X2X2X2X2X2X2X",
"2X% m P.XXN.$.' K J %.V./.!.W.W.Q.!.T.k.7.3.3.7.7.3.7.A.T.D.8.k @ X , % % % x w. XY.( e % @ 2X2X2X2X2X2X2X2X2X2X2X2X2X2X2X2X2X2X2X2X2X2X2X2X2X2X2X2X2X2X2X2X",
"2X% m F.oX_.t.&.K n %.V.'.F.k.l.x.N.b.i.2.7.9.<.+.#.a.^.!.x.} i +     * k k A Y.,X].M - % 2X2X2X2X2X2X2X2X2X2X2X2X2X2X2X2X2X2X2X2X2X2X2X2X2X2X2X2X2X2X2X2X2X",
"2X$ m F.&X|.A.*.H V %.V.!.b.3.8.6.9.7.7.5.9.6.O./ o.i.K.T.v.I 2 @ o % M 8.8.8.).=Xw.-   2X2X2X2X2X2X2X2X2X2X2X2X2X2X2X2X2X2X2X2X2X2X2X2X2X2X2X2X2X2X2X2X2X2X",
"2X% m F.>XOXP.e.L y b t.K.M.p.s.s.6.8.7.7.2.$.O.o.( 2.D.Q.u.n < > x &.Z.(.H.d.C.Z.R +   2X2X2X2X2X2X2X2X2X2X2X2X2X2X2X2X2X2X2X2X2X2X2X2X2X2X2X2X2X2X2X2X2X2X",
"2X% k G.-X|.J.k./ 4 * W b.J.~.!.D.d.8.7.8.o./ #.2.) o.b.W.f.J 2 t w. X*X X(.9.! x 3 @ # 2X2X2X2X2X2X2X2X2X2X2X2X2X2X2X2X2X2X2X2X2X2X2X2X2X2X2X2X2X2X2X2X2X2X",
"2X# g x.OX[.W.H.i.D w q Y A.OX.X~.k.<.$.o.W E O.<.~ ~ 7.S.A.q.G B Z.,X<X=XY.[ 8 + + % 2X2X2X2X2X2X2X2X2X2X2X2X2X2X2X2X2X2X2X2X2X2X2X2X2X2X2X2X2X2X2X2X2X2X2X",
"2X% d v.}.!.!.Q.H.d.Q * 6 u.{.{.T.k.<.( W W Q ~ ~ E ~ @.i.^.^.;._ Z.=X,X%Xh.x % # # 2X2X2X2X2X2X2X2X2X2X2X2X2X2X2X2X# # # X @ X @ + @ X O X # X O # # # 2X2X",
"2X# f u.!.Q.Q.{.}.H.<.k i L q.M.H.J.b.s.4.#.( W F E P ~ o.i.l.u.>.h.I.I.h.R , X + 2X2X2X2X2X2X2X2X2X2X2X2X2X2X2X2X@ > y C { ..{ L P | ,.=.....=.=.Y 8 # 2X2X",
"2X# d y.'.W.!.OX{.k.2.8.) 0 4 ~ M.K./.!.F.k.<.( E E W W ~ ~ ) 8.r.:.| H x 3 % # 2X2X2X2X2X2X2X2X2X2X2X2X2X2XX . . # > L t.E.+X).n.S.}.XX.X|..XXX-XC.d # 2X2X",
"2X% h A.XX{.}.oX.XT.n.b.3.j $ e T } e.G.R.K.M.s.7.7.r.t.7.#.) ( / H s u 0 = # 2X2X2X2X2X2X2X2X2X2X2X2X2X2X7 Z Y L v 7 v *.l.W.U.x.c.C.G.A.A.A.F.P.w.i # 2X2X",
"2X% m U.,X&X.X.XXXXX[.n.2.( A 5 % # i ^ b.L.!.!.W.K.T.!.R.N.8.L u 2 y C P j # 2X2X2X2X2X2X2X2X2XX . o   . N l./.^.>.s < r b ' %.%.I i 5 8 8 8 8 t 5 & # 2X2X",
"2X# 8 &.T.XX:XoXXX;X.Xn.1.O.W e * % 6 h ^ >.y.g.z.z.z.c.u.q.} B u y g P ~ k # . 2X2X2X2X2X2X2X5 M L C m B :./.&XOXM.' V I  .;.;.| x O             . # # 2X2X",
"2X2X2X# L E.,X;XXX#X{.n.1.( W E D L V t ; 8 v K ] | ` G x a g N P E W / Q j % X # % # # O   . C c.T.G.x.V.G./.}.[.S.9.t.G.'.'.A.*.c & X 2X2X2X2X2X2X2X2X2X2X",
"2X2X2X2X* | U.XX1X<XXXH.3.o.( ( +.=._ 6 X 4 C  .0.q.;.' g < < M ) O.~ ( Q d * % * * * < 7 4 i -.}.oX+X.X.X[.K.G.A.u.o.$.y.k.j.:.L t & 2X2X2X2X2X2X2X2X2X2X2X",
"2X2X2X2X2XO L W.<X<XXXH.3.o./ ( o...I < % N 7.A.Q.'.K.M.$.d 2 C 8.<.~ ~ Q m 7 2 r 6 7 s J Y $.k./.{.[.{.{.E.b.6.;.J 8 4 8 u w 7 4 * 2X2X2X2X2X2X2X2X2X2X2X2X",
"2X2X2X2X2X2X- ,.K.P.j.-.W A z z A C v > * l $.r.g.c.y.4./ J U :.m.5.( ~ Q D v s u u x G ' >.a.b.V.V.V.c.y.-./ D b 7 @   o o o o O 2X2X2X2X2X2X2X2X2X2X2X2X2X",
"2X2X2X2X2X2X2X8 i s t 8 4 - 3 - ; 4 * 2X2X; 8 i v x s 7 s *.S.!.K.d.1.( Q Q W m y x K I _ -.i.7.*.*.*.L w = 6 = * # 2X2X2X2X2X2X2X2X2X2X2X2X2X2X2X2X2X2X2X2X",
"2X2X2X2X2X2X2X2X      . X X @ + + X # 2X2X  + a I I V s R z.|.|.T.D.k.$.W ~ ( M y b ' ] ' *.:.{ v x v 4 .   X X O 2X2X2X2X2X2X2X2X2X2X2X2X2X2X2X2X2X2X2X2X2X",
"2X2X2X2X2X2X2X2X2X2X2X2X2X2X2X2X2X2X2X2X2X  & ..F.F.A.j.x.'.XX{.T.Q.F.6.W W ~ M y v ` ] ' %. .B > # * & 2X2X2X2X2X2X2X2X2X2X2X2X2X2X2X2X2X2X2X2X2X2X2X2X2X2X",
"2X2X2X2X2X2X2X2X2X2X2X2X2X2X2X2X2X2X2X2X2X2X4 { A.~.[.+X.XXXXX{.'.'.!.s.( ~ / M y x H J G V b 8 #   X 2X2X2X2X2X2X2X2X2X2X2X2X2X2X2X2X2X2X2X2X2X2X2X2X2X2X2X",
"2X2X2X2X2X2X2X2X2X2X2X2X2X2X2X2X2X2X2X2X2X2X2X* g o.N.}.oX#XXX.X.X}.W.k.2.@./ N u u s y < > > * 2X2X2X2X2X2X2X2X2X2X2X2X2X2X2X2X2X2X2X2X2X2X2X2X2X2X2X2X2X2X",
"2X2X2X2X2X2X2X2X2X2X2X2X2X2X2X2X2X2X2X2X2X2X2X2X  9 } J.#X;X&X;X-XOX/.N.i.+.T d 8 6 1 * O X X 2X2X2X2X2X2X2X2X2X2X2X2X2X2X2X2X2X2X2X2X2X2X2X2X2X2X2X2X2X2X2X",
"2X2X2X2X2X2X2X2X2X2X2X2X2X2X2X2X2X2X2X2X2X2X2X2X2XX w r.|.>X>X1X;XXX[.H.i./ s 4 & % % # 2X2X2X2X2X2X2X2X2X2X2X2X2X2X2X2X2X2X2X2X2X2X2X2X2X2X2X2X2X2X2X2X2X2X",
"2X2X2X2X2X2X2X2X2X2X2X2X2X2X2X2X2X2X2X2X2X2X2X2X2X2X+ C v.A.G.G.G.z.y.:./ m 1 % # O # 2X2X2X2X2X2X2X2X2X2X2X2X2X2X2X2X2X2X2X2X2X2X2X2X2X2X2X2X2X2X2X2X2X2X2X",
"2X2X2X2X2X2X2X2X2X2X2X2X2X2X2X2X2X2X2X2X2X2X2X2X2X2X2X6 f d m m d d f i 0 4 & # 2X2X2X2X2X2X2X2X2X2X2X2X2X2X2X2X2X2X2X2X2X2X2X2X2X2X2X2X2X2X2X2X2X2X2X2X2X2X",
"2X2X2X2X2X2X2X2X2X2X2X2X2X2X2X2X2X2X2X2X2X2X2X2X2X2X2X# # & # # % % % % % $ % % 2X2X2X2X2X2X2X2X2X2X2X2X2X2X2X2X2X2X2X2X2X2X2X2X2X2X2X2X2X2X2X2X2X2X2X2X2X2X",
"2X2X2X2X2X2X2X2X2X2X2X2X2X2X2X2X2X2X2X2X2X2X2X2X2X2X2X2X2X2X2X2X2X2X2X2X2X2X2X2X2X2X2X2X2X2X2X2X2X2X2X2X2X2X2X2X2X2X2X2X2X2X2X2X2X2X2X2X2X2X2X2X2X2X2X2X2X2X",
"2X2X2X2X2X2X2X2X2X2X2X2X2X2X2X2X2X2X2X2X2X2X2X2X2X2X2X2X2X2X2X2X2X2X2X2X2X2X2X2X2X2X2X2X2X2X2X2X2X2X2X2X2X2X2X2X2X2X2X2X2X2X2X2X2X2X2X2X2X2X2X2X2X2X2X2X2X2X"
};
