/* XPM */
static xpm_row_t const player_right3[] = {
/* columns rows colors chars-per-pixel */
"76 65 199 2 ",
"   c #020103",
".  c #060308",
"X  c #09060B",
"o  c #0C0B0C",
"O  c #080505",
"+  c #0F0E10",
"@  c #120E13",
"#  c #151415",
"$  c #161418",
"%  c #1A151B",
"&  c #1C1B1C",
"*  c #181817",
"=  c #100F0F",
"-  c #221E1F",
";  c #1E211B",
":  c #21231F",
">  c #1F1B21",
",  c #1D1423",
"<  c #211D23",
"1  c #251F29",
"2  c #232323",
"3  c #272925",
"4  c #292A25",
"5  c #262329",
"6  c #2A252D",
"7  c #2C2C2C",
"8  c #2E322A",
"9  c #32342D",
"0  c #2C2531",
"q  c #2E2A32",
"w  c #312C35",
"e  c #352E3A",
"r  c #353434",
"t  c #393C36",
"y  c #363239",
"u  c #39343C",
"i  c #3D3C3D",
"p  c #353931",
"a  c #413F3D",
"s  c #3E423B",
"d  c #41453D",
"f  c #454B3D",
"g  c #3C3641",
"h  c #3F3C41",
"j  c #423C45",
"k  c #473F4D",
"l  c #434243",
"z  c #474B42",
"x  c #494D45",
"c  c #47424B",
"v  c #49454D",
"b  c #4C4C4C",
"n  c #4D5445",
"m  c #4F5549",
"M  c #51554D",
"N  c #545B4D",
"B  c #515C47",
"V  c #4C4552",
"C  c #4E4A52",
"Z  c #514C55",
"A  c #544D5A",
"S  c #4D5354",
"D  c #555454",
"F  c #575D51",
"G  c #595D54",
"H  c #5A555C",
"J  c #5C5C5B",
"K  c #53545C",
"L  c #57604D",
"P  c #59624F",
"I  c #5C6453",
"U  c #5F6856",
"Y  c #5D615A",
"T  c #606A57",
"R  c #636C5A",
"E  c #66715C",
"W  c #69735E",
"Q  c #6C795F",
"!  c #5C5963",
"~  c #615B65",
"^  c #645D69",
"/  c #5E6369",
"(  c #636363",
")  c #666B61",
"_  c #66636A",
"`  c #69636D",
"'  c #6B6C6C",
"]  c #696E63",
"[  c #6C7463",
"{  c #6E7864",
"}  c #6F7569",
"|  c #71756D",
" . c #737C6B",
".. c #707966",
"X. c #6E6B72",
"o. c #6C6671",
"O. c #716C75",
"+. c #6E727A",
"@. c #747474",
"#. c #767379",
"$. c #7C7B7B",
"%. c #777977",
"&. c #76816C",
"*. c #79816F",
"=. c #748167",
"-. c #7D8574",
";. c #7F8876",
":. c #7F827A",
">. c #77857D",
",. c #808977",
"<. c #81857D",
"1. c #848C7C",
"2. c #88927F",
"3. c #787881",
"4. c #817E83",
"5. c #7E8688",
"6. c #838384",
"7. c #878D80",
"8. c #888E82",
"9. c #8C8C8D",
"0. c #888589",
"q. c #8B9284",
"w. c #8E938A",
"e. c #87908D",
"r. c #91968C",
"t. c #939A8D",
"y. c #919A87",
"u. c #8F8B91",
"i. c #928F95",
"p. c #949394",
"a. c #969B93",
"s. c #999D95",
"d. c #969398",
"f. c #99959C",
"g. c #9B9B9C",
"h. c #959A99",
"j. c #8F9F91",
"k. c #9CA594",
"l. c #9EA29A",
"z. c #9AA797",
"x. c #A1A59D",
"c. c #A4AB9E",
"v. c #9F9BA4",
"b. c #A19EA4",
"n. c #9BA3A4",
"m. c #9AA6B0",
"M. c #A4A4A4",
"N. c #A5AAA1",
"B. c #AAAEA6",
"V. c #A6AAAA",
"C. c #ABACAC",
"Z. c #A6A7A9",
"A. c #AEB3A9",
"S. c #A8B4A8",
"D. c #B1B4AD",
"F. c #B1B8AC",
"G. c #ACADB0",
"H. c #AAB1B5",
"J. c #B5B5B5",
"K. c #B6B9B5",
"L. c #B7B7B9",
"P. c #BBBBBB",
"I. c #B9BAB7",
"U. c #BDC1BC",
"Y. c #C1C8BE",
"T. c #BEBDC0",
"R. c #A9B9C2",
"E. c #C0BFC2",
"W. c #B4C7CC",
"Q. c #BBD1D7",
"!. c #B3C5CB",
"~. c #C3C3C3",
"^. c #C5C9C6",
"/. c #C7C6C8",
"(. c #CBCCCC",
"). c #C6C8CA",
"_. c #CDD1CD",
"`. c #CECED0",
"'. c #CED1D1",
"]. c #C2D8DA",
"[. c #D2D4D5",
"{. c #D4D7D8",
"}. c #D6D9DA",
"|. c #DADDDD",
" X c #D7D8D7",
".X c #DDDFE1",
"XX c #C5DBE1",
"oX c #CCE3E8",
"OX c #DEE1E2",
"+X c #D1E9ED",
"@X c #D4EDF1",
"#X c #E2E5E6",
"$X c #E6E9EB",
"%X c #EAEDED",
"&X c #E3E6E8",
"*X c #EBEFF1",
"=X c #EBF7F7",
"-X c #F5F9FB",
";X c None",
/* pixels */
";X;X;X;X;X;X;X;X;X;X;X;X;X;X;X;X;X;X;X;X;X;X;X;X;X;X;X;X;X;X* # # * # # # # * # ;X;X;X;X;X;X;X;X;X;X;X;X;X;X;X;X;X;X;X;X;X;X;X;X;X;X;X;X;X;X;X;X;X;X;X;X",
";X;X;X;X;X;X;X;X;X;X;X;X;X;X;X;X;X;X;X;X;X;X;X;X;X;X;X;X;X& r i l i i r i r r 4 ;X;X;X;X;X;X;X;X;X;X;X;X;X;X;X;X;X;X;X;X;X;X;X;X;X;X;X;X;X;X;X;X;X;X;X;X",
";X;X;X;X;X;X;X;X;X;X;X;X;X;X;X;X;X;X;X;X;X;X;X;X;X;X;X;X  r $.M.V.M.p.9.r.9.-.M 2 . ;X;X;X;X;X;X;X;X;X;X;X;X;X;X;X;X;X;X;X;X;X;X;X;X;X;X;X;X;X;X;X;X;X;X",
";X;X;X;X;X;X;X;X;X;X;X;X;X;X;X;X;X;X;X;X;X;X;X;X;X;X;X= & ( K.$X$X&X{.).(.U.N. .s * ;X;X;X;X;X;X;X;X;X;X;X;X;X;X;X;X;X;X;X;X;X;X;X;X;X;X;X;X;X;X;X;X;X;X",
";X;X;X;X;X;X;X;X;X;X;X;X;X;X;X;X;X;X;X;X;X;X;X;X;X;X  & n r.^.&X.XOX|.[./.D.s. .T s 2 # ;X;X;X;X;X;X;X;X;X;X;X;X;X;X;X;X;X;X;X;X;X;X;X;X;X;X;X;X;X;X;X;X",
";X;X;X;X;X;X;X;X;X;X;X;X;X;X;X;X;X;X;X;X;X;X;X;X;X& 7 G w.U.[.OX}.{.{.`.E.C.t.-.=.N 8 o ;X;X;X;X;X;X;X;X;X;X;X;X;X;X;X;X;X;X;X;X;X;X;X;X;X;X;X;X;X;X;X;X",
";X;X;X;X;X;X;X;X;X;X;X;X;X;X;X;X;X;X;X;X;X;X;X;X# l $.C.U._. X|..X[./.P.E.D.s.-. .N 4 = ;X;X;X;X;X;X;X;X;X;X;X;X;X;X;X;X;X;X;X;X;X;X;X;X;X;X;X;X;X;X;X;X",
";X;X;X;X;X;X;X;X;X;X;X;X;X;X;X;X;X;X;X;X;X;X;X;Xo J P.#X#XOX}.[.{./.P.G.J.x.q. .{ N 4 @ ;X;X;X;X;X;X;X;X;X;X;X;X;X;X;X;X;X;X;X;X;X;X;X;X;X;X;X;X;X;X;X;X",
";X;X;X;X;X;X;X;X;X;X;X;X;X;X;X;X;X;X;X;X;X;X;X;Xo Y P.%X*X%X|.`.W.P.T.J.x.8. .R W N 4 = ;X;X;X;X;X;X;X;X;X;X;X;X;X;X;X;X;X;X;X;X;X;X;X;X;X;X;X;X;X;X;X;X",
";X;X;X;X;X;X;X;X;X;X;X;X;X;X;X;X;X;X;X;X;X;X;XX # b p.L.L./. X`.L.D.J.x.2.W R T E N 8 = ;X;X;X;X;X;X;X;X;X;X;X;X;X;X;X;X;X;X;X;X;X;X;X;X;X;X;X;X;X;X;X;X",
";X;X;X;X;X;X;X;X        X o o + o o = ;X;X;XX X $ q c C Z 0.E. XE.D.x.1...T T R { P 8 + ;X;X;X;X;X;X;X;X;X;X;X;X;X;X;X;X;X;X;X;X;X;X;X;X;X;X;X;X;X;X;X;X",
";X;X;X;X;X;X;X3 r r 7 7 2 : : 2 : 2 - % ;X;X2 i c k u q 6 A r.J.J.x.2.[ R P T T T x 3 @ ;X;X;X;X;X;X;X;X;X;X;X;X;X;X;X;X;X;X;X;X;X;X;X;X;X;X;X;X;X;X;X;X",
";X;X;X;X;X;X# _ M.C.p.%.Y n z f f b j 1 # p R 0.d.f.i.$.} G H X.p.r. .R T T E F d : & ;X;X;X;X;X;X;X;X;X;X;X;X;X;X;X;X;X;X;X;X;X;X;X;X;X;X;X;X;X;X;X;X;X",
";X;X;X;X;X# b C.-X-X|.F.1.{ E E W ' ^ w # t -.x.D.T.I.N.8.M 1 u [ ,.R P T R W N 2 X ;X;X;X;X;X;X;X;X;X;X;X;X;X;X;X;X;X;X;X;X;X;X;X;X;X;X;X;X;X;X;X;X;X;X",
";X;X;X;X* ~ C.'.$X=X}.A.,.Q R E [ @.^ w o * j ~ #.4.3.` v 6 < r R  .E T I R ..P 4 X ;X;X;X;X;X;X;X;X;X;X;X;X;X;X;X;X;X;X;X;X;X;X;X;X;X;X;X;X;X;X;X;X;X;X",
";X;X;X# b H.-X#X{..X'.N.-.W U P N G A y : 5 u V ~ ^ ^ Z j e e l M T P T T T R f 3 @ ;X;X;X;X;X;X;X;X;X;X;X;X;X;X;X;X;X;X;X;X;X;X;X;X;X;X;X;X;X;X;X;X;X;X",
";X# 7 ' H.}.%XOX X#X}.B.-. .R s 3 # - r N | 6.i.d.g.f.d.u.4.| D i w y b R U d 3 * ;X;X;X;X;X;X;X;X;X;X;X;X;X;X;X;X;X;X;X;X;X;X;X;X;X;X;X;X;X;X;X;X;X;X;X",
";X# h C.*X#X[.{.[. X^.c.-.W B 9 & o : F w.D.P.P.J.J.J.L.L.B.r.W j 0 0 h I n 2 X ;X;X;X;X;X;X;X;X;X;X;X;X;X;X;X;X;X;X;X;X;X;X;X;X;X;X;X;X;X;X;X;X;X;X;X;X",
";X* i M..X(.~.}.[.U.k.x.2.z ; 8 M ( $.g.D.J.c.t.1.1.2.2.w.,.[ E R J Z v v r * X ;X;X;X;X;X;X;X;X;X;X;X;X;X;X;X;X;X;X;X;X;X;X;X;X;X;X;X;X;X;X;X;X;X;X;X;X",
";X# r 9.~.L.P.[.(.x.*.,...t > M y.F.P.W.J.l.,.W T F P I P T T ..1.:._ V y 5 > # ;X;X;X;X;X;X;X;X;X;X;X;X;X;X;X;X;X;X;X;X;X;X;X;X;X;X;X;X;X;X;X;X;X;X;X;X",
";X# r 0.Y.I.I./.~.B.*.x p b #.d.B.A.x.t.<. .[ T L L I B f [ t.f.6.( C g e 0 6 < $ ;X;X;X;X;X;X;X;X;X;X;X;X;X;X;X;X;X;X;X;X;X;X;X;X;X;X;X;X;X;X;X;X;X;X;X",
";X# t 9./.P.L.P.C.s.[ 4 - @./.`.L.x.,.Q T P T T R R T I R 0.J.b.` j e 6 0 w e q < # ;X;X;X;X;X;X;X;X;X;X;X;X;X;X;X;X;X;X;X;X;X;X;X;X;X;X;X;X;X;X;X;X;X;X",
";X$ i g. X/.G.D.q.G p 9 M t.(.[.P.l.,...[ R F E  .} T } w.s.u.O.V e e 5 < < w e q < * # ;X;X;X;X;X;X;X;X;X;X;X;X;X;X;X;X;X;X;X;X;X;X;X;X;X;X;X;X;X;X;X;X",
";X* i C.&X`.C.s.[ 4 % N t.B.L.P.J.s.,.1.1...R ..,...T 8.I.b.^ j e 0 e 5 % $ 6 e e 7 < # ;X;X;X;X;X;X;X;X;X;X;X;X;X;X;X;X;X;X;X;X;X;X;X;X;X;X;X;X;X;X;X;X",
";X# i C.$X XC.0.G e i $.A.c.r.t.r.2.,.,.1.1. .....] ..s.P.b.^ e < % > 1 5 < > 1 e 0 > # ;X;X;X;X;X;X;X;X;X;X;X;X;X;X;X;X;X;X;X;X;X;X;X;X;X;X;X;X;X;X;X;X",
";X# i V.#X[.M.O.A V ` g.L.x.,.,.1.1.1.1.1.1.1. .T W ,.x.J.b.O.a > X @ , q 0 % % 0 q > # ;X;X;X;X;X;X;X;X;X;X;X;X;X;X;X;X;X;X;X;X;X;X;X;X;X;X;X;X;X;X;X;X",
";X# h C.|.U.9.X.H k ~ f.U.D.s.f.l.x.l.r.,.,.1.-... .,.x.P.B.:.v < . X @ > 1 > 1 q q 1 % $ ;X;X;X;X;X;X;X;X;X;X;X;X;X;X;X;X;X;X;X;X;X;X;X;X;X;X;X;X;X;X;X",
";X* h G.|.B. .T A Z ` i.P.T.L.I.L.P.L.g.1.,.1.<.1.,.,.s.J.D.t.T 5 X $ $ # & 0 e q e e q < # ;X;X;X;X;X;X;X;X;X;X;X;X;X;X;X;X;X;X;X;X;X;X;X;X;X;X;X;X;X;X",
";X# h H.|.S.[ a g ^ d.C.I.P.I.I.L.P.P.J.x.w.,.,.2.1.,.1.l.B.A.| 5 $ g u $ > z D u y D M 7 # ;X;X;X;X;X;X;X;X;X;X;X;X;X;X;X;X;X;X;X;X;X;X;X;X;X;X;X;X;X;X",
";X* s G.|.F.W : < #.~.~.J.J.J.L.J.L.J.P.J.l.1.,.,.1.1.,.,.x.P.6.6 , Z V > 2 B G y h  .-.s o ;X;X;X;X;X;X;X;X;X;X;X;X;X;X;X;X;X;X;X;X;X;X;X;X;X;X;X;X;X;X",
";X# l G.|.F.W & > $.).~.L.J.L.J.L.L.L.B.x.x.l.7. .1.l.8.W q.T.u.7 @ y y % & r t 5 v n.S.S O ;X;X;X;X;X;X;X;X;X;X;X;X;X;X;X;X;X;X;X;X;X;X;X;X;X;X;X;X;X;X",
";X# h G.|.F.W : 2 #.~.Y.J.L.J.L.J.P.J.s.1.l.J.r.T <.J.a.R ,.J.u.q   @ $ $ # # $ $ K !.Q.! O ;X;X;X;X;X;X;X;X;X;X;X;X;X;X;X;X;X;X;X;X;X;X;X;X;X;X;X;X;X;X",
";X* j G.|.A.R : - #.Y.E.J.J.J.L.J.P.J.r.,.l.T.r.P <.T.l.T  .K.i.r     X $ @ . X @ ! Q.oX/ . ;X;X;X;X;X;X;X;X;X;X;X;X;X;X;X;X;X;X;X;X;X;X;X;X;X;X;X;X;X;X",
";X# i C.|.F.] : < %.E.E.L.L.J.J.J.P.J.s.,.l.L.9.T <.J.s.R ,.K.9.q   # # $ $ $ $ $ K R.Q./   ;X;X;X;X;X;X;X;X;X;X;X;X;X;X;X;X;X;X;X;X;X;X;X;X;X;X;X;X;X;X",
";X# a C.#XY.,.2 - %././.J.J.J.L.L.L.J.C.l.x.g.2...1.l.8.[ w.P.u.q # t t & , e e , g h.S.S O o ;X;X;X;X;X;X;X;X;X;X;X;X;X;X;X;X;X;X;X;X;X;X;X;X;X;X;X;X;X",
";X* a B.$X|.d.r - @.Y.E.L.J.L.L.J.L.J.P.J.l.2.,.1.1.,.,.,.x.T.4.5 & N N > > V A e g  .-.s o + # ;X;X;X;X;X;X;X;X;X;X;X;X;X;X;X;X;X;X;X;X;X;X;X;X;X;X;X;X",
";X# h C.$X|.b.A w ~ f.B.I.P.P.P.P.T.P.J.x.w.,.,.1.1.,.1.s.A.A.| 5 $ s t # + w A +.5.1.R 9 o o # # ;X;X;X;X;X;X;X;X;X;X;X;X;X;X;X;X;X;X;X;X;X;X;X;X;X;X;X",
";X# i V.&X[.Z.#.Z v ` d.P.T.L.L.L.P.J.g.2.,.1.1.1.1.,.l.J.D.t.T 5 X $ $ # # , ! R.].j.m 4 = @ $ # # # # ;X;X;X;X;X;X;X;X;X;X;X;X;X;X;X;X;X;X;X;X;X;X;X;X",
";X# i g. X`.M.#.A k ^ d.P.D.s.s.s.x.x.w.<.,.1.-.....,.x.P.C.:.c 2     o 7 z i #.+X@X-.4 - < % < 6 w y q > ;X;X;X;X;X;X;X;X;X;X;X;X;X;X;X;X;X;X;X;X;X;X;X",
";X* r 9.(.(.M.#.Z V ^ g.I.x.,.,.1.1.2.1.1.1.1. .T E ,.x.J.b.o.j > .   7 ) 1. .z.oXW.K o % q 0 e c H ^ Z q + ;X;X;X;X;X;X;X;X;X;X;X;X;X;X;X;X;X;X;X;X;X;X",
";X# r 0.~.~.C.d.O.j i $.A.c.r.t.r.2.,.,.2.,. ...[ [ ..s.I.b.^ w % q S 5.S.U.j.j.n.3.q   % e h b ( %.$.| Y f 4 ;X;X;X;X;X;X;X;X;X;X;X;X;X;X;X;X;X;X;X;X;X",
";X# r 9.~.P.K.~.g.t # m t.B.J.P.D.s.1.1.1...T ..1. .T 1.L.b.^ u 1 K H.@X+XW.z...S 7 % # < y x R %.1.1.,.q.%.z # ;X;X;X;X;X;X;X;X;X;X;X;X;X;X;X;X;X;X;X;X",
";X# i M.#X`./.|.I.] 8 4 N p.(.[.T.l.,...[ T P ]  .[ T  .l.M.i.^ g +.XX-X=XXXe.l > X # < w v G { ,.q.q.q.k.q.M # X ;X;X;X;X;X;X;X;X;X;X;X;X;X;X;X;X;X;X;X",
";X* l C.*XOX[..X(.c.R : - @./.`.J.l.,.] T P T T T T T Q ,.x.L.i.K +.Q.=X=X!./ > $ # > y V J Y R &.2.2.1.y.1.x # ;X;X;X;X;X;X;X;X;X;X;X;X;X;X;X;X;X;X;X;X",
";X* 4 _ C.{.*X&X[._.x.G 9 v #.a.B.D.x.t.<. .[ T F B P I R ,.s.r.+.5.m.H.m.+.u + $ 5 g Z ! ` ( )  .-.-.*.7.#.z # o ;X;X;X;X;X;X;X;X;X;X;X;X;X;X;X;X;X;X;X",
";X;X;Xo v A.=X&X X|.^.x.[ p - B t.D.P.E.J.s.,.W T N I I T T T  .;.:.X.! c 0 & $ < g Z ! ^ ! ! ~ R W W W ' ! u # o # # o o X o o o o o X X X X X o # * ;X",
";X;X;X;X# J Z.`.%X-X#XY.2.f : 9 F ' 4.l.J.F.x.s.1.1.8.8.1.,.[ E [ H j e r 3 $ # > q h v j j j h s f f d i q & X o < t S ( _ Y D G _ X.' ' ' ' @.D 7 # ;X",
";X;X;X;X;Xo c V.-X-X|.D.2...B a - @ 5 F y.A.I.P.J.J.J.L.I.B.r.W h 0 0 h G n 3 + # & > & > & & > & & & & # # X X @ q ( z.U.(.L.k.B.(.{.[.'.[.|.#Xn.i # ;X",
";X;X;X;X;X;X# ( n.n.9.@.P L x 3 .   . 3 N | 6.i.f.v.f.d.u.4.| N i w r x E F 4 o = = o X O O O         O 6 b D C y q b $.M.L.G.g.g.M.V.V.M.V.A.J.5.r # ;X",
";X;X;X;X;X;X;X2 7 7 4 6 > : : * # # # * 2 7 y C ! ^ ~ A j e e j N I I U W m 4 o = # # o o o o o O O   # Y Z.T.x.^ q < e v ^ o.` C r 5 7 7 7 q 7 2 & # ;X",
";X;X;X;X;X;X;X;X        X o + @ $ * # o X > l ~ #.4.3.` b 0 < r R =.W E W m 7 $ # < 6 w t s v b b b i D p.`.#X(.p.D v H o.#.#.~ r X               # $ ;X",
";X;X;X;X;X;X;X;X;X;X;X;X;X;X;X;X;X;X;Xo # d -.x.J.P.L.M.1.D 1 u ..-.W T R N u 1 2 w j H ] -.t.M.M.M.l.M.D.T./.T.l.<.r.D.E.L.f.o.u * X ;X;X;X;X;X;X;X;X;X",
";X;X;X;X;X;X;X;X;X;X;X;X;X;X;X;X;X;X;X;X# t R <.9.i.u.<.| G H | p.w.W I R N i w y k A o.;.k.U.'.`.(.[._.U.B.M.g.$.] %.r.d.u.@.b 7 % ;X;X;X;X;X;X;X;X;X;X",
";X;X;X;X;X;X;X;X;X;X;X;X;X;X;X;X;X;X;X;X;X& 2 r u g u w 6 H p.L.K.s.[ L T N u e V H A ~  .t.D.~./.~.).~.A.r.6.o.l 3 2 7 w 7 6 < & ;X;X;X;X;X;X;X;X;X;X;X",
";X;X;X;X;X;X;X;X;X;X;X;X;X;X;X;X;X;X;X;X;X;X  5 c A v j k #.L.[./.M.-.U E N y e A ^ ! ^ ' <.p.b.b.g.d.6.| I b u < o   .   . O = ;X;X;X;X;X;X;X;X;X;X;X;X",
";X;X;X;X;X;X;X;X;X;X;X;X;X;X;X;X;X;X;X;X;X;X# b d.C.g.g.g.Z.J.E.P.B.q...W M y e Z ^ ^ ~ ^ ` o.O.#.o.v 7 2 2 : - * ;X;X;X;X;X;X;X;X;X;X;X;X;X;X;X;X;X;X;X",
";X;X;X;X;X;X;X;X;X;X;X;X;X;X;X;X;X;X;X;X;X;X@ ( P.|.'.'.'.~.L.J.I.C.t.*.Q M r e k A Z V v j j i j u &     X o @ ;X;X;X;X;X;X;X;X;X;X;X;X;X;X;X;X;X;X;X;X",
";X;X;X;X;X;X;X;X;X;X;X;X;X;X;X;X;X;X;X;X;X;X# J J.}.[.}.{./.L.J.I.B.r.*.W M u q e g g u 6 > & < 2 > $ ;X;X;X;X;X;X;X;X;X;X;X;X;X;X;X;X;X;X;X;X;X;X;X;X;X",
";X;X;X;X;X;X;X;X;X;X;X;X;X;X;X;X;X;X;X;X;X;X# D M._.}.OX|.'.~.P.P.B.r.*.[ N i 0 5 5 5 < # o o = o = ;X;X;X;X;X;X;X;X;X;X;X;X;X;X;X;X;X;X;X;X;X;X;X;X;X;X",
";X;X;X;X;X;X;X;X;X;X;X;X;X;X;X;X;X;X;X;X;Xo # z w.Y.{.OX}.}.[.(.T.M.w. .{ F j 6 < $ $ * ;X;X;X;X;X;X;X;X;X;X;X;X;X;X;X;X;X;X;X;X;X;X;X;X;X;X;X;X;X;X;X;X",
";X;X;X;X;X;X;X;X;X;X;X;X;X;X;X;X;X;X;X;X;X;X# 7 F a.(.#X|.#X&X}.^.C.a. .T z r < $ # = # ;X;X;X;X;X;X;X;X;X;X;X;X;X;X;X;X;X;X;X;X;X;X;X;X;X;X;X;X;X;X;X;X",
";X;X;X;X;X;X;X;X;X;X;X;X;X;X;X;X;X;X;X;X;X;X;X# : | Y.$X$X=X*X#X[.K.z. .M 0 < $ ;X;X;X;X;X;X;X;X;X;X;X;X;X;X;X;X;X;X;X;X;X;X;X;X;X;X;X;X;X;X;X;X;X;X;X;X",
";X;X;X;X;X;X;X;X;X;X;X;X;X;X;X;X;X;X;X;X;X;X;X;X  i 4.M.M.C.Z.M.f.<. .D e % # # ;X;X;X;X;X;X;X;X;X;X;X;X;X;X;X;X;X;X;X;X;X;X;X;X;X;X;X;X;X;X;X;X;X;X;X;X",
";X;X;X;X;X;X;X;X;X;X;X;X;X;X;X;X;X;X;X;X;X;X;X;X;X< r a i l j a i p 9 7 & $ ;X;X;X;X;X;X;X;X;X;X;X;X;X;X;X;X;X;X;X;X;X;X;X;X;X;X;X;X;X;X;X;X;X;X;X;X;X;X",
";X;X;X;X;X;X;X;X;X;X;X;X;X;X;X;X;X;X;X;X;X;X;X;X;X;X# * $ # * # # * $ # * # ;X;X;X;X;X;X;X;X;X;X;X;X;X;X;X;X;X;X;X;X;X;X;X;X;X;X;X;X;X;X;X;X;X;X;X;X;X;X"
};
