/* XPM */
static xpm_row_t const player_right4[] = {
/* columns rows colors chars-per-pixel */
"78 67 212 2 ",
"   c #030202",
".  c #070408",
"X  c #08060A",
"o  c #0D0C0D",
"O  c #080607",
"+  c #0F0C10",
"@  c #110D12",
"#  c #170F19",
"$  c #151415",
"%  c #181617",
"&  c #171418",
"*  c #19161B",
"=  c #1B1A1C",
"-  c #191A17",
";  c #100F0F",
":  c #211F1F",
">  c #1F201D",
",  c #21221E",
"<  c #1E1A21",
"1  c #1C1422",
"2  c #211D24",
"3  c #241E29",
"4  c #242324",
"5  c #292C26",
"6  c #26222A",
"7  c #29242C",
"8  c #2C2C2B",
"9  c #272A23",
"0  c #2E312B",
"q  c #2B3026",
"w  c #32342E",
"e  c #353A2F",
"r  c #2D2631",
"t  c #2E2932",
"y  c #322D35",
"u  c #342D3A",
"i  c #382E3A",
"p  c #333334",
"a  c #373A32",
"s  c #393B35",
"d  c #373339",
"f  c #39353C",
"g  c #3C3B3C",
"h  c #383535",
"j  c #302A2F",
"k  c #3D4237",
"l  c #42443E",
"z  c #43483E",
"x  c #3E3B41",
"c  c #3D3542",
"v  c #413B45",
"b  c #443D4B",
"n  c #3E4148",
"m  c #444343",
"M  c #464A43",
"N  c #494D43",
"B  c #44424B",
"V  c #49434D",
"C  c #4C4D4B",
"Z  c #4C5345",
"A  c #4E5249",
"S  c #4F5847",
"D  c #50544C",
"F  c #535B4C",
"G  c #525C47",
"H  c #4D4652",
"J  c #4E4953",
"K  c #514C54",
"L  c #544D5A",
"P  c #504653",
"I  c #545354",
"U  c #575A53",
"Y  c #595D54",
"T  c #56535A",
"R  c #5C5C5B",
"E  c #59555C",
"W  c #4E5057",
"Q  c #605F5F",
"!  c #58624E",
"~  c #5B6453",
"^  c #5E6855",
"/  c #5C6258",
"(  c #606957",
")  c #636C5A",
"_  c #61665C",
"`  c #67705D",
"'  c #69735E",
"]  c #67745B",
"[  c #5C5561",
"{  c #5E5963",
"}  c #615D64",
"|  c #645D69",
" . c #636263",
".. c #65616B",
"X. c #69656C",
"o. c #6B6B6B",
"O. c #676B67",
"+. c #6B7463",
"@. c #6F7965",
"#. c #6C7369",
"$. c #717B66",
"%. c #747D6C",
"&. c #717669",
"*. c #6D6A72",
"=. c #726D76",
"-. c #756F7A",
";. c #6D7476",
":. c #747474",
">. c #767B72",
",. c #797D74",
"<. c #74747B",
"1. c #79767C",
"2. c #7A7A7B",
"3. c #777879",
"4. c #76806D",
"5. c #79826F",
"6. c #7B896F",
"7. c #7C8474",
"8. c #7E8579",
"9. c #808977",
"0. c #848B7C",
"q. c #81867C",
"w. c #85907C",
"e. c #7A7A81",
"r. c #817D83",
"t. c #768487",
"y. c #848384",
"u. c #898F83",
"i. c #848289",
"p. c #8B8B8B",
"a. c #878A87",
"s. c #8A9284",
"d. c #8E948A",
"f. c #8E9983",
"g. c #91968C",
"h. c #939A8C",
"j. c #8F8C92",
"k. c #8D8792",
"l. c #918E94",
"z. c #939394",
"x. c #969B92",
"c. c #999E95",
"v. c #95929A",
"b. c #9B9B9C",
"n. c #96979B",
"m. c #8B999A",
"M. c #98A28E",
"N. c #9BA196",
"B. c #9EA19A",
"V. c #99A89E",
"C. c #A1A59D",
"Z. c #A3A99C",
"A. c #A1B09F",
"S. c #9C9CA0",
"D. c #8B98A0",
"F. c #A09EA1",
"G. c #9FA1A2",
"H. c #94A3A9",
"J. c #9AA7B1",
"K. c #A3A4A3",
"L. c #A5A9A2",
"P. c #A9ACA6",
"I. c #A5A5A9",
"U. c #ACADAB",
"Y. c #A6A8A9",
"T. c #AAB1A6",
"R. c #AEB3AB",
"E. c #A9B8A7",
"W. c #B0B4AE",
"Q. c #B2B8AD",
"!. c #AEAEB1",
"~. c #B1AFB3",
"^. c #A7B6B8",
"/. c #B5B5B5",
"(. c #B6BAB3",
"). c #B8BAB6",
"_. c #B8B7B9",
"`. c #BBBBBB",
"'. c #B6B6B8",
"]. c #B0AFAF",
"[. c #BCC2B7",
"{. c #BEBEC0",
"}. c #ADBDC8",
"|. c #C0BEC1",
" X c #BACED1",
".X c #C3C4C4",
"XX c #C6C6C8",
"oX c #CBCCCC",
"OX c #C7C9C7",
"+X c #CDD1CB",
"@X c #CDCED0",
"#X c #CFD2D2",
"$X c #C2D8DD",
"%X c #D3D4D5",
"&X c #D4D7D8",
"*X c #D6D9DB",
"=X c #DADCDD",
"-X c #D3DAD1",
";X c #D1CDD2",
":X c #DDE2DE",
">X c #C6DDE2",
",X c #DCDEE0",
"<X c #DFE1E3",
"1X c #D1EAEE",
"2X c #E1E4E5",
"3X c #E6E9EA",
"4X c #E7EAEA",
"5X c #EEF2F3",
"6X c #ECFFFF",
"7X c #F7FBFC",
"8X c #EBEFF0",
"9X c None",
/* pixels */
"9X9X9X9X9X9X9X9X9X9X9X9X9X9X9X9X9X9X9X9X9X9X9X9X9X9X9X9X9X9X9X9X9X9X9X9X9X9X9X9X9X9X9X9X9X9X9X9X9X9X9X9X9X9X9X9X9X9X9X9X9X9X9X9X9X9X9X9X9X9X9X9X9X9X9X9X9X9X",
"9X9X9X9X9X9X9X9X9X9X9X9X9X9X9X9X9X9X9X9X9X9X9X9X9X9X9X9X9X9X9X9X$ $ * $ $ $ % $ & $ 9X9X9X9X9X9X9X9X9X9X9X9X9X9X9X9X9X9X9X9X9X9X9X9X9X9X9X9X9X9X9X9X9X9X9X9X",
"9X9X9X9X9X9X9X9X9X9X9X9X9X9X9X9X9X9X9X9X9X9X9X9X9X9X9X9X9X9X9X4 p s g g h p h h w 9 9X9X9X9X9X9X9X9X9X9X9X9X9X9X9X9X9X9X9X9X9X9X9X9X9X9X9X9X9X9X9X9X9X9X9X9X",
"9X9X9X9X9X9X9X9X9X9X9X9X9X9X9X9X9X9X9X9X9X9X9X9X9X9X9X9X9X9X. g 2.K.G.n.a.y.p.y.3.F 9 O 9X9X9X9X9X9X9X9X9X9X9X9X9X9X9X9X9X9X9X9X9X9X9X9X9X9X9X9X9X9X9X9X9X9X",
"9X9X9X9X9X9X9X9X9X9X9X9X9X9X9X9X9X9X9X9X9X9X9X9X9X9X9X9X9Xo 4 o.`.3X3X<X#XXXoX`.A.5.z % $ 9X9X9X9X9X9X9X9X9X9X9X9X9X9X9X9X9X9X9X9X9X9X9X9X9X9X9X9X9X9X9X9X9X",
"9X9X9X9X9X9X9X9X9X9X9X9X9X9X9X9X9X9X9X9X9X9X9X9X9X9X9X9XO , F x.#X3X3X<X,X%X@X`.Z.8.( l 4 $ 9X9X9X9X9X9X9X9X9X9X9X9X9X9X9X9X9X9X9X9X9X9X9X9X9X9X9X9X9X9X9X9X",
"9X9X9X9X9X9X9X9X9X9X9X9X9X9X9X9X9X9X9X9X9X9X9X9X9X9X9X$ 8 Y h.[.&X,X&X&X*XoX`.L.d.5.4.~ w $ 9X9X9X9X9X9X9X9X9X9X9X9X9X9X9X9X9X9X9X9X9X9X9X9X9X9X9X9X9X9X9X9X",
"9X9X9X9X9X9X9X9X9X9X9X9X9X9X9X9X9X9X9X9X9X9X9X9X9X9X= I a.(.+X:X,X#XXX.XOX`.L.s.%.' @.~ w $ 9X9X9X9X9X9X9X9X9X9X9X9X9X9X9X9X9X9X9X9X9X9X9X9X9X9X9X9X9X9X9X9X",
"9X9X9X9X9X9X9X9X9X9X9X9X9X9X9X9X9X9X9X9X9X9X9X9X9X  2 o.`.;X@X&X&XOX_./._.P.d.%.) ( ) Y w $ 9X9X9X9X9X9X9X9X9X9X9X9X9X9X9X9X9X9X9X9X9X9X9X9X9X9X9X9X9X9X9X9X",
"9X9X9X9X9X9X9X9X9X9X9X      O o + o + ; $ $ $ @ X   o g *.=.<.K.oX%X`.`.|.U.g.%.) ~ ) ! w @ 9X9X9X9X9X9X9X9X9X9X9X9X9X9X9X9X9X9X9X9X9X9X9X9X9X9X9X9X9X9X9X9X",
"9X9X9X9X9X9X9X9X9X9X% = = = - % $ - * - $ $ $ - - % = 6 y 3 j X.K. X'.'.`.P.g.%.] ^ ] Y w $ 9X9X9X9X9X9X9X9X9X9X9X9X9X9X9X9X9X9X9X9X9X9X9X9X9X9X9X9X9X9X9X9X",
"9X9X9X9X9X9X9X9X9XO x 3.a.2./ m e k g x t - = k / o.:.:.=.} I R X.y.c.L.Z.g.7.` ( ( @.^ a $ 9X9X9X9X9X9X9X9X9X9X9X9X9X9X9X9X9X9X9X9X9X9X9X9X9X9X9X9X9X9X9X9X",
"9X9X9X9X9X9X9X9X  = 3.&X5X=XL.+.G ^ ^ } V * , Y h.P.).|./.Z.w.D y M 7.f.u.9.' ( ( ( ' ~ w @ 9X9X9X9X9X9X9X9X9X9X9X9X9X9X9X9X9X9X9X9X9X9X9X9X9X9X9X9X9X9X9X9X",
"9X9X9X9X9X9X9Xo p <.'.3X7X5X(.%.^ ] $.:.P * @ s o.y.v.S.l.2.R y : v 9.w.%.' ( ~ ( ~ Z s , $ 9X9X9X9X9X9X9X9X9X9X9X9X9X9X9X9X9X9X9X9X9X9X9X9X9X9X9X9X9X9X9X9X",
"9X9X9X9X9X9X  = 2.#X<X&X<X,XL.+.! ] O...H < + < d H } | [ B y 3 3 K 9.w.+.( ( ( ] F w $ 9X9X9X9X9X9X9X9X9X9X9X9X9X9X9X9X9X9X9X9X9X9X9X9X9X9X9X9X9X9X9X9X9X9X",
"9X9X9X9X9X9Xs :. X5X8X&X<X<XW.%.z k p y d s M T | -.r.r.1.=...E L U R U N Z ~ +.$.Y 5 O 9X9X9X9X9X9X9X9X9X9X9X9X9X9X9X9X9X9X9X9X9X9X9X9X9X9X9X9X9X9X9X9X9X9X",
"9X9X9X9X  8 y.#X<X=X*X&X<X<X(.%.k > . . 9 F u.B.~././.~.~._.].B.u.R f 3 t g ~ ' @.~ 0 o 9X9X9X9X9X9X9X9X9X9X9X9X9X9X9X9X9X9X9X9X9X9X9X9X9X9X9X9X9X9X9X9X9X9X",
"9X9X9X9X  p n.8X,XoX&X=X=XOXu.N 9 0 p s  .d.Q.).Q.P.C.C.K.P.P.M.8.) C g c v C A Z k 4 $ 9X9X9X9X9X9X9X9X9X9X9X9X9X9X9X9X9X9X9X9X9X9X9X9X9X9X9X9X9X9X9X9X9X9X",
"9X9X9X9X  8 y.OXOX`.%X=X+XV.F - , ~ u.b.!._./.C.s.5.+.+.+.&.&.) ^ ' ,.:.} H v y 4 = - $ 9X9X9X9X9X9X9X9X9X9X9X9X9X9X9X9X9X9X9X9X9X9X9X9X9X9X9X9X9X9X9X9X9X9X",
"9X9X9X9X  8 3.).{./.OX.Xg.~ h d Y d.Q.).).U.x.0.+.~ G G F G G ) 7.0.u.>.{ b u 3 * $ $ $ 9X9X9X9X9X9X9X9X9X9X9X9X9X9X9X9X9X9X9X9X9X9X9X9X9X9X9X9X9X9X9X9X9X9X",
"9X9X9X9X  8 3.`.OX).).N.F , x p.].W.P.N.0.,.+.) ) ~ ~ ~ ( G F q.P.F.<.K v y u y t 6 - $ 9X9X9X9X9X9X9X9X9X9X9X9X9X9X9X9X9X9X9X9X9X9X9X9X9X9X9X9X9X9X9X9X9X9X",
"9X9X9X9X  8 y.XXOXL.u.~ 5 =  ._.=XoXP.d.$.) ~ ~ ~ ` +.) ( ) >.x.P.k.[ d y 7 6 r u y 6 % $ 9X9X9X9X9X9X9X9X9X9X9X9X9X9X9X9X9X9X9X9X9X9X9X9X9X9X9X9X9X9X9X9X9X",
"9X9X9X9X  w z.&XOXf.A 4 0 ~ d.).;X.XU.d.7.7.$.( ( &.9.` ~ q.F.b.<.[ v u u 7 = < r d y 7 < $ 9X9X9X9X9X9X9X9X9X9X9X9X9X9X9X9X9X9X9X9X9X9X9X9X9X9X9X9X9X9X9X9X",
"9X9X9X9X  p S.,X(.#.w % C g.T.P.U.U.C.w.8.0.0.@.+.%.7.' +.N.|.b.[ y r 3 r 6 1 = 3 r u y 4 $ 9X9X9X9X9X9X9X9X9X9X9X9X9X9X9X9X9X9X9X9X9X9X9X9X9X9X9X9X9X9X9X9X",
"9X9X9X9X  w S.*XY.{ x b :.P.P.g.u.d.0.9.7.0.0.0.%.+.' ' 7.P._.v.[ u 2 # * 3 7 7 < < r y 2 ; 9X9X9X9X9X9X9X9X9X9X9X9X9X9X9X9X9X9X9X9X9X9X9X9X9X9X9X9X9X9X9X9X",
"9X9X9X9X  t B.*XS.L B { l._.W.d.0.0.0.d.u.0.0.w.0.+.) $.u.P.).b.X.d = X + * r r 1 1 7 t 4 - $ 9X9X9X9X9X9X9X9X9X9X9X9X9X9X9X9X9X9X9X9X9X9X9X9X9X9X9X9X9X9X9X",
"9X9X9X9X  > S.<XI.[ b L r.'.`.Y.C.C.L.P.N.u.7.0.0.7.%.5.w.P.`.P.2.M = . o @ * 2 < 6 t t 6 < - $ 9X9X9X9X9X9X9X9X9X9X9X9X9X9X9X9X9X9X9X9X9X9X9X9X9X9X9X9X9X9X",
"9X9X9X9X$ M G.oXl.J H | p./.|.`.`.`.`.|.].x.0.9.0.w.0.9.0.N.].W.h./ 4 o < 1 $ * t c u y c c 6 $ $ 9X9X9X9X9X9X9X9X9X9X9X9X9X9X9X9X9X9X9X9X9X9X9X9X9X9X9X9X9X",
"9X9X* 8 X.b.R.c.T t T z.!./.`.)._.`.`.`.'./.C.w.7.0.s.9.9.w.c.W.R.o.2 * b x * < M U x y I Y a $ o 9X9X9X9X9X9X9X9X9X9X9X9X9X9X9X9X9X9X9X9X9X9X9X9X9X9X9X9X9X",
"9X9X* k !.4X[.@.9 $  .`.oX/./._._./.'.'.'.`.].x.0.9.9.0.w.9.7.Z.`.e.4 < J H < > C ~ s c :.s.F $ o 9X9X9X9X9X9X9X9X9X9X9X9X9X9X9X9X9X9X9X9X9X9X9X9X9X9X9X9X9X",
"9X9X$ v /.4X[.+.4 $  .`.oX/./././.'.'._.W.C.B.C.x.7.$.d.C.0.' x.`.r.6 + u y 1 - w s 7 x m.(.O.$ O 9X9X9X9X9X9X9X9X9X9X9X9X9X9X9X9X9X9X9X9X9X9X9X9X9X9X9X9X9X",
"9X9X$ g G.<X[.$.q - { (.OX/././.'./.).`.P.w.u.].].,.( z._.p.( u.).y.7   + $ & & + # & B ^.>Xt.$   9X9X9X9X9X9X9X9X9X9X9X9X9X9X9X9X9X9X9X9X9X9X9X9X9X9X9X9X9X",
"9X9X* g Y.=X(.@.5 = Q /..X_._./././.`.`.P.9.q.W._.,.( x.|.d.~ 0.'.y.7   . o # @ X X + H }.1Xt.;   9X9X9X9X9X9X9X9X9X9X9X9X9X9X9X9X9X9X9X9X9X9X9X9X9X9X9X9X9X",
"9X9X$ g L.:X).>.q % } /.oX/././._.'._.`.P.s.u.].].,.( h./.p.( s.).r.7   @ % & $ @ & # n ^.>Xt.$   9X9X9X9X9X9X9X9X9X9X9X9X9X9X9X9X9X9X9X9X9X9X9X9X9X9X9X9X9X",
"9X9X$ g K.,XoXs.w $ Q `.oX/./.'./.(._._.].L.N.C.x.9.$.d.C.9.+.c.|.r.6 $ g a = * y d 1 y t.^.O.$ 9X9X9X9X9X9X9X9X9X9X9X9X9X9X9X9X9X9X9X9X9X9X9X9X9X9X9X9X9X9X",
"9X9X& s K.2X,XF.l $ R ).oX/.'._.'.'./.'._.`.].x.9.9.9.0.0.7.9.Z.`.1.2 , ! F 2 < H T u u ;.a.D $ 9X9X9X9X9X9X9X9X9X9X9X9X9X9X9X9X9X9X9X9X9X9X9X9X9X9X9X9X9X9X",
"9X9X$ g K.3X,XU.Q y L j.U.~.`.`._.`.`.`.'.].N.w.7.9.w.w.9.u.c.R.T.o.2 - l g $ @ y L *.e.0.' k $ o 9X9X9X9X9X9X9X9X9X9X9X9X9X9X9X9X9X9X9X9X9X9X9X9X9X9X9X9X9X",
"9X9X$ g F.4X=X].1.L H } p.~.|._.`._.`.|.].x.9.0.0.0.0.9.0.C./.W.h.U 2 + - * + @ # W J. XV.! w $ o $ $ $ $ 9X9X9X9X9X9X9X9X9X9X9X9X9X9X9X9X9X9X9X9X9X9X9X9X9X",
"9X9X$ s z.%X;XU.r.E b L r._._.Z.B.B.C.P.N.w.9.0.0.>.%.>.u.P.`.I.,.m =     o 8 g p O. X6XN.a : < = < < < - 9X9X9X9X9X9X9X9X9X9X9X9X9X9X9X9X9X9X9X9X9X9X9X9X9X",
"9X9X$ d a.XXXXU.1.L b | l._.W.s.9.0.w.u.w.0.0.w.0.+.( @.w.U._.b.X.f *     : Y 7.@.d.1X>X;.$ * r t 7 r 7 4 * $ $ $ + o X o O o 9X9X9X9X9X9X9X9X9X9X9X9X9X9X9X",
"9X9X* h z.*X%X).b.=.b v *.L.T.h.u.d.w.9.9.0.0.9.%.+.+.' ,.Z.`.v.[ r < 4 n ;.V.E.M.h.^.m.n X $ y c v b b u 2 * % 4 8 g M C K m 8 9X9X9X9X9X9X9X9X9X9X9X9X9X9X",
"9X9X% g Y.5X3X@X|.n.C & l d.T.R./.W.C.u.9.w.9.&.' 5.9.+.` c.`.v.[ r 2 W H.$X$X XA.7. .n 2 + * r b L [ L b r 2 2 h U 7.g.G.U.p.C $ 9X9X9X9X9X9X9X9X9X9X9X9X9X",
"9X9X* 8 ;.`.=X2X3X Xo.5 , F s._.;X|.].d.5.5.&.( ~ &.7.) ^ u.P.F.e.H u -.>X7X6X Xc.U 8 @ @ < 7 c K } X. .L m d d U q.R..X;X,X/.R o O 9X9X9X9X9X9X9X9X9X9X9X9X",
"9X9X9X9X4 E ~.7X7X@XN.^ q : Q _.=XXXU.d.$.) ~ ! ( ) ' ( ( %.d.P.!.e.H e.$X6X6X X<.j % @ & r x L R _ ) _ / U D Z #.c.`.`.|.oXU.R + 9X9X9X9X9X9X9X9X9X9X9X9X9X",
"9X9X9X9X  $ O.`.,X<X-XE._ 5 m y.P.].T.C.s.9.+.' ) ! ! ! ( ( $.h.U.l.o.e.^. X Xm.B # + < t b L |  .) ] ( ] ] ) ( 2.U.XX.X`.+XU.R o 9X9X9X9X9X9X9X9X9X9X9X9X9X",
"9X9X9X9X9X9X> T !.5X7X*XP.>.N s U s.R.`._.W.b.0.@.~ ! G ! Y ( ` %.8.q.a.i.e.| B 6 & < t V [ | | O.' ] ] ] ' ) R r./.%XoXoX=X'.R o 9X9X9X9X9X9X9X9X9X9X9X9X9X",
"9X9X9X9X9X9X9X$ X.`.@X`.P.0.l O % F 0.z.U._./.Z.d.7.&.&.$.&.&.] ( +.%.o.J c y 2 $ $ < d V L L J D F G G G F C V } i.F.b.x.K.a.m o O 9X9X9X9X9X9X9X9X9X9X9X9X",
"9X9X9X9X9X9X9X9Xw I E I C l 4 ; $ 0 h g Q u.Q.).(.R.L.Z.P.P.P.N.0.) C d u c C N 9 + * 2 7 8 8 7 8 8 8 w w 5 5 7 y l m g d h j *                   O $ $ 9X9X",
"9X9X9X9X9X9X9X9X9XO   O X o $ $ $ o     = F 0.b.U.~.~.~.~.~.U.b.q.U d 7 r m ~ A 5 ; ; $ ; ; o o o o o o o o o o o o ; % : 4 4 6 8 8 p p p p p p p 8 = & 9X9X",
"9X9X9X9X9X9X9X9X9X9X9X9X9X9X9X9X$ $ o X $ 5 l J } *.1.e.1.X.[ L I C M N A M s 9 = ; o o o                         o y R 9.z.n.q.2.g.Y.U.Y.Y.Y.!./.2.w $ 9X9X",
"9X9X9X9X9X9X9X9X9X9X9X9X9X9X9X9X9X- $ $ $ o $ 2 d P | | } b y 3 3 v ^ $.+.Z 9 o $ - = = = , 4 4 9 4 4 4 9 4 4 , 2 3 V 2.Q.#X%X).Y.).#X&X#X#X#X,X<Xn.f $ 9X9X",
"9X9X9X9X9X9X9X9X9X9X9X9X9X9X9X9X9X9X9X9Xo . - m :.p.S.F.v.y._ d 1 a +.6.@.S t * = 4 y v A Y o.:.3.:.:.:.:.:.2.2.} i 7 m X.i.v.j.e.3.:.#.;.:.:.3.2.T 9 & 9X9X",
"9X9X9X9X9X9X9X9X9X9X9X9X9X9X9X9X9X9X9X9X9Xo 9 ~ d.P./.`./.C.0.U d K 9.w.+.A f r r c H | %.d.P.|.|.`.|.`.|.`..XoXb.K 6 7 d H { | L y o O $ o o o ; ; $ - 9X9X",
"9X9X9X9X9X9X9X9X9X9X9X9X9X9X9X9X9X9X9X9X9X@ - 8 M R X.=.X.U C R <.z.Y.c.$.Z d u v P L | 7.h.Q.+X%XoXoXoX+X%X=X,X_.r._ =.i.z.k.e.L 6 O   9X9X9X9X9X9X9X9X9X9X",
"9X9X9X9X9X9X9X9X9X9X9X9X9X9X9X9X9X9X9X9X9X$ $ $ = 6 y y y 3 y *.W.oX|.c.%.M u u H { [ { #.u.C.'.`./././.'./.'._.P.w.w.L.`..X].r.L t $ o 9X9X9X9X9X9X9X9X9X9X",
"9X9X9X9X9X9X9X9X9X9X9X9X9X9X9X9X9X9X9X9X9X@ 4 m Q  .| | } { X.z.|..XP.d.$.N p u L | | } o.2.y.j.v.l.l.l.r.o. .o._ U Y o.1.3.o.T d 4 % 9X9X9X9X9X9X9X9X9X9X9X",
"9X9X9X9X9X9X9X9X9X9X9X9X9X9X9X9X9X9X9X9X9XO w r.`.`././.~.W./._._.P.d.%.' Z h i P | { [ [ [ { { } { | | B < $ - * * % - - = = % - 9X9X9X9X9X9X9X9X9X9X9X9X9X",
"9X9X9X9X9X9X9X9X9X9X9X9X9X9X9X9X9X9X9X9X9X  h z.=X=X#X%X%XoX.X{._.C.w.$.' D d y v H H H v d u d u u d d 4 o     O o o X     O o ; 9X9X9X9X9X9X9X9X9X9X9X9X9X",
"9X9X9X9X9X9X9X9X9X9X9X9X9X9X9X9X9X9X9X9X9X  p y.oX%X&X*X%X.X'.'._.P.s.%.' D f r y u d y 6 - % - - = = - % 9X9X9X9X9X9X9X9X9X9X9X9X9X9X9X9X9X9X9X9X9X9X9X9X9X",
"9X9X9X9X9X9X9X9X9X9X9X9X9X9X9X9X9X9X9X9X9XO 8 3.[.%X<X<X*XoX.X`.`.C.w.5.+.F v 7 3 2 4 2 $ o o + o o o o 9X9X9X9X9X9X9X9X9X9X9X9X9X9X9X9X9X9X9X9X9X9X9X9X9X9X",
"9X9X9X9X9X9X9X9X9X9X9X9X9X9X9X9X9X9X9X9X9XX 8 ) Z.OX=X,X&X&X%XoX`.C.d.%.' F v 3 < $ % $ 9X9X9X9X9X9X9X9X9X9X9X9X9X9X9X9X9X9X9X9X9X9X9X9X9X9X9X9X9X9X9X9X9X9X",
"9X9X9X9X9X9X9X9X9X9X9X9X9X9X9X9X9X9X9X9X9X9X= a +.U.=X3X2X3X3X*X.XP.h.%.( l y 2 $ $ $ $ 9X9X9X9X9X9X9X9X9X9X9X9X9X9X9X9X9X9X9X9X9X9X9X9X9X9X9X9X9X9X9X9X9X9X",
"9X9X9X9X9X9X9X9X9X9X9X9X9X9X9X9X9X9X9X9X9X9X9X; d p.%X3X3X5X4X=XoXQ.M.+.V 7 : $ 9X9X9X9X9X9X9X9X9X9X9X9X9X9X9X9X9X9X9X9X9X9X9X9X9X9X9X9X9X9X9X9X9X9X9X9X9X9X",
"9X9X9X9X9X9X9X9X9X9X9X9X9X9X9X9X9X9X9X9X9X9X9X9X% U p.b.S.K.K.b.p.2.+.C r * $ $ 9X9X9X9X9X9X9X9X9X9X9X9X9X9X9X9X9X9X9X9X9X9X9X9X9X9X9X9X9X9X9X9X9X9X9X9X9X9X",
"9X9X9X9X9X9X9X9X9X9X9X9X9X9X9X9X9X9X9X9X9X9X9X9X9X9 h g g g g g s p 8 4 = * 9X9X9X9X9X9X9X9X9X9X9X9X9X9X9X9X9X9X9X9X9X9X9X9X9X9X9X9X9X9X9X9X9X9X9X9X9X9X9X9X",
"9X9X9X9X9X9X9X9X9X9X9X9X9X9X9X9X9X9X9X9X9X9X9X9X9X& * $ $ $ $ * $ $ $ * $ $ 9X9X9X9X9X9X9X9X9X9X9X9X9X9X9X9X9X9X9X9X9X9X9X9X9X9X9X9X9X9X9X9X9X9X9X9X9X9X9X9X",
"9X9X9X9X9X9X9X9X9X9X9X9X9X9X9X9X9X9X9X9X9X9X9X9X9X9X9X9X9X9X9X9X9X9X9X9X9X9X9X9X9X9X9X9X9X9X9X9X9X9X9X9X9X9X9X9X9X9X9X9X9X9X9X9X9X9X9X9X9X9X9X9X9X9X9X9X9X9X"
};
