/* XPM */
static xpm_row_t const player_right2[] = {
/* columns rows colors chars-per-pixel */
"78 67 204 2 ",
"   c #030203",
".  c #070409",
"X  c #09060A",
"o  c #0D0B0D",
"O  c #090807",
"+  c #100F0F",
"@  c #0E0B10",
"#  c #0E0711",
"$  c #110E12",
"%  c #170F18",
"&  c #151415",
"*  c #191A17",
"=  c #171519",
"-  c #19151B",
";  c #1C1A1C",
":  c #171915",
">  c #11120E",
",  c #1E211A",
"<  c #20211F",
"1  c #1F1623",
"2  c #1E1B21",
"3  c #221D24",
"4  c #231B26",
"5  c #242324",
"6  c #272825",
"7  c #292A26",
"8  c #262229",
"9  c #2A252C",
"0  c #2C2B2B",
"q  c #282626",
"w  c #302E2F",
"e  c #2F302D",
"r  c #31342C",
"t  c #2D2732",
"y  c #2E2932",
"u  c #312C34",
"i  c #352E3A",
"p  c #333234",
"a  c #363239",
"s  c #39343B",
"d  c #3C3B3C",
"f  c #373935",
"g  c #3E4338",
"h  c #41443D",
"j  c #444A3D",
"k  c #3C3542",
"l  c #3E3B42",
"z  c #3F3C48",
"x  c #433D46",
"c  c #443E49",
"v  c #434344",
"b  c #474B41",
"n  c #494D44",
"m  c #46414A",
"M  c #49444D",
"N  c #4B4B4B",
"B  c #474C4F",
"V  c #4C5345",
"C  c #4E5448",
"Z  c #4D5842",
"A  c #515A47",
"S  c #51564B",
"D  c #535B4B",
"F  c #4C4553",
"G  c #4F4A52",
"H  c #514C54",
"J  c #544D5A",
"K  c #535352",
"L  c #575C51",
"P  c #595D53",
"I  c #55515B",
"U  c #5A555D",
"Y  c #5B5A5D",
"T  c #555D5B",
"R  c #59634E",
"E  c #57614C",
"W  c #5B6453",
"Q  c #5E6557",
"!  c #616B56",
"~  c #62655B",
"^  c #636D5A",
"/  c #66715C",
"(  c #69735E",
")  c #647057",
"_  c #5C5562",
"`  c #5C5963",
"'  c #625C66",
"]  c #645D6A",
"[  c #5E6163",
"{  c #666B61",
"}  c #65626A",
"|  c #69646D",
" . c #6D6D6E",
".. c #676767",
"X. c #6B7363",
"o. c #6E7964",
"O. c #6F716B",
"+. c #717B66",
"@. c #737B6C",
"#. c #72766F",
"$. c #6E6B72",
"%. c #646471",
"&. c #716C75",
"*. c #736C78",
"=. c #6E7079",
"-. c #747474",
";. c #777C71",
":. c #797F72",
">. c #77737B",
",. c #7C7C7D",
"<. c #7A757F",
"1. c #75806A",
"2. c #78816F",
"3. c #7C8474",
"4. c #7D8379",
"5. c #7F8877",
"6. c #82877C",
"7. c #838B7C",
"8. c #808877",
"9. c #7D7982",
"0. c #807E82",
"q. c #7F8C92",
"w. c #838286",
"e. c #868B81",
"r. c #888E82",
"t. c #868489",
"y. c #8C8D8C",
"u. c #888A8A",
"i. c #8B9284",
"p. c #8E9589",
"a. c #879285",
"s. c #91968C",
"d. c #949B8E",
"f. c #939D87",
"g. c #918F92",
"h. c #949594",
"j. c #939A93",
"k. c #999D94",
"l. c #9B9B9C",
"z. c #98989A",
"x. c #86929A",
"c. c #9BA195",
"v. c #9FA39B",
"b. c #A1A49D",
"n. c #A3AC9D",
"m. c #A4B19F",
"M. c #9F9CA1",
"N. c #A09DA2",
"B. c #94A0AA",
"V. c #A3A3A3",
"C. c #A7ABA3",
"Z. c #A9ABA6",
"A. c #A6A5A9",
"S. c #A9A7AB",
"D. c #ACACAB",
"F. c #A6A8AA",
"G. c #ABB2A5",
"H. c #AFB2AC",
"J. c #B2B7AE",
"K. c #ADADB0",
"L. c #A0ACB2",
"P. c #B1AEB3",
"I. c #AEB1B1",
"U. c #A7B8B8",
"Y. c #B5B5B5",
"T. c #B6B9B4",
"R. c #B9BCB6",
"E. c #B6B9BB",
"W. c #BBBBBB",
"Q. c #B5B7B8",
"!. c #BEC2BD",
"~. c #C0C2BE",
"^. c #B5BEC1",
"/. c #C0BFC1",
"(. c #BEC1C1",
"). c #B4C6C6",
"_. c #B9CDD3",
"`. c #B7CAD1",
"'. c #BFD4D7",
"]. c #C3C4C4",
"[. c #C5C6C8",
"{. c #CBCBCC",
"}. c #C6C8C7",
"|. c #CCD0CD",
" X c #CFD1D2",
".X c #C0D6DA",
"XX c #D2D3D4",
"oX c #D6D9DA",
"OX c #DADCDC",
"+X c #D5D7D8",
"@X c #D0D0CF",
"#X c #DCE1DE",
"$X c #C3D7E0",
"%X c #DCDEE0",
"&X c #DEE1E2",
"*X c #D0E9EB",
"=X c #E2E5E6",
"-X c #E4E6E8",
";X c #E9ECED",
":X c #E5E8EA",
">X c #EDF8F8",
",X c #FBFEFF",
"<X c #F3F9F9",
"1X c None",
/* pixels */
"1X1X1X1X1X1X1X1X1X1X1X1X1X1X1X1X1X1X1X1X1X1X1X1X1X1X1X1X1X1X1X1X1X1X1X1X1X1X1X1X1X1X1X1X1X1X1X1X1X1X1X1X1X1X1X1X1X1X1X1X1X1X1X1X1X1X1X1X1X1X1X1X1X1X1X1X1X1X",
"1X1X1X1X1X1X1X1X1X1X1X1X1X1X1X1X1X1X1X1X1X1X1X1X1X1X1X1X1X1X1X1X1X1X1X1X1X1X1X1X1X1X1X1X1X1X1X1X1X1X1X1X1X1X1X1X1X1X1X1X1X1X1X1X1X1X1X1X1X1X1X1X1X1X1X1X1X1X",
"1X1X1X1X1X1X1X1X1X1X1X1X1X1X1X1X1X1X1X1X1X1X1X= & & = = = = & = = 1X1X1X1X1X1X1X1X1X1X1X1X1X1X1X1X1X1X1X1X1X1X1X1X1X1X1X1X1X1X1X1X1X1X1X1X1X1X1X1X1X1X1X1X1X",
"1X1X1X1X1X1X1X1X1X1X1X1X1X1X1X1X1X1X1X1X1X1X1Xw g x h d f d f f 7 1X1X1X1X1X1X1X1X1X1X1X1X1X1X1X1X1X1X1X1X1X1X1X1X1X1X1X1X1X1X1X1X1X1X1X1X1X1X1X1X1X1X1X1X1X",
"1X1X1X1X1X1X1X1X1X1X1X1X1X1X1X1X1X1X1X1X1X1X5 O.A.D.F.h.y.h.y.3.S 3 1X1X1X1X1X1X1X1X1X1X1X1X1X1X1X1X1X1X1X1X1X1X1X1X1X1X1X1X1X1X1X1X1X1X1X1X1X1X1X1X1X1X1X1X",
"1X1X1X1X1X1X1X1X1X1X1X1X1X1X1X1X1X1X1X1X1X: K F.:X;X:X+X{.{.!.n.+.g * 1X1X1X1X1X1X1X1X1X1X1X1X1X1X1X1X1X1X1X1X1X1X1X1X1X1X1X1X1X1X1X1X1X1X1X1X1X1X1X1X1X1X1X",
"1X1X1X1X1X1X1X1X1X1X1X1X1X1X1X1X1X1X1X1X5 n 7.!.=X&X%XoXXX[.H.k.@.! g < 1X1X1X1X1X1X1X1X1X1X1X1X1X1X1X1X1X1X1X1X1X1X1X1X1X1X1X1X1X1X1X1X1X1X1X1X1X1X1X1X1X1X",
"1X1X1X1X1X1X1X1X1X1X1X1X1X1X1X1X1X1X1XO r ;.R.XX%XOX+X%XXX].S.s.3.2.D 7 o 1X1X1X1X1X1X1X1X1X1X1X1X1X1X1X1X1X1X1X1X1X1X1X1X1X1X1X1X1X1X1X1X1X1X1X1X1X1X1X1X1X",
"1X1X1X1X1X1X1X1X1X1X1X1X1X1X1X1X1X1X1XO p u.}.+X%X+XOX%X+X].S.d.3.+.V 6 o 1X1X1X1X1X1X1X1X1X1X1X1X1X1X1X1X1X1X1X1X1X1X1X1X1X1X1X1X1X1X1X1X1X1X1X1X1X1X1X1X1X",
"1X1X1X1X1X1X1X1X1X1X1X1X1X1X1X1X1X1X1X  d z.+X+XoXOXOXOX@X/.Z.i.+.o.V 6 @ 1X1X1X1X1X1X1X1X1X1X1X1X1X1X1X1X1X1X1X1X1X1X1X1X1X1X1X1X1X1X1X1X1X1X1X1X1X1X1X1X1X",
"1X1X1X1X1X1X1X1X1X1X1X1X1X1X1X1X1X1X1X  l b.OX{.XX=X=XXX]./.b.:.! / V 7 o 1X1X1X1X1X1X1X1X1X1X1X1X1X1X1X1X1X1X1X1X1X1X1X1X1X1X1X1X1X1X1X1X1X1X1X1X1X1X1X1X1X",
"1X1X1X1X1X1X1X1X1X1X1X1X1X1X1X1X1X1X1XO e -.l.g.z.S.S.h.M.W.Z.+.E ^ A 5 o 1X1X1X1X1X1X1X1X1X1X1X1X1X1X1X1X1X1X1X1X1X1X1X1X1X1X1X1X1X1X1X1X1X1X1X1X1X1X1X1X1X",
"1X1X1X1X1X1X1X1X1X1X1X1X1X1X1X1X1X1X1X& * 9 a k c m c s } Y.R.:.A / V < . 1X1X1X1X1X1X1X1X1X1X1X1X1X1X1X1X1X1X1X1X1X1X1X1X1X1X1X1X1X1X1X1X1X1X1X1X1X1X1X1X1X",
"1X1X1X1X1X1X1X1X1X1X1X1X1X1X1X1X1X1X1X= = * 7 d c c s u H t.h.:.^ / A f ; 1X1X1X1X1X1X1X1X1X1X1X1X1X1X1X1X1X1X1X1X1X1X1X1X1X1X1X1X1X1X1X1X1X1X1X1X1X1X1X1X1X",
"1X1X1X1X1X1X1X1X1X1X1X1X1X1X1X1X1X1X1Xo 7 D 6.h.V.N.h.6.{ H U #.8.+.R E h 5 1X1X1X1X1X1X1X1X1X1X1X1X1X1X1X1X1X1X1X1X1X1X1X1X1X1X1X1X1X1X1X1X1X1X1X1X1X1X1X1X",
"1X1X1X1X1X1X1X1X1X1X1X1X1X1X1X1X1X1X1XX 5 Q p.V.Y.Y.V.i.P 4 y X.8.( ^ +.R 7 o 1X1X1X1X1X1X1X1X1X1X1X1X1X1X1X1X1X1X1X1X1X1X1X1X1X1X1X1X1X1X1X1X1X1X1X1X1X1X1X",
"1X1X1X1X1X1X1X1X1X1X1X1X1X1X1X1X= = > O & 9 N ` &.&.' c 9 4 a Q 1.( / X.S 7 o 1X1X1X1X1X1X1X1X1X1X1X1X1X1X1X1X1X1X1X1X1X1X1X1X1X1X1X1X1X1X1X1X1X1X1X1X1X1X1X",
"1X1X1X1X1X1X1X1X1X1X1X1X1X1X1X& > o = 5 p l J ' $.$.' H c x v V S S W ( S 7 @ 1X1X1X1X1X1X1X1X1X1X1X1X1X1X1X1X1X1X1X1X1X1X1X1X1X1X1X1X1X1X1X1X1X1X1X1X1X1X1X",
"1X1X1X1X1X1X1X1X      O o = & o     : n 3.g.V.A.S.S.A.V.h.e.~ l 0 y v ^ R 7 o & & + o + + o o + @ o $ + + O       O 1X1X1X1X1X1X1X1X1X1X1X1X1X1X1X1X1X1X1X1X",
"1X1X1X1X1X1X1Xp N v v d 7 = > 5 e p K 7.G.T.W.I.Z.D.H.T.Z.f.X.G a i l S V 6 $ - 2 5 9 8 5 7 6 6 6 7 5 5 q a l d d d p 1X1X1X1X1X1X1X1X1X1X1X1X1X1X1X1X1X1X1X",
"1X1X1X1X1X1Xq w.~.W.D.p.S & o j :.y.V.Y.T.b.p.4.@.@.3.3.@./ ^ @.O.Y F m e * & 5 f F J F N S S C A A V c U 0.k.h.h.M.-.p 1X1X1X1X1X1X1X1X1X1X1X1X1X1X1X1X1X1X",
"1X1X1X1X1X5  .}.,X<X].f.P f N 8.G.W.W.Y.k.7.( R A E D A W X.3.7.,.} M i 4 1 ; 4 s F ` ' ] X./ ( ( ( / Y <.Y.+X}.{.OXN.d   1X1X1X1X1X1X1X1X1X1X1X1X1X1X1X1X1X",
"1X1X1X1X5 9.|.&XOX~.6.f w -.V.P.D.b.r.:.X.X.^ W P W P Z ( v.S.0.U c i i u t 5 ; 3 u F _ } ^ ) ^ ^ / / Q :.D.}.].].{.h.d   1X1X1X1X1X1X1X1X1X1X1X1X1X1X1X1X1X",
"1X1X1X6  .[.,X;XR.8.h * h N.OX{.H.p.+.^ R R ! ( ( ! ! X.7.F.N.] k u 9 9 t i y ; = 1 i c U Q ^ ~ Q P S V X.l.W.W.].@Xz.f O 1X1X1X1X1X1X1X1X1X1X1X1X1X1X1X1X1X",
"1X= f t.}.OX-X&XM.h < j 8.P.{.[.H.s.2.8.+.Q ! ;.2.! X.j.N.t.' c i i 9 ; 2 u i u 5 - 2 y m U ] | U m f i H 7.G.~.XXOXb.d   1X1X1X1X1X1X1X1X1X1X1X1X1X1X1X1X1X",
"1X= v Q.<X=X[.Y.>.q 0 ;.G.Z.D.D.b.7.8.7.8.X.X.3.2.^ 8.T.P.*.k t 4 t 8 1 - 4 y i y = & 3 s M I I M t 4 1 p S ;.u.l.M.>.p 1X1X1X1X1X1X1X1X1X1X1X1X1X1X1X1X1X1X",
"1X& d l.+X{.D.t.U c U l.J.d.7.r.7.8.8.7.7.8.@.( ^ +.p.T.S.*.x 4 & - 4 t 9 2 2 y 9 = = 9 s k x c i 3 & & 2 6 p f d h p 1X1X1X1X1X1X1X1X1X1X1X1X1X1X1X1X1X1X1X",
"1X& d z.{.].l.| c F >.D.W.c.7.7.p.f.i.7.6.r.8.( / 2.k.Y.D.0.m 5 O o = 8 9 - 1 t y 2 ; 8 t 8 4 8 3 = & & > o O O     1X1X1X1X1X1X1X1X1X1X1X1X1X1X1X1X1X1X1X1X",
"1X: h F.%X}.N.&.J c | V./.H.S.Z.Z.H.b.7.8.8.7.3.2.3.d.Y.Y.s.P q X # @ = 2 3 t y y 4 3 2 * ; ; ; * 1X1X1X1X1X1X1X1X1X1X1X1X1X1X1X1X1X1X1X1X1X1X1X1X1X1X1X1X1X",
"1X= v I.;XXXl.` c ' 0.A./.W.W.W.W./.Y.k.7.6.7.7.7.8.r.C.J.m.@.w @ 3 3 & 2 a c i a c d ; @ @ & & 1X1X1X1X1X1X1X1X1X1X1X1X1X1X1X1X1X1X1X1X1X1X1X1X1X1X1X1X1X1X",
"1X= v K.;X+Xh.f i ,.P.Y.W.W.Y.W.W.W.Q.W.C.7.8.7.7.8.8.i.b.R.y.u = c M 2 5 A P a d ~ Q 0 o 1X1X1X1X1X1X1X1X1X1X1X1X1X1X1X1X1X1X1X1X1X1X1X1X1X1X1X1X1X1X1X1X1X",
"1X= v H.:X{.,.; 8 h.XX/.Y.Y.Y.Y.Y.Q.Y.Y.Z.k.7.8.8.p.7.2.7.W.l.a = c M 2 ; V V y M j.a.f X 1X1X1X1X1X1X1X1X1X1X1X1X1X1X1X1X1X1X1X1X1X1X1X1X1X1X1X1X1X1X1X1X1X",
"1X& m Y.#XJ.{ , 0 g.{./.W.Y.Y.Y.Y.W.H.d.d.D.l.+.@.b.b.o.@.T.l.s # 1 8 = = 3 6 1 I ).L.v   1X1X1X1X1X1X1X1X1X1X1X1X1X1X1X1X1X1X1X1X1X1X1X1X1X1X1X1X1X1X1X1X1X",
"1X& m Y.OXn.P * w g.].W.Y.Y.Y.Y.W.W.C.7.r.Y.Z.X.( D.P.X.X.H.l.l   . @ & & # # = %.$X_.B   1X1X1X1X1X1X1X1X1X1X1X1X1X1X1X1X1X1X1X1X1X1X1X1X1X1X1X1X1X1X1X1X1X",
"1X= v Y.OXm.R * w y.[.W.Y.Y.Y.W.Y.W.S.7.7.W.S.X.X.D.H.X.X.H.M.l   . # & & # # = [ $X_.B   1X1X1X1X1X1X1X1X1X1X1X1X1X1X1X1X1X1X1X1X1X1X1X1X1X1X1X1X1X1X1X1X1X",
"1X= v W.&Xm.P * y g.{.W.W.Y.Y.Y.Y.W.D.k.d.Z.c.o.@.b.b.o.;.Y.l.d # < 8 - = 3 3 - J ^.U.v   1X1X1X1X1X1X1X1X1X1X1X1X1X1X1X1X1X1X1X1X1X1X1X1X1X1X1X1X1X1X1X1X1X",
"1X= N [.;Xm.A > 0 h.@X~.Y.Y.Y.Y.Q.Y.Y.Y.Z.k.7.8.8.r.r.;.7.!.l.a : n C < 2 c c 1 f a.a.f O 1X1X1X1X1X1X1X1X1X1X1X1X1X1X1X1X1X1X1X1X1X1X1X1X1X1X1X1X1X1X1X1X1X",
"1X= f u.W.D.;.w i 0.P.Y.W.W.W.Y.W.Q.W.W.Z.7.8.7.7.8.8.i.b.Y.y.u & V V ; 1 c _ J [ 2.^ 0 # 1X1X1X1X1X1X1X1X1X1X1X1X1X1X1X1X1X1X1X1X1X1X1X1X1X1X1X1X1X1X1X1X1X",
"1X1X1X0 ..Y.Q.| c ' 0.S./.W.W.W././.P.c.7.7.7.7.7.8.r.C.H.m.@.w @ 5 5 @ # 1 _ B.U.a.A 7 @ 1X1X1X1X1X1X1X1X1X1X1X1X1X1X1X1X1X1X1X1X1X1X1X1X1X1X1X1X1X1X1X1X1X",
"1X1X1X  a W.%X0.F c | V./.H.D.Z.Z.P.b.7.2.7.7.3.:.8.d.Y.Y.s.P 0 X   # < 0 9 =.$X*X3.r ; 1X1X1X1X1X1X1X1X1X1X1X1X1X1X1X1X1X1X1X1X1X1X1X1X1X1X1X1X1X1X1X1X1X1X",
"1X1X1X  g E. X9.c J >.K.Q.k.7.r.i.s.i.7.7.7.7.( ( 2.k.T.D.0.m 4     & b ( ~ j.*X.XQ o 1X1X1X1X1X1X1X1X1X1X1X1X1X1X1X1X1X1X1X1X1X1X1X1X1X1X1X1X1X1X1X1X1X1X1X",
"1X1X1X  m E.XXt.N x _ l.J.h.7.7.7.8.8.7.7.8.@.( ^ +.p.T.S.&.s 1 1 t ` p.m.f.c.).x.a   1X1X1X1X1X1X1X1X1X1X1X1X1X1X1X1X1X1X1X1X1X1X1X1X1X1X1X1X1X1X1X1X1X1X1X",
"1X1X1X  v Q.OXc.S ; u :.G.Z.D.P.b.i.8.7.8.o.( 8.2.^ 3.Y.K.&.i 4 z q.`.'.).n.8.$.z 5 X 1X1X1X1X1X1X1X1X1X1X1X1X1X1X1X1X1X1X1X1X1X1X1X1X1X1X1X1X1X1X1X1X1X1X1X",
"1X1X1X  v D.OXJ.+.f < j 8.D.{.[.H.s.8.2.o.W ~ :.:.W X.v.S.t._ i [ _.>X>X.Xj.S q @ & 1X1X1X1X1X1X1X1X1X1X1X1X1X1X1X1X1X1X1X1X1X1X1X1X1X1X1X1X1X1X1X1X1X1X1X1X",
"1X1X1X  d z.{.(.k.;.j * h N.OX{.K.p.+.^ R R ! / ( W ( 7.b.H.g.H %.`.<X>X'.=.9 ; $ 1X1X1X1X1X1X1X1X1X1X1X1X1X1X1X1X1X1X1X& O       O O               O + = 1X",
"1X1X1X  f g.].].W.J.8.r 9 $.V.H.G.b.r.:.X.( ~ W R R ! ( 7.Z.M.-.=.L._._.x.z # $ 1X1X1X1X1X1X1X1X1X1X1X1X1X1X1X1X1X1X1X= 5 p h v v d f v N v N v N N d < = 1X",
"1X1X1XO f y.].Y.W.@XJ.2.j w v 8.G.W.W.J.k.7.( ! A E R R ^ X.3.6.q.q.$.` l 2 o 1X1X1X1X1X1X1X1X1X1X1X1X1X1X1X1X1X    O = m ;.C.Q.I.s.s.Y.].].^.].[. Xz.d = 1X",
"1X1X1XO l l.XX].}.&XOX~.:.0 * j @.y.V.Y.Y.b.p.3.@.;.;.;.+.^ / @.X.G s t 5 6 < 1X1X1X1X1X1X1X1X1X1X1X1X1X1X1X1Xp l d a 8 c -.H.[.[.Z.A.Y.].^.(.~.`. Xz.d = 1X",
"1X1X1X  m Q.>XOX X+X%XoXF.X.r 7 < 8 N 7.H.R.E.I.D.H.H.Y.Z.f.o.N i y a b D E j 5 1X1X1X1X1X1X1X1X1X1X        5 #.V.V.>.x 4 u H | <.>.| G v n m N N N d 5 = 1X",
"1X1X1X1Xf t.}.OX=XOX%X:X[.i.Z 7 @ # 5 C :.p.V.A.S.S.A.V.h.e.~ x 9 9 v W o.o.D 6 o 1X1X1X1X1X1X1X1Xp d d p 0 Y A.OXOXD...a x H ' | ] x &               + = 1X",
"1X1X1X1X1X6  .{.<X=XoX=X(.5.A Z n n l p w l J ' $.$.' G c x v S S S D Q / ( C 6 o @ & & & o .   q #.V.h.g.y.b.Y.{.@XY.r.4.k.P.Y.N.<.m 2 O 1X1X1X1X1X1X1X1X1X",
"1X1X1X1X1X1X5 9.}.+X:X;X(.5.E ) O.$.F - X q M ` &.&.' m 9 4 u P +.+.( ^ ! ( S 0 & - ; * ; 5 5 ; K A.OXXX{.@X].T.Z.D.h.:.:.h.A.V.u.} a 2 1X1X1X1X1X1X1X1X1X1X",
"1X1X1X1X1X1X1X5  .}.,X,X|.7.W ) O.$.F - < P p.V.P.Y.b.p.P 4 9 ~ 8.8.2.^ W ) D u 4 8 9 3 t c H Q 7.Y.{.}.{.@X].C.p.w.' l w d h h f y 3 1X1X1X1X1X1X1X1X1X1X1X",
"1X1X1X1X1X1X1X1X5 w.(.W.j.{ b Z C K k - 5 D r.l.S.V.h.6.^ H U 6.c.p.8.( ^ ^ P n a i i a c J &.7.k.b.A.S.N.l.u.+.P G i =         . o 1X1X1X1X1X1X1X1X1X1X1X1X",
"1X1X1X1X1X1X1X1X1Xf v v d 0 6 6 7 q < = * 6 d G J M k u N 0.S.D.n.7.2.2.+./ Q W N a i F I I | 7.i.,.>.9.| v p 0 7 q 3 1X1X1X1X1X1X1X1X1X1X1X1X1X1X1X1X1X1X1X",
"1X1X1X1X1X1X1X1X1X1X      o @ o @ o > & = X o % 8 x m k ] S.XX{.R.c.i.d.7.X.W ( P f i J } _ } 4.#.G l c a &   O o + 1X1X1X1X1X1X1X1X1X1X1X1X1X1X1X1X1X1X1X1X",
"1X1X1X1X1X1X1X1X1X1X1X1X1X1X1X1X1X1X1X1X1X1X1XO f t.P.N.l.Y.].{.{.Y.A.Y.k.X.E ^ L a a J ] ` } $.U a ; 5 ; 1X1X1X1X1X1X1X1X1X1X1X1X1X1X1X1X1X1X1X1X1X1X1X1X1X",
"1X1X1X1X1X1X1X1X1X1X1X1X1X1X1X1X1X1X1X1X1X1X1X1Xu ,.T.W.~.W.].XXOX[./.].F.4.! / L f i F J G F F s ; O o 1X1X1X1X1X1X1X1X1X1X1X1X1X1X1X1X1X1X1X1X1X1X1X1X1X1X",
"1X1X1X1X1X1X1X1X1X1X1X1X1X1X1X1X1X1X1X1X1X1X1X1X1X0 L 7.T.}.OXOX+XXX{.].Z.i.+.( L l i k k 9 5 8 3 1X1X1X1X1X1X1X1X1X1X1X1X1X1X1X1X1X1X1X1X1X1X1X1X1X1X1X1X1X",
"1X1X1X1X1X1X1X1X1X1X1X1X1X1X1X1X1X1X1X1X1X1X1X1X1X1X& j i.~.-X&X%X=XOX{.H.c.3./ n p 4 q 3 & o o 1X1X1X1X1X1X1X1X1X1X1X1X1X1X1X1X1X1X1X1X1X1X1X1X1X1X1X1X1X1X",
"1X1X1X1X1X1X1X1X1X1X1X1X1X1X1X1X1X1X1X1X1X1X1X1X1X1X1X& K Z.:X;X;X>X=XXXR.n.:.S y 2 = = * 1X1X1X1X1X1X1X1X1X1X1X1X1X1X1X1X1X1X1X1X1X1X1X1X1X1X1X1X1X1X1X1X1X",
"1X1X1X1X1X1X1X1X1X1X1X1X1X1X1X1X1X1X1X1X1X1X1X1X1X1X1X1X8  .V.S.K.P.V.b.u.:.P a 1 & & & 1X1X1X1X1X1X1X1X1X1X1X1X1X1X1X1X1X1X1X1X1X1X1X1X1X1X1X1X1X1X1X1X1X1X",
"1X1X1X1X1X1X1X1X1X1X1X1X1X1X1X1X1X1X1X1X1X1X1X1X1X1X1X1X1Xw h l v v l d f p q 3 = 1X1X1X1X1X1X1X1X1X1X1X1X1X1X1X1X1X1X1X1X1X1X1X1X1X1X1X1X1X1X1X1X1X1X1X1X1X",
"1X1X1X1X1X1X1X1X1X1X1X1X1X1X1X1X1X1X1X1X1X1X1X1X1X1X1X1X1X& : = = & : = = = & & = 1X1X1X1X1X1X1X1X1X1X1X1X1X1X1X1X1X1X1X1X1X1X1X1X1X1X1X1X1X1X1X1X1X1X1X1X1X",
"1X1X1X1X1X1X1X1X1X1X1X1X1X1X1X1X1X1X1X1X1X1X1X1X1X1X1X1X1X1X1X1X1X1X1X1X1X1X1X1X1X1X1X1X1X1X1X1X1X1X1X1X1X1X1X1X1X1X1X1X1X1X1X1X1X1X1X1X1X1X1X1X1X1X1X1X1X1X",
"1X1X1X1X1X1X1X1X1X1X1X1X1X1X1X1X1X1X1X1X1X1X1X1X1X1X1X1X1X1X1X1X1X1X1X1X1X1X1X1X1X1X1X1X1X1X1X1X1X1X1X1X1X1X1X1X1X1X1X1X1X1X1X1X1X1X1X1X1X1X1X1X1X1X1X1X1X1X",
"1X1X1X1X1X1X1X1X1X1X1X1X1X1X1X1X1X1X1X1X1X1X1X1X1X1X1X1X1X1X1X1X1X1X1X1X1X1X1X1X1X1X1X1X1X1X1X1X1X1X1X1X1X1X1X1X1X1X1X1X1X1X1X1X1X1X1X1X1X1X1X1X1X1X1X1X1X1X"
};
