/* XPM */
static xpm_row_t const player_right0[] = {
/* columns rows colors chars-per-pixel */
"76 65 197 2 ",
"   c #030202",
".  c #09060A",
"X  c #0D0B0D",
"o  c #070309",
"O  c #0F0C10",
"+  c #110E13",
"@  c #151415",
"#  c #161318",
"$  c #19161B",
"%  c #1C1A1C",
"&  c #161813",
"*  c #100F0F",
"=  c #201E1F",
"-  c #1E201B",
";  c #24251D",
":  c #1F1C21",
">  c #221D25",
",  c #251E2A",
"<  c #211722",
"1  c #232224",
"2  c #272825",
"3  c #282926",
"4  c #27222A",
"5  c #2A252C",
"6  c #2B2C2A",
"7  c #292627",
"8  c #2F322C",
"9  c #31332E",
"0  c #33382F",
"q  c #2C2631",
"w  c #2F2A33",
"e  c #312C34",
"r  c #342D39",
"t  c #302636",
"y  c #353434",
"u  c #363931",
"i  c #393C35",
"p  c #39353B",
"a  c #3C3B3B",
"s  c #373438",
"d  c #3C4137",
"f  c #3E433A",
"g  c #42463C",
"h  c #464C3F",
"j  c #3D3642",
"k  c #3F3B41",
"l  c #423D45",
"z  c #443E49",
"x  c #434343",
"c  c #494C46",
"v  c #46424A",
"b  c #49434D",
"n  c #4B4B4B",
"m  c #474A43",
"M  c #4D5346",
"N  c #4F5549",
"B  c #4F5A44",
"V  c #51564B",
"C  c #545C4C",
"Z  c #4C4552",
"A  c #4E4A53",
"S  c #514C55",
"D  c #544D5A",
"F  c #555455",
"G  c #595E54",
"H  c #56515A",
"J  c #5A555E",
"K  c #5C5A5D",
"L  c #565B51",
"P  c #59624F",
"I  c #57614D",
"U  c #5C6653",
"Y  c #5F6855",
"T  c #606A57",
"R  c #61675A",
"E  c #636C5A",
"W  c #66705D",
"Q  c #68725E",
"!  c #5F5963",
"~  c #5A5661",
"^  c #615B65",
"/  c #645E68",
"(  c #5F6160",
")  c #656465",
"_  c #6A6F64",
"`  c #67626A",
"'  c #6C6C6D",
"]  c #68686A",
"[  c #6B7362",
"{  c #6E7963",
"}  c #6E7469",
"|  c #677067",
" . c #707A66",
".. c #71766B",
"X. c #747D6C",
"o. c #6C6670",
"O. c #6E6A73",
"+. c #636771",
"@. c #726D77",
"#. c #737372",
"$. c #767C70",
"%. c #767379",
"&. c #79797B",
"*. c #76806D",
"=. c #79836D",
"-. c #7C8473",
";. c #7E8678",
":. c #818977",
">. c #81867C",
",. c #838B7C",
"<. c #86907E",
"1. c #7F7A83",
"2. c #787884",
"3. c #817F83",
"4. c #7C8789",
"5. c #848484",
"6. c #888E82",
"7. c #8C8C8B",
"8. c #888788",
"9. c #8B9284",
"0. c #8E9389",
"q. c #8F9985",
"w. c #91968C",
"e. c #92998C",
"r. c #898990",
"t. c #8B989D",
"y. c #939394",
"u. c #969B91",
"i. c #999D95",
"p. c #9B9B9C",
"a. c #98959B",
"s. c #9BA295",
"d. c #9EA19A",
"f. c #9BA798",
"g. c #A1A49D",
"h. c #A3AA9E",
"j. c #929DA5",
"k. c #9F9DA2",
"l. c #8F9BA2",
"z. c #A09FA2",
"x. c #9CA6A3",
"c. c #9CAAB0",
"v. c #A3A3A4",
"b. c #A6AAA3",
"n. c #A9ACA6",
"m. c #A7A4A9",
"M. c #A8A6AA",
"N. c #ABADAA",
"B. c #ABB2A5",
"V. c #AEB2AB",
"C. c #AABAAF",
"Z. c #B1B5AE",
"A. c #B3BBAE",
"S. c #AEAFB1",
"D. c #B0AFB2",
"F. c #AFB0B3",
"G. c #A6B6BA",
"H. c #B5B5B5",
"J. c #B5BAB3",
"K. c #B8BCB4",
"L. c #B7B5B8",
"P. c #B8B7B8",
"I. c #BBBBBB",
"U. c #B5B9B8",
"Y. c #BEC5BB",
"T. c #ACC2BC",
"R. c #BDBFC0",
"E. c #C0BFC2",
"W. c #BDC0C1",
"Q. c #B7CACB",
"!. c #BED2D7",
"~. c #BCD0CF",
"^. c #C2C3C3",
"/. c #CBCCCC",
"(. c #C7C8C8",
"). c #CDCFD1",
"_. c #CED1D1",
"`. c #D3D5D5",
"'. c #D5D7D9",
"]. c #D6D9DA",
"[. c #DADDDD",
"{. c #D5D8D7",
"}. c #DCE1DE",
"|. c #DCDEE1",
" X c #DEE0E2",
".X c #D2ECF3",
"XX c #DCF7FC",
"oX c #E1E4E5",
"OX c #E6E9EA",
"+X c #E9ECEC",
"@X c #E2E4E8",
"#X c #E9F7F9",
"$X c #F5FCFD",
"%X c #FAFEFF",
"&X c #F1F5F6",
"*X c #ECEFF0",
"=X c None",
/* pixels */
"=X=X=X=X=X=X=X=X=X=X=X=X=X=X=X=X=X=X=X=X=X=X=X=X=X=X=X=X=X=X=X=X=X=X=X=X=X=X=X=X=X=X=X=X=X=X=X=X=X=X=X=X=X=X=X=X=X=X=X=X=X=X=X=X=X=X=X=X=X=X=X=X=X=X=X=X",
"=X=X=X=X=X=X=X=X=X=X=X=X=X=X=X=X=X=X=X=X=X=X=X=X=X=X=X@ # @ & # # & @ & @ =X=X=X=X=X=X=X=X=X=X=X=X=X=X=X=X=X=X=X=X=X=X=X=X=X=X=X=X=X=X=X=X=X=X=X=X=X=X=X",
"=X=X=X=X=X=X=X=X=X=X=X=X=X=X=X=X=X=X=X=X=X=X=X=X=X=X=X7 a x x k a a a s 8 > =X=X=X=X=X=X=X=X=X=X=X=X=X=X=X=X=X=X=X=X=X=X=X=X=X=X=X=X=X=X=X=X=X=X=X=X=X=X",
"=X=X=X=X=X=X=X=X=X=X=X=X=X=X=X=X=X=X=X=X=X=X=X=X=X=X@ F y.N.N.p.7.y.y.5._ i X =X=X=X=X=X=X=X=X=X=X=X=X=X=X=X=X=X=X=X=X=X=X=X=X=X=X=X=X=X=X=X=X=X=X=X=X=X",
"=X=X=X=X=X=X=X=X=X=X=X=X=X=X=X=X=X=X=X=X=X=X=X=X=X@ i 8.'.*XOX|././.(.Z.9.C 3 & =X=X=X=X=X=X=X=X=X=X=X=X=X=X=X=X=X=X=X=X=X=X=X=X=X=X=X=X=X=X=X=X=X=X=X=X",
"=X=X=X=X=X=X=X=X=X=X=X=X=X=X=X=X=X=X=X=X=X=X=X=X% i { B.[.oX|.[.`./.I.h.,.[ N 8 @ =X=X=X=X=X=X=X=X=X=X=X=X=X=X=X=X=X=X=X=X=X=X=X=X=X=X=X=X=X=X=X=X=X=X=X",
"=X=X=X=X=X=X=X=X=X=X=X=X=X=X=X=X=X=X=X=X=X=X=X  & G h./.[.|.'.[.[.).J.s.,.=.Q d % X =X=X=X=X=X=X=X=X=X=X=X=X=X=X=X=X=X=X=X=X=X=X=X=X=X=X=X=X=X=X=X=X=X=X",
"=X=X=X=X=X=X=X=X=X=X=X=X=X=X=X=X=X=X=X=X=X=X=X  @ ) K.`.].|.].|.[.).I.g.,.=.E i @ O =X=X=X=X=X=X=X=X=X=X=X=X=X=X=X=X=X=X=X=X=X=X=X=X=X=X=X=X=X=X=X=X=X=X",
"=X=X=X=X=X=X=X=X=X=X=X=X=X=X=X=X=X=X=X=X=X=X=X1 n 7.(.[.[.`./.`.).^.n.w.-. .Y i & + =X=X=X=X=X=X=X=X=X=X=X=X=X=X=X=X=X=X=X=X=X=X=X=X=X=X=X=X=X=X=X=X=X=X",
"=X=X=X=X=X=X=X=X=X=X=X=X=X=X=X=X=X=X=X=X=X=X1 ) N.I./.oXOX`.I.^.E.N.0.X.Q Q T i $ X =X=X=X=X=X=X=X=X=X=X=X=X=X=X=X=X=X=X=X=X=X=X=X=X=X=X=X=X=X=X=X=X=X=X",
"=X=X=X=X=X=X=X=X=X=X=X=X=X=X=X=X=X=X=X=X=X  % ' M.z.y.z.F.H.P.H.v.u.:.W U T T d & O =X=X=X=X=X=X=X=X=X=X=X=X=X=X=X=X=X=X=X=X=X=X=X=X=X=X=X=X=X=X=X=X=X=X",
"=X=X=X=X=X=X=X=X=X=X=X=X=X=X=X=X=X=X=X=X=X. @ w b b k j H a.^.Z.9.<.,.{ T E T i $ O =X=X=X=X=X=X=X=X=X=X=X=X=X=X=X=X=X=X=X=X=X=X=X=X=X=X=X=X=X=X=X=X=X=X",
"=X=X=X=X=X=X=X=X=X=X=X=X=X=X=X=X=X=X=X=X=X2 u l b b l e p O.p.e.:.:.=.{ T Q E g @ + =X=X=X=X=X=X=X=X=X=X=X=X=X=X=X=X=X=X=X=X=X=X=X=X=X=X=X=X=X=X=X=X=X=X",
"=X=X=X=X=X=X=X.       o X X X O X X * X = c -.e.k.v.p.6.} F S ' ,.=.W T T Q Q g & X =X=X=X=X=X=X=X=X=X=X=X=X=X=X=X=X=X=X=X=X=X=X=X=X=X=X=X=X=X=X=X=X=X=X",
"=X=X=X=X=X=X=Xy x v k u 6 3 2 3 6 6 1 O % c ,.k.D.L.M.e.} s > V :. .T U T U N 9 $ =X=X=X=X=X=X=X=X=X=X=X=X=X=X=X=X=X=X=X=X=X=X=X=X=X=X=X=X=X=X=X=X=X=X=X",
"=X=X=X=X=X  1 &.I.I.x.>.R C M C G K b : X % l J o.%.` S s < , n  . .E W T h 7 & =X=X=X=X=X=X=X=X=X=X=X=X=X=X=X=X=X=X=X=X=X=X=X=X=X=X=X=X=X=X=X=X=X=X=X=X",
"=X=X=X=X=X= ) W.%X%X[.V.:.*.E P V F b s 6 s A ! o.O.` H b z x c V V C E T u X =X=X=X=X=X=X=X=X=X=X=X=X=X=X=X=X=X=X=X=X=X=X=X=X=X=X=X=X=X=X=X=X=X=X=X=X=X",
"=X=X=X  > &.^.].oXOX_.h.=.=.Y u & X : g } 7.k.m.M.M.M.m.p.7...n e 5 s G E g @ =X=X=X=X=X=X=X=X=X=X=X=X=X=X=X=X=X=X=X=X=X=X=X=X=X=X=X=X=X=X=X=X=X=X=X=X=X",
"=X=X=X2 ] ^.$XoX{. X_.b.=.U f 6 1 1 f $.b.K.I.Z.N.N.V.Z.V.s.-.G a r r A C i @ =X=X=X=X=X=X=X=X=X=X=X=X=X=X=X=X=X=X=X=X=X=X=X=X=X=X=X=X=X=X=X=X=X=X=X=X=X",
"=X@ s 5.(.[.oX[.[.oX`.J.*.8 & d [ 5.k.F.J.n.e.:.X.X.$.-.X.[ E [ ..` D b a 1 @ =X=X=X=X=X=X=X=X=X=X=X=X=X=X=X=X=X=X=X=X=X=X=X=X=X=X=X=X=X=X=X=X=X=X=X=X=X",
"=X@ x H.&X[._.'.].{.K.6.L 9 j ..b.J.I.H.g.9.{ Y C C I B C E $.5.,.#.D j q > $ # =X=X=X=X=X=X=X=X=X=X=X=X=X=X=X=X=X=X=X=X=X=X=X=X=X=X=X=X=X=X=X=X=X=X=X=X",
"=X@ a p.`.^.^.].`.Y.,.i 7 ^ k.M.V.h.q.-...[ E U P U U B U 9.N.y.` S p r r w 5 : @ =X=X=X=X=X=X=X=X=X=X=X=X=X=X=X=X=X=X=X=X=X=X=X=X=X=X=X=X=X=X=X=X=X=X=X",
"=X@ s 7.E.H.I.'.^.<.h = y w.'.`.H.u.*.W U U U E [ R R E $.g.M.3.Z r q , 5 r r q % @ =X=X=X=X=X=X=X=X=X=X=X=X=X=X=X=X=X=X=X=X=X=X=X=X=X=X=X=X=X=X=X=X=X=X",
"=X@ s 7.^.I.I.`.n.M % d $.m.(./.J.u.-.-.X.R U X.:.E T ,.v.y.O.Z p r r > $ 4 r s 5 > @ =X=X=X=X=X=X=X=X=X=X=X=X=X=X=X=X=X=X=X=X=X=X=X=X=X=X=X=X=X=X=X=X=X",
"=X$ a y./.^.H.H.3.e 1 _ h.B.V.V.b.w.:.,.,. .Q X.-.Q { b.I.3.Z t , 5 q > $ > 5 r r 1 # @ =X=X=X=X=X=X=X=X=X=X=X=X=X=X=X=X=X=X=X=X=X=X=X=X=X=X=X=X=X=X=X=X",
"=X& x v.}./.m.5.! z D y.Z.i.<.6.,.:.;.,.,.,.-.[ E [ >.n.H.r.D t $ # % 4 q > $ 4 r 4 @ * =X=X=X=X=X=X=X=X=X=X=X=X=X=X=X=X=X=X=X=X=X=X=X=X=X=X=X=X=X=X=X=X",
"=X@ x S.+X`.v.o.Z Z O.m.I.g.,.<.9.w.q.,.:.<.,.} E  .9.Z.H.y.K e + o + > w , $ > w 5 % # =X=X=X=X=X=X=X=X=X=X=X=X=X=X=X=X=X=X=X=X=X=X=X=X=X=X=X=X=X=X=X=X",
"=X@ x M.OX`.m.&.D z / p.E.H.b.b.n.N.b.0.-.:.,.:.-.=.9.n.I.g...i + o + + % > , q r q : % @ =X=X=X=X=X=X=X=X=X=X=X=X=X=X=X=X=X=X=X=X=X=X=X=X=X=X=X=X=X=X=X",
"=X@ k S. X(.y.! z ~ 1.g.I.E.I.E.I.E.H.g.9.,.>.,.<.:.,.p.V.V.9.c + # 4 $ + 5 x p e a x w @ @ =X=X=X=X=X=X=X=X=X=X=X=X=X=X=X=X=X=X=X=X=X=X=X=X=X=X=X=X=X=X",
"=X@ x S.}.J...9 e %.D.H.P.P.P.P.P.P.P.I.n.w.-.:.<.>.:.,.u.Z.b.F @ e D e # i Y n e A _ m & O =X=X=X=X=X=X=X=X=X=X=X=X=X=X=X=X=X=X=X=X=X=X=X=X=X=X=X=X=X=X",
"=X& x H.}.B.P & 1 8.).^.H.H.H.H.L.H.H.H.N.d.9.-.:.6.0.=.=.V.L.! @ q S r @ 0 C k w ' f.| % . =X=X=X=X=X=X=X=X=X=X=X=X=X=X=X=X=X=X=X=X=X=X=X=X=X=X=X=X=X=X",
"=X# x F.}.B.Y % 7 8.(.E.P.H.P.H.P.I.H.i.e.b.b.-.Q w.n.>.Q g.H./ + @ 4 : $ % 3 > w r.~.4.%   =X=X=X=X=X=X=X=X=X=X=X=X=X=X=X=X=X=X=X=X=X=X=X=X=X=X=X=X=X=X",
"=X@ x H.}.B.T = 7 5.^.E.H.H.P.H.P.I.D.9.:.N.P.;.T i.I.>.U i.H.` +   . + # O X . w j..Xt.:   =X=X=X=X=X=X=X=X=X=X=X=X=X=X=X=X=X=X=X=X=X=X=X=X=X=X=X=X=X=X",
"=X@ x N.[.B.T = 7 5.^.I.P.P.H.H.P.I.Z.<.:.N.P.-.T p.I.>.U i.D.) +   X @ # O X O w j..Xt.%   =X=X=X=X=X=X=X=X=X=X=X=X=X=X=X=X=X=X=X=X=X=X=X=X=X=X=X=X=X=X",
"=X@ x H.[.B.T = 7 8.(.E.H.H.H.P.P.I.D.i.w.m.b.-.Q 7.n.>.Q g.H.^ + @ 2 % # : , : 4 4.Q.4.%   =X=X=X=X=X=X=X=X=X=X=X=X=X=X=X=X=X=X=X=X=X=X=X=X=X=X=X=X=X=X",
"=X@ x Z.{.B.U & 1 8.).^.H.H.P.P.H.P.H.H.V.d.<.:.:.<.9.:.=.B.P.^ # y L u # t D t : ( s.| & . =X=X=X=X=X=X=X=X=X=X=X=X=X=X=X=X=X=X=X=X=X=X=X=X=X=X=X=X=X=X",
"=X& x S.}.J...9 e %.Z.L.J.I.P.P.P.P.P.P.V.w.:.:.<.>.:.,.u.Z.m.F # 9 C 9 + q D ~ F } *.M $ O =X=X=X=X=X=X=X=X=X=X=X=X=X=X=X=X=X=X=X=X=X=X=X=X=X=X=X=X=X=X",
"=X@ l S.@X(.y.^ b J 3.z.I.I.I.I.I.E.P.g.<.:.:.>.<.:.,.d.V.V.<.n + $ 6 # . + j 2.G.c.{ f & X =X=X=X=X=X=X=X=X=X=X=X=X=X=X=X=X=X=X=X=X=X=X=X=X=X=X=X=X=X=X",
"=X@ x M.+X`.M.%.D z / a.Y.H.m.n.n.V.b.0.:.:.,.:.-.=.<.V.I.g.} a +   . $ 6 4 j c.XXT.N ; # =X=X=X=X=X=X=X=X=X=X=X=X=X=X=X=X=X=X=X=X=X=X=X=X=X=X=X=X=X=X=X",
"=X@ x S.+X`.z.o.Z Z O.m.I.g.,.6.9.0.0.<.>.<.>._ Q ..9.V.H.y.K t +     9 R E | Q.XXx.3 X =X=X=X=X=X=X=X=X=X=X=X=X=X=X=X=X=X=X=X=X=X=X=X=X=X=X=X=X=X=X=X=X",
"=X@ k v. X/.M.5.! l H y.V.s.,.6.<.:.:.:.:.:.=._ W Q >.n.P.r.D q $ : v &.x.f.q.C.R.+.+   =X=X=X=X=X=X=X=X=X=X=X=X=X=X=X=X=X=X=X=X=X=X=X=X=X=X=X=X=X=X=X=X",
"=X# a y./.^.H.H.5.w 1 _ b.V.N.S.v.w.:.>.:.X.[ X.-.Q [ h.L.r.z < 5 ] G.!.~.A.q.X.H w @ O =X=X=X=X=X=X=X=X=X=X=X=X=X=X=X=X=X=X=X=X=X=X=X=X=X=X=X=X=X=X=X=X",
"=X# a 7.E.I.I.`.N.c - d X.b.(./.H.i.:.:.X.T U X.:.E T 0.N.a.o.j k l.XX$X.XC...a $ O @ =X=X=X=X=X=X=X=X=X=X=X=X=X=X=X=X=X=X=X=X=X=X=X=X=X=X=X=X=X=X=X=X=X",
"=X& i 7.E.H.I.'.^.9.h % s y.'.).H.u.X.E U U U E Q T E =.u.N.m.o.A j.XX$XXXj.x : # @ =X=X=X=X=X=X=X=X=X=X=X=X=X=X=X=X=X=X=X=X=X=X=X=X=X=X=X=X=X=X=X=X=X=X",
"=X@ a p.`.^.^.'.`.Y.,.i 7 ^ p.V.Z.h.0.:. ._ E T I I T E $.i.n.5.O.t.R.!.G.+.> O @ =X=X=X=X=X=X=X=X=X=X=X=X=X=X=X=X=X=X=X=X=X=X=X=X=X=X=X=X=X=X=X=X=X=X=X",
"=X@ x H.&X[.).'.].{.K.9.L y a ..h.K.P.H.g.6.{ T C C I I T Q $.>.>.4.2.o.A w # @ =X=X=X=X=X=X=X=X=X=X=X=X=X=X=X=X=X=X@ O . .     o o               . @ @ ",
"=X@ s 5.(.[.oX[.].oX{.A. .9 & i } >.k.H.H.n.w.:.X.X.$.$.X.W T { ..! l r 5 : + =X=X=X=X=X=X=X=X=X=X=X=X=X=X=X=X=X=X@ # 7 u x x x a i m n v c v c A a = @ ",
"=X=X=X4 ] ^.$XoX`.oX_.h.X.T g 8 1 > g $.h.K.K.H.V.n.V.Z.V.s.:.G k t t m N y @ =X=X=X=X=X=X=X=X=X=X=X=X=X=X=X.     . : A ;.N.U.N.0.y.U.^.W.W.W.(._.a.i @ ",
"=X=X=X  = &.^.'. X+X_.b.-.=.U 0 @ X % g ..7.z.m.m.M.m.m.p.7...n r 5 s P E g @ X =X=X=X=X=X=X=X=X=X=X=X=X=X> s l i e 5 Z >.H.(.E.v.b.I.W.W.W.W.^._.y.a # ",
"=X=X=X=X=X1 ] Y.%X%X|.V.;.*.W P V A b s 8 s Z ! o.O.` H b z x c M V C E T i @ X @ @ @ @ * X . o .         a 5.n.p.' r , p H o.1.@.) A x m n v n N k 1 # ",
"=X=X=X=X=X  % &.I.R.x.;.R C B B U K b : X % l J o.%.o.A s < , c { { E W T i $ # % $ $ : 2 7 6 u a a a 6 y #.I.oX`.p.F s z H / o.^ j X             o * & ",
"=X=X=X=X=X=X=Xy v m a y 6 3 2 3 6 5 1 O % c :.g.S.L.M.u._ s , n =. .Y E T x , , 5 4 4 s b K _ ;.7.y.y.y.7.m.I./.(.n.,.>.k.D.L.a.@.j %   =X=X=X=X=X=X=X=X",
"=X=X=X=X=X=X=X.       X X X O X X X * X % M -.u.z.z.p.6...F S #.e.:.W E Y N k r e r j Z ! #.q.B.(.`./.)./.^.Z.n.m.0.X.;.p.m.b.5.! r % @ =X=X=X=X=X=X=X=X",
"=X=X=X=X=X=X=X=X=X=X=X=X=X=X=X=X=X=X=X=X=X2 s a z Z z e a ' k.D.n.e.X.W T U L g r j S D ! ' <.B.E./.^././.Y.h.7.1.J s 8 a k k s 6 % =X=X=X=X=X=X=X=X=X=X",
"=X=X=X=X=X=X=X=X=X=X=X=X=X=X=X=X=X=X=X=X=XX @ w Z b l r Z 7.(./.I.b.e.X.Y E W c t z ^ ^ ! ) &.w.v.M.v.z.y.>._ L b 5 +     .   . X @ =X=X=X=X=X=X=X=X=X=X",
"=X=X=X=X=X=X=X=X=X=X=X=X=X=X=X=X=X=X=X=X=X  % ' M.m.y.8.y.M.I.I.H.I.N.;.P Y T x r z ^ / ! ` ] @.%.2.%.^ l 9 8 7 1 % =X=X=X=X=X=X=X=X=X=X=X=X=X=X=X=X=X=X",
"=X=X=X=X=X=X=X=X=X=X=X=X=X=X=X=X=X=X=X=X=X=X1 ) M.Y.(././.^.I.U.H.E.I.w.E E T m r j S H D Z v z z v v 4 X   . X X =X=X=X=X=X=X=X=X=X=X=X=X=X=X=X=X=X=X=X",
"=X=X=X=X=X=X=X=X=X=X=X=X=X=X=X=X=X=X=X=X=X=X=X1 n 7./.`.{.'.).I.H.I.J.i.-.[ T x t r j k k r 1 1 > 1 1 % =X=X=X=X=X=X=X=X=X=X=X=X=X=X=X=X=X=X=X=X=X=X=X=X",
"=X=X=X=X=X=X=X=X=X=X=X=X=X=X=X=X=X=X=X=X=X=X=X  + ) Y.`.[. X]./.I.R.H.g.,.*.E m r 4 4 4 4 % O X X X X =X=X=X=X=X=X=X=X=X=X=X=X=X=X=X=X=X=X=X=X=X=X=X=X=X",
"=X=X=X=X=X=X=X=X=X=X=X=X=X=X=X=X=X=X=X=X=X=X=X  $ U h./.|. X'.`./.^.H.p.:.*.W c r > % # $ $ =X=X=X=X=X=X=X=X=X=X=X=X=X=X=X=X=X=X=X=X=X=X=X=X=X=X=X=X=X=X",
"=X=X=X=X=X=X=X=X=X=X=X=X=X=X=X=X=X=X=X=X=X=X=X=X% u  .N.[.oX[.oX|.`.I.h.<.} C g q % @ @ @ =X=X=X=X=X=X=X=X=X=X=X=X=X=X=X=X=X=X=X=X=X=X=X=X=X=X=X=X=X=X=X",
"=X=X=X=X=X=X=X=X=X=X=X=X=X=X=X=X=X=X=X=X=X=X=X=X=X@ i 8.].+X+X&X+X|.^.B.q.R k 4 % @ =X=X=X=X=X=X=X=X=X=X=X=X=X=X=X=X=X=X=X=X=X=X=X=X=X=X=X=X=X=X=X=X=X=X",
"=X=X=X=X=X=X=X=X=X=X=X=X=X=X=X=X=X=X=X=X=X=X=X=X=X=X@ F y.M.N.V.M.v.y.>._ m , # & =X=X=X=X=X=X=X=X=X=X=X=X=X=X=X=X=X=X=X=X=X=X=X=X=X=X=X=X=X=X=X=X=X=X=X",
"=X=X=X=X=X=X=X=X=X=X=X=X=X=X=X=X=X=X=X=X=X=X=X=X=X=X=X2 a x l x x k a s 6 1 $ @ =X=X=X=X=X=X=X=X=X=X=X=X=X=X=X=X=X=X=X=X=X=X=X=X=X=X=X=X=X=X=X=X=X=X=X=X",
"=X=X=X=X=X=X=X=X=X=X=X=X=X=X=X=X=X=X=X=X=X=X=X=X=X=X=X@ @ @ & $ @ @ @ & $ @ @ @ =X=X=X=X=X=X=X=X=X=X=X=X=X=X=X=X=X=X=X=X=X=X=X=X=X=X=X=X=X=X=X=X=X=X=X=X"
};
