/* XPM */
static xpm_row_t const player_right4[] = {
/* columns rows colors chars-per-pixel */
"76 65 212 2 ",
"   c #030202",
".  c #070408",
"X  c #08060A",
"o  c #0D0C0D",
"O  c #080607",
"+  c #0F0C10",
"@  c #110D12",
"#  c #170F19",
"$  c #151415",
"%  c #181617",
"&  c #171418",
"*  c #19161B",
"=  c #1B1A1C",
"-  c #191A17",
";  c #100F0F",
":  c #211F1F",
">  c #1F201D",
",  c #21221E",
"<  c #1E1A21",
"1  c #1C1422",
"2  c #211D24",
"3  c #241E29",
"4  c #242324",
"5  c #292C26",
"6  c #26222A",
"7  c #29242C",
"8  c #2C2C2B",
"9  c #272A23",
"0  c #2E312B",
"q  c #2B3026",
"w  c #32342E",
"e  c #353A2F",
"r  c #2D2631",
"t  c #2E2932",
"y  c #322D35",
"u  c #342D3A",
"i  c #382E3A",
"p  c #333334",
"a  c #373A32",
"s  c #393B35",
"d  c #373339",
"f  c #39353C",
"g  c #3C3B3C",
"h  c #383535",
"j  c #302A2F",
"k  c #3D4237",
"l  c #42443E",
"z  c #43483E",
"x  c #3E3B41",
"c  c #3D3542",
"v  c #413B45",
"b  c #443D4B",
"n  c #3E4148",
"m  c #444343",
"M  c #464A43",
"N  c #494D43",
"B  c #44424B",
"V  c #49434D",
"C  c #4C4D4B",
"Z  c #4C5345",
"A  c #4E5249",
"S  c #4F5847",
"D  c #50544C",
"F  c #535B4C",
"G  c #525C47",
"H  c #4D4652",
"J  c #4E4953",
"K  c #514C54",
"L  c #544D5A",
"P  c #504653",
"I  c #545354",
"U  c #575A53",
"Y  c #595D54",
"T  c #56535A",
"R  c #5C5C5B",
"E  c #59555C",
"W  c #4E5057",
"Q  c #605F5F",
"!  c #58624E",
"~  c #5B6453",
"^  c #5E6855",
"/  c #5C6258",
"(  c #606957",
")  c #636C5A",
"_  c #61665C",
"`  c #67705D",
"'  c #69735E",
"]  c #67745B",
"[  c #5C5561",
"{  c #5E5963",
"}  c #615D64",
"|  c #645D69",
" . c #636263",
".. c #65616B",
"X. c #69656C",
"o. c #6B6B6B",
"O. c #676B67",
"+. c #6B7463",
"@. c #6F7965",
"#. c #6C7369",
"$. c #717B66",
"%. c #747D6C",
"&. c #717669",
"*. c #6D6A72",
"=. c #726D76",
"-. c #756F7A",
";. c #6D7476",
":. c #747474",
">. c #767B72",
",. c #797D74",
"<. c #74747B",
"1. c #79767C",
"2. c #7A7A7B",
"3. c #777879",
"4. c #76806D",
"5. c #79826F",
"6. c #7B896F",
"7. c #7C8474",
"8. c #7E8579",
"9. c #808977",
"0. c #848B7C",
"q. c #81867C",
"w. c #85907C",
"e. c #7A7A81",
"r. c #817D83",
"t. c #768487",
"y. c #848384",
"u. c #898F83",
"i. c #848289",
"p. c #8B8B8B",
"a. c #878A87",
"s. c #8A9284",
"d. c #8E948A",
"f. c #8E9983",
"g. c #91968C",
"h. c #939A8C",
"j. c #8F8C92",
"k. c #8D8792",
"l. c #918E94",
"z. c #939394",
"x. c #969B92",
"c. c #999E95",
"v. c #95929A",
"b. c #9B9B9C",
"n. c #96979B",
"m. c #8B999A",
"M. c #98A28E",
"N. c #9BA196",
"B. c #9EA19A",
"V. c #99A89E",
"C. c #A1A59D",
"Z. c #A3A99C",
"A. c #A1B09F",
"S. c #9C9CA0",
"D. c #8B98A0",
"F. c #A09EA1",
"G. c #9FA1A2",
"H. c #94A3A9",
"J. c #9AA7B1",
"K. c #A3A4A3",
"L. c #A5A9A2",
"P. c #A9ACA6",
"I. c #A5A5A9",
"U. c #ACADAB",
"Y. c #A6A8A9",
"T. c #AAB1A6",
"R. c #AEB3AB",
"E. c #A9B8A7",
"W. c #B0B4AE",
"Q. c #B2B8AD",
"!. c #AEAEB1",
"~. c #B1AFB3",
"^. c #A7B6B8",
"/. c #B5B5B5",
"(. c #B6BAB3",
"). c #B8BAB6",
"_. c #B8B7B9",
"`. c #BBBBBB",
"'. c #B6B6B8",
"]. c #B0AFAF",
"[. c #BCC2B7",
"{. c #BEBEC0",
"}. c #ADBDC8",
"|. c #C0BEC1",
" X c #BACED1",
".X c #C3C4C4",
"XX c #C6C6C8",
"oX c #CBCCCC",
"OX c #C7C9C7",
"+X c #CDD1CB",
"@X c #CDCED0",
"#X c #CFD2D2",
"$X c #C2D8DD",
"%X c #D3D4D5",
"&X c #D4D7D8",
"*X c #D6D9DB",
"=X c #DADCDD",
"-X c #D3DAD1",
";X c #D1CDD2",
":X c #DDE2DE",
">X c #C6DDE2",
",X c #DCDEE0",
"<X c #DFE1E3",
"1X c #D1EAEE",
"2X c #E1E4E5",
"3X c #E6E9EA",
"4X c #E7EAEA",
"5X c #EEF2F3",
"6X c #ECFFFF",
"7X c #F7FBFC",
"8X c #EBEFF0",
"9X c None",
/* pixels */
"9X9X9X9X9X9X9X9X9X9X9X9X9X9X9X9X9X9X9X9X9X9X9X9X9X9X9X9X9X9X9X% $ % % $ % % % $ % 9X9X9X9X9X9X9X9X9X9X9X9X9X9X9X9X9X9X9X9X9X9X9X9X9X9X9X9X9X9X9X9X9X9X9X",
"9X9X9X9X9X9X9X9X9X9X9X9X9X9X9X9X9X9X9X9X9X9X9X9X9X9X9X9X9X9X4 p g g g p p p p 0 9 9X9X9X9X9X9X9X9X9X9X9X9X9X9X9X9X9X9X9X9X9X9X9X9X9X9X9X9X9X9X9X9X9X9X9X",
"9X9X9X9X9X9X9X9X9X9X9X9X9X9X9X9X9X9X9X9X9X9X9X9X9X9X9X9X9XO n 2.b.G.b.a.y.p.y.,.F 6 X 9X9X9X9X9X9X9X9X9X9X9X9X9X9X9X9X9X9X9X9X9X9X9X9X9X9X9X9X9X9X9X9X9X",
"9X9X9X9X9X9X9X9X9X9X9X9X9X9X9X9X9X9X9X9X9X9X9X9X9X9X9X9Xo 4 o.`.4X4X<X#XoXoX).T.5.l - ; 9X9X9X9X9X9X9X9X9X9X9X9X9X9X9X9X9X9X9X9X9X9X9X9X9X9X9X9X9X9X9X9X",
"9X9X9X9X9X9X9X9X9X9X9X9X9X9X9X9X9X9X9X9X9X9X9X9X9X9X9XO > G x.oX3X4X2X,X%X@X`.Z.7.) k 9 $ 9X9X9X9X9X9X9X9X9X9X9X9X9X9X9X9X9X9X9X9X9X9X9X9X9X9X9X9X9X9X9X",
"9X9X9X9X9X9X9X9X9X9X9X9X9X9X9X9X9X9X9X9X9X9X9X9X9X9X$ 8 Y h.[.&X,X%X&X*X@X`.K.d.5.$.~ p $ 9X9X9X9X9X9X9X9X9X9X9X9X9X9X9X9X9X9X9X9X9X9X9X9X9X9X9X9X9X9X9X",
"9X9X9X9X9X9X9X9X9X9X9X9X9X9X9X9X9X9X9X9X9X9X9X9X9X= C p.(.+X:X=X%X.X.XXX).L.s.%.+.@.~ w @ 9X9X9X9X9X9X9X9X9X9X9X9X9X9X9X9X9X9X9X9X9X9X9X9X9X9X9X9X9X9X9X",
"9X9X9X9X9X9X9X9X9X9X9X9X9X9X9X9X9X9X9X9X9X9X9X9X  4 *.`.#X@X*X&XOX_./._.P.h.%.) ^ ) ~ w $ 9X9X9X9X9X9X9X9X9X9X9X9X9X9X9X9X9X9X9X9X9X9X9X9X9X9X9X9X9X9X9X",
"9X9X9X9X9X9X9X9X9X9X      O o + + + o $ $ $ o X   o x X.=.-.I.oX%X`._.|.U.g.%.) ~ ) ! w @ 9X9X9X9X9X9X9X9X9X9X9X9X9X9X9X9X9X9X9X9X9X9X9X9X9X9X9X9X9X9X9X",
"9X9X9X9X9X9X9X9X9X% = = = - % % - - - & $ % % = % = 6 y 3 r X.U. X]._._.P.g.%.] ( ` ! w $ 9X9X9X9X9X9X9X9X9X9X9X9X9X9X9X9X9X9X9X9X9X9X9X9X9X9X9X9X9X9X9X",
"9X9X9X9X9X9X9X9XO n :.a.2./ l e k g x t & = k / o.&.1.=.Q I R X.r.x.Z.Z.x.7.) ) ) ' ( s $ 9X9X9X9X9X9X9X9X9X9X9X9X9X9X9X9X9X9X9X9X9X9X9X9X9X9X9X9X9X9X9X",
"9X9X9X9X9X9X9X  = 3.%X5X,XL.+.G ^ / | b = , Y h.P._.|./.Z.w.K y C 7.g.s.5.` ( ( ( ' Y w $ 9X9X9X9X9X9X9X9X9X9X9X9X9X9X9X9X9X9X9X9X9X9X9X9X9X9X9X9X9X9X9X",
"9X9X9X9X9X9Xo h <.`.3X7X8X/.%.! +.&.:.P * $ s o.y.v.S.l.2./ y 2 x 9.w.9.' ) ! ) ~ S a 4 $ 9X9X9X9X9X9X9X9X9X9X9X9X9X9X9X9X9X9X9X9X9X9X9X9X9X9X9X9X9X9X9X",
"9X9X9X9X9X  = 2.#X2X*X<X,XL.+.! ( ) O.H 2 o < i P } | [ b y 3 3 C 9.w.' ( ( ) ] F w % 9X9X9X9X9X9X9X9X9X9X9X9X9X9X9X9X9X9X9X9X9X9X9X9X9X9X9X9X9X9X9X9X9X",
"9X9X9X9X9Xg <.[.5X8X*X<X<XE.4.z z p y p a M T X.-.r.r.e.=.| R I I R D C N ~ ' $.~ 5 O 9X9X9X9X9X9X9X9X9X9X9X9X9X9X9X9X9X9X9X9X9X9X9X9X9X9X9X9X9X9X9X9X9X",
"9X9X9X  t a.#X<X=X*X*X<X<XQ.4.k = . . 9 U u.F.~.~./.~././.].C.0./ c 3 j l Y ' $.! 8 @ 9X9X9X9X9X9X9X9X9X9X9X9X9X9X9X9X9X9X9X9X9X9X9X9X9X9X9X9X9X9X9X9X9X",
"9X9X9X  p b.8X<XoX%X=X=XOXu.N 9 0 w g _ d.Q.)./.P.C.C.C.P.L.M.9.) C c c v C D A k 4 $ 9X9X9X9X9X9X9X9X9X9X9X9X9X9X9X9X9X9X9X9X9X9X9X9X9X9X9X9X9X9X9X9X9X",
"9X9X9X  8 2.OX.X`.%X,X+XV.F - , ~ u.b.~._./.C.w.4.+.' @.&.@.) ( +.7.:.} J v t 4 - % $ 9X9X9X9X9X9X9X9X9X9X9X9X9X9X9X9X9X9X9X9X9X9X9X9X9X9X9X9X9X9X9X9X9X",
"9X9X9X  8 2.`.`._.OX.Xh.~ s h R d.Q.).).U.x.0.+.~ G F F G G ) ,.0.0.>.R b u 3 * $ $ $ 9X9X9X9X9X9X9X9X9X9X9X9X9X9X9X9X9X9X9X9X9X9X9X9X9X9X9X9X9X9X9X9X9X",
"9X9X9XO 5 2.`.XX).).N.F = x a.~.W.P.c.0.>.+.` ) ( ! ~ ( G F 0.P.S.<.K v u u y r 4 = $ 9X9X9X9X9X9X9X9X9X9X9X9X9X9X9X9X9X9X9X9X9X9X9X9X9X9X9X9X9X9X9X9X9X",
"9X9X9X  8 y..XOXL.0.( 5 : } _.=XXXP.d.$.) ~ ! ~ ` ' _ ( ) >.v.I.k.[ c t 7 7 r u y 6 = % 9X9X9X9X9X9X9X9X9X9X9X9X9X9X9X9X9X9X9X9X9X9X9X9X9X9X9X9X9X9X9X9X",
"9X9X9X  y z.-XOXd.A 4 0 Y g._.@XXXR.d.5.7.$.( ( &.9.` ( q.C.b.1.E v u u 7 1 = t u y 7 = $ 9X9X9X9X9X9X9X9X9X9X9X9X9X9X9X9X9X9X9X9X9X9X9X9X9X9X9X9X9X9X9X",
"9X9X9X  p S.=X).#.0 % C h.T.P.R.].C.u.9.w.9.@.` >.9.' ' B.|.v.[ u r 3 r 7 * = 6 t u y 2 $ 9X9X9X9X9X9X9X9X9X9X9X9X9X9X9X9X9X9X9X9X9X9X9X9X9X9X9X9X9X9X9X",
"9X9X9X  p b.=XY.} g b :.P.T.d.u.s.0.9.9.0.0.9.>.+.' ' 9.Z._.v.} u < & * 2 7 7 1 < r y < $ 9X9X9X9X9X9X9X9X9X9X9X9X9X9X9X9X9X9X9X9X9X9X9X9X9X9X9X9X9X9X9X",
"9X9X9X  0 G.*XS.L b | k._.W.d.9.0.u.d.u.0.0.u.9.+.) $.w.R._.b.X.d * X + * r r = * 7 t 6 & & 9X9X9X9X9X9X9X9X9X9X9X9X9X9X9X9X9X9X9X9X9X9X9X9X9X9X9X9X9X9X",
"9X9X9X  = b.2XI.[ b L r./.`.L.C.C.L.P.N.w.7.0.0.7.%.,.w.P.`.P.,.M < . X @ < 3 < 3 r y 3 < % $ 9X9X9X9X9X9X9X9X9X9X9X9X9X9X9X9X9X9X9X9X9X9X9X9X9X9X9X9X9X",
"9X9X9X% B G.+Xj.J H ..k./.`.`.`._.`.|.].x.0.9.0.w.w.9.0.C.].T.x.Y < + < 1 $ * t c d y g f 7 $ $ 9X9X9X9X9X9X9X9X9X9X9X9X9X9X9X9X9X9X9X9X9X9X9X9X9X9X9X9X",
"9X% 7 O.V.R.c.U t E v.!./.`.`.`.`.`.`._.W.C.u.6.0.w.9.9.w.c.Q.T.o.4 * b x = < N U x y D R s $ ; 9X9X9X9X9X9X9X9X9X9X9X9X9X9X9X9X9X9X9X9X9X9X9X9X9X9X9X9X",
"9X% x !.4X[.@.9 $  .`.oX/././././._./.`.`.U.x.0.q.q.0.0.9.7.Z.{.2.6 1 L H < < Z ~ g c ;.s.U $ O 9X9X9X9X9X9X9X9X9X9X9X9X9X9X9X9X9X9X9X9X9X9X9X9X9X9X9X9X",
"9X% x ~.4X[.+., $  .`.oX/./._././._._.~.K.N.K.c.7.$.d.C.q.+.x.{.e.6 + y t < = 0 d 3 x D.[.O.$ O 9X9X9X9X9X9X9X9X9X9X9X9X9X9X9X9X9X9X9X9X9X9X9X9X9X9X9X9X",
"9X% g I.:X[.@.q & { (.OX`./._.'./.`.`.P.s.u.R.].,.( g._.u.( u._.y.7 . + # & $ + # # n ^.>Xt.$   9X9X9X9X9X9X9X9X9X9X9X9X9X9X9X9X9X9X9X9X9X9X9X9X9X9X9X9X",
"9X% g I.=X[.+.9 &  ./..X/././.(./.`.`.L.9.9././.,.( x.|.d.! 0._.y.7   . X $ $ X X + H }.1Xt.$   9X9X9X9X9X9X9X9X9X9X9X9X9X9X9X9X9X9X9X9X9X9X9X9X9X9X9X9X",
"9X& g I.:X).&.8 % Q /.OX/././././._.`.P.d.w.U.].,.) g./.u.) s.).y.6   $ & & & @ $ # n ^.>Xe.$   9X9X9X9X9X9X9X9X9X9X9X9X9X9X9X9X9X9X9X9X9X9X9X9X9X9X9X9X",
"9X& g K.:XoXd.w # Q |.oX_./._._./._._.].Z.B.C.x.9.%.s.C.9.' c.|.r.4 $ s a = * u u 1 y p.^.O.$ 9X9X9X9X9X9X9X9X9X9X9X9X9X9X9X9X9X9X9X9X9X9X9X9X9X9X9X9X9X",
"9X% s F.2X:XK.m $ R ).OX/./._._._./._._.|.U.x.9.9.9.0.0.9.9.Z.|.1.2 4 ! F < 1 H L c p #.t.F $ 9X9X9X9X9X9X9X9X9X9X9X9X9X9X9X9X9X9X9X9X9X9X9X9X9X9X9X9X9X",
"9X% g F.4X2XU.Q p K j.U./.`._.`.`.`.`._.].B.w.9.0.w.9.9.d.c.T.P.o.2 = z g $ @ u W ;.e.8.] k $ X 9X9X9X9X9X9X9X9X9X9X9X9X9X9X9X9X9X9X9X9X9X9X9X9X9X9X9X9X",
"9X% g S.3X*XU.1.L H } k.].|.`._._.`.{.].x.9.9.0.0.w.9.0.C./.P.h.Y 2 X % - + @ # W J. XV.! w $ o % $ $ % 9X9X9X9X9X9X9X9X9X9X9X9X9X9X9X9X9X9X9X9X9X9X9X9X",
"9X% s z.%X;XU.r.E b L r./.).Z.B.C.C.L.c.0.9.0.0.,.%.,.w.P.|.Y.,.M <     o 8 g p o.$X6Xm.a , < < = = = = 9X9X9X9X9X9X9X9X9X9X9X9X9X9X9X9X9X9X9X9X9X9X9X9X",
"9X% p a.XXoXU.1.L V } k._.].u.9.0.w.u.w.0.w.w.q.+.( +.w.P._.b.X.f =     , Y 5.&.d.>X>X;.% $ t t 7 r r 2 & $ $ $ + o o X O O 9X9X9X9X9X9X9X9X9X9X9X9X9X9X",
"9X% d z.&X&X`.n.=.b v =.P.T.h.s.g.u.9.9.0.0.9.%.+.' ' 9.L._.v.[ t 1 4 m ;.V.T.M.M.^.D.m O # y c b b b y 2 & & < 0 g m C I m 8 9X9X9X9X9X9X9X9X9X9X9X9X9X",
"9X% g Y.5X3XoX.Xb.V & z d.R.R.].].C.s.9.w.q.@.` >.9.' ' x.`.v.[ r 3 W H.$X$X XV.7. .B 2 @ % r b L [ L b r 2 2 h Y 7.g.K.U.j.C @ 9X9X9X9X9X9X9X9X9X9X9X9X",
"9X% p :.`.=X2X3X Xo.9 , F d._.;XXX].d.5.5.@.( ( %.7.) ( 0.P.F.e.H i ;.>X6X6X$Xx.U 8 @ @ : 7 c K Q X.| I b d d I 0.R..XoX,X/.R o O 9X9X9X9X9X9X9X9X9X9X9X",
"9X9X9X= E ^.7X5X#XN.^ q - Q _.=XXXU.d.$.) ~ Y ! ) +.( ( %.g.P.].e.H e.$X6X6X X<.r % @ & 7 v L R _ ) ( ( Y S S #.c.`.)..X@XU.E @ 9X9X9X9X9X9X9X9X9X9X9X9X",
"9X9X9X  $ ..{.,X<X-XT./ 5 m y.Y.].P.C.w.7.@.' ) ~ ! ! ~ ) %.h.P.l.*.e.^. X XD.B # + : r b L |  .) ( ) ) ] ) ( 2.U.oX.X`.oXP.Y ; 9X9X9X9X9X9X9X9X9X9X9X9X",
"9X9X9X9X9X, E R.5X7X=XT.>.N g U u.Q.)._.].c.0.@.~ F G ! ! ( ` %.q.q.y.i.e.{ m 6 & : y V E | | O.] ] ' ' ] ) R r.~.%XoXoX=X_.{ + 9X9X9X9X9X9X9X9X9X9X9X9X",
"9X9X9X9X9X9X@ O._.#X[.Y.0.s o - U q.x.U._./.C.d.7.@.&.%.$.&.) ( +.,.o.P c y 4 $ # : u V L L J A F F F F F D V } a.C.c.n.K.a.m o O 9X9X9X9X9X9X9X9X9X9X9X",
"9X9X9X9X9X9X9Xp I E I C l , o $ 5 s g Q s.R.).).U.L.C.K.].P.c.0.) C f u c A N 4 @ & : 6 8 8 7 8 0 5 0 5 0 5 6 y v m g p h 8 % O                 O $ % 9X",
"9X9X9X9X9X9X9X9XO   O O o $ % $ @ O   : S 0.b.U.~.~./.~.~.U.B.q.Y d 3 t n ~ S 5 o @ $ @ o @ o @ o o o @ o o ; o X @ % : 4 4 6 8 t w p w p p p p 6 = % 9X",
"9X9X9X9X9X9X9X9X9X9X9X9X9X9X9X% + O O $ 8 l J } *.<.e.-.X.[ T D C N Z A M s 9 = ; o o O                         + y R q.z.n.q.,.j.Y.U.Y.Y.Y././.3.w % 9X",
"9X9X9X9X9X9X9X9X9X9X9X9X9X9X9X9X% % - $ o $ 2 f K } | } V u 3 3 g ^ @.+.S 4 o # - - = : : 4 4 4 4 4 4 4 4 4 4 2 2 V 2.Q.+X&X`.L.(.%X&X#X#X#X<X2Xb.d % 9X",
"9X9X9X9X9X9X9X9X9X9X9X9X9X9X9X9X9X9X9X$ X * M #.p.b.I.v.y._ y : g +.6.@.A 8 # 1 6 u b C Y o.3.3.:.3.:.:.>.2.2.} i r b X.i.l.j.y.3.:.;.:.:.;.3.3.T 9 % 9X",
"9X9X9X9X9X9X9X9X9X9X9X9X9X9X9X9X9X9X9X9XX 9 Y d.Y._.`.~.C.0.I f K 8.w.+.D g r t f V | %.f.P.{.|.`.[.`.`.`..XoXb.L 4 6 f J [ | L 0 @   o + o o o @ $ % 9X",
"9X9X9X9X9X9X9X9X9X9X9X9X9X9X9X9X9X9X9X9X$ = 0 M R X.*.X.U D / -.n.L.x.$.A d u v K L | ,.h.(.+X%X;XoXoX+X%X=X<X_.q.} :.y.z.l.e.L 6 O   9X9X9X9X9X9X9X9X9X",
"9X9X9X9X9X9X9X9X9X9X9X9X9X9X9X9X9X9X9X9X$ $ % * 3 y i y 3 t *.].oX`.c.%.N p u H } [ } #.u.C.).`./././././._._.K.w.w.L.`..XU.i.P r % o 9X9X9X9X9X9X9X9X9X",
"9X9X9X9X9X9X9X9X9X9X9X9X9X9X9X9X9X9X9X9Xo 4 M } ..| } } } X.v.|..XP.d.$.N p i L | } } X.3.a.l.l.l.l.l.r.o. .X._ I / o.3.3.o.L d 4 % 9X9X9X9X9X9X9X9X9X9X",
"9X9X9X9X9X9X9X9X9X9X9X9X9X9X9X9X9X9X9X9XO 8 y.`.`././.W.~.~._._.L.s.%.' A u u H | [ [ } [ { { { } | | V 2 $ - - % = % = = = % % 9X9X9X9X9X9X9X9X9X9X9X9X",
"9X9X9X9X9X9X9X9X9X9X9X9X9X9X9X9X9X9X9X9X  h z.*X=X#X%X#XoX.X{.`.C.w.$.' S f y v H J V x f u y p y d d 2 o     O X X X O   O o @ 9X9X9X9X9X9X9X9X9X9X9X9X",
"9X9X9X9X9X9X9X9X9X9X9X9X9X9X9X9X9X9X9X9XO p y.OX&X&X=X%X.X'.'.'.L.d.4.' A h r y u f y 6 = & = = = = = = 9X9X9X9X9X9X9X9X9X9X9X9X9X9X9X9X9X9X9X9X9X9X9X9X",
"9X9X9X9X9X9X9X9X9X9X9X9X9X9X9X9X9X9X9X9XO t ,.[.&X,X<X*XoX.X{.`.Z.s.%.@.F x r 3 < 2 < % o o o ; o o o 9X9X9X9X9X9X9X9X9X9X9X9X9X9X9X9X9X9X9X9X9X9X9X9X9X",
"9X9X9X9X9X9X9X9X9X9X9X9X9X9X9X9X9X9X9X9XX 9 _ Z.OX=X,X&X*X%XOX`.C.s.5.+.F v 3 : % % = 9X9X9X9X9X9X9X9X9X9X9X9X9X9X9X9X9X9X9X9X9X9X9X9X9X9X9X9X9X9X9X9X9X",
"9X9X9X9X9X9X9X9X9X9X9X9X9X9X9X9X9X9X9X9X9X= a #.P.=X3X2X3X2X*X.XP.h.%./ m y : & $ ; $ 9X9X9X9X9X9X9X9X9X9X9X9X9X9X9X9X9X9X9X9X9X9X9X9X9X9X9X9X9X9X9X9X9X",
"9X9X9X9X9X9X9X9X9X9X9X9X9X9X9X9X9X9X9X9X9X9Xo s p.&X3X4X8X3X,XoXQ.M.#.V 3 2 % 9X9X9X9X9X9X9X9X9X9X9X9X9X9X9X9X9X9X9X9X9X9X9X9X9X9X9X9X9X9X9X9X9X9X9X9X9X",
"9X9X9X9X9X9X9X9X9X9X9X9X9X9X9X9X9X9X9X9X9X9X9X= I p.b.B.I.G.b.p.8.o.C t * $ $ 9X9X9X9X9X9X9X9X9X9X9X9X9X9X9X9X9X9X9X9X9X9X9X9X9X9X9X9X9X9X9X9X9X9X9X9X9X",
"9X9X9X9X9X9X9X9X9X9X9X9X9X9X9X9X9X9X9X9X9X9X9X9X7 d g g g g s h p 8 9 = & 9X9X9X9X9X9X9X9X9X9X9X9X9X9X9X9X9X9X9X9X9X9X9X9X9X9X9X9X9X9X9X9X9X9X9X9X9X9X9X",
"9X9X9X9X9X9X9X9X9X9X9X9X9X9X9X9X9X9X9X9X9X9X9X9X% % % $ % $ $ % $ % $ $ & 9X9X9X9X9X9X9X9X9X9X9X9X9X9X9X9X9X9X9X9X9X9X9X9X9X9X9X9X9X9X9X9X9X9X9X9X9X9X9X"
};
