/* XPM */
static xpm_row_t const cursor_img[] = {
/* columns rows colors chars-per-pixel */
"40 40 176 2 ",
"   c None",
".  c #FF736F",
"X  c #FF7B6A",
"o  c #FF7C69",
"O  c #FF7E69",
"+  c #FF7C6A",
"@  c #FF7D6A",
"#  c #FF7D6B",
"$  c #FF7E6B",
"%  c #FF7D70",
"&  c #FF8C67",
"*  c #FF8069",
"=  c #FF8169",
"-  c #FF806A",
";  c #FF806B",
":  c #FF826B",
">  c #FF836B",
",  c #FF8768",
"<  c #FF856A",
"1  c #FF846B",
"2  c #FF8868",
"3  c #FF8968",
"4  c #FF8969",
"5  c #FF8B68",
"6  c #FF8A69",
"7  c #FF896A",
"8  c #FF8C68",
"9  c #FF8E68",
"0  c #FF8F68",
"q  c #FF9167",
"w  c #FF9367",
"e  c #FF9C67",
"r  c #FF9D67",
"t  c #FF9E67",
"y  c #FF9068",
"u  c #FF9168",
"i  c #FF9169",
"p  c #FF9368",
"a  c #FF9269",
"s  c #FF906B",
"d  c #FF9469",
"f  c #FF9668",
"g  c #FF9768",
"h  c #FF906C",
"j  c #FF926C",
"k  c #FF916E",
"l  c #FF976D",
"z  c #FF946E",
"x  c #FF9968",
"c  c #FF9C68",
"v  c #FF9D69",
"b  c #FF9E68",
"n  c #FF9F68",
"m  c #FF9D6B",
"M  c #FF9B6F",
"N  c #FF9D6F",
"B  c #FF8470",
"V  c #FF9571",
"C  c #FF9E73",
"Z  c #FFA067",
"A  c #FFA167",
"S  c #FFA267",
"D  c #FFA467",
"F  c #FFA567",
"G  c #FFA667",
"H  c #FFA767",
"J  c #FFA867",
"K  c #FFAA67",
"L  c #FFAB67",
"P  c #FFAD67",
"I  c #FFAE67",
"U  c #FFA068",
"Y  c #FFA169",
"T  c #FFA36B",
"R  c #FFA46B",
"E  c #FFA56D",
"W  c #FFA868",
"Q  c #FFAC68",
"!  c #FFAD6C",
"~  c #FFB167",
"^  c #FFB267",
"/  c #FFB467",
"(  c #FFB567",
")  c #FFB867",
"_  c #FFBC67",
"`  c #FFB368",
"'  c #FFB369",
"]  c #FFB568",
"[  c #FFB469",
"{  c #FFB668",
"}  c #FFB669",
"|  c #FFB769",
" . c #FFB868",
".. c #FFB968",
"X. c #FFBC68",
"o. c #FFBD68",
"O. c #FFBF69",
"+. c #FFBC6A",
"@. c #FFBF6A",
"#. c #FFBC6D",
"$. c #FFA37F",
"%. c #FFB771",
"&. c #FFBD70",
"*. c #FFB67D",
"=. c #FFBD7D",
"-. c #FFC068",
";. c #FFC269",
":. c #FFC26A",
">. c #FFCB69",
",. c #FFCE6B",
"<. c #FFCC6D",
"1. c #FFCC6E",
"2. c #FFD469",
"3. c #FFDF6B",
"4. c #FFD072",
"5. c #FFDA78",
"6. c #FFFF71",
"7. c #FFFF72",
"8. c #FFFF73",
"9. c #FFFF74",
"0. c #FFFF75",
"q. c #FFFF76",
"w. c #FFFF77",
"e. c #FFFF78",
"r. c #FFFF7E",
"t. c #FFAB84",
"y. c #FFAF8C",
"u. c #FFBC80",
"i. c #FFCC82",
"p. c #FFD681",
"a. c #FFD385",
"s. c #FFDF87",
"d. c #FFCA97",
"f. c #FFE089",
"g. c #FFE18E",
"h. c #FFFF80",
"j. c #FFFF81",
"k. c #FFFF84",
"l. c #FFFF86",
"z. c #FFFF88",
"x. c #FFFF8B",
"c. c #FFFF8C",
"v. c #FFFF94",
"b. c #FFFF95",
"n. c #FFFF99",
"m. c #FFFFA1",
"M. c #FFFFA3",
"N. c #FFFFA7",
"B. c #FFFFAF",
"V. c #FFFFB0",
"C. c #FFFFB1",
"Z. c #FFFFB6",
"A. c #FFFFB8",
"S. c #FFFFB9",
"D. c #FFFFBE",
"F. c #FFFFBF",
"G. c #FFFFC0",
"H. c #FFFFC1",
"J. c #FFFFC7",
"K. c #FFFFC9",
"L. c #FFFFCA",
"P. c #FFFFCD",
"I. c #FFFFCF",
"U. c #FFFFD2",
"Y. c #FFFFD5",
"T. c #FFFFD8",
"R. c #FFFFDB",
"E. c #FFFFDF",
"W. c #FFFFE1",
"Q. c #FFFFE4",
"!. c #FFFFE5",
"~. c #FFFFEB",
"^. c #FFFFED",
"/. c #FFFFF2",
"(. c #FFFFF8",
"). c #FFFFFF",
/* pixels */
"                                                                                ",
"                                                                                ",
"                                                                                ",
"                                                                                ",
"                                                                                ",
"            ).).                                                                ",
"            ).).).).Z.                                                          ",
"              ).p.K.).).J.                                                      ",
"              ).~.% l g.).).).y.                                                ",
"              v.).%.s < o i.).).).B.                                            ",
"                ).C.m d 3 * o M K.).).S.                                        ",
"                M.).,.` S s 8 , o h N.).).).                                    ",
"                8.).v.) { G t d s 3 o * f.).).).d.                              ",
"                  !.).O.O.I G S S x s 6 * * N T.).).S.                          ",
"                  w.).8.) / K G G S S x q q 6 o l H.).).^.                      ",
"                    ).).{  .I G G G G G S m d 8 < X * s.).).).                  ",
"                    x.).8.{ ^ I S G S G G G S t f & 8 * * u.!.).).              ",
"                      ).Z. ./ I G G G G G S G G G S x q s o . $.).).            ",
"                      v.).2.O.^ K G S G G G G G G G S x 6 E K.).).              ",
"                      8.).M.{ ) I S G G G S G S G S x 4.(.).).C.                ",
"                        U.).>. .I G G G S G G G G t O.).).=.C                   ",
"                        w.).r./ ^ I G S G G G S G m 8 D.).*.                    ",
"                          W.).O.) I K G S G S G G q & * E.).t.                  ",
"                          r.).8._ ^ K G G G G G G S s 8 o P.).                  ",
"                            ).!.{ ) I K K R W Q G G t 8 8 6 h V                 ",
"                            x.).3.O./ I I  .I ` I K G t d s * a.).              ",
"                            w.).C.` _ K <.).T.Q ) ^ I G S t s < Y.).            ",
"                              D.).2._ m P.).).H.{ _ / I S t s 1 B ).W.          ",
"                              w.).l.O.Y ).c.w.).Y.{ O./ K W m s ).).            ",
"                                U.).E n.).&.8.h.).H.:.:. .Y R ).).              ",
"                                e.).5.).C.      h.).D.O.:.! ).).                ",
"                                  ).).).          h.).P.1.).).                  ",
"                                    )./.            x.).).).                    ",
"                                                        ).                      ",
"                                                                                ",
"                                                                                ",
"                                                                                ",
"                                                                                ",
"                                                                                ",
"                                                                                "
};
