/* XPM */
static xpm_row_t const Calendar_not_clicked[] = {
/* columns rows colors chars-per-pixel */
"48 56 101 2 ",
"   c #0D58BD",
".  c #1053BB",
"X  c #1B54B8",
"o  c #1E5DBF",
"O  c #245DBB",
"+  c #004FC6",
"@  c #084BC6",
"#  c #094EC8",
"$  c #114FC5",
"%  c #0054C4",
"&  c #0E52C1",
"*  c #0F50C8",
"=  c #005FCD",
"-  c #1456C5",
";  c #006FD6",
":  c #1569D5",
">  c #0074DB",
",  c #007EDF",
"<  c #197FD3",
"1  c #2871C7",
"2  c #2873C9",
"3  c #3076C5",
"4  c #007FE1",
"5  c #0E79E1",
"6  c #157FE0",
"7  c #1A7FE0",
"8  c #6B7FC5",
"9  c #4884BF",
"0  c #1D88D7",
"q  c #1489DB",
"w  c #188AD9",
"e  c #2C82CE",
"r  c #3787CA",
"t  c #2F86D3",
"y  c #2489D9",
"u  c #348AD0",
"i  c #2890DB",
"p  c #0084E4",
"a  c #0089E5",
"s  c #0086EA",
"d  c #008AEB",
"f  c #0090E7",
"g  c #0091E8",
"h  c #0099EC",
"j  c #008EF0",
"k  c #0093F1",
"l  c #4684C0",
"z  c #4B87C0",
"x  c #7184C6",
"c  c #7A88C8",
"v  c #858FBA",
"b  c #8E94BB",
"n  c #8598BC",
"m  c #9B97B0",
"M  c #BCB2B6",
"N  c #B1B7BC",
"B  c #B4BABF",
"V  c #C4B4B3",
"C  c #C9B2B0",
"Z  c #C6BAB7",
"A  c #C8B9B7",
"S  c #C3BABB",
"D  c #C8B9B8",
"F  c #95A1CB",
"G  c #98A2C9",
"H  c #8DA7D8",
"J  c #9AACD6",
"K  c #92AADA",
"L  c #A2AACD",
"P  c #B6BCC1",
"I  c #B9BFC3",
"U  c #BBC1C5",
"Y  c #BDC4C9",
"T  c #BBCBCF",
"R  c #BBCBD0",
"E  c #C6C2C3",
"W  c #C1C6CA",
"Q  c #C4C9CC",
"!  c #C6CCD0",
"~  c #C9CFD2",
"^  c #C3D2D4",
"/  c #CDD2D5",
"(  c #CFD5D8",
")  c #D1D6D9",
"_  c #D5DADC",
"`  c #D7DFE0",
"'  c #DADFE1",
"]  c #D6E0E2",
"[  c #DDE1E4",
"{  c #E1E5E6",
"}  c #E3E7E9",
"|  c #E6EAEB",
" . c #EAEDEE",
".. c #ECF0EF",
"X. c #EBEFF0",
"o. c #EDF1F2",
"O. c #F0F4F5",
"+. c #FFFFF5",
"@. c #F3F7F8",
"#. c #F4F8F9",
"$. c None",
/* pixels */
"$.$.$.$.$.$.$.$.$.$.$.$.$.$.$.$.$.$.$.$.$.$.$.$.$.$.$.$.$.$.$.$.$.$.$.$.$.$.$.$.$.$.$.$.$.$.$.$.",
"$.$.$.$.$.$.$.$.$.$.$.$.$.$.$.$.$.$.$.$.$.$.$.$.$.$.$.$.$.$.$.$.$.$.$.$.$.$.$.$.$.$.$.$.$.$.$.$.",
"$.$.$.$.$.$.$.$.' $.$.$.$.$.$.$.$.$.$.$.$.$.$.$.$.$.$.$.$.$.$.$.$.$.$.$.$.$.$.' $.$.$.$.$.$.$.$.",
"$.$.$.$.$.$.[ U P I { $.$.$.$.$.$.$.$.$.$.$.$.$.$.$.$.$.$.$.$.$.$.$.$.$.$.[ Y P E ' $.$.$.$.$.$.",
"$.$.$.$.$.$.Q P I P W $.$.$.$.$.$.$.$.$.$.$.$.$.$.$.$.$.$.$.$.$.$.$.$.$.$.W P U P Q $.$.$.$.$.$.",
"$.$.$.$.$.] Q U Y I W O.$.$.$.$.$.$.$.$.$.$.$.$.$.$.$.$.$.$.$.$.$.$.$.$.$.W P Y P ! $.$.$.$.$.$.",
"$.$.$.$.$.` ^ I Y P ^ $.$.$.$.$.$.$.$.$.$.$.$.$.$.$.$.$.$.$.$.$.$.$.$.$.$.^ P Y I ! ] $.$.$.$.$.",
"$.$.$.$.$.` E T Y Y T  .$.$.$.$.$.$.$.$.$.$.$.$.$.$.$.$.$.$.$.$.$.$.$.$.$.Q Y W T E $.$.$.$.$.$.",
"$.$.$.$.r l C R Y T L 5 d d d d d d d d d d d d d d d d d d d d d d d j e A R U R C 9 k $.$.$.$.",
"$.$.z p d y V R U Q L q p p p p p p p p p p p p p p p p p p p p p p p 4 u D R U R V y p s p $.$.",
"$.n s a p t V T U T L 7 p a a a a a a a a a a a a a a a a a a a a a a p u D R U T V t s a p i $.",
"$.0 p d p 2 M R U ! L : p a a a a a p a a a a p a p a a a a p a a a a p 3 Z R U R V 1 p g 4 q $.",
"$.q p g , O V ! W ~ L $ ; f a a a a a a p a a a a a a a a a p a a a f > O Z ^ I ! M - , g p q $.",
"$.w p g ; . m ! Q ^ c + ; f a a a p a a a a a a a a p a a a a a a a f ; & b ~ Q ! x & ; g p w $.",
"$.w p g > % - 8 G x - % > a a a a a p a a a a a a p a a a a a a a a a > % O v F x # % > g p w $.",
"$.w p a p = % + @ +   = p a a a p a a a a a p a a a a p a a a p a a a p = + + @ + % = a a p w $.",
"$.w p a a , = % % % = p g a p a a a p a p a a p a a p a a p a a p a a g 4 = % % % = , a a p w $.",
"$.w p a a g a > ; > p g a a a a a a a a a a a a a d a a a a a d a a a a g p > ; > a g a a p w $.",
"$.w p g g g g h h h g g g g f g g f g g g g g g g g g g g g g g g g g g g g h h h h g g g p w $.",
"$.0 > p , p , 4 p p , , p , , , , , , 4 , , , 4 , , , , , , , , , , , 4 p , p p p , , p 4 > 0 $.",
"$.  + % + + + % + + + + % + + + % + + + + + + + + % + + + + + + + + + + + % + +   + + + + +   $.",
"$.X . @ & & & * . . & & & * * & @ - & . & & & & & & & & & & & & & & & & & & * & @ . & & @ . X $.",
"$.J H K K K K K K K K K K K K K K K K K K K K K K K K K K K K K K K K K K K K K H K K K K H J $.",
"$.+.+.+.+.+.+.+.+.+.+.+.+.+.+.#.+.+.+.+.+.+.+.+.+.+.+.+.+.+.+.+.+.+.+.+.+.+.+.+.+.+.+.+.+.+.+.$.",
"$.o.o.o.@.o.O.O.O.O.o.o.o.O.o.O.O.o.o.O.O.O.O.o.O.o.o.O.O.o.O.O.o.o.o.o.O.O.O.O.O.o.o.O.o.o.O.$.",
"$.X. . .o.o.o.o.X.O.O.X.X.X.O.O.o.O.X.X.X.X.o.O.o.O.o.X.X.o.o.o.O.O.o.X.o.o.o.o.o.o.o. .o.X. .$.",
"$.o.o.X.o.o.X.X.X.X.X.X.X.o.X.X.o.o.X.X.X.X.X.X.X.X.o.o.X.X.o.o.X.X. .X.o.o.X.o.o.o.X.X.o.o.X.$.",
"$.o.X.o.o.| ) ^ ) ~ ) | @.[ / / ( ^ ` X.O.' ~ / / / ' o.X.` / ^ / / } @.| ( ~ / / ( | O.o.o.o.$.",
"$.X.o.X.@.| Y P I P I } @.' I I I I Q X.O.) P I I P ) O.X.T P I I I ' @.} U P U P T } O.o.X.o.$.",
"$.o.X.o.o.| W I Y I W | @.' W I I I ! X.O.) P Y Y I ) O.X.! I I U U ' @.} T P E I W } O.X.o.X.$.",
"$.o.o.X.O.} Y P I P Y } @.' I I I P W X.O.) P I I P ( O.X.Q P I I I ' #.} U B I P Y } O.o.X.o.$.",
"$.X.o.o.o.| Q U W I W | @.' Y I Y I ! X.O.) I Y Y I ) O.X.~ I Y Y U [ O.| W U Y U Q } O.X.o.o.$.",
"$.X.o.X.X. .{ [ { [ { X.X.X.[ [ { ' { X.o.| [ { { [ | o.X.} ' { { [ X.O.X.[ ' { [ } X.X.X.X.X.$.",
"$.o.X.o.X.O.#.#.#.#.#.o.X.o.#.#.#.#.@.X.X.@.@.#.@.@.@.o.X.@.#.@.@.@.X.X.O.@.#.@.@.@.X.X.O.X.X.$.",
"$.X.o.X.O.| [ ' ' ' [  .o.| [ [ ' ' { o.o.} ' [ [ ' } o.X.[ ' ' ' ' | O.X.' ' ' ' [ X.O.X.o.o.$.",
"$.o.X.o.O.} Q U Y U W } #.' Y U Y I ! X.O.) I Y Y I ) O.X.~ I W Y Y ' @.| W I W I ! } O.o.X.o.$.",
"$.o.o.X.O.} W I I I Y } #.' U U U P Q X.O.) I U U P ) O.X.W I I I U ' @.| Y I I I W } O.X.o.X.$.",
"$.X.X.o.O.| W I Y I W } @.' U I U I Q X.o.) I U Y I ) O.X.! I I I Y ' @.| Y I I I W } O.o.X.O.$.",
"$.X.o.X.O.} U B I P I } @.' I P I N Q ..O.) N I P P / O.X.Q B I P P ' @.{ I P I B U } O.X.o.X.$.",
"$.o.X.o.O.| ) / ) ~ ) | O.{ ( ( ) ) ) ..o.[ / ) ) / ' O.X._ ~ ) ( ( { O.| ) / ) ( ) | O.o.X.o.$.",
"$. .o...o.o.O.o.O.o.o.o.o.o.O.O.o.o.o.o.o.o.o.O.o.O.o.o.o.o.o.o.O.o.o.o.o.o.O.o.O.O.o.X.o.X.o.$.",
"$.o.X.o.o.o. ...X.X.X.X.o.X. . .o.o.o.o.o. ...o.o. .o.o.o.o.o.o.....o...o.....o. . .X.X.X.o.o.$.",
"$.o...o.o.| / Q ! ! ~ | O.{ Q ! ! Q / ..O._ Q Q ! Q ` o.o./ Q ! Q Q [ O.| / Q Q Q !  .O.X.o.X.$.",
"$.o.o.o.o.| W B I P E } O.[ I U U P Q ..O.) P U U B ) o...Q P U U U [ @.{ U P U I W } O.o.X.o.$.",
"$.X.o.X.O.| Q U U U W } @.[ U U Y U Q ..O.) U U W I ) O.o.! I E U Y [ @.} Q U Y I Q } O.X.o.X.$.",
"$.o.X.o.o.{ Y B I P U } @.' I P U N Q  .O.) N U I B ) O. .Q B I P P ' @.} U N U B Y { O.o.X.o.$.",
"$.X.o.X.o.| Q Y W Y Q } O.[ W W Q U /  .o.) Y W W Y ) O.X.! Y W W Y [ O.| Q Y Q W Q | O.X.o.X.$.",
"$.o.X.o.o.o.| } } | | X.o.| | } | } { o.o...} { | {  ...X.| } | } }  .o. .} { | } |  .X.o.X.o.$.",
"$.| X.X.X.X.O.O.o.O.o.o.X.o.o.O.o.O.o.o.X.o.O.o.O.O.X.X.o.o.O.o.o.O.o.o.o.o.o.O.o.O.o.o.X.o.| $.",
"$._ O.O.O.X.X.X.X.o.o.o.X.o.o.o.X.o.o.X.o.X.o.o.o.o.X.o.X.o.o.o.o.o.o.o.o.o.o.o.o.o.X.o.O.O._ $.",
"$.Q _ O.@.@.O.O.O.O.O.O.O.O.O.O.O.@.O.@.@.o.O.O.O.O.O.o.O.O.O.O.O.O.O.o.O.O.O.o.O.O.O.O.O._ W $.",
"$./ P ) } | | |  .| | | | |  .| | | | | | X.| | | | |  .| |  .| | | | X.| | |  .| |  .} ) B / $.",
"$.$.Q N I W Q Q W Q W Q Q Q Q W Q Q Q Q W Q W Q Q E Q Q Q Q Q Q Q Q Q Q Q Q W Q W Q W U N Q $.$.",
"$.$.$.! I U I I U U U I I I I I I I I I I I I I I I I U B I I I I I I I U I P U I I I U ! $.$.$.",
"$.$.$. .}  . .|  .|  . . .}  . .} } | } } { } { } } } } } } } } { } | }  .| | |  . . . .$.$.$.$.",
"$.$.$.$.$.$.$.$.$.$.$.$.$.$.$.$.$.$.$.$.$.$.$.$.$.$.$.$.$.$.$.$.$.$.$.$.$.$.$.$.$.$.$.$.$.$.$.$."
};
