/* XPM */
static xpm_row_t const Calendar_clicked[] = {
/* columns rows colors chars-per-pixel */
"48 56 92 1 ",
"  c #BB0B6B",
". c #BD106E",
"X c #BE1A6B",
"o c #BD0F70",
"O c #BF1370",
"+ c #BF2774",
"@ c #C0146E",
"# c #C2196D",
"$ c #C01370",
"% c #C21D74",
"& c #C6157A",
"* c #C3216D",
"= c #C12272",
"- c #C32A76",
"; c #CE148A",
": c #D2158E",
"> c #D60C9F",
", c #D90F9E",
"< c #D41293",
"1 c #D7149A",
"2 c #D9139D",
"3 c #CE2F87",
"4 c #CE2F89",
"5 c #D02785",
"6 c #CE328B",
"7 c #D82296",
"8 c #DD209D",
"9 c #DA2C99",
"0 c #D93794",
"q c #D9339D",
"w c #D509A1",
"e c #D80CA1",
"r c #DA0EA9",
"t c #DC16A3",
"y c #DF16AA",
"u c #E016AC",
"i c #E216B2",
"p c #DD22A1",
"a c #DF2DA4",
"s c #C3748F",
"d c #C27A8F",
"f c #C37993",
"g c #BF919D",
"h c #BEAEB1",
"j c #BDB5B4",
"k c #BBB8B5",
"l c #B0B7BC",
"z c #B4BABF",
"x c #BEBEBB",
"c c #C18594",
"v c #C18098",
"b c #C08E9E",
"n c #DB95B0",
"m c #DD9AB4",
"M c #C0A5AB",
"N c #C0AFB5",
"B c #C2B6B5",
"V c #C0BEBA",
"C c #B6BCC1",
"Z c #B9BFC3",
"A c #BBC1C5",
"S c #BEC4C9",
"D c #BACBCF",
"F c #BBCCD1",
"G c #BDD3D5",
"H c #BDDBDA",
"J c #C3C3C4",
"K c #C6C8C6",
"L c #C1C7CA",
"P c #C4C9CD",
"I c #C9CECD",
"U c #C7CED1",
"Y c #C9CFD2",
"T c #CDD2D5",
"R c #C5D3D8",
"E c #CFD5D8",
"W c #D1D6D9",
"Q c #D5DADC",
"! c #DADFE1",
"~ c #DDE2E4",
"^ c #E1E5E6",
"/ c #E3E7E9",
"( c #E6EAEB",
") c #EAEDEE",
"_ c #ECF0EF",
"` c #EBEFF0",
"' c #EDF1F1",
"] c #EFFFFE",
"[ c #F0F4F5",
"{ c #F4F7F8",
"} c #F4F9F9",
"| c None",
/* pixels */
"||||||||||||||||||||||||||||||||||||||||||||||||",
"||||||||||||||||||||||||||||||||||||||||||||||||",
"||||||||I||||||||||||||||||||||||||||||KK|||||||",
"||||||UACAP||||||||||||||||||||||||||PACSI||||||",
"||||||UCACS||||||||||||||||||||||||||PzSCP||||||",
"||||||UASZL||||||||||||||||||||||||||PCSAL||||||",
"||||||RZSCR||||||||||||||||||||||||||PzLZJ||||||",
"||||||JSASL||||||||||||||||||||||||||LASSJ||||||",
"||||80BDAFN7rttttttttttttttttttttttr9xDADB0y||||",
"||>>eqBDAFB922t2tttttttttttttt1tttt>qxDSDja,ww||",
"|pwteqBFAFN92uttttttttttttttttttttt,qVFSDBq2twa|",
"|p1y,4jFADN52tttttttttttttttttttttt26xFSFj3,u1p|",
"|82y<-kFJFh#:ytttttttttttttttttttty:-AUZFk-<u28|",
"|ptu;.gHGHg.;uuttttttttttttttttttty;.bHGGd$;u2p|",
"|p2y<O=sMf#O:tttttttttttttttttttttt<O+vMs#O<y>p|",
"|p2y2&OO#$O&2ttttttttttttttttttttty2&O #OO&ty2p|",
"|t2tt1&OO$&1ytttttttttttttttttttttty1&$OO&1tt28|",
"|p2tttt:;:2yttttttttttttttttttttttttu2:::tytt>p|",
"|p2uuuiiiiiyyyyyyyypyyyyyyyyipyyyyyyuuiiiiyyutp|",
"|7:2121111111111111t1111111111111211111111112<7|",
"|=O$OOOO$$$OOOOOOOoOOOoOOOOOOOOOOO$OOOOO#XOOOo%|",
"|#  .............O..........O...O .......O... X|",
"|mnmmmmmmmmmmmmmmmmmmmmmmmmmmmmmmmmmmmmmmmmmmnm|",
"|]]}]]]]]]]]]]]}]]]]]]]]]]]]]]]]]]]]]]]]]]]]]]]|",
"|''`'''`'''''''''''''''''`''''`'''``''''`''''''|",
"|''''`''''''`'''''''''''''''''''['''''''''''``'|",
"|''''''''''''`''''''''''''''`''''''''''''''''''|",
"|''''(TTTTT([/YTTYW''~YTTT!'`QYTYY/[(TTTYW(''`'|",
"|'''[(SCZZA/{!ZZACP`[WCAACW[`PCZAZ!}/AZACS(['`'|",
"|_'''(PASZL/{!ASSZP`[WZASZW[`UZAAA~[(LZAAL/['`'|",
"|''''(SCZZS/{!ZZZCP`[WCZZCW[`LZZZZ~{^SZACS(['''|",
"|'''[/PASZL/{~ASSAP'[WZSSZW[`UZSAA~{/SAAAP(''''|",
"|'`''`/~~~^)'`~~~~/''(~^~~('`/~^^~)'`^~^~/`''`'|",
"|'`'''[}}}}'''}}{{{'`[}{}}['`{{{{{'''{{{{{'''''|",
"|`'''`~!~!!)'(!!!!~`'/!!!!/'`^!!!!([)!!!!~`''`'|",
"|''`'/LZSZS/{~AASZP`[WZASZW[`PZAAA~}/LZZZL/''''|",
"|'`''(LZAZS/{~AAAAP`'WCAAZW[)PZAAA~{/SZSZL('``'|",
"|''''(LZSZL/{~AAACU`[WAAAZW[`UZAAA!{/SZAZL(['''|",
"|'``[(SCZCA/{!CCAzP_[WzAZzE[)PzZCZ!{/SCZCS(['`'|",
"|'''[(WTWYW([/EETTQ''~TEET![`QTEET/[(WYWTW(''''|",
"|'''''['[[['`'[['[''''''[[''''['['''''[['''''''|",
"|'`''''_`)'`'`__)'''''''''''''''_''''_)_'''''''|",
"|''''(YPPPY/[~PPPPT''QPIIDQ''TLPPP~[(YPIPY(''`'|",
"|''''(SCAZA/[~ZAACP){WCAZCW''PCAAA~[/SzACL/['''|",
"|'`'[(PASAL/}~AASZI`[WAAJZW[)IZSAA~[/PAAAP('``'|",
"|'`''/SCACA/{!ZZZzP)[WzZZCW[)PCZCA~}/AzACS/['''|",
"|`''[(ISLSP/[~LLLSY)[QALLAQ[)TSPLS![/PSLSP/['`'|",
"|''`')(/(/(`')/(((('')((((('`((((()')(((((`''''|",
"|([```[['[['''[['[''''[''[['`'[''[''''{'['''`'(|",
"|Q[[````''''''''''''''''`'`'''''''''''''''''[[Q|",
"|LQ[[[[[[[[''[['['['{'[[[[['[[[''[['[[[[[[[[[QL|",
"|TzW/(()(()()(()(`(`()()(()))(())(()(()((()^WzT|",
"||LlALLLLLPLLLLLLLLPPDPPPPPPLPPPPLLPPPSPLPLAlL||",
"|||IZAZAAZZAAZAZZZZZAAZZZAZZZAZZZAAZAAAAAZAAI|||",
"||||)))))))))))))))))(//////^^^^~~~^~~~~^^/)||||",
"||||||||||||||||||||||||||||||||||||||||||||||||"
};
