/* XPM */
static xpm_row_t const Calendar_clicked[] = {
/* columns rows colors chars-per-pixel */
"48 56 94 2 ",
"   c #BB0B6B",
".  c #BD106E",
"X  c #BE1A6B",
"o  c #BD0F70",
"O  c #BF1370",
"+  c #BF2774",
"@  c #C0146E",
"#  c #C2196D",
"$  c #C01370",
"%  c #C21D74",
"&  c #C6157A",
"*  c #C3216D",
"=  c #C12272",
"-  c #C32A76",
";  c #CE148A",
":  c #D2158E",
">  c #D60C9F",
",  c #D90F9E",
"<  c #D41293",
"1  c #D7149A",
"2  c #D9139D",
"3  c #CE2F87",
"4  c #CE2F89",
"5  c #D02785",
"6  c #CE328B",
"7  c #D82296",
"8  c #DD209D",
"9  c #DA2C99",
"0  c #D93794",
"q  c #D9339D",
"w  c #D509A1",
"e  c #D80CA1",
"r  c #DA0EA9",
"t  c #DC16A3",
"y  c #DF16AA",
"u  c #E016AC",
"i  c #E216B2",
"p  c #DD22A1",
"a  c #DF2DA4",
"s  c #C3748F",
"d  c #C27A8F",
"f  c #C37993",
"g  c #BF919D",
"h  c #BEAEB1",
"j  c #BDB5B4",
"k  c #BBB8B5",
"l  c #B0B7BC",
"z  c #B4BABF",
"x  c #BEBEBB",
"c  c #C18594",
"v  c #C18098",
"b  c #C08E9E",
"n  c #DB95B0",
"m  c #DD9AB4",
"M  c #C0A5AB",
"N  c #C0AFB5",
"B  c #C2B6B5",
"V  c #C0BEBA",
"C  c #B6BCC1",
"Z  c #B9BFC3",
"A  c #BBC1C5",
"S  c #BEC4C9",
"D  c #BACBCF",
"F  c #BBCCD1",
"G  c #BDD3D5",
"H  c #BDDBDA",
"J  c #C2C3C4",
"K  c #C1C7CA",
"L  c #C4C9CD",
"P  c #C8CECF",
"I  c #C7CED1",
"U  c #C9CFD2",
"Y  c #C5D2D7",
"T  c #CDD2D5",
"R  c #C5D3D9",
"E  c #CFD5D8",
"W  c #D1D6D9",
"Q  c #D5DADC",
"!  c #DADDDF",
"~  c #DADFE1",
"^  c #D6E1E4",
"/  c #DDE2E4",
"(  c #E1E5E6",
")  c #E3E7E9",
"_  c #E6EAEB",
"`  c #EAEDEE",
"'  c #ECF0EF",
"]  c #EBEFF0",
"[  c #EDF1F1",
"{  c #EFFFFE",
"}  c #F0F4F5",
"|  c #F4F7F8",
" . c #F4F9F9",
".. c None",
/* pixels */
"................................................................................................",
"................................................................................................",
"................~ ............................................................( ................",
"..............A C S ....................................................../ A C S ~ ............",
"..........^ I C A C K W ................................................[ L z A C L ............",
"............I A S Z S ~ ................................................} K A S Z L ............",
"............R A S C Y ~ ................................................' R C S Z Y _ ..........",
"..........^ J S S S J U ................................................} K S S S J ............",
"........8 0 B D A F N 7 r t t t t t t t t t t t t t t t t t t r t t t r 9 x D J D B 0 y ........",
"....> > e q B D A F B 9 2 2 t 2 1 t t t t t t 2 t t t t t t t t t t t > q V D A D j a , w w ....",
"..8 w t e q B F A F N 9 2 u t u t t t t t t t t t t t t t t t t t t t , q x D A D B q , t w a ..",
"..p 2 y , 4 j F J D N 5 2 t t t t t t t t t t t t t t t t t t t t t t 2 6 x F S F j 3 2 y 2 p ..",
"..p 2 y < - k F Z G j * < u t t t t t t t t t t t t t t t t t t t t y : - Z I Z F k - < u 2 8 ..",
"..p t y ; . g H F H c O ; t t t t t t t t t t p t t t t t t t t t t y ; @ b H G G d $ ; u > p ..",
"..p 2 y < O = s M f * o : t t t t t t t t t t t t t t t t t t t t t t < O + v M s # O < y 2 p ..",
"..p 2 y 2 & O O # $ O & 2 u t t t t t t t t t t t t t t t t t t t t y 1 & O . @ O O & t y 2 p ..",
"..8 2 u t 1 & O X . & 1 y t t t t t t t t t t t t t t t t t t t t t t u 1 & X O O & 1 t t > p ..",
"..8 2 t t t t : ; : t y t t t t t t t t t t t t t t t y t t t t t t t t u t : : < t t t t 2 p ..",
"..p 2 u u u i i i i u u u u y y i p u y y y y t y y y y y u u y y y y y t i i i i i u u y t p ..",
"..7 < 1 1 1 1 1 2 2 1 1 1 1 1 1 1 1 1 1 1 1 1 1 1 1 1 1 1 1 1 1 1 1 1 1 1 1 1 1 1 1 1 1 1 < 8 ..",
"..% o $ O O O O $ O O O $ $ O O O O . O O O O O O O O O X O O O $ O O O O O O O X $ O O $ o = ..",
"..X   . . . . . . . . .   . O . o O o o . . . . . . . . O . . .   . O . . . . . . . . . .   X ..",
"..m n m m m m m m m m m m m m m m m m m m m m m m m m m m m m m m m m m m m m m m m m m m n m ..",
".. .{ { { { { { { { { { { { { { { { { { { { { { { { { { { { { { { { { { { { { { { { { { { {  ...",
"..[ [ [ [ [ [ [ [ [ [ [ [ [ [ [ ] ] [ ] ] ] ] [ [ ] [ [ [ [ ] [ [ [ [ [ [ ] [ [ ] [ [ [ [ [ [ ..",
"..[ [ [ [ [ [ [ [ } [ [ [ ] [ [ [ } [ [ [ [ } [ [ [ [ [ [ [ [ [ [ [ [ [ [ [ [ [ [ [ [ [ ] ] [ ..",
"..[ [ [ [ [ [ [ [ [ [ [ [ ] [ [ [ } [ ] [ ] } [ [ [ [ [ [ [ } [ ] [ [ [ [ [ [ [ [ [ [ [ [ [ [ ..",
"..[ [ [ [ _ T Y T I T _ } ) U T T I Q ` } ~ I T T T ~ [ ] W I T T U ) } _ E U T I W _ [ [ ] [ ..",
"..[ [ [ } _ S C Z Z S )  .~ Z Z Z C L ] } E z A A C W } ] K C Z Z A ~ } ) A Z A Z S _ } ] [ ] ..",
"..[ [ [ } _ K A S Z S ) | ~ S A S Z L ] } W Z A A Z W } ] I Z S A A / | ) J A A A K ) } [ [ [ ..",
"..[ [ [ } ) J C Z Z S ) | ~ Z Z Z C L ] } W C Z A C W } ] L C A C A /  .) S Z Z C S ) } [ ] [ ..",
"..[ [ [ [ ) L A S A S ) | / S A J A L [ } Q Z S S Z W } ` I Z S A A /  .) S A S A K _ } [ ] [ ..",
"..[ [ [ [ ] ) / / / / ] [ ` / / / / ) [ [ _ / ( / / _ [ ] ) / ( / ( _ [ ] ( / / / ) ] [ [ [ [ ..",
"..[ ] [ [ [ }  . . .| [ [ [  . .| | | ] ] }  . . . .| ] ] | | |  .| [ [ [ | | |  .| [ [ [ [ [ ..",
"..] [ [ [ ] / ~ / ~ / ` [ _ / ~ ~ ~ / [ [ ) ~ ~ ~ ~ ) [ ] ( ~ ~ ~ ~ ` [ ` ~ ~ ~ ~ / ] [ [ ] [ ..",
"..[ [ ] [ ) K Z A A S )  ./ A A S C I ` } W Z A S Z W } ] L Z A A A /  .) S Z S Z K ) [ [ [ [ ..",
"..[ ] [ [ _ K Z S Z S ) | / A A S Z L ] } W Z A Z Z W } ] L Z A A A / | ) S Z A Z K ) | ] ] [ ..",
"..[ [ [ [ _ K Z A A S ) } / A A A C P ] [ W Z A A Z W } ] I Z A A A ~ | ) S Z S Z K _ [ [ [ [ ..",
"..[ ] ] } _ S C Z C A ) | ~ Z C A z L ' } W z A Z z W } ` L z Z Z Z ~ | ) A C Z C A _ } [ ] [ ..",
"..[ [ [ } _ W T T T W _ } ) E T T T Q [ [ / T T T T / [ [ Q T E T T ) | _ W T T T W _ [ [ [ [ ..",
"..[ [ ] [ [ [ } } } } [ [ [ } } [ } [ [ [ [ [ } } [ [ [ [ [ } [ [ } [ [ ' } } } } [ [ [ [ [ ] ..",
"..` [ [ [ [ [ ' ] ] ] ] ] ] ' ' [ [ [ [ [ [ [ ] [ [ [ [ [ [ [ [ ' [ ] [ ] ' ` ' [ [ [ [ ] [ [ ..",
"..[ ] [ [ _ I L L L I _ } / L L P S T ' [ Q L P P L Q } [ T K L L L / } _ P L P L I _ [ [ ] [ ..",
"..[ [ [ } _ K C A Z A ) } / Z A A C L ` | E C A A C W [ ' L C A A A /  .) A z A C K _ } [ [ [ ..",
"..[ [ ] } _ K A A A K )  ./ A A A A P ' } W A A A Z W } [ P C S A S / } ) K A S A L _ [ ] ] [ ..",
"..[ [ [ } ) S z A C A )  .~ Z Z A z K ` } E z A A z W } ` K C Z C Z ~  .) A z A C S ) } [ [ [ ..",
"..[ ] [ } ) P S K S L _ [ / K K K S T ` } Q A K K S Q [ ` T S L K S / } ) L S K S L ) } [ ] [ ..",
"..[ ] [ [ ` _ ) _ _ _ [ [ ` _ ) _ ) _ [ ' ` _ ) _ _ ` [ [ _ _ _ _ _ ` [ ` _ _ _ _ _ ] [ [ [ [ ..",
".._ } ] ] [ } } [ } } [ [ [ [ } [ | [ [ [ [ [  .[ } [ [ [ [ } [ [ } [ [ [ [ [ } } [ [ [ [ [ ] ..",
"..Q [ } [ ] ] ] [ [ [ [ [ [ [ [ [ [ [ [ [ [ [ [ ] [ [ [ [ [ [ [ [ [ [ [ [ [ [ [ [ [ [ [ } } Q ..",
"..K ! } } } } } [ } } [ [ [ [ [ [ [ [ [ [ [ [ } } } } } } } } [ [ [ } [ [ [ } } } } } } } Q K ..",
"..T z E ) _ ` _ _ ` ` _ ] ` ] ` ` ` [ ` ` ` ` ` ` _ _ _ ` _ _ ` ` ` ` ` [ _ ` ` _ _ ` ( W z U ..",
"....K l A K K K K K L K K K K K K K K K L D K L L L K L L K L L L K K L L S L S K L K A l K ....",
"......P Z A Z A A Z Z A A Z A Z Z Z A Z A A A Z Z A A Z Z A Z Z Z A A A A A A A A Z A A P ......",
"........` ` ` ` ` ` ` ` ` ` ` ` ` ` ` ` ` ` ) ) ) ) ) ) ( ( ( ( / / / ( / / / / ( ( ) ` ........",
"................................................................................................"
};
