/* XPM */
static xpm_row_t const projectile_xpm[] = {
/* columns rows colors chars-per-pixel */
"19 10 72 1 ",
"  c #555B4F",
". c #585F51",
"X c #596052",
"o c #5A6253",
"O c #5D6555",
"+ c #5F6756",
"@ c #606957",
"# c #616A58",
"$ c #626A58",
"% c #626B58",
"& c #7C8E6C",
"* c #7F916E",
"= c #8A9F76",
"- c #8EA479",
"; c #8FA579",
": c #94AB7D",
"> c #98B483",
", c #9AB884",
"< c #9BB885",
"1 c #9DB985",
"2 c #A3BF85",
"3 c #A0BC87",
"4 c #A1BD87",
"5 c #A2BE87",
"6 c #A2BE88",
"7 c #A3BF88",
"8 c #A3C088",
"9 c #A5C088",
"0 c #A5C188",
"q c #A5C189",
"w c #A5C289",
"e c #A7C58B",
"r c #A8C58B",
"t c #AAC98D",
"y c #ACCA8E",
"u c #B2CE87",
"i c #BED794",
"p c #C2DA96",
"a c #C5DD97",
"s c #CBE397",
"d c #D1E79C",
"f c #D6E69E",
"g c #D5EB9E",
"h c #E8FD9E",
"j c #EAFF9F",
"k c #EBFF9F",
"l c #DBEBA0",
"z c #D0E1AC",
"x c #EAFFA0",
"c c #EBFFA2",
"v c #EBFFA6",
"b c #EBFEA8",
"n c #EBFFA8",
"m c #ECFEA8",
"M c #ECFFA8",
"N c #EDFFA9",
"B c #EEFFA9",
"V c #F1FFA7",
"C c #F1FFAA",
"Z c #F4FFAB",
"A c #F6FFAC",
"S c #EEFFB3",
"D c #F0FFBB",
"F c #FBFFBF",
"G c #F5FED2",
"H c #F8FEDD",
"J c #F3F6EA",
"K c #FEFFEE",
"L c #FBFEF2",
"P c #FFFEFF",
"I c #FFFFFF",
"U c None",
/* pixels */
"UUUUUUUUUUUUUUUUUUU",
"UUUUUUUUUUUUUUUUUUU",
"UUUU@O$-e39gCvVs2UU",
"UU@@+%:t40lZvSDFzUU",
"U@@@.;y6,fAnjHPPIUU",
"UU@@o*8w1amBxGLKJUU",
"UUU@# &5q>pbNckhuUU",
"UUUU@@X=r7<dCMZiUUU",
"UUUUUUUUUUUUUUUUUUU",
"UUUUUUUUUUUUUUUUUUU"
};
