/* XPM */
static xpm_row_t const taskArrow_xpm[] = {
/* columns rows colors chars-per-pixel */
"40 33 140 2 ",
"   c #2B0A05",
".  c #4B2D1C",
"X  c #55361A",
"o  c #432721",
"O  c #4C2F26",
"+  c #4D3025",
"@  c #543623",
"#  c #553824",
"$  c #52362C",
"%  c #4A3033",
"&  c #4C343B",
"*  c #503736",
"=  c #533935",
"-  c #583E37",
";  c #563C3A",
":  c #60400B",
">  c #714D0A",
",  c #64451C",
"<  c #67481C",
"1  c #6B4B1B",
"2  c #7D5C14",
"3  c #74541B",
"4  c #7B5B1F",
"5  c #5B402B",
"6  c #5A4139",
"7  c #634426",
"8  c #654821",
"9  c #60432A",
"0  c #6E5020",
"q  c #6E5028",
"w  c #755727",
"e  c #765822",
"r  c #73572C",
"t  c #7A5E2F",
"y  c #644B35",
"u  c #6D5232",
"i  c #70573B",
"p  c #4A3442",
"a  c #513940",
"s  c #523B48",
"d  c #5B4342",
"f  c #5D4649",
"g  c #644C45",
"h  c #614A4A",
"j  c #6E5647",
"k  c #68514C",
"l  c #664F51",
"z  c #665155",
"x  c #6E5955",
"c  c #68535B",
"v  c #6E5B5F",
"b  c #725D5B",
"n  c #776045",
"m  c #7C644A",
"M  c #776466",
"N  c #7A6663",
"B  c #77646B",
"V  c #7B6B71",
"C  c #79697A",
"Z  c #967102",
"A  c #9A7609",
"S  c #9C7A09",
"D  c #8D6B14",
"F  c #81611E",
"G  c #8C6B1B",
"H  c #906F12",
"J  c #916F18",
"K  c #9D7C16",
"L  c #9A781B",
"P  c #836423",
"I  c #846529",
"U  c #997A26",
"Y  c #967929",
"T  c #927534",
"R  c #987B34",
"E  c #80694F",
"W  c #87704B",
"Q  c #967D45",
"!  c #867058",
"~  c #84726F",
"^  c #8D7B76",
"/  c #84757C",
"(  c #887879",
")  c #AA860C",
"_  c #AD8C13",
"`  c #AE8D1B",
"'  c #B18E1A",
"]  c #AE9019",
"[  c #B59413",
"{  c #BB9A15",
"}  c #B5941B",
"|  c #B9991A",
" . c #A58624",
".. c #A3862E",
"X. c #A98B2B",
"o. c #B08F21",
"O. c #B09021",
"+. c #BC9C23",
"@. c #BDA02C",
"#. c #C7A30C",
"$. c #D7B40D",
"%. c #C5A514",
"&. c #CCAA14",
"*. c #C9A618",
"=. c #CEAD1D",
"-. c #D1AE14",
";. c #D2AF1B",
":. c #D6B215",
">. c #DBB816",
",. c #D9B61B",
"<. c #DDBC1B",
"1. c #E1BE1D",
"2. c #C4A323",
"3. c #D4B222",
"4. c #DFC41D",
"5. c #E6C113",
"6. c #E4C31C",
"7. c #E9C71C",
"8. c #EDCD1E",
"9. c #F1CE10",
"0. c #F2CE1E",
"q. c #F6D215",
"w. c #F4D11F",
"e. c #F9D61E",
"r. c #F7DD1D",
"t. c #FCDB1E",
"y. c #FFE217",
"u. c #FCE31D",
"i. c #FFEA1F",
"p. c #F5D220",
"a. c #F8D520",
"s. c #FCDC20",
"d. c #FFE421",
"f. c #FEE921",
"g. c #FFF020",
"h. c #9C8550",
"j. c #938275",
"k. c #93827F",
"l. c #998879",
"z. c None",
/* pixels */
"z.z.z.z.z.z.z.z.z.z.z.z.z.z.z.z.z.z.z.z.z.z.z.z.z.z.z.z.z.z.z.z.z.z.z.z.z.z.z.z.",
"z.z.z.z.z.z.z.z.z.z.z.z.z.z.z.z.z.z.z.z.z.z.z.z.z.z.z.z.z.z.z.z.z.z.z.z.z.z.z.z.",
"z.z.z.z.z.z.z.z.z.z.z.z.z.z.z.z.z.z.z.z.b n g z.z.z.z.z.z.z.z.z.z.z.z.z.z.z.z.z.",
"z.z.z.z.z.z.z.z.z.z.z.z.z.z.z.z.z.z.z.z.k Z +.r + z.z.z.z.z.z.z.z.z.z.z.z.z.z.z.",
"z.z.z.z.z.z.z.z.z.z.z.z.z.z.z.z.z.z.z.z.k.{ y.6.o.w - z.z.z.z.z.z.z.z.z.z.z.z.z.",
"z.z.z.z.z.z.z.z.z.z.z.z.z.z.z.z.z.z.z.z.z.H t.t.t.1.O.q f z.z.z.z.z.z.z.z.z.z.z.",
"z.z.z.z.z.z.z.z.z.z.z.z.z.z.z.z.z.z.z.z.z.Y e.e.s.t.t.=.P d z.z.z.z.z.z.z.z.z.z.",
"z.z.z.z.z.z.z.z.z.z.z.z.z.z.z.z.z.z.z.z.z.Q 6.e.0.a.e.t.7.L = z.z.z.z.z.z.z.z.z.",
"z.z.z.z.z.z.z.z.z.z.z.z.z.z.z.z.z.z.z.z.z.m -.t.p.w.0.a.t.w.} 8 d z.z.z.z.z.z.z.",
"z.z.z.z.z.z.z.z.z.z.z.z.z.z.z.z.z.z.z.! h.U 6.t.w.w.w.w.p.t.a.&.3 b z.z.z.z.z.z.",
"z.z.z.z.z.z.z.z.z.z.z.z.z.z.z.j.W ..' <.5.0.s.w.w.w.p.w.w.w.s.d.<.4 & z.z.z.z.z.",
"z.z.z.z.z.z.z.z.z.z.z.z.z.j P ` >.5.r.r.e.e.8.w.w.w.0.p.w.w.w.w.t.<.4 f z.z.z.z.",
"z.z.z.z.z.z.z.z.z.z.z.z T { $.r.t.e.e.w.w.0.p.w.w.w.p.w.w.w.w.w.e.r.<.2 a z.z.z.",
"z.z.z.z.z.z.z.z.z.v u A 0.q.s.s.w.w.w.w.w.w.p.w.w.p.0.w.w.w.w.w.p.p.f.8.1 = z.z.",
"z.z.z.z.z.z.z.z.z 3 ,.9.t.s.p.0.w.w.w.w.w.w.0.w.w.w.w.w.w.p.w.w.a.a.u.4.D   d z.",
"z.z.z.z.z.z.z.h G :.i.s.e.0.w.w.w.w.w.w.w.w.p.p.w.w.w.w.w.w.w.w.s.0.[ 3 9 h z.z.",
"z.z.z.z.z.z.g D 6.a.s.0.0.w.w.p.w.w.w.w.e.w.e.w.w.w.w.p.w.p.a.d.6.2 @ l z.z.z.z.",
"z.z.z.z.z.s G >.i.p.0.w.p.w.w.0.w.w.p.a.e.w.,.0.p.w.w.w.0.f.d.) < ; V z.z.z.z.z.",
"z.z.z.z.M 1 1.t.w.w.w.w.w.p.w.w.w.0.a.e.t.X.t 3.w.0.0.t.d.6.H . N z.z.z.z.z.z.z.",
"z.z.z.z.q *.e.s.w.w.w.w.w.w.p.w.0.t.i.#.R z.C +.0.e.s.d.&.> j / z.z.z.z.z.z.z.z.",
"z.z.z.y ' r.r.0.w.w.w.w.w.w.w.0.s.r.-.1 z.z.z.| t.f.q.[ e f z.z.z.z.z.z.z.z.z.z.",
"z.z.%  .0.r.0.p.w.w.w.w.w.p.p.e.d.%.I ( z.z.z.2.y.8._ 7 B z.z.z.z.z.z.z.z.z.z.z.",
"z.z.# [ g.u.0.w.p.p.w.w.w.0.e.t.:.3 c z.z.z.^ ` 9.K i z.z.z.z.z.z.z.z.z.z.z.z.z.",
"z.z.x 3 { e.d.a.0.0.w.w.w.p.t.0.G z z.z.z.z.l.S | g z.z.z.z.z.z.z.z.z.z.z.z.z.z.",
"z.z.z.v u K 7.d.0.0.p.w.0.a.s.} 5 z.z.z.z.z.z.: E z.z.z.z.z.z.z.z.z.z.z.z.z.z.z.",
"z.z.z.z.z.6 F 1.i.e.w.w.p.t.<.0 & z.z.z.z.z.~ f z.z.z.z.z.z.z.z.z.z.z.z.z.z.z.z.",
"z.z.z.z.z.z.x , *.t.t.p.e.r.J ; z.z.z.z.z.z.z.z.z.z.z.z.z.z.z.z.z.z.z.z.z.z.z.z.",
"z.z.z.z.z.z.z.b 7 ` 7.s.s.;.@ h z.z.z.z.z.z.z.z.z.z.z.z.z.z.z.z.z.z.z.z.z.z.z.z.",
"z.z.z.z.z.z.z.z.z.$ P 1.u.D ; z.z.z.z.z.z.z.z.z.z.z.z.z.z.z.z.z.z.z.z.z.z.z.z.z.",
"z.z.z.z.z.z.z.z.z.z.p 1 } X h z.z.z.z.z.z.z.z.z.z.z.z.z.z.z.z.z.z.z.z.z.z.z.z.z.",
"z.z.z.z.z.z.z.z.z.z.z.z O o z.z.z.z.z.z.z.z.z.z.z.z.z.z.z.z.z.z.z.z.z.z.z.z.z.z.",
"z.z.z.z.z.z.z.z.z.z.z.z.d g z.z.z.z.z.z.z.z.z.z.z.z.z.z.z.z.z.z.z.z.z.z.z.z.z.z.",
"z.z.z.z.z.z.z.z.z.z.z.z.z.z.z.z.z.z.z.z.z.z.z.z.z.z.z.z.z.z.z.z.z.z.z.z.z.z.z.z."
};
