/* XPM */
static xpm_row_t const taskWarning_xpm[] = {
/* columns rows colors chars-per-pixel */
"28 26 118 2 ",
"   c #010101",
".  c #080603",
"X  c #0C0A05",
"o  c #0B0A0A",
"O  c #120D06",
"+  c #171005",
"@  c #181206",
"#  c #12110D",
"$  c #141414",
"%  c #181817",
"&  c #1B1B1C",
"*  c #231C0B",
"=  c #201C12",
"-  c #2D230B",
";  c #33270D",
":  c #36290D",
">  c #272012",
",  c #23211B",
"<  c #312817",
"1  c #242424",
"2  c #2C2C2C",
"3  c #3E3523",
"4  c #343434",
"5  c #3D3D3D",
"6  c #463611",
"7  c #4F3E14",
"8  c #4B3C19",
"9  c #413A2A",
"0  c #5B4516",
"q  c #624C18",
"w  c #71571A",
"e  c #745A1B",
"r  c #785E1D",
"t  c #7C601E",
"y  c #5B4D29",
"u  c #625534",
"i  c #675834",
"p  c #75683F",
"a  c #373C47",
"s  c #434343",
"d  c #4B4B4B",
"f  c #555555",
"g  c #5A5959",
"h  c #696868",
"j  c #77756E",
"k  c #7B7871",
"l  c #7E7D7A",
"z  c #80611E",
"x  c #8E6D21",
"c  c #906E21",
"v  c #947222",
"b  c #9A7623",
"n  c #9C7824",
"m  c #A47D25",
"M  c #8A784A",
"N  c #877A53",
"B  c #847A59",
"V  c #A98227",
"C  c #AC8429",
"Z  c #BA922C",
"A  c #BD9433",
"S  c #C5942C",
"D  c #D19E2F",
"F  c #D39F30",
"G  c #D9A330",
"H  c #DFAA34",
"J  c #DFB13C",
"K  c #FDBB2C",
"L  c #E1AC32",
"P  c #E5B033",
"I  c #EDB535",
"U  c #EEB836",
"Y  c #F1BA36",
"T  c #FDBE36",
"R  c #FFC32E",
"E  c #FFC236",
"W  c #FFC539",
"Q  c #FFCB3A",
"!  c #FFD13C",
"~  c #978144",
"^  c #908157",
"/  c #90825A",
"(  c #9C8B5C",
")  c #B49C52",
"_  c #9C8B61",
"`  c #908669",
"'  c #8C877C",
"]  c #AB9A6B",
"[  c #A1997D",
"{  c #BEA76A",
"}  c #B2A47B",
"|  c #F2BF49",
" . c #C4AD73",
".. c #D1BC7F",
"X. c #FFC744",
"o. c #FFCC44",
"O. c #FFCC48",
"+. c #FFD14C",
"@. c #FFD254",
"#. c #FFD55A",
"$. c #F1C966",
"%. c #FFD764",
"&. c #FFD965",
"*. c #FFDC6C",
"=. c #FFDD73",
"-. c #FFE179",
";. c #ADA792",
":. c #C3B58D",
">. c #D1C598",
",. c #EFD78F",
"<. c #F7DC8F",
"1. c #FBDB8E",
"2. c #FFE385",
"3. c #FFE88E",
"4. c #FBE197",
"5. c #FAE19A",
"6. c #D2C8A1",
"7. c None",
/* pixels */
"7.7.7.7.7.7.7.7.7.7.7.7.7.7.7.7.7.7.7.7.7.7.7.7.7.7.7.7.",
"7.7.7.7.7.7.7.7.7.7.7.7.1 o $ s 7.7.7.7.7.7.7.7.7.7.7.7.",
"7.7.7.7.7.7.7.7.7.h #             & 7.7.7.7.7.7.7.7.7.7.",
"7.7.7.7.7.7.7.7.1     > p ( ^ y +     5 7.7.7.7.7.7.7.7.",
"7.7.7.7.7.7.7.$   + N ,.-.%.*.%.P w .   1 7.7.7.7.7.7.7.",
"7.7.7.7.7.7.$   , :.2.X.K R R E W Q V #   1 7.7.7.7.7.7.",
"7.7.7.7.7.1   , >.*.K K E L S Y T T ! Z O   5 7.7.7.7.7.",
"7.7.7.7.g   # :.&.K T O. .%   6 U W T Q V .   7.7.7.7.7.",
"7.7.7.7.    ` -.K E K *.l       D W T T Q w   o 7.7.7.7.",
"7.7.7.4   9 4.E T T T =.j     . G W T T W U -   d 7.7.7.",
"7.7.7.. . } %.K T T K =.k     X G W T T T Q m   o 7.7.7.",
"7.7.f   3 <.E T T T K *.'     @ H W T T T W Y <   f 7.7.",
"7.7.&   ^ -.K T T T K #.;.    ; U E T T T T Q b   $ 7.7.",
"7.7.  X :.@.K E T T T o.6.&   0 E W T T T T W L O   7.7.",
"7.7.  < 1.W T T T T T T 5.a   x Q T T T T T T W 6   f 7.",
"7.s   u 2.K T T T T T K &.] 0 P W T T T E T T Q e   2 7.",
"7.&   N =.K T T T T T T E A t L E T T T E T T Q b   $ 7.",
"7.o   _ *.K T T T T T O.{ #   ; U E T T T T T Q V   . 7.",
"7.&   M 2.K T T T T K @.[     X H W T T T T T Q n   # 7.",
"7.s   8 3.X.K T T T T E $.i * b E E T T T T E Q q   2 7.",
"7.7.  . ~ 1.o.E E T T T T W T W T T T T E Q Q C O   7.7.",
"7.7.5     y ) X.E Q Q Q Q Q Q Q Q Q Q Q Y A q .   1 7.7.",
"7.7.7.s       % 7 r c m V C C m b x r q - .     4 7.7.7.",
"7.7.7.7.7.5 o                               4 7.7.7.7.7.",
"7.7.7.7.7.7.7.7.s 2 $ o .   . o o % , 2 7.7.7.7.7.7.7.7.",
"7.7.7.7.7.7.7.7.7.7.7.7.7.7.7.7.7.7.7.7.7.7.7.7.7.7.7.7."
};
