/* XPM */
static xpm_row_t const taskArrow_xpm[] = {
/* columns rows colors chars-per-pixel */
"33 34 179 2 ",
"   c None",
".  c #FFCC00",
"X  c #FFCD00",
"o  c #FECE00",
"O  c #FFCE00",
"+  c #FFCF00",
"@  c #FFCF01",
"#  c #FFCF03",
"$  c #FFD000",
"%  c #FFD100",
"&  c #FFD001",
"*  c #FFD101",
"=  c #FFD201",
"-  c #FFD102",
";  c #FFD003",
":  c #FFD004",
">  c #FFD005",
",  c #FFD105",
"<  c #FFD006",
"1  c #FFD107",
"2  c #FFD108",
"3  c #FFD109",
"4  c #FFD208",
"5  c #FFD10A",
"6  c #FFD10B",
"7  c #FFD20A",
"8  c #FFD20B",
"9  c #FFD10D",
"0  c #FFD20C",
"q  c #FFD310",
"w  c #FFD313",
"e  c #FFD411",
"r  c #FFD413",
"t  c #FFD417",
"y  c #FFD518",
"u  c #FFD619",
"i  c #FED41A",
"p  c #FED41B",
"a  c #FED51B",
"s  c #FFD620",
"d  c #FFD623",
"f  c #FED725",
"g  c #FED823",
"h  c #FED72D",
"j  c #FED828",
"k  c #FED82B",
"l  c #FFD82B",
"z  c #FED82E",
"x  c #FDD732",
"c  c #FED932",
"v  c #FEDB34",
"b  c #FEDB37",
"n  c #FDDC35",
"m  c #FEDB38",
"M  c #FEDC38",
"N  c #FFDC39",
"B  c #FFDC3D",
"V  c #FEDD3D",
"C  c #FFDC3E",
"Z  c #FDDC41",
"A  c #FFDF43",
"S  c #FDDD44",
"D  c #FFDD45",
"F  c #FDDF45",
"G  c #FFDF45",
"H  c #FDDD47",
"J  c #FDDE48",
"K  c #FEDF49",
"L  c #FDDE4D",
"P  c #FEDF4F",
"I  c #FEE14D",
"U  c #FEE04E",
"Y  c #FFE14F",
"T  c #FEE252",
"R  c #FDE156",
"E  c #FFE156",
"W  c #FDE158",
"Q  c #FEE258",
"!  c #FFE35B",
"~  c #FDE25D",
"^  c #FEE25C",
"/  c #FEE35F",
"(  c #FFE65D",
")  c #FCE160",
"_  c #FEE360",
"`  c #FEE561",
"'  c #FEE567",
"]  c #FEE767",
"[  c #FDE469",
"{  c #FEE669",
"}  c #FCE56A",
"|  c #FEE96D",
" . c #FDE86E",
".. c #FEE770",
"X. c #FEE971",
"o. c #FEE972",
"O. c #FFEB72",
"+. c #FEE974",
"@. c #FEE875",
"#. c #FEEA74",
"$. c #FDE977",
"%. c #FDEA78",
"&. c #FEEA7A",
"*. c #FFEC78",
"=. c #FFED7B",
"-. c #FEEB7C",
";. c #FEEB7F",
":. c #FCEB81",
">. c #FDEA83",
",. c #FDEC80",
"<. c #FEEE83",
"1. c #FDED85",
"2. c #FFEE85",
"3. c #FCEC87",
"4. c #FEED86",
"5. c #FEEE87",
"6. c #FCED89",
"7. c #FEEE89",
"8. c #FEEE8C",
"9. c #FCEC8E",
"0. c #FFF08F",
"q. c #FDEF90",
"w. c #FCEF96",
"e. c #FEF192",
"r. c #FFF195",
"t. c #FFF298",
"y. c #FEF19A",
"u. c #FEF39A",
"i. c #FEF39C",
"p. c #FFF59C",
"a. c #FEF49D",
"s. c #FCF2A0",
"d. c #FEF2A0",
"f. c #FEF5A0",
"g. c #FFF5A1",
"h. c #FEF5A3",
"j. c #FFF7A2",
"k. c #FFF6A4",
"l. c #FEF7A5",
"z. c #FDF5A7",
"x. c #FEF6A6",
"c. c #FFF8A7",
"v. c #FEF7A8",
"b. c #FEF7AB",
"n. c #FEF7AF",
"m. c #FFF8A9",
"M. c #FEF8AA",
"N. c #FEF9AD",
"B. c #FFF9AD",
"V. c #FEF9AE",
"C. c #FEF9B0",
"Z. c #FEFAB0",
"A. c #FEF9B2",
"S. c #FEFAB2",
"D. c #FEFBB3",
"F. c #FFFCB2",
"G. c #FFF9B4",
"H. c #FFFAB4",
"J. c #FFFBB4",
"K. c #FFFBB6",
"L. c #FEFBB7",
"P. c #FFFCB6",
"I. c #FDF9B8",
"U. c #FEFAB9",
"Y. c #FDFBBB",
"T. c #FFFCB8",
"R. c #FFFDB8",
"E. c #FFFDB9",
"W. c #FFFEB9",
"Q. c #FFFDBA",
"!. c #FFFDBB",
"~. c #FFFEBB",
"^. c #FFFCBC",
"/. c #FFFCBD",
"(. c #FFFEBC",
"). c #FFFEBD",
"_. c #FFFFBD",
"`. c #FFFFBE",
"'. c #FFFEC1",
/* pixels */
"                                                                  ",
"                                    6.} J.                        ",
"                                    9.i ^ j.'.                    ",
"                                `.`.<.- - I 1.J.'.                ",
"                              `.`.Q.O.- - + s @.j.P.`.            ",
"                          `.Z.M.j.1.H + - - + + c 9.c.Q.          ",
"                      `.P.b.:.S < - - - - - - - + - / l.P.`.      ",
"                    `.J.$.s < - - - - - - - - - - - < i ;.N.`.    ",
"                  `.w.H q + - - - - - - - - - - - - - + t H 3.l.  ",
"              `.J.$.j + - - - - - - - - - - - - - - - - - + h 3.  ",
"            `.Z. .7 + - - - - - - - - - - - - - - - - + + x [ 9.  ",
"            Z.$.- + - - - - - - - + + - - - - - - - + i ) i.`.    ",
"          Q.1.< + - - - - - + + 7 9 9 - - - - - - 7 f &.Y.`.      ",
"        `.u.v + - - - + - + + f E o.T - - - - + 9 ) n.Q.`.        ",
"        Q.o.< - - - - + + E s.I.Z.F.*.- + + + j u.Y.`.            ",
"      `.i.m + - - + . E r.j.`.`.`.`.=.- + 7 [ i.Q.`.              ",
"      Q./ 7 - - + # ' J.`.`.      Q./ = H 9.Z.`.                  ",
"      l.n - - - 9 &.Y.`.             .U u.`.                      ",
"    `.1.g - + < ! '.`.                                            ",
"    `.] t + - B Z.`.                                              ",
"    `.U e + i ;.`.                                                ",
"    `.N 7 + I N.`.                                                ",
"    `.m # 7 $.`.                                                  ",
"    `.N - z e.`.                                                  ",
"    `.B - L a.`.                                                  ",
"    `.E < U c.                                                    ",
"      o.< L N.                                                    ",
"      6.e I M.                                                    ",
"      M.j B a.                                                    ",
"        ! B -.                                                    ",
"        1.L ^                                                     ",
"          ^ E                                                     ",
"                                                                  ",
"                                                                  "
};
