/* XPM */
static xpm_row_t const projectile_anim1_xpm[] = {
/* columns rows colors chars-per-pixel */
"10 10 2 1 ",
"  c #ECFFA8",
". c None",
/* pixels */
"..........",
"...    ...",
"..      ..",
".        .",
".        .",
".        .",
".        .",
"..      ..",
"...    ...",
".........."
};
